<svg width="79" height="111" viewBox="0 0 79 111" fill="none" xmlns="http://www.w3.org/2000/svg">
<g clip-path="url(#clip0_3331_1102)">
<path d="M7.57071 101.534L0.453125 21.6993H78.6652L71.5399 101.521L39.5112 110.401L7.57071 101.534Z" fill="#FBF8F3"/>
<path d="M39.5599 57.8363H26.6034L25.7085 47.8098H39.5599V38.0183H15.0078L15.2422 40.6452L17.6487 67.6275H39.5599V57.8363ZM39.5599 83.2655L39.5172 83.277L28.6123 80.3325L27.9152 72.5234H18.0862L19.458 87.8972L39.5149 93.4652L39.5599 93.4527V83.2655Z" fill="#0E0C16"/>
<path d="M7.72656 0.00427246H12.7024V4.92038H17.2541V0.00427246H22.2302V14.8915H17.2543V9.90636H12.7026V14.8915H7.72699V0.00427246H7.72656ZM28.7736 4.94108H24.3933V0.00427246H38.1325V4.94108H33.75V14.8915H28.774L28.7736 4.94108ZM40.3128 0.00427246H45.5011L48.6927 5.23519L51.8812 0.00427246H57.0716V14.8915H52.1163V7.51256L48.6929 12.8058H48.6075L45.1815 7.51256V14.8915H40.3131V0.00427246H40.3128ZM59.548 0.00427246H64.5253V9.97061H71.5228V14.8915H59.548V0.00427246Z" fill="#FBF8F3"/>
<path d="M39.5234 57.8363V67.6275H51.5802L50.4437 80.3262L39.5234 83.2737V93.4604L59.5961 87.8972L59.7433 86.243L62.0442 60.4655L62.2831 57.8363H59.6446H39.5234ZM39.5234 38.0183V47.8098H63.174L63.3705 45.609L63.8166 40.6452L64.0507 38.0183H39.5234Z" fill="#0E0C16"/>
</g>
<defs>
<clipPath id="clip0_3331_1102">
<rect width="78.2121" height="110.407" fill="white" transform="translate(0.453125 -0.000488281)"/>
</clipPath>
</defs>
</svg>
