<svg width="144" height="89" viewBox="0 0 144 89" fill="none" xmlns="http://www.w3.org/2000/svg">
<path d="M71.1876 88.12C70.6999 88.12 70.2445 87.9899 69.8215 87.7622L65.4953 85.1926C64.8446 84.8346 65.17 84.7046 65.3653 84.6396C66.2434 84.3469 66.4061 84.2816 67.3169 83.7614C67.4145 83.6961 67.5448 83.7288 67.6422 83.7938L70.9602 85.778C71.0903 85.843 71.2529 85.843 71.3503 85.778L84.3294 78.2639C84.4594 78.1989 84.5247 78.0686 84.5247 77.9062V62.9105C84.5247 62.7476 84.4594 62.6178 84.3294 62.5525L71.3503 55.0711C71.2203 55.0058 71.0576 55.0058 70.9602 55.0711L57.9812 62.5525C57.8512 62.6176 57.7859 62.7802 57.7859 62.9103V77.9059C57.7859 78.0362 57.8512 78.1986 57.9812 78.2639L61.5269 80.3131C63.4461 81.2889 64.6496 80.1504 64.6496 79.012V64.2114C64.6496 64.0164 64.8122 63.821 65.0399 63.821H66.6988C66.8941 63.821 67.0892 63.9837 67.0892 64.2114V79.012C67.0892 81.5816 65.6904 83.0781 63.2508 83.0781C62.5027 83.0781 61.9173 83.0781 60.2581 82.2647L56.8427 80.3131C55.997 79.8254 55.4766 78.9143 55.4766 77.9385V62.9429C55.4766 61.9671 55.997 61.0561 56.8427 60.5683L69.8215 53.0542C70.6349 52.5988 71.741 52.5988 72.5541 53.0542L85.5328 60.5683C86.3786 61.0561 86.8993 61.9671 86.8993 62.9429V77.9385C86.8993 78.9143 86.3786 79.8254 85.5328 80.3131L72.5541 87.8273C72.1311 88.0226 71.643 88.12 71.1876 88.12ZM75.1887 77.8085C69.4964 77.8085 68.3253 75.2062 68.3253 72.9943C68.3253 72.799 68.488 72.6039 68.7157 72.6039H70.4072C70.6022 72.6039 70.7649 72.734 70.7649 72.9293C71.0252 74.6532 71.7733 75.4989 75.2214 75.4989C77.9537 75.4989 79.1251 74.8809 79.1251 73.4171C79.1251 72.5713 78.7994 71.9535 74.5383 71.5305C70.9926 71.1725 68.7807 70.392 68.7807 67.5621C68.7807 64.9271 70.9929 63.3657 74.701 63.3657C78.8644 63.3657 80.914 64.7971 81.1743 67.9195C81.1743 68.0174 81.1417 68.1148 81.0766 68.2125C81.0113 68.2775 80.914 68.3425 80.8163 68.3425H79.1248C78.9621 68.3425 78.7994 68.2125 78.7671 68.0498C78.3767 66.2609 77.3683 65.6752 74.701 65.6752C71.7083 65.6752 71.3503 66.7163 71.3503 67.4968C71.3503 68.4402 71.7733 68.7329 75.8068 69.2533C79.8079 69.774 81.6947 70.5221 81.6947 73.3194C81.6621 76.182 79.3201 77.8085 75.1887 77.8085Z" fill="#FBF8F3"/>
<path d="M30.9179 29.4712C30.9179 28.8858 30.5926 28.3325 30.0722 28.0398L16.28 20.1029C16.0521 19.9726 15.792 19.9076 15.5319 19.8749H15.4016C15.1416 19.8749 14.8812 19.9726 14.6535 20.1029L0.861381 28.0398C0.340699 28.3325 0.015625 28.8855 0.015625 29.4712L0.0482731 50.8099C0.0482731 51.1026 0.210951 51.3953 0.47101 51.5256C0.731351 51.6883 1.05642 51.6883 1.2844 51.5256L9.48161 46.8414C10.002 46.5487 10.3274 45.9957 10.3274 45.4102V35.4239C10.3274 34.8384 10.6524 34.2854 11.1731 33.9927L14.6535 31.9758C14.9139 31.8131 15.2066 31.7479 15.4993 31.7479C15.792 31.7479 16.0847 31.8131 16.3127 31.9758L19.7931 33.9927C20.3138 34.2854 20.6388 34.8382 20.6388 35.4239V45.4102C20.6388 45.9957 20.9642 46.5487 21.4846 46.8414L29.6818 51.5256C29.9421 51.6883 30.2672 51.6883 30.5276 51.5256C30.7879 51.3953 30.9506 51.1026 30.9506 50.8099L30.9179 29.4712ZM97.2114 0.0977333C96.9513 -0.0325778 96.626 -0.0325778 96.398 0.0977333C96.1379 0.260411 95.9753 0.52047 95.9753 0.813178V21.9571C95.9753 22.1521 95.8779 22.3472 95.6825 22.4775C95.4875 22.5748 95.2922 22.5748 95.0971 22.4775L91.6491 20.4932C91.3963 20.3493 91.1104 20.2736 90.8195 20.2736C90.5286 20.2736 90.2427 20.3493 89.9899 20.4932L76.1978 28.4628C75.6774 28.7555 75.352 29.3085 75.352 29.8939V45.8003C75.352 46.3857 75.6774 46.9391 76.1978 47.2318L89.9899 55.2013C90.2427 55.3452 90.5286 55.4209 90.8195 55.4209C91.1104 55.4209 91.3963 55.3452 91.6491 55.2013L105.441 47.2318C105.962 46.9391 106.287 46.386 106.287 45.8003V6.14805C106.287 5.52999 105.962 4.97722 105.441 4.68423L97.2114 0.0977333ZM95.9429 40.5634C95.9429 40.7261 95.8779 40.8561 95.7476 40.9211L91.031 43.6534C90.9651 43.6856 90.8928 43.7023 90.8195 43.7023C90.7462 43.7023 90.6739 43.6856 90.608 43.6534L85.8915 40.9211C85.7612 40.8561 85.6962 40.6934 85.6962 40.5634V35.0985C85.6962 34.9358 85.7612 34.8058 85.8915 34.7408L90.608 32.0082C90.6739 31.9761 90.7462 31.9593 90.8195 31.9593C90.8928 31.9593 90.9651 31.9761 91.031 32.0082L95.7476 34.7408C95.8779 34.8055 95.9429 34.9685 95.9429 35.0985V40.5634ZM143.109 34.9685C143.63 34.6758 143.923 34.1227 143.923 33.537V29.6662C143.923 29.0808 143.597 28.5278 143.109 28.2351L129.415 20.2982C129.162 20.1543 128.876 20.0787 128.585 20.0787C128.295 20.0787 128.009 20.1543 127.756 20.2982L113.964 28.2674C113.443 28.5602 113.118 29.1132 113.118 29.6989V45.6053C113.118 46.1907 113.443 46.7438 113.964 47.0365L127.658 54.8433C128.179 55.136 128.797 55.136 129.285 54.8433L137.579 50.2247C137.84 50.0944 138.002 49.8017 138.002 49.509C138.002 49.2163 137.84 48.9236 137.579 48.7933L123.722 40.8237C123.462 40.6614 123.299 40.401 123.299 40.1083V35.1314C123.299 34.8387 123.462 34.546 123.722 34.4157L128.049 31.9435C128.175 31.8638 128.322 31.8215 128.472 31.8215C128.621 31.8215 128.768 31.8638 128.894 31.9435L133.221 34.4157C133.481 34.5784 133.644 34.8384 133.644 35.1314V39.0349C133.644 39.3276 133.806 39.6203 134.066 39.7503C134.327 39.913 134.652 39.913 134.912 39.7503L143.109 34.9685Z" fill="#FBF8F3"/>
<path d="M128.376 34.2201C128.424 34.1883 128.48 34.1714 128.538 34.1714C128.596 34.1714 128.653 34.1883 128.701 34.2201L131.336 35.7489C131.433 35.8137 131.498 35.9113 131.498 36.0416V39.0993C131.498 39.2293 131.433 39.327 131.336 39.392L128.701 40.9208C128.653 40.9526 128.596 40.9696 128.538 40.9696C128.48 40.9696 128.424 40.9526 128.376 40.9208L125.741 39.392C125.643 39.327 125.578 39.2293 125.578 39.0993V36.0416C125.578 35.9113 125.643 35.8137 125.741 35.7489L128.376 34.2201Z" fill="#FBF8F3"/>
<path d="M53.9792 20.3628C53.7265 20.219 53.4406 20.1433 53.1498 20.1433C52.859 20.1433 52.5731 20.219 52.3204 20.3628L38.6259 28.2668C38.1052 28.5595 37.8125 29.1125 37.8125 29.698V45.5396C37.8125 46.125 38.1379 46.6781 38.6259 46.9708L52.3204 54.8753C52.5731 55.0192 52.859 55.0948 53.1498 55.0948C53.4406 55.0948 53.7265 55.0192 53.9792 54.8753L67.674 46.9708C68.1944 46.6781 68.4874 46.125 68.4874 45.5396V29.6982C68.4874 29.1128 68.1618 28.5598 67.674 28.2671L53.9792 20.3628Z" fill="#FBF8F3"/>
</svg>
