<svg width="86" height="93" viewBox="0 0 86 93" fill="none" xmlns="http://www.w3.org/2000/svg">
<path d="M84.2661 37.0639C84.2661 31.5511 77.3624 26.3267 66.7775 23.0868C69.2202 12.2985 68.1347 3.71535 63.3509 0.967371C62.2483 0.322782 60.9594 0.0174428 59.5514 0.0174428V3.80016C60.3316 3.80016 60.9594 3.95283 61.4851 4.24118C63.792 5.56427 64.793 10.6022 64.0124 17.082C63.8262 18.6765 63.5208 20.3558 63.1476 22.069C59.8226 21.2548 56.1927 20.6272 52.3761 20.2201C50.0863 17.082 47.7115 14.2322 45.3196 11.7387C50.8494 6.59901 56.0402 3.78317 59.5685 3.78317V0.000488281C54.9034 0.000488281 48.797 3.3252 42.6227 9.09251C36.448 3.35911 30.3416 0.0683457 25.677 0.0683457V3.85103C29.1882 3.85103 34.3956 6.64991 39.9255 11.7557C37.5507 14.2492 35.1759 17.082 32.9198 20.2201C29.0861 20.6272 25.4562 21.2548 22.1316 22.086C21.7413 20.3897 21.453 18.7443 21.2493 17.1668C20.4524 10.687 21.436 5.64908 23.7262 4.30903C24.2348 4.0037 24.8963 3.86802 25.677 3.86802V0.0853003C24.2519 0.0853003 22.9627 0.39064 21.8433 1.03523C17.0766 3.78317 16.0081 12.3494 18.4675 23.1038C7.91678 26.3606 1.04688 31.5682 1.04688 37.0639C1.04688 42.5771 7.95069 47.8017 18.5354 51.0413C16.0927 61.8298 17.1783 70.4127 21.9621 73.1608C23.0647 73.8052 24.3536 74.1105 25.7786 74.1105C30.4433 74.1105 36.5501 70.7859 42.7244 65.0186C48.8987 70.7522 55.0055 74.043 59.6701 74.043C61.0948 74.043 62.3841 73.7377 63.5038 73.0929C68.2701 70.3448 69.339 61.7786 66.8792 51.0246C77.3961 47.7846 84.2661 42.5601 84.2661 37.0639ZM62.1808 25.7499C61.553 27.9383 60.7728 30.194 59.8905 32.4501C59.1953 31.0933 58.4659 29.7362 57.6686 28.379C56.8883 27.0222 56.0569 25.6991 55.2258 24.4099C57.6344 24.7661 59.9584 25.2071 62.1808 25.7499ZM54.4115 43.8152C53.0885 46.1054 51.7317 48.2765 50.3237 50.2952C47.796 50.5156 45.235 50.6343 42.6565 50.6343C40.095 50.6343 37.5336 50.5156 35.0234 50.3119C33.6154 48.2932 32.2412 46.1392 30.9182 43.866C29.6289 41.644 28.4588 39.3879 27.3899 37.1152C28.4417 34.842 29.6289 32.5688 30.9015 30.3469C32.2245 28.057 33.5813 25.8856 34.9892 23.8671C37.5169 23.6465 40.078 23.5278 42.6565 23.5278C45.2179 23.5278 47.7794 23.6465 50.2896 23.8501C51.6976 25.8687 53.0718 28.0229 54.3948 30.296C55.684 32.518 56.8542 34.7741 57.9231 37.0473C56.8542 39.32 55.684 41.5932 54.4115 43.8152ZM59.8905 41.6103C60.781 43.8209 61.5623 46.0739 62.2316 48.3611C60.0092 48.9039 57.6686 49.3621 55.2429 49.7183C56.074 48.4123 56.905 47.0723 57.6856 45.698C58.4659 44.3413 59.1953 42.967 59.8905 41.6103ZM42.6902 59.7095C41.1127 58.0808 39.5352 56.2658 37.9747 54.2813C39.5014 54.3492 41.0619 54.4 42.6394 54.4C44.234 54.4 45.8115 54.3663 47.3553 54.2813C45.8992 56.1734 44.3419 57.9855 42.6902 59.7095ZM30.07 49.7183C27.6615 49.3621 25.3375 48.921 23.1155 48.3782C23.7429 46.19 24.5235 43.9339 25.4054 41.6778C26.101 43.0349 26.8304 44.3921 27.6273 45.7489C28.4246 47.106 29.239 48.429 30.07 49.7183ZM42.6057 14.4188C44.1832 16.0472 45.7607 17.8623 47.3212 19.8469C45.7945 19.779 44.234 19.7282 42.6565 19.7282C41.0619 19.7282 39.4844 19.7621 37.941 19.8469C39.3969 17.9548 40.9541 16.1428 42.6057 14.4188ZM30.053 24.4099C29.2219 25.716 28.3909 27.0561 27.6106 28.4299C26.8304 29.787 26.101 31.1442 25.4054 32.5009C24.5149 30.2904 23.7337 28.0373 23.0647 25.7499C25.2866 25.2241 27.6273 24.7661 30.053 24.4099ZM14.7018 45.6472C8.69709 43.0858 4.8126 39.7274 4.8126 37.0639C4.8126 34.4009 8.69709 31.0254 14.7018 28.4811C16.1606 27.8533 17.7552 27.2935 19.4006 26.7677C20.3675 30.0923 21.6396 33.5527 23.2172 37.0981C21.6567 40.6264 20.4012 44.0697 19.4514 47.3776C17.7723 46.8515 16.1777 46.275 14.7018 45.6472ZM23.8278 69.887C21.5209 68.564 20.5199 63.5261 21.3005 57.046C21.4872 55.4518 21.7921 53.7723 22.1654 52.059C25.4903 52.8733 29.1203 53.5011 32.9368 53.9081C35.2267 57.046 37.6015 59.8957 39.9934 62.3893C34.4635 67.5292 29.2728 70.3448 25.7445 70.3448C24.9813 70.3281 24.3369 70.1753 23.8278 69.887ZM64.0636 56.9615C64.8605 63.4411 63.877 68.479 61.5868 69.8191C61.0781 70.1244 60.4166 70.2602 59.636 70.2602C56.1248 70.2602 50.9173 67.4613 45.3875 62.3555C47.7623 59.862 50.1371 57.0293 52.3932 53.891C56.2268 53.484 59.8568 52.8563 63.1814 52.0252C63.5717 53.7385 63.877 55.3839 64.0636 56.9615ZM70.5941 45.6472C69.1353 46.275 67.5407 46.8348 65.8953 47.3605C64.9284 44.0359 63.6562 40.5755 62.0787 37.0302C63.6396 33.5019 64.8947 30.0586 65.8444 26.7507C67.524 27.2766 69.1182 27.8533 70.6112 28.4811C76.6159 31.0421 80.5004 34.4009 80.5004 37.0639C80.4833 39.7274 76.5988 43.1028 70.5941 45.6472Z" fill="#FBF8F3"/>
<path d="M42.6371 44.816C46.9187 44.816 50.3893 41.3454 50.3893 37.0638C50.3893 32.7826 46.9187 29.312 42.6371 29.312C38.3559 29.312 34.8853 32.7826 34.8853 37.0638C34.8853 41.3454 38.3559 44.816 42.6371 44.816ZM4.82337 87.4577H2.2644V91.8649H0.820312V80.9705H4.42681C5.65389 80.9705 6.59669 81.25 7.25512 81.8088C7.91856 82.3671 8.2503 83.1803 8.2503 84.2477C8.2503 84.9263 8.06573 85.5172 7.69659 86.0213C7.33246 86.525 6.82366 86.9017 6.1702 87.1509L8.72917 91.775V91.8649H7.1878L4.82337 87.4577ZM2.2644 86.283H4.47172C5.18503 86.283 5.75118 86.0983 6.1702 85.7292C6.59418 85.3602 6.80618 84.8663 6.80618 84.2477C6.80618 83.5744 6.60416 83.0582 6.20013 82.699C5.80106 82.3398 5.22243 82.1577 4.46421 82.1528H2.2644V86.283ZM13.4133 92.0147C12.3157 92.0147 11.4228 91.6555 10.7344 90.9371C10.046 90.2138 9.70186 89.2484 9.70186 88.0415V87.787C9.70186 86.984 9.854 86.2682 10.1583 85.6397C10.4676 85.0059 10.8966 84.5121 11.4453 84.1582C11.999 83.799 12.5975 83.6192 13.241 83.6192C14.2936 83.6192 15.1118 83.9659 15.6952 84.6592C16.2789 85.3526 16.5706 86.3452 16.5706 87.6371V88.2133H11.0861C11.106 89.0117 11.338 89.6577 11.782 90.1516C12.2309 90.6401 12.7996 90.8847 13.488 90.8847C13.9769 90.8847 14.3907 90.785 14.7298 90.5855C15.0693 90.386 15.3659 90.1216 15.6204 89.7924L16.4659 90.4508C15.7873 91.4931 14.77 92.0147 13.4133 92.0147ZM13.241 84.7567C12.6823 84.7567 12.2135 84.9612 11.8343 85.37C11.4552 85.7744 11.2208 86.343 11.131 87.0762H15.1865V86.9715C15.1467 86.2682 14.957 85.7243 14.6179 85.3401C14.2785 84.9513 13.8195 84.7567 13.241 84.7567ZM23.1777 91.8649C23.0976 91.7052 23.0328 91.4211 22.9831 91.0118C22.3394 91.6801 21.5713 92.0147 20.6784 92.0147C19.8804 92.0147 19.2246 91.7901 18.7106 91.341C18.202 90.887 17.9475 90.3135 17.9475 89.6201C17.9475 88.7773 18.2668 88.1238 18.9052 87.6599C19.5485 87.1907 20.4516 86.9563 21.6138 86.9563H22.9607V86.3206C22.9607 85.8366 22.8158 85.4524 22.5268 85.1683C22.2374 84.8788 21.8107 84.7343 21.247 84.7343C20.7532 84.7343 20.3393 84.8587 20.0052 85.1083C19.671 85.3575 19.5037 85.6595 19.5037 86.0137H18.1121C18.1121 85.6098 18.2543 85.2206 18.5384 84.8462C18.8278 84.4673 19.217 84.168 19.7059 83.9484C20.1998 83.7292 20.7407 83.6192 21.3293 83.6192C22.2624 83.6192 22.993 83.8536 23.5217 84.3228C24.0505 84.7867 24.3247 85.4277 24.3448 86.2455V89.9718C24.3448 90.7152 24.4396 91.3062 24.6293 91.745V91.8649H23.1777ZM20.8806 90.81C21.3145 90.81 21.7261 90.6977 22.1152 90.4732C22.504 90.2487 22.7859 89.957 22.9607 89.5978V87.9368H21.8755C20.1797 87.9368 19.3315 88.4329 19.3315 89.4256C19.3315 89.8595 19.4764 90.199 19.7655 90.4432C20.0549 90.6875 20.4266 90.81 20.8806 90.81ZM29.762 90.8847C30.2559 90.8847 30.6875 90.7349 31.0566 90.4356C31.4256 90.1364 31.6301 89.7624 31.6699 89.3133H32.9796C32.9546 89.7772 32.7949 90.2187 32.5006 90.6378C32.2062 91.0569 31.8121 91.3911 31.3183 91.6403C30.8294 91.8899 30.3109 92.0147 29.762 92.0147C28.6598 92.0147 27.7817 91.6479 27.1281 90.9147C26.4799 90.1762 26.1556 89.1688 26.1556 87.8917V87.6599C26.1556 86.8717 26.3001 86.1708 26.5895 85.5574C26.8789 84.9437 27.2927 84.4673 27.8317 84.1282C28.3753 83.7887 29.0163 83.6192 29.7544 83.6192C30.6625 83.6192 31.4158 83.8911 32.0143 84.4351C32.6178 84.9786 32.9394 85.6845 32.9796 86.5523H31.6699C31.6301 86.0285 31.4306 85.5995 31.0714 85.2654C30.7175 84.9263 30.2782 84.7567 29.7544 84.7567C29.0512 84.7567 28.505 85.0108 28.1158 85.5199C27.732 86.0236 27.5397 86.7545 27.5397 87.7122V87.974C27.5397 88.9067 27.732 89.6251 28.1158 90.1288C28.5001 90.6329 29.0489 90.8847 29.762 90.8847ZM36.4139 81.8088V83.769H37.9254V84.839H36.4139V89.8595C36.4139 90.1838 36.4814 90.4281 36.616 90.5927C36.7507 90.7524 36.9802 90.8324 37.3045 90.8324C37.4638 90.8324 37.6834 90.8024 37.9626 90.7425V91.8649C37.5984 91.9646 37.2445 92.0147 36.9001 92.0147C36.2819 92.0147 35.8153 91.8273 35.5009 91.4533C35.1868 91.0793 35.0298 90.5479 35.0298 89.8595V84.839H33.5554V83.769H35.0298V81.8088H36.4139ZM51.9399 91.8649H50.4955L45.0112 83.4697V91.8649H43.5671V80.9705H45.0112L50.5107 89.4032V80.9705H51.9399V91.8649ZM59.2726 91.8649C59.1926 91.7052 59.1277 91.4211 59.078 91.0118C58.4343 91.6801 57.6662 92.0147 56.7734 92.0147C55.9753 92.0147 55.3191 91.7901 54.8055 91.341C54.2969 90.887 54.0424 90.3135 54.0424 89.6201C54.0424 88.7773 54.3614 88.1238 55.0001 87.6599C55.6434 87.1907 56.5465 86.9563 57.7087 86.9563H59.0556V86.3206C59.0556 85.8366 58.9107 85.4524 58.6213 85.1683C58.3323 84.8788 57.9056 84.7343 57.3419 84.7343C56.8481 84.7343 56.4343 84.8587 56.1001 85.1083C55.7659 85.3575 55.5987 85.6595 55.5987 86.0137H54.207C54.207 85.6098 54.3492 85.2206 54.6333 84.8462C54.9227 84.4673 55.3119 84.168 55.8008 83.9484C56.2947 83.7292 56.8356 83.6192 57.4242 83.6192C58.3569 83.6192 59.0879 83.8536 59.6166 84.3228C60.1454 84.7867 60.4196 85.4277 60.4397 86.2455V89.9718C60.4397 90.7152 60.5345 91.3062 60.7242 91.745V91.8649H59.2726ZM56.9755 90.81C57.4095 90.81 57.821 90.6977 58.2102 90.4732C58.5989 90.2487 58.8808 89.957 59.0556 89.5978V87.9368H57.9704C56.2746 87.9368 55.4264 88.4329 55.4264 89.4256C55.4264 89.8595 55.5713 90.199 55.8604 90.4432C56.1498 90.6875 56.5215 90.81 56.9755 90.81ZM64.4876 81.8088V83.769H65.9992V84.839H64.4876V89.8595C64.4876 90.1838 64.5551 90.4281 64.6898 90.5927C64.8245 90.7524 65.0539 90.8324 65.3782 90.8324C65.5375 90.8324 65.7572 90.8024 66.0367 90.7425V91.8649C65.6722 91.9646 65.3183 92.0147 64.9739 92.0147C64.3556 92.0147 63.8891 91.8273 63.5746 91.4533C63.2606 91.0793 63.1035 90.5479 63.1035 89.8595V84.839H61.6296V83.769H63.1035V81.8088H64.4876ZM69.1269 91.8649H67.7424V83.769H69.1269V91.8649ZM67.6302 81.6214C67.6302 81.3972 67.6977 81.2076 67.8323 81.0528C67.9719 80.8981 68.1764 80.8211 68.4457 80.8211C68.7153 80.8211 68.9198 80.8981 69.0594 81.0528C69.199 81.2076 69.2688 81.3972 69.2688 81.6214C69.2688 81.8459 69.199 82.0329 69.0594 82.1828C68.9198 82.3322 68.7153 82.4073 68.4457 82.4073C68.1764 82.4073 67.9719 82.3322 67.8323 82.1828C67.6977 82.0329 67.6302 81.8459 67.6302 81.6214ZM74.0203 89.9869L76.0253 83.769H77.4397L74.5365 91.8649H73.4813L70.5485 83.769H71.9626L74.0203 89.9869ZM82.0262 92.0147C80.9289 92.0147 80.036 91.6555 79.3476 90.9371C78.6592 90.2138 78.3151 89.2484 78.3151 88.0415V87.787C78.3151 86.984 78.4672 86.2682 78.7714 85.6397C79.0806 85.0059 79.5096 84.5121 80.0584 84.1582C80.6122 83.799 81.2107 83.6192 81.854 83.6192C82.9066 83.6192 83.7248 83.9659 84.3085 84.6592C84.8919 85.3526 85.1839 86.3452 85.1839 87.6371V88.2133H79.6992C79.7193 89.0117 79.9511 89.6577 80.3952 90.1516C80.844 90.6401 81.4129 90.8847 82.101 90.8847C82.5899 90.8847 83.0041 90.785 83.3432 90.5855C83.6823 90.386 83.9793 90.1216 84.2338 89.7924L85.0793 90.4508C84.4007 91.4931 83.383 92.0147 82.0262 92.0147ZM81.854 84.7567C81.2957 84.7567 80.8265 84.9612 80.4476 85.37C80.0683 85.7744 79.8339 86.343 79.7444 87.0762H83.7995V86.9715C83.7597 86.2682 83.57 85.7243 83.2309 85.3401C82.8918 84.9513 82.4329 84.7567 81.854 84.7567Z" fill="#FBF8F3"/>
</svg>
