<svg width="60" height="60" viewBox="0 0 60 60" fill="none" xmlns="http://www.w3.org/2000/svg">
<path d="M48.7345 29.486C48.7345 29.21 48.6243 28.9608 48.4479 28.7821C48.2709 28.604 48.0239 28.4927 47.7505 28.4927C47.4791 28.4927 47.2328 28.604 47.0551 28.7833C46.8775 28.9627 46.7666 29.2119 46.7666 29.486C46.7666 29.7601 46.8775 30.0094 47.0551 30.1887C47.2328 30.368 47.4791 30.4793 47.7505 30.4793C48.0239 30.4793 48.2709 30.368 48.4479 30.19C48.6243 30.0113 48.7345 29.762 48.7345 29.486ZM54 23.6089C54 24.3288 53.7102 24.9819 53.2435 25.4531C52.7761 25.9249 52.1291 26.2174 51.4161 26.2174C50.7068 26.2174 50.0605 25.9249 49.5924 25.4531C49.3033 25.1606 49.0828 24.8013 48.9556 24.4026H41.4576V28.6924H45.2888C45.4154 28.2911 45.6359 27.9319 45.9238 27.6412C46.3905 27.17 47.0375 26.8775 47.7505 26.8775C48.4611 26.8775 49.1068 27.17 49.5761 27.6431C50.0447 28.1169 50.3345 28.7687 50.3345 29.486C50.3345 30.2033 50.0447 30.8551 49.578 31.3276C49.1068 31.802 48.4611 32.0945 47.7505 32.0945C47.0375 32.0945 46.3905 31.802 45.9238 31.3308C45.6428 31.0472 45.4255 30.6974 45.2976 30.3076H41.4576V34.5974H48.9266C49.0532 34.1981 49.2737 33.8401 49.5603 33.5495C50.0315 33.0751 50.6772 32.7826 51.3877 32.7826C52.1008 32.7826 52.7477 33.0751 53.2151 33.5469C53.6819 34.0181 53.9717 34.6712 53.9717 35.3911C53.9717 36.1084 53.6819 36.7602 53.2151 37.2326C52.7439 37.707 52.0983 37.9996 51.3877 37.9996C50.6772 37.9996 50.0315 37.707 49.5635 37.2358C49.2813 36.9503 49.0639 36.6012 48.9354 36.2127H41.4576V38.4237C41.4576 39.1512 41.1635 39.8125 40.6898 40.2907C40.3805 40.603 39.9931 40.8382 39.5609 40.9635V46.6816C39.5609 46.9646 39.6762 47.2234 39.8614 47.4104C40.0466 47.5973 40.3036 47.7137 40.5833 47.7137H42.7055C42.8334 47.3207 43.0501 46.9684 43.3335 46.6816C43.806 46.2053 44.4523 45.9128 45.1616 45.9128C45.8746 45.9128 46.5216 46.2053 46.989 46.6772C47.4557 47.1484 47.7455 47.8015 47.7455 48.5213C47.7455 49.2386 47.4557 49.8904 46.9871 50.3642C46.5178 50.8373 45.8721 51.1298 45.1616 51.1298C44.4485 51.1298 43.8016 50.8373 43.3348 50.3661C43.0501 50.0786 42.8315 49.7244 42.7043 49.3289H40.5833C39.8614 49.3289 39.2044 49.0313 38.7301 48.5525C38.2557 48.0736 37.9609 47.411 37.9609 46.6816V41.0659H33.6592V47.9153C34.0454 48.0444 34.3918 48.2638 34.6728 48.5474C35.1395 49.0186 35.4293 49.6717 35.4293 50.3915C35.4293 51.1088 35.1395 51.7606 34.6728 52.2331C34.2016 52.7075 33.5559 53 32.8454 53C32.1342 53 31.4885 52.7075 31.0205 52.2363C30.5506 51.7606 30.2608 51.1088 30.2608 50.3915C30.2608 49.6717 30.5505 49.0186 31.018 48.5467C31.3052 48.2568 31.6617 48.0348 32.0592 47.9064V41.0659H27.8091V44.2448C28.1934 44.3745 28.5386 44.5927 28.8195 44.8756C29.2894 45.3513 29.5792 46.0031 29.5792 46.7204C29.5792 47.4377 29.2894 48.0895 28.8227 48.562C28.3515 49.0364 27.7058 49.3289 26.9953 49.3289C26.2847 49.3289 25.6391 49.0364 25.171 48.5652C24.7011 48.0895 24.4113 47.4377 24.4113 46.7204C24.4113 46.0006 24.7011 45.3475 25.1679 44.8763C25.4557 44.5857 25.8117 44.3631 26.2091 44.2353V41.0659H21.9597V46.6816C21.9597 47.411 21.6649 48.0736 21.1906 48.5525C20.7162 49.0313 20.0592 49.3289 19.3373 49.3289H17.2164C17.0891 49.7244 16.8706 50.0786 16.5858 50.3661C16.1191 50.8373 15.4721 51.1298 14.7591 51.1298C14.0485 51.1298 13.4028 50.8373 12.9348 50.3661C12.4649 49.8904 12.1751 49.2386 12.1751 48.5213C12.1751 47.804 12.4649 47.1522 12.9317 46.6797C13.4028 46.2053 14.0485 45.9128 14.7591 45.9128C15.4683 45.9128 16.1146 46.2053 16.5827 46.6772C16.8687 46.9665 17.0872 47.3201 17.2151 47.7137H19.3373C19.617 47.7137 19.874 47.5973 20.0592 47.4104C20.2444 47.2234 20.3597 46.9646 20.3597 46.6816V40.9394C19.9597 40.809 19.6006 40.5839 19.3102 40.2907C18.8365 39.8125 18.5424 39.1512 18.5424 38.4237V36.2127H11.0646C10.9361 36.6006 10.72 36.949 10.4397 37.2326C9.9685 37.707 9.32283 37.9996 8.61228 37.9996C7.90173 37.9996 7.25606 37.707 6.78803 37.2358C6.31811 36.7602 6.02835 36.1084 6.02835 35.3911C6.02835 34.6712 6.31811 34.0181 6.78488 33.5469C7.25228 33.0751 7.89921 32.7826 8.61228 32.7826C9.32283 32.7826 9.9685 33.0751 10.4365 33.5463C10.725 33.8388 10.9461 34.1975 11.0734 34.5974H18.5424V30.3076H14.7024C14.5745 30.6974 14.3572 31.0472 14.0762 31.3308C13.6094 31.802 12.9625 32.0945 12.2494 32.0945C11.5389 32.0945 10.8932 31.802 10.4252 31.3308C9.95528 30.8551 9.66551 30.2033 9.66551 29.486C9.66551 28.7687 9.95528 28.1169 10.422 27.6444C10.8932 27.17 11.5389 26.8775 12.2494 26.8775C12.9625 26.8775 13.6094 27.17 14.0762 27.6412C14.3641 27.9319 14.5846 28.2911 14.7112 28.6924H18.5424V24.4026H11.045C10.9184 24.8006 10.6986 25.1587 10.412 25.4486C9.93953 25.9249 9.29323 26.2174 8.58394 26.2174C7.87087 26.2174 7.22394 25.9249 6.75654 25.4531C6.28976 24.9819 6 24.3288 6 23.6089C6 22.8916 6.28976 22.2398 6.75654 21.7674C7.22772 21.293 7.87339 21.0004 8.58394 21.0004C9.29701 21.0004 9.94394 21.293 10.4107 21.7642C10.6917 22.0478 10.909 22.3975 11.0369 22.7873H18.5424V20.5757C18.5424 19.8482 18.8365 19.1868 19.3102 18.7086C19.6006 18.4155 19.9597 18.1904 20.3597 18.06V12.3184C20.3597 12.0354 20.2444 11.7766 20.0592 11.5896C19.874 11.4027 19.617 11.2863 19.3373 11.2863H17.2151C17.0872 11.6793 16.8706 12.0316 16.5871 12.3184C16.1146 12.7947 15.4683 13.0872 14.7591 13.0872C14.0485 13.0872 13.4028 12.7947 12.9348 12.3235C12.4649 11.8478 12.1751 11.196 12.1751 10.4787C12.1751 9.7614 12.4649 9.10959 12.9335 8.63584C13.4028 8.16273 14.0485 7.87021 14.7591 7.87021C15.4721 7.87021 16.1191 8.16272 16.5858 8.63393C16.8706 8.92136 17.0891 9.27557 17.2164 9.6711H19.3373C20.0592 9.6711 20.7162 9.96871 21.1906 10.4475C21.6649 10.9264 21.9597 11.589 21.9597 12.3184V17.9335H26.2614V11.0847C25.8753 10.9556 25.5288 10.7362 25.2479 10.4526C24.7811 9.98142 24.4913 9.32835 24.4913 8.6085C24.4913 7.89119 24.7811 7.23939 25.2479 6.76691C25.7191 6.29252 26.3647 6 27.0753 6C27.7858 6 28.4315 6.29252 28.8995 6.76373C29.3694 7.23493 29.6592 7.88801 29.6592 8.6085C29.6592 9.3258 29.3694 9.97761 28.9027 10.4501C28.6129 10.7413 28.2576 10.9645 27.8614 11.093V17.9335H32.1109V14.7558C31.7247 14.6261 31.3789 14.408 31.098 14.1244C30.6306 13.6525 30.3408 12.9994 30.3408 12.2796C30.3408 11.5597 30.6306 10.9067 31.098 10.4348C31.5647 9.96362 32.2123 9.6711 32.9254 9.6711C33.6359 9.6711 34.2816 9.96362 34.7496 10.4348C35.2195 10.9105 35.5093 11.5623 35.5093 12.2796C35.5093 12.9994 35.2195 13.6525 34.7528 14.1237C34.4649 14.4143 34.1083 14.6369 33.7109 14.7654V17.9335H37.9609V12.3184C37.9609 11.589 38.2557 10.9264 38.7301 10.4475C39.2044 9.96871 39.8614 9.6711 40.5833 9.6711H42.7043C42.8315 9.27557 43.0501 8.92136 43.3348 8.63393C43.8016 8.16272 44.4485 7.87021 45.1616 7.87021C45.8721 7.87021 46.5178 8.16272 46.9858 8.63393C47.4557 9.10959 47.7455 9.7614 47.7455 10.4787C47.7455 11.1986 47.4557 11.8516 46.989 12.3228C46.5216 12.7947 45.8746 13.0872 45.1616 13.0872C44.4523 13.0872 43.806 12.7947 43.338 12.3228C43.052 12.0335 42.8334 11.6799 42.7055 11.2863H40.5833C40.3036 11.2863 40.0466 11.4027 39.8614 11.5896C39.6762 11.7766 39.5609 12.0354 39.5609 12.3184V18.0358C39.9931 18.1611 40.3805 18.3964 40.6898 18.7086C41.1635 19.1868 41.4576 19.8482 41.4576 20.5757V22.7873H48.9631C49.091 22.3975 49.3083 22.0478 49.5893 21.7642C50.0561 21.293 50.703 21.0004 51.4161 21.0004C52.1266 21.0004 52.7723 21.293 53.2403 21.7642C53.7102 22.2398 54 22.8916 54 23.6089ZM52.1121 24.311C52.2898 24.1317 52.4 23.883 52.4 23.6089C52.4 23.333 52.2898 23.0837 52.1134 22.905C51.9364 22.7269 51.6894 22.6157 51.4161 22.6157C51.1446 22.6157 50.8983 22.7269 50.7206 22.9063C50.5291 23.0996 50.4321 23.3501 50.4321 23.6217C50.4353 23.8926 50.5443 24.1361 50.7175 24.311C50.8964 24.4916 51.1427 24.6022 51.4161 24.6022C51.6876 24.6022 51.9345 24.4903 52.1121 24.311ZM50.4038 35.405C50.4076 35.6753 50.5165 35.9189 50.6904 36.095C50.8674 36.2731 51.1143 36.3843 51.3877 36.3843C51.6611 36.3843 51.908 36.2731 52.085 36.095C52.2614 35.9163 52.3717 35.667 52.3717 35.3911C52.3717 35.117 52.2614 34.8683 52.0838 34.689C51.9061 34.5097 51.6592 34.3978 51.3877 34.3978C51.1143 34.3978 50.8674 34.5091 50.6904 34.6871C50.4976 34.8823 50.4038 35.1316 50.4038 35.405ZM9.56787 23.6217V23.6159V23.6089V23.5962V23.595C9.56346 23.3266 9.45449 23.083 9.27937 22.9063C9.10173 22.7269 8.85543 22.6157 8.58394 22.6157C8.31055 22.6157 8.06362 22.7269 7.88661 22.905C7.71024 23.0837 7.6 23.333 7.6 23.6089C7.6 23.883 7.71024 24.1317 7.88787 24.311C8.06551 24.4903 8.31244 24.6022 8.58394 24.6022C8.85732 24.6022 9.10362 24.4916 9.27937 24.3142C9.45575 24.1361 9.56472 23.8926 9.56787 23.6217ZM11.5521 28.7821C11.3757 28.9608 11.2655 29.21 11.2655 29.486C11.2655 29.762 11.3757 30.0113 11.5521 30.19C11.7291 30.368 11.9761 30.4793 12.2494 30.4793C12.5209 30.4793 12.7672 30.368 12.9449 30.1887C13.1225 30.0094 13.2334 29.7601 13.2334 29.486C13.2334 29.2119 13.1225 28.9627 12.9449 28.7833C12.7672 28.604 12.5209 28.4927 12.2494 28.4927C11.9761 28.4927 11.7291 28.604 11.5521 28.7821ZM9.59622 35.405V35.4038V35.3911V35.3841V35.3783C9.59307 35.1074 9.48346 34.8633 9.30961 34.6871C9.1326 34.5091 8.88567 34.3978 8.61228 34.3978C8.34079 34.3978 8.09386 34.5097 7.91622 34.689C7.73858 34.8683 7.62835 35.117 7.62835 35.3911C7.62835 35.667 7.73858 35.9163 7.91496 36.095C8.09197 36.2731 8.3389 36.3843 8.61228 36.3843C8.88567 36.3843 9.1326 36.2731 9.30961 36.095C9.48346 35.9189 9.59244 35.6753 9.59622 35.405ZM44.1776 48.5213C44.1776 48.7846 44.2816 49.0377 44.4661 49.224C44.6438 49.4033 44.8901 49.5146 45.1616 49.5146C45.435 49.5146 45.6819 49.4033 45.8589 49.2252C46.0353 49.0466 46.1455 48.7973 46.1455 48.5213C46.1455 48.2472 46.0353 47.9986 45.8576 47.8193C45.68 47.6399 45.4331 47.528 45.1616 47.528C44.8882 47.528 44.6419 47.6387 44.4661 47.8161C44.2791 48.0049 44.1776 48.2549 44.1776 48.5213ZM15.743 48.5086C15.743 48.2529 15.6359 47.9992 15.4576 47.8193C15.2787 47.6387 15.0324 47.528 14.7591 47.528C14.4857 47.528 14.2387 47.6393 14.0617 47.8173C13.8854 47.996 13.7751 48.2453 13.7751 48.5213C13.7751 48.7973 13.8854 49.0466 14.0617 49.2252C14.2387 49.4033 14.4857 49.5146 14.7591 49.5146C15.0306 49.5146 15.2768 49.4033 15.4545 49.224C15.646 49.0307 15.743 48.7801 15.743 48.5086ZM26.298 47.4244C26.475 47.6024 26.7219 47.7137 26.9953 47.7137C27.2687 47.7137 27.5156 47.6024 27.6926 47.4244C27.869 47.2457 27.9792 46.9964 27.9792 46.7204C27.9792 46.4444 27.869 46.1951 27.6926 46.0165C27.5156 45.8384 27.2687 45.7271 26.9953 45.7271C26.7238 45.7271 26.4769 45.839 26.2992 46.0184C26.1216 46.1977 26.0113 46.4463 26.0113 46.7204C26.0113 46.9964 26.1216 47.2457 26.298 47.4244ZM32.8384 49.3982C32.5814 49.3982 32.3307 49.5057 32.1493 49.6888C31.9717 49.8682 31.8608 50.1174 31.8608 50.3915C31.8608 50.6675 31.971 50.9168 32.1474 51.0955C32.3244 51.2735 32.572 51.3848 32.8454 51.3848C33.1187 51.3848 33.3657 51.2735 33.5427 51.0955C33.7191 50.9168 33.8293 50.6675 33.8293 50.3915C33.8293 50.1174 33.7191 49.8688 33.5414 49.6895C33.3531 49.4993 33.1036 49.3982 32.8384 49.3982ZM15.743 10.4577C15.7367 10.1919 15.6277 9.9509 15.4545 9.77603C15.2768 9.5967 15.0306 9.48541 14.7591 9.48541C14.4857 9.48541 14.2387 9.5967 14.0617 9.77475C13.8854 9.95344 13.7751 10.2027 13.7751 10.4787C13.7751 10.7547 13.8854 11.004 14.0617 11.1827C14.2387 11.3607 14.4857 11.472 14.7591 11.472C15.0324 11.472 15.2787 11.3613 15.4545 11.1839C15.6529 10.9836 15.743 10.7369 15.743 10.4577ZM44.1776 10.4997C44.1827 10.7668 44.2917 11.0078 44.463 11.1807C44.6419 11.3613 44.8882 11.472 45.1616 11.472C45.4331 11.472 45.68 11.3601 45.8576 11.1807C46.0353 11.0014 46.1455 10.7528 46.1455 10.4787C46.1455 10.2027 46.0353 9.95344 45.8589 9.77475C45.6819 9.5967 45.435 9.48541 45.1616 9.48541C44.8901 9.48541 44.6438 9.5967 44.4661 9.77603C44.2702 9.97379 44.1776 10.2237 44.1776 10.4997ZM33.6227 11.5756C33.4457 11.3976 33.1987 11.2863 32.9254 11.2863C32.6539 11.2863 32.4069 11.3976 32.2293 11.5769C32.0517 11.7562 31.9408 12.0055 31.9408 12.2796C31.9408 12.5537 32.0517 12.8029 32.2293 12.9823C32.4069 13.1616 32.6539 13.2729 32.9254 13.2729C33.1968 13.2729 33.4438 13.161 33.6214 12.9816C33.7991 12.8023 33.9093 12.5537 33.9093 12.2796C33.9093 12.0036 33.7991 11.7543 33.6227 11.5756ZM27.0753 9.60179C27.3373 9.60179 27.5868 9.4994 27.7726 9.31245C27.949 9.13376 28.0592 8.88448 28.0592 8.6085C28.0592 8.33378 27.949 8.08514 27.772 7.90518C27.5956 7.72649 27.3487 7.61521 27.0753 7.61521C26.8019 7.61521 26.555 7.72649 26.378 7.90455C26.2016 8.08324 26.0913 8.33251 26.0913 8.6085C26.0913 8.88257 26.2016 9.13121 26.3792 9.31054C26.5638 9.49686 26.8145 9.60179 27.0753 9.60179ZM36.5783 22.0516C36.5783 21.6058 36.9367 21.244 37.3783 21.244C37.8198 21.244 38.1783 21.6058 38.1783 22.0516V36.9484C38.1783 37.3942 37.8198 37.756 37.3783 37.756H28.2009C27.7594 37.756 27.4009 37.3942 27.4009 36.9484C27.4009 36.5026 27.7594 36.1408 28.2009 36.1408H36.5783V22.0516ZM23.4217 36.9484C23.4217 37.3942 23.0633 37.756 22.6217 37.756C22.1802 37.756 21.8217 37.3942 21.8217 36.9484V22.0516C21.8217 21.6058 22.1802 21.244 22.6217 21.244H31.7991C32.2406 21.244 32.5991 21.6058 32.5991 22.0516C32.5991 22.4974 32.2406 22.8592 31.7991 22.8592H23.4217V36.9484ZM38.7609 19.5487C32.8869 19.5487 27.0129 19.5487 21.1389 19.5487C20.868 19.5544 20.6211 19.6695 20.4416 19.8507C20.2576 20.0364 20.1424 20.294 20.1424 20.5757V38.4237C20.1424 38.7054 20.2576 38.963 20.4416 39.1486C20.6255 39.3343 20.8806 39.4507 21.1597 39.4507H38.8403C39.1194 39.4507 39.3745 39.3343 39.5584 39.1486C39.7424 38.963 39.8576 38.7054 39.8576 38.4237V20.5757C39.8576 20.294 39.7424 20.0364 39.5584 19.8507C39.3266 19.6167 39.0772 19.5487 38.7609 19.5487Z" fill="#BCFB9F"/>
</svg>
