<svg width="394" height="290" viewBox="0 0 394 290" fill="none" xmlns="http://www.w3.org/2000/svg">
<path d="M178.842 280.75H170.438V289.155H178.842V280.75Z" fill="#B75ECD"/>
<path d="M187.246 272.346H178.842V280.751H187.246V272.346Z" fill="#B75ECD"/>
<path d="M187.246 263.941H178.842V272.346H187.246V263.941Z" fill="#B75ECD"/>
<path d="M195.649 263.941H187.244V272.346H195.649V263.941Z" fill="#B75ECD"/>
<path d="M187.246 79.8794H178.842V88.284H187.246V79.8794Z" fill="#1B163A"/>
<path d="M195.649 79.8794H187.244V88.284H195.649V79.8794Z" fill="#FFDE46"/>
<path d="M195.649 88.2842H187.244V96.6888H195.649V88.2842Z" fill="#FFDE46"/>
<path d="M195.649 96.689H187.244V105.094H195.649V96.689Z" fill="#FFDE46"/>
<path d="M195.649 105.093H187.244V113.498H195.649V105.093Z" fill="#FFDE46"/>
<path d="M187.246 113.498H178.842V121.902H187.246V113.498Z" fill="#FFDE46"/>
<path d="M187.246 121.902H178.842V130.307H187.246V121.902Z" fill="#FFDE46"/>
<path d="M187.246 130.307H178.842V138.712H187.246V130.307Z" fill="#FFDE46"/>
<path d="M178.842 138.711H170.438V147.116H178.842V138.711Z" fill="#FFDE46"/>
<path d="M178.842 147.117H170.438V155.521H178.842V147.117Z" fill="#FFDE46"/>
<path d="M178.842 155.521H170.438V163.926H178.842V155.521Z" fill="#FFDE46"/>
<path d="M178.842 163.925H170.438V172.33H178.842V163.925Z" fill="#FFDE46"/>
<path d="M187.246 163.925H178.842V172.33H187.246V163.925Z" fill="#FFDE46"/>
<path d="M195.649 163.925H187.244V172.33H195.649V163.925Z" fill="#FFDE46"/>
<path d="M204.055 163.925H195.65V172.33H204.055V163.925Z" fill="#FFDE46"/>
<path d="M212.459 163.925H204.055V172.33H212.459V163.925Z" fill="#FFDE46"/>
<path d="M220.864 163.925H212.459V172.33H220.864V163.925Z" fill="#FFDE46"/>
<path d="M229.268 163.925H220.863V172.33H229.268V163.925Z" fill="#FFDE46"/>
<path d="M237.676 163.925H229.271V172.33H237.676V163.925Z" fill="#FFDE46"/>
<path d="M246.08 163.925H237.676V172.33H246.08V163.925Z" fill="#FFDE46"/>
<path d="M254.483 163.925H246.078V172.33H254.483V163.925Z" fill="#FFDE46"/>
<path d="M262.887 163.925H254.482V172.33H262.887V163.925Z" fill="#FFDE46"/>
<path d="M271.291 163.925H262.887V172.33H271.291V163.925Z" fill="#FFDE46"/>
<path d="M271.291 172.331H262.887V180.735H271.291V172.331Z" fill="#FFDE46"/>
<path d="M271.291 180.735H262.887V189.14H271.291V180.735Z" fill="#FFDE46"/>
<path d="M262.887 172.331H254.482V180.735H262.887V172.331Z" fill="#FFDE46"/>
<path d="M254.483 172.331H246.078V180.735H254.483V172.331Z" fill="#FFDE46"/>
<path d="M246.08 172.331H237.676V180.735H246.08V172.331Z" fill="#FFDE46"/>
<path d="M237.676 172.331H229.271V180.735H237.676V172.331Z" fill="#FFDE46"/>
<path d="M229.268 172.331H220.863V180.735H229.268V172.331Z" fill="#FFDE46"/>
<path d="M220.864 172.331H212.459V180.735H220.864V172.331Z" fill="#FFDE46"/>
<path d="M229.268 180.735H220.863V189.14H229.268V180.735Z" fill="#FFDE46"/>
<path d="M237.676 180.735H229.271V189.14H237.676V180.735Z" fill="#FFDE46"/>
<path d="M246.08 180.735H237.676V189.14H246.08V180.735Z" fill="#FFDE46"/>
<path d="M254.483 180.735H246.078V189.14H254.483V180.735Z" fill="#FFDE46"/>
<path d="M262.887 180.735H254.482V189.14H262.887V180.735Z" fill="#FFDE46"/>
<path d="M262.887 189.14H254.482V197.544H262.887V189.14Z" fill="#FFDE46"/>
<path d="M254.483 189.14H246.078V197.544H254.483V189.14Z" fill="#FFDE46"/>
<path d="M246.08 189.14H237.676V197.544H246.08V189.14Z" fill="#FFDE46"/>
<path d="M237.676 189.14H229.271V197.544H237.676V189.14Z" fill="#FFDE46"/>
<path d="M229.268 189.14H220.863V197.544H229.268V189.14Z" fill="#FFDE46"/>
<path d="M220.864 197.544H212.459V205.949H220.864V197.544Z" fill="#FFDE46"/>
<path d="M229.268 197.544H220.863V205.949H229.268V197.544Z" fill="#FFDE46"/>
<path d="M237.676 197.544H229.271V205.949H237.676V197.544Z" fill="#FFDE46"/>
<path d="M246.08 197.544H237.676V205.949H246.08V197.544Z" fill="#FFDE46"/>
<path d="M254.483 197.544H246.078V205.949H254.483V197.544Z" fill="#FFDE46"/>
<path d="M246.08 205.949H237.676V214.354H246.08V205.949Z" fill="#FFDE46"/>
<path d="M237.676 205.949H229.271V214.354H237.676V205.949Z" fill="#FFDE46"/>
<path d="M229.268 205.949H220.863V214.354H229.268V205.949Z" fill="#FFDE46"/>
<path d="M220.864 205.949H212.459V214.354H220.864V205.949Z" fill="#FFDE46"/>
<path d="M220.864 214.353H212.459V222.758H220.864V214.353Z" fill="#FFDE46"/>
<path d="M229.268 214.353H220.863V222.758H229.268V214.353Z" fill="#FFDE46"/>
<path d="M237.676 214.353H229.271V222.758H237.676V214.353Z" fill="#FFDE46"/>
<path d="M229.268 222.758H220.863V231.162H229.268V222.758Z" fill="#FFDE46"/>
<path d="M220.864 231.162H212.459V239.567H220.864V231.162Z" fill="#FFDE46"/>
<path d="M212.459 239.567H204.055V247.972H212.459V239.567Z" fill="#FFDE46"/>
<path d="M204.055 247.972H195.65V256.376H204.055V247.972Z" fill="#FFDE46"/>
<path d="M212.459 231.162H204.055V239.567H212.459V231.162Z" fill="#FFDE46"/>
<path d="M220.864 222.758H212.459V231.162H220.864V222.758Z" fill="#FFDE46"/>
<path d="M212.459 222.758H204.055V231.162H212.459V222.758Z" fill="#FFDE46"/>
<path d="M212.459 155.521H204.055V163.926H212.459V155.521Z" fill="#FFDE46"/>
<path d="M204.055 88.2842H195.65V96.6888H204.055V88.2842Z" fill="#FFDE46"/>
<path d="M212.459 88.2842H204.055V96.6888H212.459V88.2842Z" fill="#FFDE46"/>
<path d="M220.864 88.2842H212.459V96.6888H220.864V88.2842Z" fill="#FFDE46"/>
<path d="M229.268 88.2842H220.863V96.6888H229.268V88.2842Z" fill="#FFDE46"/>
<path d="M237.676 88.2842H229.271V96.6888H237.676V88.2842Z" fill="#FFDE46"/>
<path d="M246.08 88.2842H237.676V96.6888H246.08V88.2842Z" fill="#FFDE46"/>
<path d="M254.483 88.2842H246.078V96.6888H254.483V88.2842Z" fill="#FFDE46"/>
<path d="M262.887 88.2842H254.482V96.6888H262.887V88.2842Z" fill="#FFDE46"/>
<path d="M271.291 88.2842H262.887V96.6888H271.291V88.2842Z" fill="#FFDE46"/>
<path d="M279.696 88.2842H271.291V96.6888H279.696V88.2842Z" fill="#FFDE46"/>
<path d="M271.291 96.689H262.887V105.094H271.291V96.689Z" fill="#FFDE46"/>
<path d="M262.887 96.689H254.482V105.094H262.887V96.689Z" fill="#FFDE46"/>
<path d="M254.483 96.689H246.078V105.094H254.483V96.689Z" fill="#FFDE46"/>
<path d="M246.08 96.689H237.676V105.094H246.08V96.689Z" fill="#FFDE46"/>
<path d="M237.676 96.689H229.271V105.094H237.676V96.689Z" fill="#FFDE46"/>
<path d="M229.268 96.689H220.863V105.094H229.268V96.689Z" fill="#FFDE46"/>
<path d="M220.864 96.689H212.459V105.094H220.864V96.689Z" fill="#FFDE46"/>
<path d="M212.459 96.689H204.055V105.094H212.459V96.689Z" fill="#FFDE46"/>
<path d="M204.055 96.689H195.65V105.094H204.055V96.689Z" fill="#FFDE46"/>
<path d="M204.055 105.093H195.65V113.498H204.055V105.093Z" fill="#FFDE46"/>
<path d="M212.459 105.093H204.055V113.498H212.459V105.093Z" fill="#FFDE46"/>
<path d="M220.864 105.093H212.459V113.498H220.864V105.093Z" fill="#FFDE46"/>
<path d="M229.268 105.093H220.863V113.498H229.268V105.093Z" fill="#FFDE46"/>
<path d="M237.676 105.093H229.271V113.498H237.676V105.093Z" fill="#FFDE46"/>
<path d="M246.08 105.093H237.676V113.498H246.08V105.093Z" fill="#FFDE46"/>
<path d="M254.483 105.093H246.078V113.498H254.483V105.093Z" fill="#FFDE46"/>
<path d="M262.887 105.093H254.482V113.498H262.887V105.093Z" fill="#FFDE46"/>
<path d="M254.483 113.498H246.078V121.902H254.483V113.498Z" fill="#FFDE46"/>
<path d="M246.08 121.902H237.676V130.307H246.08V121.902Z" fill="#FFDE46"/>
<path d="M237.676 130.307H229.271V138.712H237.676V130.307Z" fill="#FFDE46"/>
<path d="M229.268 138.711H220.863V147.116H229.268V138.711Z" fill="#FFDE46"/>
<path d="M220.864 147.117H212.459V155.521H220.864V147.117Z" fill="#FFDE46"/>
<path d="M204.055 155.521H195.65V163.926H204.055V155.521Z" fill="#FFDE46"/>
<path d="M187.246 155.521H178.842V163.926H187.246V155.521Z" fill="#FFDE46"/>
<path d="M195.649 155.521H187.244V163.926H195.649V155.521Z" fill="#FFDE46"/>
<path d="M187.246 147.117H178.842V155.521H187.246V147.117Z" fill="#FFDE46"/>
<path d="M187.246 138.711H178.842V147.116H187.246V138.711Z" fill="#FFDE46"/>
<path d="M195.649 147.117H187.244V155.521H195.649V147.117Z" fill="#FFDE46"/>
<path d="M204.055 147.117H195.65V155.521H204.055V147.117Z" fill="#FFDE46"/>
<path d="M212.459 147.117H204.055V155.521H212.459V147.117Z" fill="#FFDE46"/>
<path d="M220.864 138.711H212.459V147.116H220.864V138.711Z" fill="#FFDE46"/>
<path d="M212.459 138.711H204.055V147.116H212.459V138.711Z" fill="#FFDE46"/>
<path d="M204.055 138.711H195.65V147.116H204.055V138.711Z" fill="#FFDE46"/>
<path d="M195.649 138.711H187.244V147.116H195.649V138.711Z" fill="#FFDE46"/>
<path d="M195.649 130.307H187.244V138.712H195.649V130.307Z" fill="#FFDE46"/>
<path d="M195.649 121.902H187.244V130.307H195.649V121.902Z" fill="#FFDE46"/>
<path d="M195.649 113.498H187.244V121.902H195.649V113.498Z" fill="#FFDE46"/>
<path d="M204.055 113.498H195.65V121.902H204.055V113.498Z" fill="#FFDE46"/>
<path d="M212.459 121.902H204.055V130.307H212.459V121.902Z" fill="#FFDE46"/>
<path d="M220.864 121.902H212.459V130.307H220.864V121.902Z" fill="#FFDE46"/>
<path d="M212.459 113.498H204.055V121.902H212.459V113.498Z" fill="#FFDE46"/>
<path d="M220.864 113.498H212.459V121.902H220.864V113.498Z" fill="#FFDE46"/>
<path d="M229.268 113.498H220.863V121.902H229.268V113.498Z" fill="#FFDE46"/>
<path d="M237.676 113.498H229.271V121.902H237.676V113.498Z" fill="#FFDE46"/>
<path d="M246.08 113.498H237.676V121.902H246.08V113.498Z" fill="#FFDE46"/>
<path d="M237.676 121.902H229.271V130.307H237.676V121.902Z" fill="#FFDE46"/>
<path d="M229.268 130.307H220.863V138.712H229.268V130.307Z" fill="#FFDE46"/>
<path d="M220.864 130.307H212.459V138.712H220.864V130.307Z" fill="#FFDE46"/>
<path d="M212.459 130.307H204.055V138.712H212.459V130.307Z" fill="#FFDE46"/>
<path d="M204.055 130.307H195.65V138.712H204.055V130.307Z" fill="#FFDE46"/>
<path d="M204.055 121.902H195.65V130.307H204.055V121.902Z" fill="#FFDE46"/>
<path d="M229.268 121.902H220.863V130.307H229.268V121.902Z" fill="#FFDE46"/>
<path d="M204.055 79.8794H195.65V88.284H204.055V79.8794Z" fill="#FFDE46"/>
<path d="M212.459 79.8794H204.055V88.284H212.459V79.8794Z" fill="#FFDE46"/>
<path d="M220.864 79.8794H212.459V88.284H220.864V79.8794Z" fill="#FFDE46"/>
<path d="M229.268 79.8794H220.863V88.284H229.268V79.8794Z" fill="#FFDE46"/>
<path d="M237.676 79.8794H229.271V88.284H237.676V79.8794Z" fill="#FFDE46"/>
<path d="M246.08 79.8794H237.676V88.284H246.08V79.8794Z" fill="#FFDE46"/>
<path d="M254.483 79.8794H246.078V88.284H254.483V79.8794Z" fill="#FFDE46"/>
<path d="M262.887 79.8794H254.482V88.284H262.887V79.8794Z" fill="#FFDE46"/>
<path d="M271.291 79.8794H262.887V88.284H271.291V79.8794Z" fill="#FFDE46"/>
<path d="M279.696 79.8794H271.291V88.284H279.696V79.8794Z" fill="#FFDE46"/>
<path d="M288.102 79.8794H279.697V88.284H288.102V79.8794Z" fill="#FFDE46"/>
<path d="M187.246 71.4746H178.842V79.8793H187.246V71.4746Z" fill="#1B163A"/>
<path d="M195.649 71.4746H187.244V79.8793H195.649V71.4746Z" fill="#FFDE46"/>
<path d="M204.055 71.4746H195.65V79.8793H204.055V71.4746Z" fill="#FFDE46"/>
<path d="M212.459 71.4746H204.055V79.8793H212.459V71.4746Z" fill="#FFDE46"/>
<path d="M220.864 71.4746H212.459V79.8793H220.864V71.4746Z" fill="#FFDE46"/>
<path d="M229.268 71.4746H220.863V79.8793H229.268V71.4746Z" fill="#FFDE46"/>
<path d="M237.676 71.4746H229.271V79.8793H237.676V71.4746Z" fill="#FFDE46"/>
<path d="M246.08 71.4746H237.676V79.8793H246.08V71.4746Z" fill="#FFDE46"/>
<path d="M254.483 71.4746H246.078V79.8793H254.483V71.4746Z" fill="#FFDE46"/>
<path d="M262.887 71.4746H254.482V79.8793H262.887V71.4746Z" fill="#FFDE46"/>
<path d="M271.291 71.4746H262.887V79.8793H271.291V71.4746Z" fill="#FFDE46"/>
<path d="M279.696 71.4746H271.291V79.8793H279.696V71.4746Z" fill="#FFDE46"/>
<path d="M288.102 71.4746H279.697V79.8793H288.102V71.4746Z" fill="#FFDE46"/>
<path d="M296.506 71.4746H288.102V79.8793H296.506V71.4746Z" fill="#FFDE46"/>
<path d="M296.506 79.8794H288.102V88.284H296.506V79.8794Z" fill="#FFDE46"/>
<path d="M288.102 88.2842H279.697V96.6888H288.102V88.2842Z" fill="#FFDE46"/>
<path d="M279.696 96.689H271.291V105.094H279.696V96.689Z" fill="#FFDE46"/>
<path d="M271.291 105.093H262.887V113.498H271.291V105.093Z" fill="#FFDE46"/>
<path d="M262.887 113.498H254.482V121.902H262.887V113.498Z" fill="#FFDE46"/>
<path d="M254.483 121.902H246.078V130.307H254.483V121.902Z" fill="#FFDE46"/>
<path d="M246.08 130.307H237.676V138.712H246.08V130.307Z" fill="#FFDE46"/>
<path d="M237.676 138.711H229.271V147.116H237.676V138.711Z" fill="#FFDE46"/>
<path d="M229.268 147.117H220.863V155.521H229.268V147.117Z" fill="#FFDE46"/>
<path d="M220.864 155.521H212.459V163.926H220.864V155.521Z" fill="#FFDE46"/>
<path d="M229.268 155.521H220.863V163.926H229.268V155.521Z" fill="#FFDE46"/>
<path d="M237.676 155.521H229.271V163.926H237.676V155.521Z" fill="#FFDE46"/>
<path d="M246.08 155.521H237.676V163.926H246.08V155.521Z" fill="#FFDE46"/>
<path d="M254.483 155.521H246.078V163.926H254.483V155.521Z" fill="#FFDE46"/>
<path d="M262.887 155.521H254.482V163.926H262.887V155.521Z" fill="#FFDE46"/>
<path d="M271.291 155.521H262.887V163.926H271.291V155.521Z" fill="#FFDE46"/>
<path d="M279.696 155.521H271.291V163.926H279.696V155.521Z" fill="#FFDE46"/>
<path d="M279.696 163.925H271.291V172.33H279.696V163.925Z" fill="#FFDE46"/>
<path d="M279.696 172.331H271.291V180.735H279.696V172.331Z" fill="#FFDE46"/>
<path d="M279.696 180.735H271.291V189.14H279.696V180.735Z" fill="#FFDE46"/>
<path d="M288.102 172.331H279.697V180.735H288.102V172.331Z" fill="#FFDE46"/>
<path d="M288.102 163.925H279.697V172.33H288.102V163.925Z" fill="#FFDE46"/>
<path d="M288.102 155.521H279.697V163.926H288.102V155.521Z" fill="#FFDE46"/>
<path d="M271.291 189.14H262.887V197.544H271.291V189.14Z" fill="#FFDE46"/>
<path d="M262.887 197.544H254.482V205.949H262.887V197.544Z" fill="#FFDE46"/>
<path d="M254.483 205.949H246.078V214.354H254.483V205.949Z" fill="#FFDE46"/>
<path d="M246.08 214.353H237.676V222.758H246.08V214.353Z" fill="#FFDE46"/>
<path d="M237.676 222.758H229.271V231.162H237.676V222.758Z" fill="#FFDE46"/>
<path d="M229.268 231.162H220.863V239.567H229.268V231.162Z" fill="#FFDE46"/>
<path d="M220.864 239.567H212.459V247.972H220.864V239.567Z" fill="#FFDE46"/>
<path d="M212.459 247.972H204.055V256.376H212.459V247.972Z" fill="#FFDE46"/>
<path d="M204.055 256.377H195.65V264.782H204.055V256.377Z" fill="#FFDE46"/>
<path d="M178.842 88.2842H170.438V96.6888H178.842V88.2842Z" fill="#1B163A"/>
<path d="M187.246 88.2842H178.842V96.6888H187.246V88.2842Z" fill="#FFDE46"/>
<path d="M178.842 96.689H170.438V105.094H178.842V96.689Z" fill="#1B163A"/>
<path d="M187.246 96.689H178.842V105.094H187.246V96.689Z" fill="#FFDE46"/>
<path d="M178.842 105.093H170.438V113.498H178.842V105.093Z" fill="#1B163A"/>
<path d="M187.246 105.093H178.842V113.498H187.246V105.093Z" fill="#FFDE46"/>
<path d="M170.436 121.902H162.031V130.307H170.436V121.902Z" fill="#1B163A"/>
<path d="M178.842 121.902H170.438V130.307H178.842V121.902Z" fill="#FFDE46"/>
<path d="M170.436 113.498H162.031V121.902H170.436V113.498Z" fill="#1B163A"/>
<path d="M178.842 113.498H170.438V121.902H178.842V113.498Z" fill="#FFDE46"/>
<path d="M170.436 130.307H162.031V138.712H170.436V130.307Z" fill="#1B163A"/>
<path d="M178.842 130.307H170.438V138.712H178.842V130.307Z" fill="#FFDE46"/>
<path d="M162.03 138.711H153.625V147.116H162.03V138.711Z" fill="#1B163A"/>
<path d="M170.436 138.711H162.031V147.116H170.436V138.711Z" fill="#FFDE46"/>
<path d="M162.03 147.117H153.625V155.521H162.03V147.117Z" fill="#1B163A"/>
<path d="M170.436 147.117H162.031V155.521H170.436V147.117Z" fill="#FFDE46"/>
<path d="M162.03 155.521H153.625V163.926H162.03V155.521Z" fill="#1B163A"/>
<path d="M170.436 155.521H162.031V163.926H170.436V155.521Z" fill="#FFDE46"/>
<path d="M162.03 163.925H153.625V172.33H162.03V163.925Z" fill="#1B163A"/>
<path d="M170.436 163.925H162.031V172.33H170.436V163.925Z" fill="#FFDE46"/>
<path d="M162.03 172.331H153.625V180.735H162.03V172.331Z" fill="#1B163A"/>
<path d="M170.436 172.331H162.031V180.735H170.436V172.331Z" fill="#FFDE46"/>
<path d="M170.436 172.331H162.031V180.735H170.436V172.331Z" fill="#1B163A"/>
<path d="M178.842 172.331H170.438V180.735H178.842V172.331Z" fill="#FFDE46"/>
<path d="M178.842 172.331H170.438V180.735H178.842V172.331Z" fill="#1B163A"/>
<path d="M187.246 172.331H178.842V180.735H187.246V172.331Z" fill="#FFDE46"/>
<path d="M187.246 172.331H178.842V180.735H187.246V172.331Z" fill="#1B163A"/>
<path d="M195.649 172.331H187.244V180.735H195.649V172.331Z" fill="#FFDE46"/>
<path d="M195.649 172.331H187.244V180.735H195.649V172.331Z" fill="#1B163A"/>
<path d="M204.055 172.331H195.65V180.735H204.055V172.331Z" fill="#FFDE46"/>
<path d="M204.055 172.331H195.65V180.735H204.055V172.331Z" fill="#1B163A"/>
<path d="M212.459 172.331H204.055V180.735H212.459V172.331Z" fill="#FFDE46"/>
<path d="M212.459 180.735H204.055V189.14H212.459V180.735Z" fill="#1B163A"/>
<path d="M220.864 180.735H212.459V189.14H220.864V180.735Z" fill="#FFDE46"/>
<path d="M212.459 189.14H204.055V197.544H212.459V189.14Z" fill="#1B163A"/>
<path d="M220.864 189.14H212.459V197.544H220.864V189.14Z" fill="#FFDE46"/>
<path d="M204.055 197.544H195.65V205.949H204.055V197.544Z" fill="#1B163A"/>
<path d="M212.459 197.544H204.055V205.949H212.459V197.544Z" fill="#FFDE46"/>
<path d="M204.055 205.949H195.65V214.354H204.055V205.949Z" fill="#1B163A"/>
<path d="M212.459 205.949H204.055V214.354H212.459V205.949Z" fill="#FFDE46"/>
<path d="M204.055 214.353H195.65V222.758H204.055V214.353Z" fill="#1B163A"/>
<path d="M212.459 214.353H204.055V222.758H212.459V214.353Z" fill="#FFDE46"/>
<path d="M195.649 222.758H187.244V231.162H195.649V222.758Z" fill="#1B163A"/>
<path d="M204.055 222.758H195.65V231.162H204.055V222.758Z" fill="#FFDE46"/>
<path d="M195.649 231.162H187.244V239.567H195.649V231.162Z" fill="#1B163A"/>
<path d="M204.055 231.162H195.65V239.567H204.055V231.162Z" fill="#FFDE46"/>
<path d="M195.649 239.567H187.244V247.972H195.649V239.567Z" fill="#1B163A"/>
<path d="M204.055 239.567H195.65V247.972H204.055V239.567Z" fill="#FFDE46"/>
<path d="M187.246 247.972H178.842V256.376H187.246V247.972Z" fill="#1B163A"/>
<path d="M195.649 247.972H187.244V256.376H195.649V247.972Z" fill="#FFDE46"/>
<path d="M187.246 256.377H178.842V264.782H187.246V256.377Z" fill="#1B163A"/>
<path d="M195.649 256.377H187.244V264.782H195.649V256.377Z" fill="#FFDE46"/>
<path d="M187.246 264.781H178.842V273.186H187.246V264.781Z" fill="#1B163A"/>
<path d="M195.649 264.781H187.244V273.186H195.649V264.781Z" fill="#FFDE46"/>
<path d="M178.842 273.187H170.438V281.591H178.842V273.187Z" fill="#1B163A"/>
<path d="M187.246 273.187H178.842V281.591H187.246V273.187Z" fill="#FFDE46"/>
<path d="M178.842 281.591H170.438V289.995H178.842V281.591Z" fill="#FFDE46"/>
<path d="M377.192 54.6655H368.787V63.0702H377.192V54.6655Z" fill="white"/>
<path d="M377.192 71.4751H368.787V79.8797H377.192V71.4751Z" fill="white"/>
<path d="M377.192 79.8804H368.787V88.285H377.192V79.8804Z" fill="white"/>
<path d="M377.192 88.2847H368.787V96.6893H377.192V88.2847Z" fill="white"/>
<path d="M368.787 96.689H360.383V105.094H368.787V96.689Z" fill="white"/>
<path d="M368.787 105.093H360.383V113.498H368.787V105.093Z" fill="white"/>
<path d="M385.596 96.689H377.191V105.094H385.596V96.689Z" fill="white"/>
<path d="M385.596 105.093H377.191V113.498H385.596V105.093Z" fill="white"/>
<path d="M385.596 113.498H377.191V121.902H385.596V113.498Z" fill="white"/>
<path d="M368.787 113.498H360.383V121.902H368.787V113.498Z" fill="white"/>
<path d="M368.787 71.4751H360.383V79.8797H368.787V71.4751Z" fill="white"/>
<path d="M360.383 79.8804H351.979V88.285H360.383V79.8804Z" fill="white"/>
<path d="M394.002 79.8804H385.598V88.285H394.002V79.8804Z" fill="white"/>
<path d="M385.596 71.4751H377.191V79.8797H385.596V71.4751Z" fill="white"/>
<path d="M25.0363 0H20.834V4.20232H25.0363V0Z" fill="white"/>
<path d="M25.0363 8.40527H20.834V12.6076H25.0363V8.40527Z" fill="white"/>
<path d="M25.0363 12.6074H20.834V16.8097H25.0363V12.6074Z" fill="white"/>
<path d="M25.0363 16.8096H20.834V21.0119H25.0363V16.8096Z" fill="white"/>
<path d="M20.8332 21.0117H16.6309V25.214H20.8332V21.0117Z" fill="white"/>
<path d="M20.8332 25.2148H16.6309V29.4172H20.8332V25.2148Z" fill="white"/>
<path d="M29.2394 21.0117H25.0371V25.214H29.2394V21.0117Z" fill="white"/>
<path d="M29.2394 25.2148H25.0371V29.4172H29.2394V25.2148Z" fill="white"/>
<path d="M29.2394 29.416H25.0371V33.6183H29.2394V29.416Z" fill="white"/>
<path d="M20.8332 29.416H16.6309V33.6183H20.8332V29.416Z" fill="white"/>
<path d="M20.8332 8.40527H16.6309V12.6076H20.8332V8.40527Z" fill="white"/>
<path d="M16.6301 12.6074H12.4277V16.8097H16.6301V12.6074Z" fill="white"/>
<path d="M33.4406 12.6074H29.2383V16.8097H33.4406V12.6074Z" fill="white"/>
<path d="M29.2394 8.40527H25.0371V12.6076H29.2394V8.40527Z" fill="white"/>
<path d="M12.6066 96.9253H8.4043V101.128H12.6066V96.9253Z" fill="#FFDE46"/>
<path d="M12.6066 105.33H8.4043V109.532H12.6066V105.33Z" fill="#FFDE46"/>
<path d="M12.6066 109.532H8.4043V113.734H12.6066V109.532Z" fill="#FFDE46"/>
<path d="M12.6066 113.734H8.4043V117.936H12.6066V113.734Z" fill="#FFDE46"/>
<path d="M8.4035 117.937H4.20117V122.139H8.4035V117.937Z" fill="#FFDE46"/>
<path d="M8.4035 122.138H4.20117V126.341H8.4035V122.138Z" fill="#FFDE46"/>
<path d="M16.8078 117.937H12.6055V122.139H16.8078V117.937Z" fill="#FFDE46"/>
<path d="M16.8078 122.138H12.6055V126.341H16.8078V122.138Z" fill="#FFDE46"/>
<path d="M16.8078 126.34H12.6055V130.543H16.8078V126.34Z" fill="#FFDE46"/>
<path d="M8.4035 126.34H4.20117V130.543H8.4035V126.34Z" fill="#FFDE46"/>
<path d="M8.4035 105.33H4.20117V109.532H8.4035V105.33Z" fill="#FFDE46"/>
<path d="M4.20232 109.532H0V113.734H4.20232V109.532Z" fill="#FFDE46"/>
<path d="M21.0148 109.532H16.8125V113.734H21.0148V109.532Z" fill="#FFDE46"/>
<path d="M16.8078 105.33H12.6055V109.532H16.8078V105.33Z" fill="#FFDE46"/>
<path d="M197.246 5.41797H193.568V9.09563H197.246V5.41797Z" fill="#FFDE46"/>
<path d="M197.246 11.854H193.568V15.5317H197.246V11.854Z" fill="#FFDE46"/>
<path d="M197.246 15.5317H193.568V18.29H197.246V15.5317Z" fill="#FFDE46"/>
<path d="M197.246 18.2905H193.568V21.9682H197.246V18.2905Z" fill="#FFDE46"/>
<path d="M193.569 21.9673H190.811V25.6449H193.569V21.9673Z" fill="#FFDE46"/>
<path d="M193.569 25.645H190.811V28.4033H193.569V25.645Z" fill="#FFDE46"/>
<path d="M200.002 21.9673H197.244V25.6449H200.002V21.9673Z" fill="#FFDE46"/>
<path d="M200.002 25.645H197.244V28.4033H200.002V25.645Z" fill="#FFDE46"/>
<path d="M200.002 28.4038H197.244V32.0815H200.002V28.4038Z" fill="#FFDE46"/>
<path d="M193.569 28.4038H190.811V32.0815H193.569V28.4038Z" fill="#FFDE46"/>
<path d="M193.569 11.854H190.811V15.5317H193.569V11.854Z" fill="#FFDE46"/>
<path d="M190.809 15.5317H187.131V18.29H190.809V15.5317Z" fill="#FFDE46"/>
<path d="M203.682 15.5317H200.004V18.29H203.682V15.5317Z" fill="#FFDE46"/>
<path d="M200.002 11.854H197.244V15.5317H200.002V11.854Z" fill="#FFDE46"/>
<path d="M343.153 201.747H340.211V204.688H343.153V201.747Z" fill="#FFDE46"/>
<path d="M343.153 207.629H340.211V210.571H343.153V207.629Z" fill="#FFDE46"/>
<path d="M343.153 210.572H340.211V213.514H343.153V210.572Z" fill="#FFDE46"/>
<path d="M343.153 213.513H340.211V216.455H343.153V213.513Z" fill="#FFDE46"/>
<path d="M340.211 216.455H337.27V219.396H340.211V216.455Z" fill="#FFDE46"/>
<path d="M340.211 219.396H337.27V222.338H340.211V219.396Z" fill="#FFDE46"/>
<path d="M346.092 216.455H343.15V219.396H346.092V216.455Z" fill="#FFDE46"/>
<path d="M346.092 219.396H343.15V222.338H346.092V219.396Z" fill="#FFDE46"/>
<path d="M346.092 222.338H343.15V225.28H346.092V222.338Z" fill="#FFDE46"/>
<path d="M340.211 222.338H337.27V225.28H340.211V222.338Z" fill="#FFDE46"/>
<path d="M340.211 207.629H337.27V210.571H340.211V207.629Z" fill="#FFDE46"/>
<path d="M337.268 210.572H334.326V213.514H337.268V210.572Z" fill="#FFDE46"/>
<path d="M349.035 210.572H346.094V213.514H349.035V210.572Z" fill="#FFDE46"/>
<path d="M346.092 207.629H343.15V210.571H346.092V207.629Z" fill="#FFDE46"/>
<path d="M94.7357 69.149C93.7625 69.149 92.9825 68.8826 92.3942 68.3489C91.8059 67.8076 91.5117 66.9916 91.5117 65.9015V63.8306C91.5117 62.7716 91.8059 61.9672 92.3942 61.4184C92.9825 60.8612 93.7625 60.583 94.7357 60.583C95.7157 60.583 96.4965 60.8612 97.0773 61.4184C97.6656 61.9672 97.9598 62.7716 97.9598 63.8306V65.9015C97.9598 66.9916 97.6656 67.8076 97.0773 68.3489C96.4965 68.8826 95.7157 69.149 94.7357 69.149ZM94.7357 67.8077C95.3241 67.8077 95.7552 67.6471 96.03 67.3252C96.3124 67.0033 96.4536 66.5444 96.4536 65.9485V63.76C96.4536 63.1557 96.2965 62.701 95.983 62.3951C95.6771 62.0816 95.261 61.9244 94.7357 61.9244C94.1945 61.9244 93.7709 62.0849 93.465 62.4068C93.1666 62.7287 93.0178 63.1792 93.0178 63.76V65.9485C93.0178 66.568 93.159 67.0352 93.4414 67.3487C93.7314 67.6547 94.1625 67.8077 94.7357 67.8077ZM102.365 69.149C101.392 69.149 100.612 68.8826 100.024 68.3489C99.4356 67.8076 99.1415 66.9916 99.1415 65.9015V63.8306C99.1415 62.7716 99.4356 61.9672 100.024 61.4184C100.612 60.8612 101.392 60.583 102.365 60.583C103.345 60.583 104.126 60.8612 104.707 61.4184C105.295 61.9672 105.59 62.7716 105.59 63.8306V65.9015C105.59 66.9916 105.295 67.8076 104.707 68.3489C104.126 68.8826 103.345 69.149 102.365 69.149ZM102.365 67.8077C102.954 67.8077 103.385 67.6471 103.66 67.3252C103.942 67.0033 104.083 66.5444 104.083 65.9485V63.76C104.083 63.1557 103.926 62.701 103.613 62.3951C103.307 62.0816 102.891 61.9244 102.365 61.9244C101.824 61.9244 101.401 62.0849 101.095 62.4068C100.796 62.7287 100.648 63.1792 100.648 63.76V65.9485C100.648 66.568 100.789 67.0352 101.071 67.3487C101.361 67.6547 101.792 67.8077 102.365 67.8077ZM109.995 69.149C109.023 69.149 108.242 68.8826 107.654 68.3489C107.065 67.8076 106.771 66.9916 106.771 65.9015V63.8306C106.771 62.7716 107.065 61.9672 107.654 61.4184C108.242 60.8612 109.023 60.583 109.995 60.583C110.976 60.583 111.756 60.8612 112.337 61.4184C112.925 61.9672 113.219 62.7716 113.219 63.8306V65.9015C113.219 66.9916 112.925 67.8076 112.337 68.3489C111.756 68.8826 110.976 69.149 109.995 69.149ZM109.995 67.8077C110.584 67.8077 111.015 67.6471 111.29 67.3252C111.572 67.0033 111.713 66.5444 111.713 65.9485V63.76C111.713 63.1557 111.556 62.701 111.242 62.3951C110.937 62.0816 110.521 61.9244 109.995 61.9244C109.454 61.9244 109.03 62.0849 108.724 62.4068C108.426 62.7287 108.277 63.1792 108.277 63.76V65.9485C108.277 66.568 108.419 67.0352 108.701 67.3487C108.991 67.6547 109.423 67.8077 109.995 67.8077ZM94.7357 80.9155C93.7625 80.9155 92.9825 80.6491 92.3942 80.1154C91.8059 79.5741 91.5117 78.7581 91.5117 77.668V75.5971C91.5117 74.5381 91.8059 73.7338 92.3942 73.1849C92.9825 72.6277 93.7625 72.3495 94.7357 72.3495C95.7157 72.3495 96.4965 72.6277 97.0773 73.1849C97.6656 73.7338 97.9598 74.5381 97.9598 75.5971V77.668C97.9598 78.7581 97.6656 79.5741 97.0773 80.1154C96.4965 80.6491 95.7157 80.9155 94.7357 80.9155ZM94.7357 79.5742C95.3241 79.5742 95.7552 79.4136 96.03 79.0917C96.3124 78.7698 96.4536 78.3109 96.4536 77.715V75.5265C96.4536 74.9222 96.2965 74.4675 95.983 74.1616C95.6771 73.8481 95.261 73.6909 94.7357 73.6909C94.1945 73.6909 93.7709 73.8514 93.465 74.1733C93.1666 74.4952 93.0178 74.9457 93.0178 75.5265V77.715C93.0178 78.3345 93.159 78.8018 93.4414 79.1152C93.7314 79.4212 94.1625 79.5742 94.7357 79.5742ZM102.365 80.9155C101.392 80.9155 100.612 80.6491 100.024 80.1154C99.4356 79.5741 99.1415 78.7581 99.1415 77.668V75.5971C99.1415 74.5381 99.4356 73.7338 100.024 73.1849C100.612 72.6277 101.392 72.3495 102.365 72.3495C103.345 72.3495 104.126 72.6277 104.707 73.1849C105.295 73.7338 105.59 74.5381 105.59 75.5971V77.668C105.59 78.7581 105.295 79.5741 104.707 80.1154C104.126 80.6491 103.345 80.9155 102.365 80.9155ZM102.365 79.5742C102.954 79.5742 103.385 79.4136 103.66 79.0917C103.942 78.7698 104.083 78.3109 104.083 77.715V75.5265C104.083 74.9222 103.926 74.4675 103.613 74.1616C103.307 73.8481 102.891 73.6909 102.365 73.6909C101.824 73.6909 101.401 73.8514 101.095 74.1733C100.796 74.4952 100.648 74.9457 100.648 75.5265V77.715C100.648 78.3345 100.789 78.8018 101.071 79.1152C101.361 79.4212 101.792 79.5742 102.365 79.5742ZM109.995 80.9155C109.023 80.9155 108.242 80.6491 107.654 80.1154C107.065 79.5741 106.771 78.7581 106.771 77.668V75.5971C106.771 74.5381 107.065 73.7338 107.654 73.1849C108.242 72.6277 109.023 72.3495 109.995 72.3495C110.976 72.3495 111.756 72.6277 112.337 73.1849C112.925 73.7338 113.219 74.5381 113.219 75.5971V77.668C113.219 78.7581 112.925 79.5741 112.337 80.1154C111.756 80.6491 110.976 80.9155 109.995 80.9155ZM109.995 79.5742C110.584 79.5742 111.015 79.4136 111.29 79.0917C111.572 78.7698 111.713 78.3109 111.713 77.715V75.5265C111.713 74.9222 111.556 74.4675 111.242 74.1616C110.937 73.8481 110.521 73.6909 109.995 73.6909C109.454 73.6909 109.03 73.8514 108.724 74.1733C108.426 74.4952 108.277 74.9457 108.277 75.5265V77.715C108.277 78.3345 108.419 78.8018 108.701 79.1152C108.991 79.4212 109.423 79.5742 109.995 79.5742ZM94.7357 92.6821C93.7625 92.6821 92.9825 92.4156 92.3942 91.8819C91.8059 91.3406 91.5117 90.5246 91.5117 89.4345V87.3636C91.5117 86.3046 91.8059 85.5003 92.3942 84.9514C92.9825 84.3942 93.7625 84.116 94.7357 84.116C95.7157 84.116 96.4965 84.3942 97.0773 84.9514C97.6656 85.5003 97.9598 86.3046 97.9598 87.3636V89.4345C97.9598 90.5246 97.6656 91.3406 97.0773 91.8819C96.4965 92.4156 95.7157 92.6821 94.7357 92.6821ZM94.7357 91.3407C95.3241 91.3407 95.7552 91.1801 96.03 90.8582C96.3124 90.5363 96.4536 90.0774 96.4536 89.4816V87.293C96.4536 86.6887 96.2965 86.234 95.983 85.9281C95.6771 85.6146 95.261 85.4574 94.7357 85.4574C94.1945 85.4574 93.7709 85.6179 93.465 85.9398C93.1666 86.2617 93.0178 86.7122 93.0178 87.293V89.4816C93.0178 90.101 93.159 90.5683 93.4414 90.8818C93.7314 91.1877 94.1625 91.3407 94.7357 91.3407ZM102.365 92.6821C101.392 92.6821 100.612 92.4156 100.024 91.8819C99.4356 91.3406 99.1415 90.5246 99.1415 89.4345V87.3636C99.1415 86.3046 99.4356 85.5003 100.024 84.9514C100.612 84.3942 101.392 84.116 102.365 84.116C103.345 84.116 104.126 84.3942 104.707 84.9514C105.295 85.5003 105.59 86.3046 105.59 87.3636V89.4345C105.59 90.5246 105.295 91.3406 104.707 91.8819C104.126 92.4156 103.345 92.6821 102.365 92.6821ZM102.365 91.3407C102.954 91.3407 103.385 91.1801 103.66 90.8582C103.942 90.5363 104.083 90.0774 104.083 89.4816V87.293C104.083 86.6887 103.926 86.234 103.613 85.9281C103.307 85.6146 102.891 85.4574 102.365 85.4574C101.824 85.4574 101.401 85.6179 101.095 85.9398C100.796 86.2617 100.648 86.7122 100.648 87.293V89.4816C100.648 90.101 100.789 90.5683 101.071 90.8818C101.361 91.1877 101.792 91.3407 102.365 91.3407ZM109.995 92.6821C109.023 92.6821 108.242 92.4156 107.654 91.8819C107.065 91.3406 106.771 90.5246 106.771 89.4345V87.3636C106.771 86.3046 107.065 85.5003 107.654 84.9514C108.242 84.3942 109.023 84.116 109.995 84.116C110.976 84.116 111.756 84.3942 112.337 84.9514C112.925 85.5003 113.219 86.3046 113.219 87.3636V89.4345C113.219 90.5246 112.925 91.3406 112.337 91.8819C111.756 92.4156 110.976 92.6821 109.995 92.6821ZM109.995 91.3407C110.584 91.3407 111.015 91.1801 111.29 90.8582C111.572 90.5363 111.713 90.0774 111.713 89.4816V87.293C111.713 86.6887 111.556 86.234 111.242 85.9281C110.937 85.6146 110.521 85.4574 109.995 85.4574C109.454 85.4574 109.03 85.6179 108.724 85.9398C108.426 86.2617 108.277 86.7122 108.277 87.293V89.4816C108.277 90.101 108.419 90.5683 108.701 90.8818C108.991 91.1877 109.423 91.3407 109.995 91.3407Z" fill="#FFDE46"/>
<path d="M74.4593 178.218H66.0547V186.622H74.4593V178.218Z" fill="#FFDE46"/>
<path d="M74.4593 195.027H66.0547V203.432H74.4593V195.027Z" fill="#FFDE46"/>
<path d="M74.4593 203.433H66.0547V211.837H74.4593V203.433Z" fill="#FFDE46"/>
<path d="M74.4593 211.837H66.0547V220.242H74.4593V211.837Z" fill="#FFDE46"/>
<path d="M66.055 220.241H57.6504V228.646H66.055V220.241Z" fill="#FFDE46"/>
<path d="M66.055 228.646H57.6504V237.05H66.055V228.646Z" fill="#FFDE46"/>
<path d="M82.8617 220.241H74.457V228.646H82.8617V220.241Z" fill="#FFDE46"/>
<path d="M82.8617 228.646H74.457V237.05H82.8617V228.646Z" fill="#FFDE46"/>
<path d="M82.8617 237.05H74.457V245.455H82.8617V237.05Z" fill="#FFDE46"/>
<path d="M66.055 237.05H57.6504V245.455H66.055V237.05Z" fill="#FFDE46"/>
<path d="M66.055 195.027H57.6504V203.432H66.055V195.027Z" fill="#FFDE46"/>
<path d="M57.6507 203.433H49.2461V211.837H57.6507V203.433Z" fill="#FFDE46"/>
<path d="M91.2699 203.433H82.8652V211.837H91.2699V203.433Z" fill="#FFDE46"/>
<path d="M82.8617 195.027H74.457V203.432H82.8617V195.027Z" fill="#FFDE46"/>
</svg>
