<svg width="126" height="26" viewBox="0 0 126 26" fill="none" xmlns="http://www.w3.org/2000/svg">
<g clip-path="url(#clip0_2752_2835)">
<path d="M0.404297 24.1145V20.3431H3.37087V5.12738H0.404297V1.35596H12.0126C13.3884 1.35596 14.5815 1.59438 15.5919 2.07122C16.6237 2.5264 17.4191 3.18748 17.978 4.05447C18.5584 4.89979 18.8487 5.91851 18.8487 7.11062V7.43575C18.8487 8.47614 18.6551 9.3323 18.2682 10.0042C17.8813 10.6545 17.4191 11.1638 16.8817 11.5323C16.3658 11.8791 15.8713 12.1284 15.3984 12.28V12.8653C15.8713 12.9954 16.3872 13.2446 16.9461 13.613C17.5051 13.9599 17.978 14.4692 18.365 15.1412C18.7734 15.813 18.9776 16.6909 18.9776 17.7746V18.0997C18.9776 19.3569 18.6874 20.4406 18.107 21.351C17.5266 22.2397 16.7205 22.9224 15.6885 23.3992C14.6782 23.8761 13.4959 24.1145 12.1416 24.1145H0.404297ZM7.62725 20.2131H11.6257C12.55 20.2131 13.2917 19.9855 13.8506 19.5303C14.431 19.0751 14.7213 18.4249 14.7213 17.5796V17.2544C14.7213 16.4091 14.4417 15.7589 13.8828 15.3038C13.3239 14.8486 12.5715 14.6209 11.6257 14.6209H7.62725V20.2131ZM7.62725 10.7195H11.5611C12.4425 10.7195 13.1627 10.4919 13.7216 10.0367C14.302 9.58154 14.5923 8.95298 14.5923 8.15102V7.82589C14.5923 7.00225 14.3127 6.37368 13.7539 5.94019C13.1949 5.48501 12.4641 5.25743 11.5611 5.25743H7.62725V10.7195Z" fill="white"/>
<path d="M75.7327 24.5693C73.9915 24.5693 72.4545 24.2551 71.1216 23.6265C69.7889 22.9978 68.7462 22.0983 67.9938 20.9279C67.2414 19.7575 66.8652 18.3486 66.8652 16.7013V15.791H71.0572V16.7013C71.0572 18.0668 71.4763 19.0964 72.3147 19.79C73.1531 20.4619 74.2925 20.7979 75.7327 20.7979C77.1945 20.7979 78.2801 20.5053 78.9895 19.92C79.7204 19.3349 80.0858 18.587 80.0858 17.6767C80.0858 17.0482 79.9031 16.5388 79.5377 16.1487C79.1937 15.7585 78.6778 15.4442 77.9899 15.2058C77.3235 14.9456 76.5066 14.7073 75.5393 14.4905L74.7976 14.328C73.2498 13.9812 71.9171 13.5477 70.7992 13.0275C69.7029 12.4856 68.8537 11.7812 68.2518 10.9141C67.6714 10.0471 67.3811 8.92007 67.3811 7.53288C67.3811 6.1457 67.7036 4.96442 68.3485 3.98906C69.0149 2.99201 69.9393 2.23339 71.1216 1.7132C72.3255 1.17133 73.7335 0.900391 75.3458 0.900391C76.958 0.900391 78.3875 1.18216 79.6344 1.74571C80.9027 2.28758 81.8915 3.11122 82.601 4.21664C83.3319 5.30038 83.6973 6.6659 83.6973 8.31318V9.28855H79.5054V8.31318C79.5054 7.44619 79.3335 6.7526 78.9895 6.2324C78.6671 5.69053 78.1941 5.30038 77.5707 5.06196C76.9473 4.80186 76.2057 4.67181 75.3458 4.67181C74.056 4.67181 73.0993 4.92107 72.4759 5.41959C71.874 5.89644 71.5731 6.55752 71.5731 7.40284C71.5731 7.96639 71.7128 8.44323 71.9922 8.83338C72.2933 9.22352 72.7339 9.54865 73.3143 9.80879C73.8948 10.0688 74.6363 10.2964 75.5393 10.4915L76.2809 10.6541C77.8931 11.0008 79.2905 11.4452 80.4728 11.9871C81.6766 12.529 82.6117 13.2442 83.2781 14.1328C83.9446 15.0215 84.2777 16.1595 84.2777 17.5467C84.2777 18.9338 83.9231 20.1585 83.2136 21.2205C82.5257 22.2609 81.5369 23.0846 80.247 23.6915C78.9787 24.2767 77.474 24.5693 75.7327 24.5693Z" fill="white"/>
<path d="M93.2418 24.1145V5.25743H86.6641V1.35596H104.077V5.25743H97.4983V24.1145H93.2418Z" fill="white"/>
<path d="M114.069 24.1145V16.279L106.395 1.35596H111.135L115.907 11.1096H116.487L121.26 1.35596H126L118.325 16.279V24.1145H114.069Z" fill="white"/>
<path fill-rule="evenodd" clip-rule="evenodd" d="M63.1445 20.5581V5.31793H59.1139V1.25391H45.0065V5.31793H59.1139V20.5581H45.0065V24.6221H59.1139V20.5581H63.1445ZM40.9759 24.6221V20.5581H26.8685V5.31793H40.9759V1.25391H26.8685V5.31793H22.8379V20.5581H26.8685V24.6221H40.9759Z" fill="#FFDE46"/>
<path d="M45.0072 1.25391H40.9766V5.31794H45.0072V1.25391Z" fill="#FFDE46"/>
<path d="M40.9766 20.5581V24.6221H45.0072V20.5581H40.9766Z" fill="#FFDE46"/>
<path d="M45.0078 9.38232V16.4944H49.0385V9.38232H45.0078Z" fill="#FFDE46"/>
</g>
<defs>
<clipPath id="clip0_2752_2835">
<rect width="126" height="24.1987" fill="white" transform="translate(0 0.900391)"/>
</clipPath>
</defs>
</svg>
