<svg width="60" height="60" viewBox="0 0 60 60" fill="none" xmlns="http://www.w3.org/2000/svg">
<path d="M52.5 29.9998C52.5 28.2437 51.0712 26.8149 49.3151 26.8149C47.7392 26.8149 46.4363 27.9681 46.1832 29.473H40.8981V23.7076L38.4448 22.2911L41.8101 18.9259C42.3467 19.3113 42.9838 19.5265 43.6575 19.5265C44.5082 19.5265 45.3078 19.1952 45.9093 18.5936C47.151 17.3519 47.151 15.3313 45.9093 14.0897C45.3078 13.4881 44.5083 13.1568 43.6575 13.1568C42.8069 13.1568 42.0073 13.4881 41.4057 14.0897C40.2912 15.2042 40.1856 16.9414 41.0718 18.1844L37.5067 21.7496L30.5234 17.7175V13.8165C32.0302 13.5651 33.1848 12.2618 33.1848 10.685C33.1848 8.92879 31.7563 7.5 30.0002 7.5C28.244 7.5 26.8152 8.92879 26.8152 10.685C26.8152 12.2618 27.9701 13.5651 29.4769 13.8165V17.7175L22.4933 21.7496L18.9282 18.1844C19.814 16.9414 19.7084 15.2042 18.594 14.09C17.9924 13.4884 17.1929 13.1571 16.3421 13.1571C15.4914 13.1571 14.6919 13.4884 14.0903 14.09C12.8487 15.3317 12.8487 17.3523 14.0903 18.5939C14.6919 19.1955 15.4914 19.5268 16.3421 19.5268C17.0161 19.5268 17.6532 19.3116 18.1899 18.9262L21.5552 22.2915L19.1015 23.7082V29.4736H13.8165C13.5634 27.9686 12.2605 26.8156 10.6846 26.8156C8.92845 26.8156 7.5 28.2443 7.5 30.0005C7.5 31.7567 8.92845 33.1855 10.6846 33.1855C12.2627 33.1855 13.5666 32.0286 13.817 30.5205H19.1015V36.2928L21.5552 37.7096L18.1899 41.0748C16.9056 40.1524 15.184 40.3135 14.0904 41.4071C12.8488 42.6487 12.8488 44.6693 14.0904 45.911C15.3346 47.1552 17.3491 47.1559 18.594 45.911C19.7081 44.7965 19.8141 43.0596 18.9282 41.8166L22.4933 38.2514L29.4769 42.2825V46.1835C27.9701 46.4349 26.8152 47.7382 26.8152 49.315C26.8152 51.0712 28.244 52.5 30.0002 52.5C31.7563 52.5 33.1848 51.0712 33.1848 49.315C33.1848 47.7382 32.0302 46.4349 30.5234 46.1835V42.2825L37.509 38.2492L41.0752 41.8117C40.1864 43.0551 40.291 44.7942 41.4065 45.9097C42.008 46.5113 42.8075 46.8426 43.6583 46.8426C44.509 46.8426 45.3085 46.5113 45.9101 45.9097C47.1517 44.6681 47.1517 42.6475 45.9101 41.4058C45.3085 40.8042 44.509 40.4729 43.6583 40.4729C42.9863 40.4729 42.3504 40.6868 41.8144 41.0703L38.4478 37.7069L40.8988 36.2918V30.5196H46.1833C46.4334 32.0279 47.7376 33.1845 49.3157 33.1845C51.0715 33.1848 52.5 31.756 52.5 29.9998ZM42.1462 14.8296C42.5502 14.426 43.0872 14.2036 43.6581 14.2036C44.2291 14.2036 44.766 14.426 45.17 14.8296C46.0038 15.6634 46.0038 17.0201 45.17 17.8536C44.3621 18.6609 42.9544 18.6609 42.1464 17.8536C41.3127 17.0202 41.3128 15.6634 42.1462 14.8296ZM14.8301 17.8538C13.9964 17.0201 13.9964 15.6634 14.8301 14.8299C15.2341 14.4262 15.7711 14.2039 16.342 14.2039C16.913 14.2039 17.45 14.4262 17.854 14.8299C18.6877 15.6636 18.6877 17.0204 17.854 17.8538C17.0457 18.6612 15.6381 18.6612 14.8301 17.8538ZM10.6846 32.1376C9.50556 32.1376 8.54664 31.1783 8.54664 29.9993C8.54664 28.8202 9.50556 27.861 10.6846 27.861C11.8636 27.861 12.8229 28.8202 12.8229 29.9993C12.8229 31.1783 11.8636 32.1376 10.6846 32.1376ZM17.8541 45.1692C17.0461 45.9765 15.6385 45.9765 14.8305 45.1692C13.9967 44.3355 13.9967 42.9787 14.8305 42.1453C15.6649 41.3115 17.0164 41.3083 17.8541 42.1453C18.6875 42.9787 18.6875 44.3354 17.8541 45.1692ZM45.1701 42.1453C46.0039 42.979 46.0039 44.3357 45.1701 45.1692C44.3621 45.9765 42.9545 45.9765 42.1465 45.1692C41.3128 44.3355 41.3128 42.9787 42.1465 42.1453C42.5505 41.7416 43.0875 41.5192 43.6584 41.5192C44.229 41.5189 44.7662 41.7413 45.1701 42.1453ZM39.5035 24.5126V29.4727H36.9726C36.8621 27.9761 36.281 26.575 35.2989 25.437L37.4239 23.3121L39.5035 24.5126ZM30.0002 35.9541C26.737 35.9541 24.049 33.3114 24.049 29.996C24.049 26.7112 26.7132 24.045 30.0002 24.045C33.285 24.045 35.9515 26.7096 35.9515 29.996C35.9515 33.2371 33.3323 35.9541 30.0002 35.9541ZM36.4856 22.7706L34.5589 24.6973C33.4212 23.7155 32.0202 23.1344 30.5235 23.0239V19.328L36.4856 22.7706ZM27.8621 10.6838C27.8621 9.5048 28.8214 8.54554 30.0004 8.54554C31.1795 8.54554 32.1384 9.5048 32.1384 10.6838C32.1384 11.8629 31.1795 12.8218 30.0004 12.8218C28.8214 12.8218 27.8621 11.8629 27.8621 10.6838ZM29.4771 19.3274V23.0233C27.9802 23.1338 26.5791 23.7145 25.4418 24.6966L23.5148 22.7699L29.4771 19.3274ZM20.4973 24.5121L22.5769 23.3115L24.7021 25.4368C23.72 26.5744 23.139 27.9758 23.0285 29.4725H20.4973V24.5121ZM20.4973 35.4853V30.5184H23.0285C23.1383 32.0189 23.7197 33.4226 24.7021 34.5609L22.5769 36.6859L20.4973 35.4853ZM23.5149 37.2278L25.4419 35.3007C26.5796 36.2829 27.981 36.8639 29.4773 36.9744V40.67L23.5149 37.2278ZM32.1384 49.3137C32.1384 50.4927 31.1795 51.452 30.0004 51.452C28.8214 51.452 27.8621 50.4927 27.8621 49.3137C27.8621 48.1346 28.8214 47.1757 30.0004 47.1757C31.1795 47.1757 32.1384 48.1346 32.1384 49.3137ZM30.5237 40.6701V36.9746C32.0203 36.8641 33.4214 36.283 34.559 35.3009L36.4871 37.2269L30.5237 40.6701ZM39.5036 35.4855L37.4259 36.685L35.2954 34.5565C36.2791 33.4182 36.8634 32.0168 36.974 30.5185H39.5039L39.5036 35.4855ZM47.1774 29.9988C47.1774 28.8198 48.1367 27.8605 49.3157 27.8605C50.4948 27.8605 51.454 28.8198 51.454 29.9988C51.454 31.1779 50.4948 32.1371 49.3157 32.1371C48.1367 32.1371 47.1774 31.1779 47.1774 29.9988Z" fill="#BCFB9F"/>
<path d="M30.0002 26.0416C27.8176 26.0416 26.0422 27.817 26.0422 29.9997C26.0422 32.1823 27.8176 33.9577 30.0002 33.9577C32.1826 33.9577 33.958 32.1823 33.958 29.9997C33.958 27.817 32.1825 26.0416 30.0002 26.0416ZM30.0002 32.9114C28.3948 32.9114 27.0885 31.6053 27.0885 29.9997C27.0885 28.3941 28.3947 27.0879 30.0002 27.0879C31.6054 27.0879 32.9117 28.3941 32.9117 29.9997C32.9117 31.6053 31.6055 32.9114 30.0002 32.9114Z" fill="#BCFB9F"/>
</svg>
