<svg width="60" height="60" viewBox="0 0 60 60" fill="none" xmlns="http://www.w3.org/2000/svg">
<path d="M45.6989 19.5036C44.8634 19.5036 44.0359 19.6542 43.2573 19.9445C42.9723 13.0342 37.2614 7.49951 30.2815 7.49951C24.4662 7.49951 19.3353 11.4346 17.7824 16.9664C16.9622 16.7042 16.1006 16.5718 15.2114 16.5718C10.5479 16.5714 6.75391 20.3622 6.75391 25.0224C6.75391 29.682 10.5477 33.4728 15.2114 33.4728H19.1079C19.163 33.7251 19.345 33.9347 19.6019 34.0054L21.6601 34.5734C21.7859 34.9482 21.9404 35.3193 22.1221 35.6848L21.069 37.5402C20.9122 37.8163 20.9591 38.1627 21.183 38.3875L22.0223 39.2295V45.0557L18.2206 45.0554C17.9505 44.0876 17.0706 43.371 16.0178 43.371C14.7517 43.371 13.7215 44.4013 13.7215 45.6672C13.7215 46.9332 14.7518 47.9635 16.0178 47.9635C17.1306 47.9635 18.0598 47.1674 18.2688 46.115H22.5523C22.8448 46.115 23.0823 45.8776 23.0823 45.585V40.2922L23.4227 40.6336C23.6476 40.8598 23.9963 40.9067 24.2733 40.7482L26.128 39.6892C26.4909 39.8692 26.8617 40.0237 27.2378 40.1502L27.8065 42.2097C27.891 42.5155 28.1697 42.7278 28.4874 42.7278H29.5433V47.9718C28.5329 48.2125 27.777 49.1173 27.777 50.2003C27.777 51.4664 28.8073 52.4966 30.0733 52.4966C31.3392 52.4966 32.3695 51.4663 32.3695 50.2003C32.3695 49.1173 31.6137 48.2124 30.6032 47.9718V42.7278L31.6595 42.7281C31.9772 42.7281 32.2559 42.5155 32.3404 42.21L32.9087 40.1518C33.2819 40.0263 33.6533 39.8718 34.0189 39.6895L35.8734 40.7485C36.1504 40.9073 36.4991 40.8604 36.7239 40.6339L36.9472 40.4097V45.585C36.9472 45.8776 37.1843 46.115 37.4771 46.115H41.7606C41.9696 47.1674 42.8988 47.9635 44.0116 47.9635C45.2777 47.9635 46.3079 46.9332 46.3079 45.6672C46.3079 44.4013 45.2776 43.371 44.0116 43.371C42.9586 43.371 42.0786 44.0872 41.8088 45.0554H38.0071V39.3468L38.9637 38.3872C39.1879 38.1623 39.2344 37.8159 39.0776 37.5399L38.0246 35.6845C38.2075 35.3166 38.3607 34.9448 38.4835 34.5724L40.5444 34.0051C40.8013 33.9344 40.9839 33.7247 41.0387 33.4724H45.6982C49.5475 33.4724 52.6791 30.3378 52.6791 26.4843C52.6791 22.6351 49.5478 19.504 45.6986 19.504L45.6989 19.5036ZM16.0176 46.9033C15.3361 46.9033 14.7813 46.3486 14.7813 45.667C14.7813 44.9855 15.3361 44.4307 16.0176 44.4307C16.6992 44.4307 17.2539 44.9855 17.2539 45.667C17.2543 46.3486 16.6995 46.9033 16.0176 46.9033ZM31.3096 50.2001C31.3096 50.8817 30.7549 51.4364 30.0734 51.4364C29.3918 51.4364 28.8371 50.8817 28.8371 50.2001C28.8371 49.5186 29.3918 48.9638 30.0734 48.9638C30.7549 48.9638 31.3096 49.5186 31.3096 50.2001ZM44.0124 44.4304C44.694 44.4304 45.2487 44.9851 45.2487 45.6667C45.2487 46.3482 44.694 46.903 44.0124 46.903C43.3309 46.903 42.7761 46.3482 42.7761 45.6667C42.7761 44.9851 43.3309 44.4304 44.0124 44.4304ZM39.651 32.786L37.7326 33.314C37.4915 33.3803 37.3033 33.5692 37.2379 33.8106C37.0969 34.3317 36.8892 34.8373 36.6023 35.3556C36.4834 35.5709 36.4847 35.8331 36.6059 36.0464L37.5843 37.7701L36.1053 39.2538L34.3843 38.2711C34.1703 38.1489 33.9081 38.1469 33.6922 38.2661C33.1833 38.5468 32.6609 38.7644 32.1395 38.9107C31.9015 38.9777 31.7159 39.1646 31.6498 39.4027L31.1218 41.3152L29.0253 41.3149L28.4973 39.4024C28.4316 39.1649 28.247 38.9787 28.01 38.911C27.4806 38.7604 26.9576 38.5432 26.4553 38.2658C26.2393 38.1462 25.9772 38.1486 25.7632 38.2707L24.0422 39.2534L22.5632 37.7698L23.5416 36.0461C23.6631 35.8328 23.6644 35.5712 23.5455 35.3559C23.2652 34.8488 23.0483 34.3257 22.9006 33.8027C22.8336 33.5646 22.647 33.379 22.4086 33.3136L20.4968 32.7856V30.6908L22.407 30.1684C22.6461 30.1027 22.8333 29.9171 22.9007 29.6784C23.0526 29.1415 23.2689 28.62 23.5436 28.1287C23.6645 27.9134 23.6638 27.6499 23.5416 27.4346L22.5636 25.7123L24.0439 24.2267L25.7729 25.2051C25.9855 25.3266 26.2454 25.3272 26.4597 25.21C26.96 24.9369 27.4817 24.7217 28.0107 24.5704C28.2475 24.5021 28.4321 24.3165 28.4974 24.0791L29.0254 22.1672H31.1223L31.6503 24.0791C31.716 24.3165 31.9002 24.5021 32.137 24.5704C32.6657 24.7217 33.1874 24.9369 33.688 25.21C33.9023 25.3272 34.1625 25.3259 34.3748 25.2051L36.1038 24.2267L37.5841 25.7123L36.6061 27.4346C36.4839 27.6499 36.4833 27.9134 36.6041 28.1287C36.8818 28.6247 37.0951 29.1438 37.2378 29.6714C37.3035 29.9128 37.4924 30.102 37.7341 30.1681L39.651 30.6905V32.7652L39.651 32.786ZM45.6991 32.0595H41.064V30.1516C41.064 29.833 40.8507 29.5539 40.5433 29.4701L38.4841 28.909C38.3603 28.5309 38.2071 28.1591 38.0261 27.7962L39.0785 25.9438C39.2353 25.6671 39.1884 25.3207 38.9645 25.0958L36.7248 22.8491C36.4999 22.6236 36.1525 22.575 35.8765 22.7332L34.0124 23.7876C33.6522 23.6103 33.2833 23.4577 32.9099 23.3322L32.3412 21.2734C32.2567 20.967 31.978 20.7553 31.6604 20.7553H28.4878C28.1701 20.7553 27.8914 20.967 27.8069 21.2734L27.2382 23.3322C26.8648 23.4577 26.4956 23.6103 26.1357 23.7876L24.2716 22.7332C23.9953 22.575 23.6476 22.6236 23.4234 22.8491L21.1836 25.0958C20.9594 25.3207 20.9128 25.6671 21.0696 25.9438L22.122 27.7962C21.9424 28.1565 21.7878 28.5283 21.6607 28.9084L19.6045 29.47C19.2974 29.5542 19.0841 29.8329 19.0841 30.1516V32.0595H15.2121C11.3275 32.0595 8.16743 28.9027 8.16743 25.0221C8.16743 21.1416 11.3275 17.9844 15.2117 17.9844C16.1915 17.9844 17.1279 18.1763 17.9954 18.555C18.1896 18.6392 18.4121 18.6323 18.601 18.5359C18.7896 18.4385 18.9249 18.2618 18.9692 18.0541C20.0975 12.7572 24.8555 8.91269 30.2823 8.91269C36.6638 8.91269 41.8557 14.1042 41.8557 20.4861C41.8557 20.6591 41.8563 20.8388 41.8434 21.0042C41.8233 21.2657 41.9498 21.5177 42.172 21.657C42.3942 21.797 42.6756 21.8013 42.9024 21.6702C43.7514 21.1776 44.7185 20.9174 45.6989 20.9174C48.7688 20.9174 51.2665 23.4151 51.2665 26.485C51.2665 29.5585 48.7688 32.0598 45.6989 32.0598L45.6991 32.0595Z" fill="#BCFB9F"/>
<path d="M30.0729 26.0719C26.9475 26.0719 24.4049 28.6144 24.4049 31.7395C24.4049 34.8653 26.9475 37.4079 30.0729 37.4079C33.1984 37.4079 35.741 34.8653 35.741 31.7395C35.741 28.6144 33.1984 26.0719 30.0729 26.0719ZM30.0729 36.3477C27.532 36.3477 25.4649 34.2806 25.4649 31.7393C25.4649 29.1986 27.532 27.1316 30.0729 27.1316C32.6139 27.1316 34.681 29.1986 34.681 31.7393C34.681 34.2805 32.6139 36.3477 30.0729 36.3477Z" fill="#BCFB9F"/>
</svg>
