<svg width="60" height="60" viewBox="0 0 60 60" fill="none" xmlns="http://www.w3.org/2000/svg">
<path d="M20.5073 44.0409H39.8843C40.3343 44.0409 40.7006 43.6749 40.7006 43.2246L40.7009 13.8865C40.7009 13.4365 40.3347 13.0705 39.8846 13.0705H20.5076C20.0575 13.0705 19.6913 13.4365 19.6913 13.8865V43.2237C19.6913 43.6738 20.0575 44.0404 20.5076 44.0404L20.5073 44.0409ZM21.0754 14.4552H39.316V42.656H21.0754V14.4552Z" fill="#BCFB9F"/>
<path d="M31.849 47.0335C31.849 47.9463 31.1091 48.6862 30.196 48.6862C29.2832 48.6862 28.5433 47.9462 28.5433 47.0335C28.5433 46.1207 29.2833 45.3805 30.196 45.3805C31.109 45.3805 31.849 46.1208 31.849 47.0335Z" fill="#BCFB9F"/>
<path d="M26.7882 11.7531H28.1989C28.3901 11.7531 28.5451 11.5981 28.5451 11.4069C28.5451 11.2157 28.3901 11.0607 28.1989 11.0607H26.7882C26.597 11.0607 26.442 11.2157 26.442 11.4069C26.442 11.5984 26.597 11.7531 26.7882 11.7531Z" fill="#BCFB9F"/>
<path d="M29.9133 11.7531H33.6031C33.7943 11.7531 33.9493 11.5981 33.9493 11.4069C33.9493 11.2157 33.7943 11.0607 33.6031 11.0607H29.9133C29.7221 11.0607 29.5671 11.2157 29.5671 11.4069C29.5671 11.5984 29.7221 11.7531 29.9133 11.7531Z" fill="#BCFB9F"/>
<path d="M30.8808 27.543H30.8351L30.8355 24.6822C31.6165 24.7941 32.3422 25.0886 33.0116 25.5651L34.001 24.1652C33.0068 23.4851 31.9517 23.1049 30.8357 23.0234V22.2475H29.8615V23.0085C27.9917 23.1049 26.5438 24.2241 26.5438 26.0751C26.5438 28.0134 27.8704 28.6664 29.8615 29.1416V32.0943C28.9582 31.9519 28.0807 31.511 27.2284 30.7704L26.1177 32.0943C27.2233 33.0579 28.4712 33.6108 29.8615 33.7528V34.8639H30.8357V33.7683C32.7634 33.6738 34.275 32.5861 34.275 30.6861C34.2747 28.6756 32.8307 28.0017 30.8807 27.5429L30.8808 27.543ZM29.8612 27.2693C29.0015 26.993 28.3997 26.7286 28.3997 25.8922C28.3997 25.1161 29.0811 24.7061 29.8612 24.6362V27.2693ZM30.8355 29.4006C31.7417 29.6727 32.4182 29.9503 32.4182 30.831C32.4182 31.6457 31.6534 32.0553 30.8355 32.1395V29.4006Z" fill="#BCFB9F"/>
<path d="M9.95901 27.4718C10.7828 27.4718 11.4723 26.8858 11.6327 26.1087H16.2291V30.8422L12.9923 30.8425C12.8328 30.1132 12.1837 29.5648 11.4075 29.5648C10.512 29.5648 9.78366 30.2934 9.78366 31.1886C9.78366 32.0842 10.5123 32.8125 11.4075 32.8125C12.184 32.8125 12.8331 32.2641 12.9923 31.5348H16.2291V34.7939L11.6263 34.7936C11.4351 34.7936 11.2801 34.9486 11.2801 35.1398V37.4157C10.5654 37.5736 10.0283 38.2103 10.0283 38.972C10.0283 39.852 10.744 40.5674 11.6237 40.5674C12.5035 40.5674 13.2195 39.8517 13.2195 38.972C13.2195 38.2119 12.6847 37.5771 11.9725 37.4173V35.486H16.2292V49.61C16.2292 51.2035 17.5256 52.5 19.1192 52.5H41.2726C42.8661 52.5 44.1623 51.2036 44.1623 49.61V35.486H48.4189V37.4173C47.7068 37.5771 47.1719 38.2119 47.1719 38.972C47.1719 39.852 47.8876 40.5674 48.7674 40.5674C49.6471 40.5674 50.3628 39.8517 50.3628 38.972C50.3628 38.2103 49.8257 37.5739 49.111 37.416V35.1401C49.111 34.9489 48.956 34.7939 48.7648 34.7939H44.162V31.5348H47.3988C47.558 32.2641 48.2074 32.8125 48.9836 32.8125C49.8791 32.8125 50.6074 32.0839 50.6074 31.1886C50.6074 30.2931 49.8788 29.5648 48.9836 29.5648C48.2071 29.5648 47.558 30.1132 47.3988 30.8425H44.162V26.109H48.7584C48.9188 26.8858 49.608 27.4721 50.4321 27.4721C51.3746 27.4721 52.1411 26.7053 52.1411 25.7631C52.1411 24.8206 51.3743 24.0541 50.4321 24.0541C49.608 24.0541 48.9188 24.64 48.7584 25.4172H44.162V22.293H48.7648C48.956 22.293 49.111 22.138 49.111 21.9468V19.6751C49.8892 19.5156 50.4764 18.8254 50.4764 18.0007C50.4764 17.0582 49.7096 16.2917 48.7674 16.2917C47.8249 16.2917 47.0584 17.0585 47.0584 18.0007C47.0584 18.8238 47.643 19.5124 48.4189 19.6738V21.6005H44.1623V10.3897C44.1623 8.79652 42.8658 7.5 41.2726 7.5H19.1192C17.5257 7.5 16.2292 8.79644 16.2292 10.3897V21.6005L11.9722 21.6002V19.6735C12.7481 19.512 13.3327 18.8235 13.3327 18.0004C13.3327 17.0579 12.5659 16.2914 11.6237 16.2914C10.6812 16.2914 9.91472 17.0582 9.91472 18.0007C9.91472 18.8255 10.502 19.5156 11.2801 19.6751V21.9468C11.2801 22.138 11.4351 22.293 11.6263 22.293H16.2291V25.4172L11.6327 25.4169C11.4723 24.64 10.7827 24.0538 9.95901 24.0538C9.0165 24.0538 8.25 24.8206 8.25 25.7628C8.25 26.7056 9.01649 27.4721 9.95901 27.4721V27.4718ZM11.4072 32.1202C10.8934 32.1202 10.4757 31.7025 10.4757 31.1887C10.4757 30.6749 10.8937 30.2572 11.4072 30.2572C11.921 30.2572 12.3387 30.6749 12.3387 31.1887C12.3387 31.7025 11.921 32.1202 11.4072 32.1202ZM12.527 38.9721C12.527 39.47 12.122 39.8754 11.6237 39.8754C11.1258 39.8751 10.7207 39.4697 10.7207 38.9721C10.7207 38.4741 11.1258 38.0687 11.624 38.0687C12.122 38.0687 12.527 38.4741 12.527 38.9721ZM49.67 38.9721C49.67 39.47 49.2649 39.8754 48.7667 39.8754C48.2687 39.8754 47.8634 39.47 47.8634 38.9721C47.8634 38.4741 48.2684 38.0687 48.7667 38.0687C49.2649 38.0687 49.67 38.4741 49.67 38.9721ZM48.9834 30.2568C49.4972 30.2568 49.9149 30.6745 49.9149 31.1883C49.9149 31.7021 49.4969 32.1198 48.9834 32.1198C48.4696 32.1198 48.0519 31.7021 48.0519 31.1883C48.0519 30.6748 48.4697 30.2568 48.9834 30.2568ZM50.4316 24.7458C50.9923 24.7458 51.4485 25.2017 51.4485 25.7627C51.4485 26.3234 50.9923 26.7796 50.4316 26.7796C49.8709 26.7796 49.4147 26.3237 49.4147 25.7627C49.4147 25.202 49.8709 24.7458 50.4316 24.7458ZM47.75 18.0004C47.75 17.4397 48.2062 16.9835 48.7669 16.9835C49.3276 16.9835 49.7838 17.4394 49.7838 18.0004C49.7838 18.5611 49.3276 19.0173 48.7669 19.0173C48.2062 19.0169 47.75 18.5611 47.75 18.0004ZM10.6071 18.0004C10.6071 17.4397 11.0633 16.9835 11.6239 16.9835C12.1847 16.9835 12.6408 17.4394 12.6408 18.0004C12.6408 18.5611 12.1846 19.0173 11.6239 19.0173C11.0632 19.0169 10.6071 18.5611 10.6071 18.0004ZM17.6136 10.3895C17.6136 9.55952 18.2888 8.88463 19.1187 8.88463H41.2722C42.1021 8.88463 42.7773 9.55955 42.7773 10.3895V49.6098C42.7773 50.4397 42.1021 51.115 41.2722 51.115H19.1195C18.2896 51.115 17.6144 50.4397 17.6144 49.6098L17.6136 10.3895ZM9.959 24.7454C10.5197 24.7454 10.9759 25.2013 10.9759 25.7623C10.9759 26.323 10.5197 26.7792 9.959 26.7792C9.39829 26.7792 8.94211 26.3233 8.94211 25.7623C8.94243 25.2016 9.39832 24.7454 9.959 24.7454Z" fill="#BCFB9F"/>
</svg>
