<svg width="110" height="30" viewBox="0 0 110 30" fill="none" xmlns="http://www.w3.org/2000/svg">
<path d="M13.3682 7.68828C12.3013 6.93515 11.0774 6.55858 9.72803 6.55858C8.75523 6.55858 7.87657 6.74686 7.09205 7.15481C6.30753 7.56276 5.64854 8.09623 5.11506 8.75523C4.58159 9.41423 4.17364 10.136 3.89121 10.9205V0H0V23.8494H3.89121V20.2406C4.2364 21.0251 4.70711 21.7155 5.30335 22.3117C5.89958 22.908 6.55858 23.3787 7.31172 23.7239C8.06485 24.069 8.84937 24.2259 9.69665 24.2259C11.046 24.2259 12.2699 23.8494 13.3368 23.0962C14.4038 22.3431 15.251 21.3075 15.8473 19.9582C16.4435 18.6088 16.7573 17.1025 16.7573 15.4079C16.7573 13.7134 16.4435 12.2071 15.8473 10.8577C15.251 9.50837 14.4038 8.4728 13.3368 7.71967L13.3682 7.68828ZM10.7322 20.7741C10.0418 21.2762 9.22594 21.5272 8.25314 21.5272C7.31172 21.5272 6.49582 21.2762 5.80544 20.7741C5.11506 20.272 4.58159 19.5816 4.2364 18.6715C3.89121 17.7615 3.70293 16.6946 3.70293 15.4707C3.70293 14.2469 3.89121 13.1799 4.2364 12.2699C4.58159 11.3598 5.08368 10.6695 5.77406 10.1674C6.46444 9.66527 7.28033 9.41423 8.22176 9.41423C9.19456 9.41423 10.0105 9.66527 10.7008 10.1674C11.3912 10.6695 11.8933 11.3598 12.2385 12.2699C12.5837 13.1799 12.7406 14.2469 12.7406 15.4707C12.7406 16.7259 12.5523 17.8243 12.2071 18.7343C11.8619 19.6444 11.3598 20.3347 10.6695 20.8368L10.7322 20.7741Z" fill="#FBF8F3"/>
<path d="M21.7927 23.1276C23.0793 23.8808 24.5856 24.2573 26.3115 24.2573C28.0375 24.2573 29.5438 23.8808 30.8304 23.1276C32.117 22.3745 33.1212 21.3389 33.8115 19.9895C34.5019 18.6402 34.8471 17.1025 34.8471 15.3766C34.8471 13.6506 34.5019 12.113 33.8115 10.795C33.1212 9.47699 32.117 8.44142 30.8304 7.68828C29.5438 6.93515 28.0375 6.55858 26.3115 6.55858C24.5856 6.55858 23.0793 6.93515 21.7927 7.68828C20.5061 8.44142 19.5019 9.47699 18.8115 10.795C18.1212 12.113 17.776 13.6506 17.776 15.3766C17.776 17.1025 18.1212 18.6402 18.8115 19.9895C19.5019 21.3389 20.4747 22.3745 21.7613 23.1276H21.7927ZM28.7279 20.7427C28.0375 21.2448 27.2216 21.4958 26.2488 21.4958C25.3074 21.4958 24.4915 21.2448 23.8011 20.7427C23.1107 20.2406 22.5772 19.5502 22.232 18.6402C21.8868 17.7301 21.6986 16.6632 21.6986 15.4393C21.6986 14.2155 21.8868 13.1485 22.232 12.2385C22.5772 11.3285 23.0793 10.6381 23.7697 10.136C24.4601 9.63389 25.276 9.38285 26.2174 9.38285C27.1902 9.38285 28.0061 9.63389 28.6965 10.136C29.3868 10.6381 29.8889 11.3285 30.2341 12.2385C30.5793 13.1485 30.7362 14.2155 30.7362 15.4393C30.7362 16.6946 30.5479 17.7929 30.2027 18.7029C29.8576 19.613 29.3555 20.3033 28.6651 20.8054L28.7279 20.7427Z" fill="#FBF8F3"/>
<path d="M39.7447 23.1276C41.0313 23.8808 55.1363 24.2573 56.8622 24.2573C58.5882 24.2573 60.0945 23.8808 61.3811 23.1276C62.6677 22.3745 63.6719 21.3389 64.3622 19.9895C65.0526 18.6402 65.3978 17.1025 65.3978 15.3766C65.3978 13.6506 65.0526 12.113 64.3622 10.795C63.6719 9.47699 62.6677 8.44142 61.3811 7.68828C60.0945 6.93515 58.5882 6.55858 56.8622 6.55858C55.1363 6.55858 41.0313 6.93515 39.7447 7.68828C38.4581 8.44142 37.4539 9.47699 36.7635 10.795C36.0732 12.113 35.728 13.6506 35.728 15.3766C35.728 17.1025 36.0732 18.6402 36.7635 19.9895C37.4539 21.3389 38.4267 22.3745 39.7133 23.1276H39.7447ZM59.2786 20.7427C58.5882 21.2448 57.7723 21.4958 56.7995 21.4958C55.8581 21.4958 42.4434 21.2448 41.7531 20.7427C41.0627 20.2406 40.5292 19.5502 40.184 18.6402C39.8388 17.7301 39.6506 16.6632 39.6506 15.4393C39.6506 14.2155 39.8388 13.1485 40.184 12.2385C40.5292 11.3285 41.0313 10.6381 41.7217 10.136C42.4121 9.63389 55.8267 9.38285 56.7681 9.38285C57.7409 9.38285 58.5568 9.63389 59.2472 10.136C59.9376 10.6381 60.4397 11.3285 60.7848 12.2385C61.13 13.1485 61.2869 14.2155 61.2869 15.4393C61.2869 16.6946 61.0986 17.7929 60.7535 18.7029C60.4083 19.613 59.9062 20.3033 59.2158 20.8054L59.2786 20.7427Z" fill="#FBF8F3"/>
<path d="M70.4043 23.6297C71.4713 24.0377 72.6637 24.2573 74.0131 24.2573C75.4566 24.2573 76.7433 24.0377 77.873 23.6297C79.0027 23.2218 79.8813 22.6255 80.5089 21.8096C81.1366 20.9937 81.4504 20.0523 81.4504 18.954C81.4504 17.6046 81.0424 16.5377 80.2265 15.7218C79.4106 14.9059 78.124 14.3096 76.3667 13.9331L73.6993 13.3682C72.9462 13.2113 72.3499 13.0544 71.9106 12.8975C71.4713 12.7406 71.1575 12.5523 70.9378 12.3013C70.7181 12.0502 70.5926 11.7364 70.5926 11.3598C70.5926 10.7636 70.9064 10.2929 71.534 9.91632C72.1617 9.53975 72.9148 9.35147 73.8248 9.35147C74.6094 9.35147 75.2997 9.53975 75.9274 9.88494C76.555 10.2301 76.9629 10.7008 77.1826 11.2971H81.1366C80.9169 10.2615 80.4462 9.41423 79.7558 8.72385C79.0654 8.03347 78.2181 7.5 77.214 7.15481C76.2098 6.80962 75.0801 6.62134 73.8562 6.62134C72.5696 6.62134 71.3771 6.841 70.3102 7.24895C69.2433 7.6569 68.396 8.25314 67.7684 9.03766C67.1407 9.82218 66.8269 10.7008 66.8269 11.705C66.8269 12.9289 67.2349 13.9331 68.0822 14.6862C68.9294 15.4393 70.1533 16.0042 71.7537 16.3494L74.4211 16.9456C75.237 17.1025 75.8646 17.2908 76.3353 17.5105C76.806 17.7301 77.1512 17.9812 77.3395 18.2636C77.5278 18.546 77.6219 18.9226 77.6219 19.3619C77.6219 20.0209 77.3081 20.5544 76.6805 20.931C76.0529 21.3075 75.1428 21.4958 73.9817 21.4958C73.0717 21.4958 72.2872 21.3075 71.6282 20.8996C70.9692 20.4916 70.5299 19.8326 70.3416 18.8912H66.3876C66.5445 20.0523 66.9525 21.0565 67.6428 21.8724C68.3332 22.6883 69.2119 23.2845 70.2788 23.6925L70.4043 23.6297Z" fill="#FBF8F3"/>
<path d="M92.5918 20.931H90.8031C90.0185 20.931 89.4537 20.7741 89.0771 20.4603C88.7005 20.1464 88.5123 19.613 88.5123 18.8285V9.82218H92.529V6.93515H88.5123V2.91841H84.5897V6.93515H81.2633V9.82218H84.5897V19.0167C84.5897 20.0837 84.8407 20.9937 85.3114 21.7155C85.7821 22.4372 86.4411 22.9707 87.2884 23.3159C88.1357 23.6611 89.0771 23.8494 90.1441 23.8494H92.5918V20.931Z" fill="#FBF8F3"/>
<path d="M101.107 21.4644L95.9603 6.93515H92.0063L97.4352 22.0293H100.918L98.4394 30H102.487L109.736 6.93515H105.626L101.107 21.4644Z" fill="#FBF8F3"/>
</svg>
