<svg width="22" height="23" viewBox="0 0 22 23" fill="none" xmlns="http://www.w3.org/2000/svg">
<path d="M6.38694 3.53955L15.8538 3.54095C17.0912 3.55596 17.7368 3.69408 18.4064 4.05219C19.0555 4.39933 19.5696 4.91344 19.9168 5.56254C20.2973 6.27399 20.4294 6.95833 20.4294 8.35423V14.4392C20.4294 15.8351 20.2973 16.5194 19.9168 17.2309C19.5696 17.8799 19.0555 18.3941 18.4064 18.7412C17.695 19.1217 17.0106 19.2538 15.6147 19.2538H6.38694C4.99104 19.2538 4.3067 19.1217 3.59525 18.7412C2.94616 18.3941 2.43205 17.8799 2.08491 17.2309C1.70442 16.5194 1.57227 15.8351 1.57227 14.4392L1.57366 8.11513C1.58867 6.87772 1.7268 6.23214 2.08491 5.56254C2.43205 4.91344 2.94616 4.39933 3.59525 4.05219C4.3067 3.6717 4.99104 3.53955 6.38694 3.53955ZM18.6122 6.46871L13.2232 11.857C12.0367 13.0434 10.1377 13.083 8.90372 11.9756L8.7785 11.857L3.38949 6.46871C3.20923 6.87317 3.14369 7.33581 3.14369 8.35423V14.4392C3.14369 15.5978 3.22852 16.0371 3.47061 16.4898C3.6713 16.865 3.96109 17.1548 4.33634 17.3555C4.73576 17.5691 5.12473 17.6603 6.00668 17.6788L6.38694 17.6824H15.6147C16.7734 17.6824 17.2127 17.5976 17.6653 17.3555C18.0406 17.1548 18.3304 16.865 18.5311 16.4898C18.7447 16.0903 18.8358 15.7014 18.8543 14.8194L18.858 14.4392V8.35423C18.858 7.33581 18.7924 6.87317 18.6122 6.46871ZM15.6147 5.11098H6.38694C5.36852 5.11098 4.90589 5.17651 4.50142 5.35677L9.88967 10.7458C10.4711 11.3272 11.3946 11.3578 12.0121 10.8376L12.112 10.7458L17.5003 5.35677C17.0958 5.17651 16.6332 5.11098 15.6147 5.11098Z"/>
</svg>
