<svg width="22" height="22" viewBox="0 0 22 22" fill="none" xmlns="http://www.w3.org/2000/svg">
<path d="M10.2129 15.7141C9.77895 15.7141 9.42718 16.0659 9.42718 16.4999C9.42718 16.9338 9.77895 17.2856 10.2129 17.2856H11.7843C12.2183 17.2856 12.57 16.9338 12.57 16.4999C12.57 16.0659 12.2183 15.7141 11.7843 15.7141H10.2129Z"/>
<path fill-rule="evenodd" clip-rule="evenodd" d="M4.71289 6.59986C4.71289 4.8397 4.71289 3.95961 5.05544 3.28732C5.35676 2.69595 5.83755 2.21516 6.42892 1.91384C7.10121 1.57129 7.9813 1.57129 9.74146 1.57129H12.2557C14.0159 1.57129 14.896 1.57129 15.5683 1.91384C16.1597 2.21516 16.6405 2.69595 16.9418 3.28732C17.2843 3.95961 17.2843 4.8397 17.2843 6.59986V15.3999C17.2843 17.16 17.2843 18.0401 16.9418 18.7124C16.6405 19.3038 16.1597 19.7846 15.5683 20.0859C14.896 20.4284 14.0159 20.4284 12.2557 20.4284H9.74146C7.9813 20.4284 7.10121 20.4284 6.42892 20.0859C5.83755 19.7846 5.35676 19.3038 5.05544 18.7124C4.71289 18.0401 4.71289 17.16 4.71289 15.3999V6.59986ZM9.74146 3.14272H12.2557C13.1618 3.14272 13.7468 3.14394 14.192 3.18032C14.6189 3.2152 14.7772 3.2744 14.8549 3.31399C15.1506 3.46465 15.391 3.70505 15.5416 4.00073C15.5812 4.07843 15.6404 4.2367 15.6753 4.6636C15.7117 5.10885 15.7129 5.69385 15.7129 6.59986V15.3999C15.7129 16.3059 15.7117 16.8909 15.6753 17.3361C15.6404 17.763 15.5812 17.9213 15.5416 17.999C15.391 18.2947 15.1506 18.5351 14.8549 18.6857C14.7772 18.7253 14.6189 18.7845 14.192 18.8194C13.7468 18.8558 13.1618 18.857 12.2557 18.857H9.74146C8.83545 18.857 8.25045 18.8558 7.8052 18.8194C7.3783 18.7845 7.22003 18.7253 7.14233 18.6857C6.84665 18.5351 6.60625 18.2947 6.45559 17.999C6.41601 17.9213 6.3568 17.763 6.32192 17.3361C6.28554 16.8909 6.28432 16.3059 6.28432 15.3999V6.59986C6.28432 5.69385 6.28554 5.10885 6.32192 4.6636C6.3568 4.2367 6.41601 4.07843 6.45559 4.00073C6.60625 3.70505 6.84665 3.46465 7.14233 3.31399C7.22003 3.2744 7.3783 3.2152 7.8052 3.18032C8.25045 3.14394 8.83545 3.14272 9.74146 3.14272Z"/>
</svg>
