<svg width="152" height="66" viewBox="0 0 152 66" fill="none" xmlns="http://www.w3.org/2000/svg">
<path d="M143.942 49.6893L135.758 38.0475L127.576 49.6893H119.828L131.231 32.9754L120.029 15.8868H128.146L135.726 27.5628L143.271 15.8868H151.387L140.185 32.9754L151.656 49.6893H143.942Z" fill="white"/>
<path d="M102.857 30.8648V30.9329C102.857 33.1455 103.293 35.2221 104.098 37.1284H113.087C111.41 40.8728 107.687 43.494 103.394 43.494C97.5249 43.494 92.7288 38.6602 92.7288 32.6689C92.7288 26.7117 97.4913 21.8439 103.394 21.8439C107.486 21.8439 111.041 24.1928 112.818 27.5968L119.023 25.0437C116.239 19.1207 110.269 15.0357 103.394 15.0357C93.8021 15.0357 86.0547 22.9333 86.0547 32.6349C86.0547 42.3706 93.8356 50.2341 103.394 50.2341C108.626 50.2341 112.282 48.1235 114.562 44.7535L114.998 49.6213H120.197V30.8648H102.857Z" fill="white"/>
<path d="M66.4007 30.8647V30.9328C66.4007 33.1455 66.8367 35.2219 67.6416 37.1282H76.6298C74.953 40.8728 71.2302 43.4939 66.9374 43.4939C63.617 43.4939 60.6656 41.962 58.6869 39.5451C58.1838 42.0302 57.4124 44.4471 56.4062 46.6938C59.3241 48.9404 62.9463 50.3021 66.9038 50.3021C72.1358 50.3021 75.7914 48.1915 78.0721 44.8215L78.508 49.6893H83.7065V30.8647H66.4007Z" fill="white"/>
<path d="M58.6477 25.8951C60.5929 23.4442 63.5778 21.8784 66.9317 21.8784C71.0234 21.8784 74.5784 24.2271 76.356 27.6312L82.5606 25.0782C79.7768 19.155 73.807 15.0701 66.9317 15.0701C62.9406 15.0701 59.2849 16.4318 56.3672 18.7125C57.3732 20.9933 58.1446 23.3762 58.6477 25.8951Z" fill="white"/>
<path d="M28.0093 19.5596C27.9439 19.5596 27.8458 19.5263 27.7804 19.5263C27.7148 19.5263 27.6494 19.5263 27.6167 19.493C27.5513 19.493 27.4859 19.493 27.4531 19.493C27.4204 19.493 27.355 19.493 27.3223 19.493C27.2569 19.493 27.1588 19.493 27.0934 19.493C27.0607 19.493 26.9951 19.493 26.9624 19.493H26.9297C26.8643 19.493 26.7989 19.493 26.7335 19.493C26.6353 19.493 26.5045 19.493 26.4062 19.493C26.4062 19.493 26.4062 19.493 26.3735 19.493V21.1592V33.1233H17.7699V33.1566C17.7699 34.3563 17.9989 35.4895 18.4569 36.5226H23.0367V42.7545C19.1439 41.3549 16.3304 37.5558 16.3304 33.09C16.3304 27.9245 20.0598 23.6588 24.9342 22.9588V19.5596V19.493C18.1951 20.2261 12.9609 26.0249 12.9609 33.0567C12.9609 40.0219 18.0643 45.7539 24.7052 46.6205C24.7706 46.6205 24.8687 46.6538 24.9342 46.6538C24.9996 46.6538 25.065 46.6538 25.0977 46.6871C25.1632 46.6871 25.2287 46.6871 25.2614 46.6871C25.2941 46.6871 25.3595 46.6871 25.3922 46.6871C25.4576 46.6871 25.5557 46.6871 25.6211 46.6871C25.6538 46.6871 25.7193 46.6871 25.752 46.6871H25.7848C25.8502 46.6871 25.9156 46.6871 25.9811 46.6871C26.1119 46.6871 26.21 46.6871 26.3408 46.6871V33.0233H34.9446V32.99C34.9446 31.7903 34.7156 30.6572 34.2576 29.6242H29.6776V23.3921C33.5706 24.7917 36.384 28.591 36.384 33.0567C36.384 38.2223 32.622 42.488 27.7804 43.1878V46.5871V46.6205C34.5194 45.8873 39.7536 40.0885 39.7536 33.0567C39.7536 26.1249 34.6175 20.3927 28.0093 19.5596Z" fill="white"/>
<mask id="mask0_3320_3088" style="mask-type:luminance" maskUnits="userSpaceOnUse" x="0" y="6" width="52" height="54">
<path d="M52.0005 6.69568H0.351562V59.1187H52.0005V6.69568Z" fill="white"/>
</mask>
<g mask="url(#mask0_3320_3088)">
<path d="M26.1737 16.0632C27.8852 16.0632 29.5425 16.3381 31.0916 16.8328L34.6122 8.14698C31.9691 7.21243 29.1309 6.69568 26.1629 6.69568C23.1948 6.69568 20.2159 7.23441 17.5078 8.21295L21.2991 16.7999C22.8482 16.316 24.4839 16.0632 26.1629 16.0632H26.1737Z" fill="white"/>
<path d="M40.8886 25.1449L49.5221 21.6925C47.0306 16.36 42.8168 12.0391 37.6172 9.42236L34.0859 18.1192C36.9781 19.7244 39.3504 22.1763 40.8779 25.1449H40.8886Z" fill="white"/>
<path d="M18.3175 18.0752L14.5371 9.52136C9.58664 12.0721 5.53531 16.1842 3.05469 21.2308L11.4823 25.0899C13.0422 22.0554 15.4362 19.6365 18.3067 18.0643L18.3175 18.0752Z" fill="white"/>
<path d="M9.58078 32.9072C9.58078 31.2799 9.80827 29.6857 10.2524 28.1465L1.79228 24.2763C0.860687 26.981 0.351562 29.8836 0.351562 32.9072C0.351562 35.9307 0.871519 38.8443 1.80311 41.549L10.1874 37.8109L10.2957 37.7669C9.84076 36.2277 9.58078 34.6004 9.58078 32.9072Z" fill="white"/>
<path d="M18.3687 47.7501C15.4656 46.1669 13.0716 43.737 11.5226 40.7794L11.4793 40.8014V40.8234L11.3493 40.8784L3.0625 44.5727C5.57562 49.6852 9.6811 53.8632 14.7399 56.4029L18.2279 48.1129L18.3687 47.7392V47.7501Z" fill="white"/>
<path d="M40.8149 40.8124C39.2658 43.759 36.8718 46.1888 33.9688 47.7611L33.9905 47.8161L34.2936 48.5417V48.5637L37.5976 56.4029C42.6455 53.8632 46.7727 49.7071 49.2857 44.5946L41.0315 40.9224L40.7931 40.8234L40.8149 40.8124Z" fill="white"/>
<path d="M30.9576 49.0256C29.4412 49.4874 27.838 49.7402 26.1806 49.7402C24.5233 49.7402 22.8984 49.4874 21.3818 49.0146L21.3493 49.1025L21.2193 49.4103L17.7422 57.6674C20.3852 58.591 23.2233 59.1076 26.1806 59.1076C29.1378 59.1076 31.965 58.591 34.6191 57.6674L31.2177 49.5972L30.9576 49.0256Z" fill="white"/>
<path d="M50.7206 24.76L42.098 28.2124C42.5313 29.7076 42.7696 31.2799 42.7696 32.9072C42.7696 34.5344 42.5205 36.2276 42.0547 37.7669L42.163 37.8109L42.4555 37.9428L50.5581 41.549C51.4897 38.8443 51.9989 35.9417 51.9989 32.9072C51.9989 30.0594 51.5438 27.3218 50.7206 24.76Z" fill="white"/>
</g>
</svg>
