<svg width="184" height="35" viewBox="0 0 184 35" fill="none" xmlns="http://www.w3.org/2000/svg">
<path d="M14.2457 34.2204L8.24277 26.7772L6.54046 28.638V34.2204H0V1.54309H6.54046V19.6971L14.0665 11.074H22.5332L12.8569 21.7395L22.8468 34.2204H14.2457Z" fill="white"/>
<path d="M40.026 11.074H46.5664V34.2204H40.026V31.9057C38.2789 33.7211 35.9046 34.765 33.1272 34.765C26.8555 34.765 22.1069 29.5457 22.1069 22.6472C22.1069 15.7486 26.8555 10.5293 33.1272 10.5293C35.9046 10.5293 38.2789 11.5732 40.026 13.3886V11.074ZM34.4263 28.3657C37.6517 28.3657 40.026 25.9149 40.026 22.6472C40.026 19.3794 37.6517 16.9286 34.4263 16.9286C31.2457 16.9286 28.8714 19.3794 28.8714 22.6472C28.8714 25.9149 31.2457 28.3657 34.4263 28.3657Z" fill="white"/>
<path d="M79.3937 10.5293C84.5454 10.5293 87.8604 13.9332 87.8604 19.1071V34.2204H81.32V21.1041C81.32 18.6079 79.752 16.9286 77.333 16.9286C74.8243 16.9286 73.0772 18.6533 73.0772 21.1948V34.2204H66.5367V21.1041C66.5367 18.6079 64.9688 16.9286 62.5498 16.9286C60.0411 16.9286 58.294 18.6533 58.294 21.1948V34.2204H51.7535V11.074H58.294V13.2978C59.9515 11.4824 62.1466 10.5293 64.7896 10.5293C67.8807 10.5293 70.3445 11.8455 71.7781 14.1148C73.6148 11.7547 76.213 10.5293 79.3937 10.5293Z" fill="white"/>
<path d="M95.9278 8.12393C93.6432 8.12393 91.8961 6.3993 91.8961 4.03927C91.8961 1.72463 93.6432 0 95.9278 0C98.2573 0 100.004 1.72463 100.004 4.03927C100.004 6.3993 98.2573 8.12393 95.9278 8.12393ZM92.6576 34.2204V11.074H99.1981V34.2204H92.6576Z" fill="white"/>
<path d="M117.866 10.5293C123.107 10.5293 126.602 14.024 126.602 19.334V34.2204H120.061V21.5579C120.061 18.744 118.314 16.9286 115.626 16.9286C112.849 16.9286 110.922 18.7894 110.922 21.6487V34.2204H104.382V11.074H110.922V13.3886C112.714 11.5278 115.044 10.5293 117.866 10.5293Z" fill="white"/>
<path d="M148.039 11.074H154.579V34.2204H148.039V31.9057C146.292 33.7211 143.918 34.765 141.14 34.765C134.869 34.765 130.12 29.5457 130.12 22.6472C130.12 15.7486 134.869 10.5293 141.14 10.5293C143.918 10.5293 146.292 11.5732 148.039 13.3886V11.074ZM142.439 28.3657C145.665 28.3657 148.039 25.9149 148.039 22.6472C148.039 19.3794 145.665 16.9286 142.439 16.9286C139.259 16.9286 136.884 19.3794 136.884 22.6472C136.884 25.9149 139.259 28.3657 142.439 28.3657Z" fill="white"/>
<path d="M172.489 10.7109H173.475V17.5186H172.489C168.502 17.5186 166.307 19.8333 166.307 23.4187V34.2204H159.767V11.074H166.307V13.7063C167.92 11.8001 170.025 10.7109 172.489 10.7109Z" fill="white"/>
<path d="M179.923 8.12393C177.639 8.12393 175.892 6.3993 175.892 4.03927C175.892 1.72463 177.639 0 179.923 0C182.253 0 184 1.72463 184 4.03927C184 6.3993 182.253 8.12393 179.923 8.12393ZM176.653 34.2204V11.074H183.194V34.2204H176.653Z" fill="white"/>
</svg>
