<svg width="178" height="32" viewBox="0 0 178 32" fill="none" xmlns="http://www.w3.org/2000/svg">
<path d="M0 26.6876V22.1795H6.02855V24.8393L7.51318 26.3268H16.826L18.3556 24.7942V19.5648L16.871 18.0772H4.94881L0.0899783 13.2085V4.86867L4.94881 0H19.1653L24.0242 4.86867V9.42178H17.9956V6.71696L16.511 5.22932H7.60316L6.11852 6.71696V11.3602L7.60316 12.8479H19.5253L24.3841 17.7165V26.5973L19.4353 31.5562H4.85882L0 26.6876Z" fill="white"/>
<path d="M79.1972 21.0976V31.5562H73.0786V22.495L70.3792 19.4747H60.5717V31.5562H54.4531V0H74.2033L79.0172 4.86867V14.4257L75.9579 17.5363L79.1972 21.0976ZM60.5717 14.4257H71.414L72.9886 12.8479V6.71696L71.414 5.13915H60.5717V14.4257Z" fill="white"/>
<path d="M84.3594 26.372V5.18423L89.5332 0H105.73L110.903 5.18423V26.372L105.73 31.5562H89.5332L84.3594 26.372ZM102.49 26.3268L104.784 24.0278V7.5284L102.49 5.22932H92.7723L90.4779 7.5284V24.0278L92.7723 26.3268H102.49Z" fill="white"/>
<path d="M115.859 26.372V5.18423L121.033 0H137.229L142.403 5.18423V26.372L137.229 31.5562H121.033L115.859 26.372ZM133.99 26.3268L136.284 24.0278V7.5284L133.99 5.22932H124.272L121.977 7.5284V24.0278L124.272 26.3268H133.99Z" fill="white"/>
<path d="M147.812 0H153.481L162.838 20.3763H162.928L172.331 0H178V31.5562H172.106V12.352H172.016L164.773 27.1383H160.994L153.795 12.352H153.706V31.5562H147.812V0Z" fill="white"/>
<path d="M45.4833 13.4419H37.216L34.8359 31.5454L45.4833 13.4419Z" fill="white"/>
<path d="M32.5644 5.18423H25.9297V0H50.8537V5.18423H45.6546L39.2176 18.0772H32.5644V5.18423Z" fill="white"/>
</svg>
