<svg width="214" height="43" viewBox="0 0 214 43" fill="none" xmlns="http://www.w3.org/2000/svg">
<g clip-path="url(#clip0_3320_3106)">
<path d="M17.8435 15.4003L0 5.16925L19.5762 13.2758V37.9479L17.8435 15.4003Z" fill="white"/>
<path d="M21.3107 15.4003L39.1543 5.16925L19.5781 13.2758V37.9479L21.3107 15.4003Z" fill="white"/>
<path d="M52.4031 34.1886V11.7722H43.4297V9.51647H64.0759V11.7722H55.1025V34.1886H52.4031ZM68.3882 34.1886V9.51647H77.9452C80.1096 9.51647 81.9699 9.85722 83.5263 10.5386C85.0827 11.1965 86.2743 12.1599 87.1011 13.4288C87.9521 14.6741 88.3778 16.1897 88.3778 17.9755C88.3778 19.7143 87.9521 21.2181 87.1011 22.487C86.2743 23.7324 85.0827 24.6958 83.5263 25.3772C81.9699 26.0351 80.1096 26.3641 77.9452 26.3641H69.8837L71.0876 25.1657V34.1886H68.3882ZM85.8244 34.1886L79.2584 25.2361H82.1766L88.779 34.1886H85.8244ZM71.0876 25.3772L69.8837 24.1435H77.8723C80.4258 24.1435 82.3591 23.6031 83.6721 22.5222C85.0097 21.4413 85.6784 19.9257 85.6784 17.9755C85.6784 16.0017 85.0097 14.4744 83.6721 13.3935C82.3591 12.3126 80.4258 11.7722 77.8723 11.7722H69.8837L71.0876 10.5386V25.3772ZM94.7488 34.1886V9.51647H97.448V34.1886H94.7488ZM116.845 34.4001C114.924 34.4001 113.149 34.0946 111.519 33.4837C109.89 32.8492 108.48 31.9681 107.288 30.8403C106.096 29.7123 105.16 28.3848 104.48 26.8574C103.823 25.3301 103.495 23.6618 103.495 21.8525C103.495 20.0432 103.823 18.3749 104.48 16.8476C105.16 15.3203 106.096 13.9927 107.288 12.8648C108.504 11.737 109.926 10.8675 111.556 10.2566C113.186 9.62225 114.961 9.30499 116.882 9.30499C118.73 9.30499 120.469 9.61049 122.098 10.2214C123.727 10.8089 125.101 11.7017 126.22 12.9001L124.505 14.5566C123.46 13.5227 122.305 12.7826 121.04 12.3361C119.775 11.8662 118.413 11.6312 116.955 11.6312C115.422 11.6312 114 11.8897 112.687 12.4066C111.373 12.9001 110.23 13.6168 109.258 14.5566C108.285 15.473 107.519 16.5539 106.96 17.7992C106.424 19.0211 106.157 20.3722 106.157 21.8525C106.157 23.3328 106.424 24.6958 106.96 25.941C107.519 27.1629 108.285 28.2438 109.258 29.1837C110.23 30.1001 111.373 30.8168 112.687 31.3337C114 31.8272 115.422 32.0739 116.955 32.0739C118.413 32.0739 119.775 31.8389 121.04 31.369C122.305 30.899 123.46 30.1471 124.505 29.1132L126.22 30.7697C125.101 31.9681 123.727 32.8727 122.098 33.4837C120.469 34.0946 118.717 34.4001 116.845 34.4001ZM142.601 34.4001C140.68 34.4001 138.893 34.0946 137.24 33.4837C135.61 32.8492 134.187 31.9681 132.971 30.8403C131.78 29.6889 130.844 28.3613 130.163 26.8574C129.506 25.3301 129.179 23.6618 129.179 21.8525C129.179 20.0432 129.506 18.3867 130.163 16.8828C130.844 15.3556 131.78 14.0279 132.971 12.9001C134.187 11.7487 135.61 10.8675 137.24 10.2566C138.869 9.62225 140.657 9.30499 142.601 9.30499C144.522 9.30499 146.299 9.62225 147.928 10.2566C149.557 10.8675 150.967 11.737 152.158 12.8648C153.374 13.9927 154.311 15.3203 154.968 16.8476C155.648 18.3749 155.989 20.0432 155.989 21.8525C155.989 23.6618 155.648 25.3301 154.968 26.8574C154.311 28.3848 153.374 29.7123 152.158 30.8403C150.967 31.9681 149.557 32.8492 147.928 33.4837C146.299 34.0946 144.522 34.4001 142.601 34.4001ZM142.601 32.0739C144.134 32.0739 145.544 31.8272 146.833 31.3337C148.147 30.8168 149.277 30.1001 150.225 29.1837C151.198 28.2438 151.952 27.1629 152.487 25.941C153.022 24.6958 153.29 23.3328 153.29 21.8525C153.29 20.3722 153.022 19.0211 152.487 17.7992C151.952 16.5539 151.198 15.473 150.225 14.5566C149.277 13.6168 148.147 12.9001 146.833 12.4066C145.544 11.8897 144.134 11.6312 142.601 11.6312C141.07 11.6312 139.647 11.8897 138.334 12.4066C137.021 12.9001 135.878 13.6168 134.905 14.5566C133.957 15.473 133.203 16.5539 132.643 17.7992C132.108 19.0211 131.841 20.3722 131.841 21.8525C131.841 23.3093 132.108 24.6605 132.643 25.9058C133.203 27.1511 133.957 28.2438 134.905 29.1837C135.878 30.1001 137.021 30.8168 138.334 31.3337C139.647 31.8272 141.07 32.0739 142.601 32.0739ZM162.039 34.1886V9.51647H171.596C173.761 9.51647 175.62 9.85722 177.178 10.5386C178.734 11.1965 179.925 12.1599 180.753 13.4288C181.604 14.6741 182.029 16.1897 182.029 17.9755C182.029 19.7143 181.604 21.2181 180.753 22.487C179.925 23.7324 178.734 24.6958 177.178 25.3772C175.62 26.0351 173.761 26.3641 171.596 26.3641H163.535L164.739 25.1657V34.1886H162.039ZM179.475 34.1886L172.909 25.2361H175.828L182.43 34.1886H179.475ZM164.739 25.3772L163.535 24.1435H171.523C174.077 24.1435 176.01 23.6031 177.324 22.5222C178.661 21.4413 179.329 19.9257 179.329 17.9755C179.329 16.0017 178.661 14.4744 177.324 13.3935C176.01 12.3126 174.077 11.7722 171.523 11.7722H163.535L164.739 10.5386V25.3772ZM188.4 34.1886V9.51647H190.625L208.244 30.9459H207.076V9.51647H209.739V34.1886H207.514L189.932 12.759H191.099V34.1886H188.4Z" fill="white"/>
</g>
<defs>
<clipPath id="clip0_3320_3106">
<rect width="214" height="43" fill="white"/>
</clipPath>
</defs>
</svg>
