<svg width="580" height="190" viewBox="0 0 580 190" fill="none" xmlns="http://www.w3.org/2000/svg">
<path d="M366.161 1.92913L365.89 1.92748L365.655 2.06308L365.227 2.31016C362.842 2.34468 359.54 2.99646 355.491 4.14192C351.261 5.33869 346.137 7.09797 340.255 9.33972C328.489 13.8237 313.635 20.2587 296.73 28.0432C262.919 43.6136 220.855 64.608 178.799 86.2566C94.6894 129.553 10.559 175.493 -7.55298 185.949C-43.867 206.915 -71.0264 233.164 -88.9834 264.707C-106.93 296.233 -115.495 330.291 -113.622 367.141C-111.751 403.972 -100.317 440.546 -79.3531 476.856C-58.3908 513.164 -32.4322 541.357 -1.84374 560.738C28.7499 580.123 62.5243 589.734 98.7979 589.954C135.094 590.175 171.405 579.778 207.719 558.812C225.831 548.355 307.681 498.466 387.232 447.273C427.008 421.675 466.222 395.744 496.612 374.248C511.806 363.501 524.806 353.854 534.572 345.906C539.454 341.933 543.54 338.375 546.691 335.31C549.826 332.262 552.095 329.645 553.285 327.556C571.231 296.032 579.795 261.977 578.304 225.79C576.814 189.609 565.377 153.031 544.414 116.723C523.451 80.4135 497.494 52.2239 466.533 32.1877C435.566 12.1472 402.448 2.14958 366.161 1.92913ZM-14.5423 290.065L-14.2473 290.169C-5.94823 271.5 7.96023 256.511 28.1954 244.829C38.049 239.14 114.041 197.02 190.144 156.591C228.194 136.378 266.261 116.593 296.095 101.998C311.015 94.7004 323.862 88.7067 333.615 84.6073C338.493 82.5569 342.58 80.9876 345.756 79.9662C347.345 79.4553 348.69 79.0866 349.783 78.8626C350.894 78.6349 351.673 78.5723 352.16 78.6238C372.51 80.7743 391.871 88.7121 409.982 103.5C428.129 118.317 444.919 138.312 459.684 163.887C474.45 189.463 483.372 214.001 487.13 237.124C490.885 260.224 488.725 280.577 480.421 299.258C480.222 299.706 479.778 300.349 479.025 301.198C478.285 302.032 477.293 303.013 476.056 304.133C473.584 306.373 470.181 309.128 465.966 312.327C457.54 318.723 445.925 326.853 432.145 336.124C404.589 354.665 368.421 377.739 331.891 400.585C258.827 446.277 184.354 491.028 174.501 496.717C154.265 508.4 134.33 512.951 114.013 510.804C93.6828 508.655 74.9768 500.349 56.849 485.548C38.7155 470.742 22.5813 450.374 7.80471 424.78C-7.34359 398.543 -16.6436 373.347 -20.4012 350.227C-24.0239 327.938 -22.1401 308.205 -14.5423 290.065Z" stroke="url(#paint0_linear_3331_1282)" stroke-width="2"/>
<defs>
<linearGradient id="paint0_linear_3331_1282" x1="529.496" y1="87.9997" x2="173.17" y2="332.611" gradientUnits="userSpaceOnUse">
<stop stop-color="#0E0C16"/>
<stop offset="1" stop-color="#0E0C16" stop-opacity="0"/>
</linearGradient>
</defs>
</svg>
