<svg width="764" height="490" viewBox="0 0 764 490" fill="none" xmlns="http://www.w3.org/2000/svg">
<path d="M234.603 -157.866L234.874 -157.868L235.109 -157.732L235.603 -157.447C238.215 -157.414 241.847 -156.7 246.314 -155.436C250.964 -154.12 256.598 -152.186 263.068 -149.72C276.009 -144.788 292.35 -137.71 310.946 -129.146C348.142 -112.017 394.417 -88.9205 440.685 -65.1037C533.218 -17.4714 625.774 33.0687 645.698 44.5719C685.636 67.6303 715.502 96.4955 735.247 131.181C754.983 165.848 764.4 203.299 762.341 243.819C760.283 284.321 747.709 324.543 724.653 364.478C701.597 404.411 673.049 435.416 639.413 456.728C605.772 478.043 568.633 488.612 528.744 488.854C488.833 489.097 448.902 477.665 408.964 454.606C389.04 443.103 298.993 388.218 211.476 331.898C167.716 303.737 124.576 275.21 91.1444 251.562C74.4296 239.739 60.1295 229.127 49.3876 220.385C44.0172 216.015 39.525 212.103 36.061 208.734C32.6138 205.382 30.1254 202.511 28.8241 200.225C9.08974 165.559 -0.327166 128.112 1.31182 88.3199C2.95054 48.5339 15.5276 8.30824 38.5828 -31.6245C61.6391 -71.5593 90.1855 -102.56 124.232 -124.593C158.285 -146.631 194.702 -157.624 234.603 -157.866ZM653.529 158.988L653.204 159.103C644.064 138.542 628.747 122.037 606.469 109.175C595.627 102.915 512.022 56.5759 428.297 12.0981C386.436 -10.1402 344.555 -31.9075 311.73 -47.9643C295.316 -55.9936 281.18 -62.5886 270.448 -67.0996C265.08 -69.3558 260.581 -71.0837 257.082 -72.2086C255.333 -72.7713 253.849 -73.178 252.642 -73.4254C251.416 -73.6767 250.547 -73.748 249.996 -73.6897C227.588 -71.3217 206.269 -62.5806 186.329 -46.2999C166.354 -29.9903 147.876 -7.98213 131.626 20.1634C115.376 48.3088 105.556 75.316 101.419 100.77C97.2857 126.199 99.6624 148.611 108.808 169.184C109.033 169.69 109.529 170.407 110.36 171.343C111.178 172.265 112.272 173.346 113.634 174.58C116.357 177.047 120.103 180.08 124.741 183.6C134.014 190.639 146.793 199.584 161.954 209.784C192.272 230.183 232.063 255.569 272.253 280.703C352.634 330.972 434.568 380.206 445.41 386.466C467.688 399.328 489.64 404.341 512.016 401.976C534.405 399.61 555.003 390.462 574.959 374.168C594.921 357.87 612.678 335.451 628.939 307.287C645.609 278.413 655.846 250.682 659.982 225.233C663.97 200.694 661.896 178.965 653.529 158.988Z" stroke="url(#paint0_linear_2752_2595)" stroke-width="2"/>
<defs>
<linearGradient id="paint0_linear_2752_2595" x1="564" y1="324.905" x2="138" y2="41" gradientUnits="userSpaceOnUse">
<stop stop-color="white" stop-opacity="0.31"/>
<stop offset="1" stop-color="white" stop-opacity="0"/>
</linearGradient>
</defs>
</svg>
