<svg width="607" height="775" viewBox="0 0 607 775" fill="none" xmlns="http://www.w3.org/2000/svg">
<path d="M635.761 1.41661L635.627 1.41637L635.51 1.48361L634.755 1.91973C631.708 1.93898 627.355 2.79115 621.887 4.35153C616.327 5.93841 609.576 8.26953 601.808 11.2434C586.27 17.1915 566.637 25.7216 544.278 36.0421C499.557 56.6839 443.905 84.5007 388.251 113.182C276.943 170.543 165.601 231.375 141.641 245.209C93.6768 272.901 57.7808 307.448 33.9769 348.857C10.1781 390.257 -1.27927 434.911 0.98312 483.17C3.24517 531.419 18.0993 579.3 45.5288 626.81C72.9577 674.318 106.998 711.125 147.158 736.347C187.32 761.571 231.719 773.975 279.471 774.065C327.234 774.155 375.101 760.341 423.065 732.649C447.025 718.816 555.378 652.807 660.708 585.092C713.374 551.235 765.29 516.947 805.527 488.539C825.644 474.335 842.848 461.597 855.768 451.116C862.228 445.875 867.622 441.194 871.776 437.172C875.922 433.158 878.863 429.774 880.384 427.127C904.183 385.728 915.64 341.075 913.876 293.682C912.113 246.291 897.257 198.408 869.829 150.9C842.399 103.391 808.36 66.5859 767.706 40.5024C727.048 14.4167 683.52 1.50632 635.761 1.41661ZM130.685 381.05L131.073 381.189C142.215 356.431 160.796 336.53 187.715 320.988C200.771 313.45 301.368 257.671 402.094 204.118C452.457 177.342 502.846 151.125 542.339 131.774C562.086 122.098 579.102 114.142 592.026 108.692C598.488 105.966 603.919 103.871 608.152 102.5C610.269 101.815 612.078 101.313 613.563 101.005C615.056 100.694 616.185 100.587 616.955 100.664C643.984 103.396 669.656 113.787 693.609 133.216C717.579 152.66 739.702 178.926 759.102 212.528C778.501 246.129 790.187 278.421 795.041 308.902C799.892 339.37 796.921 366.294 785.776 391.058C785.458 391.765 784.801 392.688 783.785 393.827C782.775 394.958 781.436 396.274 779.784 397.765C776.481 400.745 771.951 404.401 766.359 408.635C755.177 417.102 739.779 427.86 721.526 440.124C685.022 464.65 637.122 495.18 588.752 525.407C492.011 585.862 393.406 645.092 380.35 652.63C353.43 668.172 326.906 674.313 299.893 671.583C272.874 668.853 248.072 657.964 224.111 638.528C200.147 619.09 178.894 592.325 159.489 558.714C139.59 524.248 127.407 491.093 122.553 460.615C117.871 431.206 120.476 405.099 130.685 381.05Z" stroke="url(#paint0_linear_3331_838)"/>
<defs>
<linearGradient id="paint0_linear_3331_838" x1="141.037" y1="741.356" x2="596.037" y2="108.356" gradientUnits="userSpaceOnUse">
<stop stop-color="#BCFB9F"/>
<stop offset="1" stop-color="#BCFB9F" stop-opacity="0"/>
</linearGradient>
</defs>
</svg>
