<svg width="432" height="589" viewBox="0 0 432 589" fill="none" xmlns="http://www.w3.org/2000/svg">
<path d="M-48.8535 0.870991L-48.7302 0.870261L-48.6235 0.931891L-48.0713 1.25069C-45.7539 1.2595 -42.4588 1.8964 -38.3349 3.06319C-34.1265 4.25392 -29.0191 6.00713 -23.1447 8.24582C-11.3954 12.7234 3.44658 19.1526 20.3461 26.935C54.1466 42.5005 96.2021 63.4906 138.256 85.138C222.362 128.432 306.484 174.367 324.585 184.818C360.828 205.743 387.912 231.927 405.814 263.373C423.711 294.812 432.249 328.768 430.382 365.509C428.516 402.243 417.112 438.734 396.185 474.979C375.26 511.224 349.359 539.348 318.856 558.674C288.352 578.002 254.678 587.585 218.503 587.805C182.319 588.025 146.102 577.661 109.858 556.736C91.7568 546.285 9.91488 496.401 -69.6321 445.21C-109.406 419.614 -148.612 393.688 -178.992 372.199C-194.182 361.455 -207.171 351.816 -216.923 343.879C-221.799 339.911 -225.871 336.365 -229.006 333.316C-232.134 330.274 -234.357 327.701 -235.506 325.682C-253.403 294.244 -261.941 260.29 -260.455 224.208C-258.969 188.13 -247.563 151.637 -226.637 115.392C-205.711 79.147 -179.811 51.0252 -148.932 31.0421C-118.051 11.057 -85.0339 1.0908 -48.8535 0.870991ZM332.346 288.24L332.051 288.344C323.699 269.557 309.704 254.486 289.382 242.753C279.52 237.059 203.521 194.935 127.417 154.506C89.3652 134.291 51.2919 114.503 21.4489 99.9047C6.52663 92.6052 -6.33204 86.6061 -16.0989 82.5008C-20.9831 80.4478 -25.0865 78.8716 -28.2844 77.8432C-29.8835 77.3289 -31.2491 76.954 -32.3684 76.7246C-33.4961 76.4935 -34.3409 76.4172 -34.9127 76.4776C-55.373 78.6399 -74.8331 86.6222 -93.0226 101.474C-111.228 116.339 -128.059 136.388 -142.852 162.011C-157.646 187.634 -166.594 212.235 -170.364 235.433C-174.133 258.621 -171.969 279.084 -163.615 297.876C-163.381 298.402 -162.892 299.095 -162.128 299.956C-161.37 300.811 -160.363 301.806 -159.118 302.934C-156.628 305.189 -153.211 307.955 -148.991 311.158C-140.553 317.564 -128.928 325.7 -115.145 334.973C-87.5812 353.519 -51.4073 376.597 -14.8751 399.444C58.1901 445.137 132.669 489.893 142.531 495.586C162.854 507.319 182.903 511.903 203.349 509.743C223.8 507.581 242.604 499.224 260.801 484.367C279 469.507 295.174 449.081 309.972 423.449C325.147 397.166 334.474 371.908 338.244 348.711C341.882 326.332 339.992 306.49 332.346 288.24Z" stroke="url(#paint0_linear_2752_1907)" stroke-width="0.90896"/>
<defs>
<linearGradient id="paint0_linear_2752_1907" x1="250.552" y1="439.236" x2="-77.5823" y2="146.183" gradientUnits="userSpaceOnUse">
<stop stop-color="#BCFB9F" stop-opacity="0.27"/>
<stop offset="1" stop-color="white" stop-opacity="0"/>
</linearGradient>
</defs>
</svg>
