<svg width="403" height="394" viewBox="0 0 403 394" fill="none" xmlns="http://www.w3.org/2000/svg">
<path d="M243.516 115.118V126.332L301.146 92.5062V81.2766L243.516 115.118Z" fill="url(#paint0_linear_3331_193)"/>
<path d="M243.544 115.119V126.333L185.93 92.7511V81.5674L243.544 115.119Z" fill="#BCFB9F"/>
<path d="M185.93 81.5672L243.544 115.118L301.144 81.2769L243.468 47.6951L185.93 81.5672Z" fill="#72B254"/>
<g style="mix-blend-mode:screen">
<path d="M243.544 114.202L186.724 81.1089L185.93 81.5672L243.544 115.118L301.144 81.2769L300.349 80.8186L243.544 114.202Z" fill="#72B254"/>
</g>
<path d="M243.516 99.3216V110.551L301.146 76.7097V65.4954L243.516 99.3216Z" fill="#9DDF7E"/>
<path d="M243.544 99.3215V110.551L185.93 76.9693V65.7703L243.544 99.3215Z" fill="#BCFB9F"/>
<path d="M185.93 65.77L243.544 99.3213L301.144 65.495L243.468 31.8979L185.93 65.77Z" fill="#72B254"/>
<path style="mix-blend-mode:screen" d="M243.544 98.4048L186.724 65.3119L185.93 65.7702L243.544 99.3215L301.144 65.4952L300.349 65.0369L243.544 98.4048Z" fill="url(#paint1_radial_3331_193)"/>
<path d="M243.516 83.5381V94.7677L301.146 60.9261V49.6965L243.516 83.5381Z" fill="#9DDF7E"/>
<path d="M243.544 83.5386V94.7681L185.93 61.1863V49.9873L243.544 83.5386Z" fill="#BCFB9F"/>
<path d="M185.93 49.9873L243.544 83.5386L301.144 49.697L243.468 16.1152L185.93 49.9873Z" fill="#72B254"/>
<path style="mix-blend-mode:screen" d="M243.544 82.6219L186.724 49.5291L185.93 49.9874L243.544 83.5387L301.144 49.6971L300.349 49.2388L243.544 82.6219Z" fill="url(#paint2_radial_3331_193)"/>
<path d="M243.516 67.7554V78.9697L301.146 45.1434V33.9138L243.516 67.7554Z" fill="#9DDF7E"/>
<path d="M243.544 67.7558V78.9701L185.93 45.3883V34.2046L243.544 67.7558Z" fill="#BCFB9F"/>
<path d="M185.93 34.2044L243.544 67.7556L301.144 33.9141L243.468 0.332275L185.93 34.2044Z" fill="#72B254"/>
<path d="M195.008 34.174L243.486 5.63403L292.056 33.9295L243.532 62.4389L195.008 34.174Z" fill="url(#paint3_linear_3331_193)"/>
<path d="M243.486 7.92579L290.1 35.0754L292.056 33.9295L243.486 5.63403L195.008 34.174L196.963 35.3199L243.486 7.92579Z" fill="#1D291B"/>
<path d="M243.484 7.92579L290.099 35.0754L292.054 33.9295L243.484 5.63403V7.92579Z" fill="#1D291B"/>
<path style="mix-blend-mode:screen" d="M243.544 66.839L186.724 33.7461L185.93 34.2045L243.544 67.7557L301.144 33.9142L300.349 33.4558L243.544 66.839Z" fill="url(#paint4_radial_3331_193)"/>
<path d="M273.246 38.6629C267.257 35.2712 263.254 30.8863 261.756 26.1194L261.695 26.0889C253.46 25.2333 245.867 22.911 239.985 19.4581L239.756 19.3206L236.532 21.5512C225.211 29.389 223.331 37.2421 224.844 47.2646L225.073 47.4022C242.429 48.273 256.042 47.1883 269.609 40.6491L273.475 38.7852L273.246 38.6629Z" fill="#1D291B"/>
<path d="M273.246 36.8785C267.257 33.4867 263.254 29.1018 261.756 24.335L261.695 24.3044C253.46 23.4488 245.867 21.1265 239.985 17.6736L239.756 17.5361L236.532 19.7668C225.211 27.6046 223.331 35.4576 224.844 45.4802L225.073 45.6177C242.429 46.4886 256.042 45.4038 269.609 38.8647L273.475 37.0007L273.246 36.8785Z" fill="url(#paint5_linear_3331_193)"/>
<path d="M222.617 222.159L280.232 255.71L337.816 221.869L280.155 188.287L222.617 222.159Z" fill="#45108A"/>
<path style="mix-blend-mode:screen" d="M280.217 254.794L223.396 221.701L222.617 222.159L280.217 255.71L337.816 221.869L337.037 221.41L280.217 254.794Z" fill="url(#paint6_radial_3331_193)"/>
<path d="M211.771 294.532V353.125L154.156 319.528V260.981L211.771 294.532Z" fill="#330A66"/>
<path d="M154.156 260.981L211.771 294.533L269.37 260.691L211.695 227.109L154.156 260.981Z" fill="#45108A"/>
<path style="mix-blend-mode:screen" d="M211.771 293.616L154.951 260.523L154.156 260.981L211.771 294.532L269.37 260.691L268.576 260.232L211.771 293.616Z" fill="url(#paint7_radial_3331_193)"/>
<path d="M345.391 295.174V353.767L403.005 319.94V261.348L345.391 295.174Z" fill="#182316"/>
<path d="M345.419 295.174V353.766L287.805 320.184V261.638L345.419 295.174Z" fill="#330A66"/>
<path d="M287.805 261.638L345.419 295.174L403.003 261.348L345.343 227.766L287.805 261.638Z" fill="#4C7741"/>
<path d="M278.57 333.996V392.588L336.185 358.762V300.17L278.57 333.996Z" fill="#182316"/>
<path d="M278.599 333.996V392.589L220.984 359.007V300.46L278.599 333.996Z" fill="url(#paint8_linear_3331_193)"/>
<path d="M220.984 300.461L278.599 333.997L336.183 300.17L278.523 266.589L220.984 300.461Z" fill="#4C7741"/>
<path d="M57.9141 310.621V369.213L82.9858 354.408V295.816L57.9141 310.621Z" fill="#9DDF7E"/>
<path d="M57.9428 310.62V369.212L0.328125 335.631V277.084L57.9428 310.62Z" fill="#BCFB9F"/>
<path d="M4.91406 333.003V285.044L53.3617 313.264V361.238L4.91406 333.003Z" fill="#4C7741"/>
<path d="M6.5794 332.102V286.007L4.91406 285.044V333.003L53.3617 361.238V359.389L6.5794 332.102Z" fill="#1D291B"/>
<path d="M6.5794 332.102L4.91406 333.003L53.3617 361.238V359.389L6.5794 332.102Z" fill="#1D291B"/>
<path d="M0.328125 277.084L57.9428 310.62L82.984 295.816L25.3082 262.234L0.328125 277.084Z" fill="#72B254"/>
<g style="mix-blend-mode:screen">
<path d="M57.9428 309.704L1.10732 276.611L0.328125 277.084L57.9428 310.62L82.984 295.816L82.2048 295.373L57.9428 309.704Z" fill="#BCFB9F"/>
</g>
<path d="M33.6097 326.282V339.07L27.8651 335.754V322.966C25.5733 320.399 23.9844 316.824 23.9844 313.723C23.9844 309.445 27.0095 307.718 30.7374 309.873C34.4653 312.027 37.4904 317.237 37.4904 321.515C37.4904 324.616 35.9015 326.358 33.6097 326.282Z" fill="#1D291B"/>
<path d="M31.8207 326.282V339.07L26.076 335.754V322.966C23.7843 320.399 22.1953 316.824 22.1953 313.723C22.1953 309.445 25.2204 307.718 28.9483 309.873C32.6763 312.027 35.7014 317.237 35.7014 321.515C35.7014 324.616 34.1124 326.358 31.8207 326.282Z" fill="#FFDE46"/>
<path d="M146.547 334.592V393.184L204.162 359.343V300.766L146.547 334.592Z" fill="#182316"/>
<path d="M146.576 334.592V393.184L88.9609 359.602V301.04L146.576 334.592Z" fill="url(#paint9_linear_3331_193)"/>
<path d="M88.9609 301.041L146.576 334.592L204.16 300.766L146.499 267.168L88.9609 301.041Z" fill="#4C7741"/>
<g style="mix-blend-mode:screen">
<path d="M146.576 333.676L89.7401 300.583L88.9609 301.041L146.576 334.592L204.16 300.766L203.38 300.308L146.576 333.676Z" fill="#4C7741"/>
</g>
<path d="M81.3359 229.538V288.131L138.966 254.289V195.697L81.3359 229.538Z" fill="#182316"/>
<path d="M81.365 229.538V288.131L23.7656 254.549V195.987L81.365 229.538Z" fill="url(#paint10_linear_3331_193)"/>
<path d="M23.7656 195.987L81.365 229.538L138.964 195.697L81.2886 162.115L23.7656 195.987Z" fill="url(#paint11_linear_3331_193)"/>
<g style="mix-blend-mode:screen">
<path d="M81.365 228.621L24.5448 195.528L23.7656 195.987L81.365 229.538L138.964 195.696L138.185 195.238L81.365 228.621Z" fill="#4C7741"/>
</g>
<path d="M146.547 267.765V326.357L204.162 292.516V233.923L146.547 267.765Z" fill="#182316"/>
<path d="M146.576 267.765V326.358L88.9609 292.776V234.214L146.576 267.765Z" fill="url(#paint12_linear_3331_193)"/>
<path d="M88.9609 234.214L146.576 267.765L204.16 233.923L146.499 200.342L88.9609 234.214Z" fill="url(#paint13_linear_3331_193)"/>
<g style="mix-blend-mode:screen">
<path d="M146.576 266.848L89.7401 233.755L88.9609 234.214L146.576 267.765L204.16 233.924L203.38 233.48L146.576 266.848Z" fill="#4C7741"/>
</g>
<path d="M211.742 353.352V364.582L269.372 330.74V319.526L211.742 353.352Z" fill="#9DDF7E"/>
<path d="M211.771 353.352V364.581L154.156 331V319.801L211.771 353.352Z" fill="#BCFB9F"/>
<path d="M154.156 319.801L211.771 353.352L269.37 319.526L211.695 285.944L154.156 319.801Z" fill="#4C7741"/>
<path d="M159.675 315.265L211.759 345.592L263.843 314.99L211.698 284.616L159.675 315.249V315.265ZM211.759 347.242C211.621 347.242 211.499 347.212 211.377 347.135L157.78 315.922C157.551 315.784 157.398 315.54 157.398 315.265C157.398 314.99 157.536 314.745 157.78 314.608L211.316 283.088C211.56 282.951 211.85 282.951 212.095 283.088L265.752 314.333C265.982 314.47 266.134 314.715 266.134 314.99C266.134 315.265 265.997 315.509 265.752 315.647L212.156 347.135C212.034 347.212 211.912 347.242 211.774 347.242H211.759Z" fill="#FFDE46"/>
<path d="M159.675 308.573L211.759 338.9L263.843 308.298L211.698 277.924L159.675 308.557V308.573ZM211.759 340.55C211.621 340.55 211.499 340.52 211.377 340.443L157.78 309.23C157.551 309.092 157.398 308.848 157.398 308.573C157.398 308.298 157.536 308.053 157.78 307.916L211.316 276.396C211.56 276.259 211.85 276.259 212.095 276.396L265.752 307.641C265.982 307.778 266.134 308.023 266.134 308.298C266.134 308.573 265.997 308.817 265.752 308.954L212.156 340.443C212.034 340.52 211.912 340.55 211.774 340.55H211.759Z" fill="#FFDE46"/>
<path d="M159.675 301.897L211.759 332.224L263.843 301.622L211.698 271.248L159.675 301.881V301.897ZM211.759 333.874C211.621 333.874 211.499 333.844 211.377 333.767L157.78 302.554C157.551 302.416 157.398 302.172 157.398 301.897C157.398 301.622 157.536 301.377 157.78 301.24L211.316 269.721C211.56 269.583 211.85 269.583 212.095 269.721L265.752 300.965C265.982 301.102 266.134 301.347 266.134 301.622C266.134 301.897 265.997 302.141 265.752 302.279L212.156 333.767C212.034 333.844 211.912 333.874 211.774 333.874H211.759Z" fill="#FFDE46"/>
<path d="M159.675 295.205L211.759 325.532L263.843 294.93L211.698 264.556L159.675 295.189V295.205ZM211.759 327.182C211.621 327.182 211.499 327.152 211.377 327.075L157.78 295.862C157.551 295.724 157.398 295.48 157.398 295.205C157.398 294.93 157.536 294.685 157.78 294.548L211.316 263.028C211.56 262.891 211.85 262.891 212.095 263.028L265.752 294.273C265.982 294.41 266.134 294.655 266.134 294.93C266.134 295.205 265.997 295.449 265.752 295.587L212.156 327.075C212.034 327.152 211.912 327.182 211.774 327.182H211.759Z" fill="#FFDE46"/>
<g opacity="0.5">
<path d="M159.675 288.529L211.759 318.856L263.843 288.254L211.698 257.88L159.675 288.514V288.529ZM211.759 320.506C211.621 320.506 211.499 320.476 211.377 320.399L157.78 289.186C157.551 289.048 157.398 288.804 157.398 288.529C157.398 288.254 157.536 288.009 157.78 287.872L211.316 256.353C211.56 256.215 211.85 256.215 212.095 256.353L265.752 287.597C265.982 287.734 266.134 287.979 266.134 288.254C266.134 288.529 265.997 288.773 265.752 288.911L212.156 320.399C212.034 320.476 211.912 320.506 211.774 320.506H211.759Z" fill="#FFDE46"/>
</g>
<path d="M211.742 305.99V315.692L269.372 281.85V272.164L211.742 305.99Z" fill="#9DDF7E"/>
<path d="M211.771 305.989V315.691L154.156 282.109V272.438L211.771 305.989Z" fill="#BCFB9F"/>
<path d="M154.156 272.439L211.771 305.99L269.37 272.164L211.695 238.582L154.156 272.439Z" fill="#4C7741"/>
<g style="mix-blend-mode:screen">
<path d="M211.771 305.073L154.951 271.98L154.156 272.438L211.771 305.989L269.37 272.163L268.576 271.705L211.771 305.073Z" fill="#DAFEBF"/>
</g>
<g style="mix-blend-mode:lighten" opacity="0.2">
<path d="M269.372 281.85V272.164L228.258 296.288L236.554 301.132L269.372 281.85Z" fill="#9DDF7E"/>
</g>
<path d="M345.391 228.347V286.94L403.005 253.113V194.521L345.391 228.347Z" fill="#182316"/>
<path d="M345.419 228.347V286.94L287.805 253.358V194.811L345.419 228.347Z" fill="url(#paint14_linear_3331_193)"/>
<path d="M287.805 194.811L345.419 228.347L403.003 194.521L345.343 160.939L287.805 194.811Z" fill="url(#paint15_linear_3331_193)"/>
<g style="mix-blend-mode:screen">
<path d="M345.419 227.43L288.584 194.338L287.805 194.811L345.419 228.347L403.003 194.521L402.224 194.062L345.419 227.43Z" fill="#4C7741"/>
</g>
<path d="M336.102 348.144V359.373L393.732 325.532V314.318L336.102 348.144Z" fill="#9DDF7E"/>
<path d="M336.131 348.143V359.373L278.531 325.791V314.607L336.131 348.143Z" fill="#BCFB9F"/>
<path d="M278.531 314.608L336.131 348.144L393.73 314.317L336.069 280.736L278.531 314.608Z" fill="#72B254"/>
<g style="mix-blend-mode:screen">
<path d="M336.131 347.227L279.31 314.134L278.531 314.607L336.131 348.143L393.73 314.317L392.951 313.859L336.131 347.227Z" fill="#BCFB9F"/>
</g>
<path d="M336.102 332.362V343.591L393.732 309.75V298.52L336.102 332.362Z" fill="#9DDF7E"/>
<path d="M336.131 332.361V343.591L278.531 310.009V298.81L336.131 332.361Z" fill="#BCFB9F"/>
<path d="M278.531 298.81L336.131 332.361L393.73 298.52L336.069 264.938L278.531 298.81Z" fill="#72B254"/>
<g style="mix-blend-mode:screen">
<path d="M336.131 331.444L279.31 298.351L278.531 298.81L336.131 332.361L393.73 298.519L392.951 298.061L336.131 331.444Z" fill="#BCFB9F"/>
</g>
<path d="M336.102 316.579V327.793L393.732 293.967V282.737L336.102 316.579Z" fill="#9DDF7E"/>
<path d="M336.131 316.578V327.792L278.531 294.211V283.027L336.131 316.578Z" fill="#BCFB9F"/>
<path d="M278.531 283.027L336.131 316.578L393.73 282.737L336.069 249.155L278.531 283.027Z" fill="#72B254"/>
<g style="mix-blend-mode:screen">
<path d="M336.131 315.661L279.31 282.568L278.531 283.027L336.131 316.578L393.73 282.736L392.951 282.278L336.131 315.661Z" fill="#BCFB9F"/>
</g>
<path d="M336.102 300.781V312.011L393.732 278.169V266.955L336.102 300.781Z" fill="#9DDF7E"/>
<path d="M336.131 300.782V312.011L278.531 278.429V267.246L336.131 300.782Z" fill="#BCFB9F"/>
<path d="M278.531 267.245L336.131 300.781L393.73 266.955L336.069 233.373L278.531 267.245Z" fill="#72B354"/>
<path d="M287.609 267.214L336.072 238.674L384.657 266.97L336.133 295.479L287.609 267.214Z" fill="url(#paint16_linear_3331_193)"/>
<path d="M336.072 240.966L382.702 268.115L384.657 266.97L336.072 238.674L287.609 267.214L289.565 268.36L336.072 240.966Z" fill="#1D291B"/>
<path d="M336.07 240.966L382.7 268.115L384.655 266.97L336.07 238.674V240.966Z" fill="#1D291B"/>
<g style="mix-blend-mode:screen">
<path d="M336.131 299.865L279.31 266.772L278.531 267.245L336.131 300.781L393.73 266.955L392.951 266.497L336.131 299.865Z" fill="#BCFB9F"/>
</g>
<path d="M320.559 280.734L323.874 278.824C322.988 278.335 322.01 277.77 320.941 277.159L319.49 276.318L316.205 278.213C315.762 278.472 315.028 278.472 314.57 278.213L311.606 276.502C311.148 276.242 311.148 275.814 311.606 275.554L314.891 273.66L311.453 271.674C310.995 271.414 310.995 270.986 311.453 270.726L339.917 254.287C340.36 254.027 341.093 254.027 341.551 254.287L344.989 256.273L348.274 254.379C348.717 254.119 349.45 254.119 349.909 254.379L352.873 256.09C353.331 256.349 353.331 256.777 352.873 257.037L349.588 258.931L352.827 260.811C353.209 261.04 353.576 261.254 353.927 261.468L357.242 259.558C357.685 259.298 358.419 259.298 358.877 259.558L361.841 261.269C362.299 261.529 362.299 261.957 361.841 262.216L358.174 264.325C358.984 265.043 359.534 265.807 359.794 266.616C360.099 267.518 360.038 268.45 359.61 269.412C359.167 270.421 358.22 271.322 356.815 272.101C355.669 272.728 354.263 273.201 352.751 273.446C350.55 273.813 348.381 273.751 346.242 273.293C347.556 274.668 348.06 276.013 347.77 277.327C347.479 278.641 346.456 279.802 344.714 280.81C343.339 281.605 341.689 282.185 339.764 282.567C337.824 282.949 335.914 283.041 334.019 282.842C332.186 282.659 330.398 282.17 328.657 281.375L325.158 283.392C324.715 283.652 323.981 283.652 323.523 283.392L320.559 281.681C320.101 281.421 320.101 280.993 320.559 280.734ZM341.826 260.245L334.875 264.264L338.878 266.571C341.261 267.946 342.774 268.786 343.415 269.076C344.592 269.611 345.768 269.871 346.96 269.886C348.152 269.886 349.237 269.611 350.214 269.046C351.146 268.511 351.65 267.915 351.712 267.289C351.773 266.662 351.36 266.005 350.459 265.348C349.924 264.966 348.213 263.927 345.341 262.277L341.826 260.245ZM329.864 267.151L321.812 271.796L327.48 275.065C329.68 276.334 331.147 277.113 331.865 277.372C332.934 277.8 334.08 277.999 335.287 277.968C336.494 277.938 337.64 277.602 338.694 276.99C339.596 276.471 340.146 275.906 340.329 275.279C340.513 274.668 340.329 274.026 339.794 273.385C339.244 272.743 337.579 271.612 334.798 270.008L329.864 267.151Z" fill="#1D291B"/>
<path d="M319.668 278.949L322.984 277.039C322.098 276.55 321.12 275.985 320.05 275.374L318.599 274.533L315.314 276.428C314.871 276.688 314.138 276.688 313.679 276.428L310.715 274.717C310.257 274.457 310.257 274.029 310.715 273.769L314 271.875L310.563 269.889C310.104 269.629 310.104 269.201 310.563 268.941L339.026 252.502C339.469 252.242 340.203 252.242 340.661 252.502L344.098 254.488L347.383 252.594C347.826 252.334 348.56 252.334 349.018 252.594L351.982 254.305C352.44 254.565 352.44 254.992 351.982 255.252L348.697 257.147L351.936 259.026C352.318 259.255 352.685 259.469 353.036 259.683L356.352 257.773C356.795 257.513 357.528 257.513 357.987 257.773L360.95 259.484C361.409 259.744 361.409 260.172 360.95 260.431L357.284 262.54C358.093 263.258 358.643 264.022 358.903 264.832C359.209 265.733 359.148 266.665 358.72 267.627C358.277 268.636 357.33 269.537 355.924 270.316C354.778 270.943 353.372 271.417 351.86 271.661C349.66 272.028 347.49 271.967 345.351 271.508C346.665 272.883 347.169 274.228 346.879 275.542C346.589 276.856 345.565 278.017 343.823 279.025C342.448 279.82 340.798 280.4 338.873 280.782C336.933 281.164 335.023 281.256 333.129 281.057C331.295 280.874 329.508 280.385 327.766 279.59L324.267 281.607C323.824 281.867 323.091 281.867 322.632 281.607L319.668 279.896C319.21 279.636 319.21 279.208 319.668 278.949ZM340.936 258.46L333.984 262.479L337.987 264.786C340.371 266.161 341.883 267.001 342.525 267.291C343.701 267.826 344.878 268.086 346.069 268.101C347.261 268.101 348.346 267.826 349.324 267.261C350.256 266.726 350.76 266.13 350.821 265.504C350.882 264.877 350.47 264.22 349.568 263.563C349.033 263.182 347.322 262.143 344.45 260.492L340.936 258.46ZM328.973 265.366L320.921 270.011L326.59 273.28C328.79 274.549 330.256 275.328 330.974 275.588C332.044 276.015 333.19 276.214 334.397 276.183C335.604 276.153 336.75 275.817 337.804 275.206C338.705 274.686 339.255 274.121 339.439 273.494C339.622 272.883 339.439 272.242 338.904 271.6C338.354 270.958 336.688 269.828 333.908 268.223L328.973 265.366Z" fill="#FFDE46"/>
<path d="M280.188 123.292V181.885L337.817 148.043V89.4509L280.188 123.292Z" fill="#182316"/>
<path d="M280.232 123.293V181.885L222.617 148.304V89.7417L280.232 123.293Z" fill="url(#paint17_linear_3331_193)"/>
<path d="M222.617 89.7417L280.232 123.293L337.816 89.4514L280.155 55.8696L222.617 89.7417Z" fill="url(#paint18_linear_3331_193)"/>
<g style="mix-blend-mode:screen">
<path d="M280.217 122.376L223.396 89.2828L222.617 89.7412L280.217 123.292L337.816 89.4509L337.037 89.0078L280.217 122.376Z" fill="#4C7741"/>
</g>
<path d="M148.172 123.888V182.481L205.802 148.639V90.0466L148.172 123.888Z" fill="#182316"/>
<path d="M148.201 123.889V182.481L90.6016 148.899V90.3374L148.201 123.889Z" fill="url(#paint19_linear_3331_193)"/>
<path d="M90.6016 90.3372L148.201 123.888L205.8 90.0469L148.125 56.4651L90.6016 90.3372Z" fill="url(#paint20_linear_3331_193)"/>
<g style="mix-blend-mode:screen">
<path d="M148.201 122.972L91.3807 89.8789L90.6016 90.3373L148.201 123.889L205.8 90.047L205.021 89.5886L148.201 122.972Z" fill="#4C7741"/>
</g>
<path d="M211.742 162.115V220.708L269.372 186.866V128.274L211.742 162.115Z" fill="#182316"/>
<path d="M211.771 162.116V220.708L154.156 187.126V128.564L211.771 162.116Z" fill="#31412E"/>
<path d="M154.156 128.564L211.771 162.115L269.37 128.274L211.695 94.6921L154.156 128.564Z" fill="url(#paint21_linear_3331_193)"/>
<g style="mix-blend-mode:screen">
<path d="M211.771 161.198L154.951 128.105L154.156 128.564L211.771 162.115L269.37 128.273L268.576 127.83L211.771 161.198Z" fill="#4C7741"/>
</g>
<path d="M278.57 200.342V258.935L336.185 225.093V166.516L278.57 200.342Z" fill="#182316"/>
<path d="M278.599 200.342V258.935L220.984 225.353V166.791L278.599 200.342Z" fill="url(#paint22_linear_3331_193)"/>
<path d="M220.984 166.791L278.599 200.342L336.183 166.516L278.523 132.918L220.984 166.791Z" fill="url(#paint23_linear_3331_193)"/>
<g style="mix-blend-mode:screen">
<path d="M278.599 199.425L221.764 166.332L220.984 166.791L278.599 200.342L336.198 166.516L335.404 166.057L278.599 199.425Z" fill="#4C7741"/>
</g>
<path d="M146.547 200.937V259.53L204.162 225.688V167.096L146.547 200.937Z" fill="url(#paint24_linear_3331_193)"/>
<path d="M146.576 200.938V259.53L88.9609 225.948V167.386L146.576 200.938Z" fill="#330A66"/>
<path d="M88.9609 167.386L146.576 200.937L204.16 167.096L146.499 133.514L88.9609 167.386Z" fill="url(#paint25_linear_3331_193)"/>
<path d="M146.609 231.113V259.332L204.132 225.78V197.577L146.609 231.113Z" fill="#9DDF7E"/>
<path d="M146.636 231.112V259.331L88.9297 225.688V197.515L146.636 231.112Z" fill="#BCFB9F"/>
<path d="M93.8047 222.877V205.994L141.763 233.923V250.836L93.8047 222.877Z" fill="#4C7741"/>
<path d="M135.211 235.636L137.075 236.705V234.566L135.211 233.497V235.636Z" fill="#31412E"/>
<path d="M131.719 233.618L133.567 234.687V232.564L131.719 231.479V233.618Z" fill="#31412E"/>
<path d="M128.242 231.601L130.091 232.671V230.547L128.242 229.478V231.601Z" fill="#FFDE46"/>
<path d="M124.75 229.585L126.614 230.67V228.531L124.75 227.461V229.585Z" fill="#31412E"/>
<path d="M121.258 227.583L123.122 228.653V226.514L121.258 225.444V227.583Z" fill="#31412E"/>
<path d="M117.773 225.566L119.622 226.635V224.512L117.773 223.427V225.566Z" fill="#FFDE46"/>
<path d="M114.297 223.55L116.146 224.619V222.496L114.297 221.426V223.55Z" fill="#FFDE46"/>
<path d="M110.797 221.533L112.661 222.602V220.479L110.797 219.409V221.533Z" fill="#FFDE46"/>
<path d="M107.312 219.517L109.176 220.601V218.462L107.312 217.393V219.517Z" fill="#31412E"/>
<path d="M103.828 217.514L105.677 218.584V216.445L103.828 215.375V217.514Z" fill="#FFDE46"/>
<path d="M100.344 215.498L102.192 216.567V214.444L100.344 213.374V215.498Z" fill="#31412E"/>
<path d="M96.8438 213.482L98.7077 214.551V212.427L96.8438 211.358V213.482Z" fill="#31412E"/>
<path d="M135.211 239.409L137.075 240.494V238.355L135.211 237.285V239.409Z" fill="#FFDE46"/>
<path d="M131.719 237.407L133.567 238.476V236.337L131.719 235.268V237.407Z" fill="#31412E"/>
<path d="M128.242 235.39L130.091 236.46V234.336L128.242 233.267V235.39Z" fill="#31412E"/>
<path d="M124.75 233.374L126.614 234.443V232.32L124.75 231.25V233.374Z" fill="#31412E"/>
<path d="M121.258 231.357L123.122 232.442V230.303L121.258 229.233V231.357Z" fill="#31412E"/>
<path d="M117.773 229.355L119.622 230.424V228.285L117.773 227.216V229.355Z" fill="#31412E"/>
<path d="M114.297 227.338L116.146 228.408V226.284L114.297 225.199V227.338Z" fill="#31412E"/>
<path d="M110.797 225.322L112.661 226.391V224.267L110.797 223.198V225.322Z" fill="#FFDE46"/>
<path d="M107.312 223.305L109.176 224.375V222.251L107.312 221.182V223.305Z" fill="#FFDE46"/>
<path d="M103.828 221.303L105.677 222.373V220.234L103.828 219.164V221.303Z" fill="#FFDE46"/>
<path d="M100.344 219.287L102.192 220.357V218.218L100.344 217.148V219.287Z" fill="#FFDE46"/>
<path d="M96.8438 217.27L98.7077 218.34V216.216L96.8438 215.146V217.27Z" fill="#FFDE46"/>
<path d="M135.211 243.166L137.075 244.251V242.112L135.211 241.043V243.166Z" fill="#BCFB9F"/>
<path d="M131.719 241.165L133.567 242.234V240.095L131.719 239.026V241.165Z" fill="#BCFB9F"/>
<path d="M128.242 239.148L130.091 240.218V238.094L128.242 237.009V239.148Z" fill="#BCFB9F"/>
<path d="M124.75 237.132L126.614 238.201V236.078L124.75 235.008V237.132Z" fill="#BCFB9F"/>
<path d="M121.258 235.114L123.122 236.184V234.06L121.258 232.99V235.114Z" fill="#BCFB9F"/>
<path d="M117.773 233.098L119.622 234.183V232.044L117.773 230.974V233.098Z" fill="#BCFB9F"/>
<path d="M114.297 231.097L116.146 232.166V230.027L114.297 228.958V231.097Z" fill="#31412E"/>
<path d="M110.797 229.08L112.661 230.15V228.026L110.797 226.957V229.08Z" fill="#BCFB9F"/>
<path d="M107.312 227.063L109.176 228.132V226.008L107.312 224.939V227.063Z" fill="#BCFB9F"/>
<path d="M103.828 225.046L105.677 226.131V223.992L103.828 222.923V225.046Z" fill="#BCFB9F"/>
<path d="M100.344 223.044L102.192 224.114V221.975L100.344 220.906V223.044Z" fill="#BCFB9F"/>
<path d="M96.8438 221.028L98.7077 222.098V219.974L96.8438 218.889V221.028Z" fill="#BCFB9F"/>
<path d="M157.559 235.635L155.695 236.705V234.566L157.559 233.496V235.635Z" fill="#2AF6FF"/>
<path d="M161.044 233.618L159.195 234.687V232.564L161.044 231.479V233.618Z" fill="#25054D"/>
<path d="M164.528 231.601L162.68 232.671V230.547L164.528 229.478V231.601Z" fill="#4B61B8"/>
<path d="M168.028 229.585L166.164 230.67V228.531L168.028 227.461V229.585Z" fill="#25054D"/>
<path d="M171.512 227.583L169.648 228.653V226.514L171.512 225.444V227.583Z" fill="#25054D"/>
<path d="M174.997 225.566L173.148 226.635V224.512L174.997 223.427V225.566Z" fill="#4B61B8"/>
<path d="M178.474 223.55L176.625 224.619V222.496L178.474 221.426V223.55Z" fill="#4B61B8"/>
<path d="M181.973 221.533L180.109 222.602V220.478L181.973 219.409V221.533Z" fill="#4B61B8"/>
<path d="M185.466 219.516L183.602 220.601V218.462L185.466 217.393V219.516Z" fill="#25054D"/>
<path d="M188.942 217.514L187.094 218.583V216.444L188.942 215.375V217.514Z" fill="#25054D"/>
<path d="M192.419 215.497L190.57 216.567V214.443L192.419 213.374V215.497Z" fill="#2AF6FF"/>
<path d="M195.926 213.481L194.062 214.551V212.427L195.926 211.357V213.481Z" fill="#2AF6FF"/>
<path d="M157.559 239.409L155.695 240.493V238.354L157.559 237.285V239.409Z" fill="#4B61B8"/>
<path d="M161.044 237.407L159.195 238.476V236.337L161.044 235.268V237.407Z" fill="#25054D"/>
<path d="M164.528 235.39L162.68 236.46V234.336L164.528 233.266V235.39Z" fill="#2AF6FF"/>
<path d="M168.028 233.374L166.164 234.443V232.32L168.028 231.25V233.374Z" fill="#25054D"/>
<path d="M171.512 231.357L169.648 232.441V230.302L171.512 229.233V231.357Z" fill="#2AF6FF"/>
<path d="M174.997 229.355L173.148 230.424V228.285L174.997 227.216V229.355Z" fill="#2AF6FF"/>
<path d="M178.474 227.338L176.625 228.407V226.284L178.474 225.199V227.338Z" fill="#2AF6FF"/>
<path d="M181.973 225.321L180.109 226.391V224.267L181.973 223.198V225.321Z" fill="#4B61B8"/>
<path d="M185.466 223.305L183.602 224.375V222.251L185.466 221.181V223.305Z" fill="#4B61B8"/>
<path d="M188.942 221.303L187.094 222.372V220.233L188.942 219.164V221.303Z" fill="#4B61B8"/>
<path d="M192.419 219.287L190.57 220.356V218.217L192.419 217.148V219.287Z" fill="#4B61B8"/>
<path d="M195.926 217.27L194.062 218.339V216.216L195.926 215.146V217.27Z" fill="#4B61B8"/>
<path d="M157.559 243.166L155.695 244.251V242.112L157.559 241.043V243.166Z" fill="#2AF6FF"/>
<path d="M161.044 241.165L159.195 242.234V240.095L161.044 239.026V241.165Z" fill="#4B61B8"/>
<path d="M164.528 239.148L162.68 240.218V238.094L164.528 237.009V239.148Z" fill="#4B61B8"/>
<path d="M168.028 237.132L166.164 238.201V236.078L168.028 235.008V237.132Z" fill="#4B61B8"/>
<path d="M171.512 235.114L169.648 236.184V234.06L171.512 232.99V235.114Z" fill="#4B61B8"/>
<path d="M174.997 233.098L173.148 234.183V232.044L174.997 230.974V233.098Z" fill="#4B61B8"/>
<path d="M178.474 231.097L176.625 232.166V230.027L178.474 228.958V231.097Z" fill="#25054D"/>
<path d="M181.973 229.08L180.109 230.15V228.026L181.973 226.957V229.08Z" fill="#2AF6FF"/>
<path d="M185.466 227.063L183.602 228.132V226.008L185.466 224.939V227.063Z" fill="#4B61B8"/>
<path d="M188.942 225.046L187.094 226.131V223.992L188.942 222.923V225.046Z" fill="#4B61B8"/>
<path d="M192.419 223.044L190.57 224.114V221.975L192.419 220.906V223.044Z" fill="#4B61B8"/>
<path d="M195.926 221.028L194.062 222.098V219.974L195.926 218.889V221.028Z" fill="#2AF6FF"/>
<path d="M88.9297 197.515L146.636 231.112L204.128 197.576L146.346 163.918L88.9297 197.515Z" fill="#4C7741"/>
<path d="M146.609 220.387V229.798L200.053 198.63V189.219L146.609 220.387Z" fill="#D0FDB7"/>
<path d="M146.643 220.387V229.798L93.0156 198.539V189.158L146.643 220.387Z" fill="#D0FDB7"/>
<path d="M146.609 200.938V229.157L204.132 195.605V167.402L146.609 200.938Z" fill="#9DDF7E"/>
<path d="M146.636 200.937V229.157L88.9297 195.514V167.34L146.636 200.937Z" fill="#BCFB9F"/>
<path d="M93.8047 192.703V175.82L141.763 203.749V220.662L93.8047 192.703Z" fill="#4C7741"/>
<path d="M135.211 205.46L137.075 206.53V204.391L135.211 203.321V205.46Z" fill="#31412E"/>
<path d="M131.719 203.443L133.567 204.512V202.389L131.719 201.304V203.443Z" fill="#31412E"/>
<path d="M128.242 201.426L130.091 202.496V200.372L128.242 199.302V201.426Z" fill="#FFDE46"/>
<path d="M124.75 199.41L126.614 200.495V198.356L124.75 197.286V199.41Z" fill="#31412E"/>
<path d="M121.258 197.408L123.122 198.478V196.339L121.258 195.269V197.408Z" fill="#31412E"/>
<path d="M117.773 195.391L119.622 196.46V194.336L117.773 193.252V195.391Z" fill="#FFDE46"/>
<path d="M114.297 193.375L116.146 194.444V192.32L114.297 191.251V193.375Z" fill="#FFDE46"/>
<path d="M110.797 191.358L112.661 192.427V190.304L110.797 189.234V191.358Z" fill="#FFDE46"/>
<path d="M107.312 189.341L109.176 190.426V188.287L107.312 187.218V189.341Z" fill="#31412E"/>
<path d="M103.828 187.339L105.677 188.409V186.27L103.828 185.2V187.339Z" fill="#FFDE46"/>
<path d="M100.344 185.323L102.192 186.392V184.268L100.344 183.199V185.323Z" fill="#31412E"/>
<path d="M96.8438 183.306L98.7077 184.376V182.252L96.8438 181.183V183.306Z" fill="#31412E"/>
<path d="M135.211 209.234L137.075 210.319V208.18L135.211 207.111V209.234Z" fill="#FFDE46"/>
<path d="M131.719 207.232L133.567 208.301V206.162L131.719 205.093V207.232Z" fill="#31412E"/>
<path d="M128.242 205.215L130.091 206.285V204.161L128.242 203.092V205.215Z" fill="#31412E"/>
<path d="M124.75 203.199L126.614 204.269V202.145L124.75 201.075V203.199Z" fill="#31412E"/>
<path d="M121.258 201.182L123.122 202.267V200.128L121.258 199.058V201.182Z" fill="#31412E"/>
<path d="M117.773 199.18L119.622 200.249V198.11L117.773 197.041V199.18Z" fill="#31412E"/>
<path d="M114.297 197.164L116.146 198.233V196.109L114.297 195.025V197.164Z" fill="#31412E"/>
<path d="M110.797 195.147L112.661 196.217V194.093L110.797 193.023V195.147Z" fill="#FFDE46"/>
<path d="M107.312 193.131L109.176 194.2V192.076L107.312 191.007V193.131Z" fill="#FFDE46"/>
<path d="M103.828 191.128L105.677 192.198V190.059L103.828 188.99V191.128Z" fill="#FFDE46"/>
<path d="M100.344 189.112L102.192 190.181V188.042L100.344 186.973V189.112Z" fill="#FFDE46"/>
<path d="M96.8438 187.095L98.7077 188.165V186.041L96.8438 184.972V187.095Z" fill="#FFDE46"/>
<path d="M135.211 212.993L137.075 214.062V211.939L135.211 210.869V212.993Z" fill="#BCFB9F"/>
<path d="M131.719 210.991L133.567 212.06V209.922L131.719 208.852V210.991Z" fill="#BCFB9F"/>
<path d="M128.242 208.975L130.091 210.044V207.92L128.242 206.836V208.975Z" fill="#BCFB9F"/>
<path d="M124.75 206.958L126.614 208.028V205.904L124.75 204.834V206.958Z" fill="#BCFB9F"/>
<path d="M121.258 204.941L123.122 206.01V203.886L121.258 202.817V204.941Z" fill="#BCFB9F"/>
<path d="M117.773 202.924L119.622 204.009V201.87L117.773 200.801V202.924Z" fill="#BCFB9F"/>
<path d="M114.297 200.923L116.146 201.993V199.854L114.297 198.784V200.923Z" fill="#31412E"/>
<path d="M110.797 198.907L112.661 199.976V197.852L110.797 196.783V198.907Z" fill="#BCFB9F"/>
<path d="M107.312 196.889L109.176 197.959V195.835L107.312 194.765V196.889Z" fill="#BCFB9F"/>
<path d="M103.828 194.873L105.677 195.957V193.819L103.828 192.749V194.873Z" fill="#BCFB9F"/>
<path d="M100.344 192.871L102.192 193.94V191.801L100.344 190.732V192.871Z" fill="#BCFB9F"/>
<path d="M96.8438 190.855L98.7077 191.924V189.8L96.8438 188.716V190.855Z" fill="#BCFB9F"/>
<g style="mix-blend-mode:screen">
<path d="M146.636 200.021L89.7089 166.882L88.9297 167.34L146.636 200.937L204.128 167.401L203.334 166.943L146.636 200.021Z" fill="#4C7741"/>
</g>
<path d="M211.742 239.164V297.757L269.372 263.915V205.338L211.742 239.164Z" fill="#182316"/>
<path d="M211.771 239.164V297.757L154.156 264.175V205.613L211.771 239.164Z" fill="url(#paint26_linear_3331_193)"/>
<path d="M154.156 205.613L211.771 239.164L269.37 205.338L211.695 171.741L154.156 205.613Z" fill="url(#paint27_linear_3331_193)"/>
<g style="mix-blend-mode:screen">
<path d="M211.771 238.248L154.951 205.155L154.156 205.613L211.771 239.164L269.37 205.338L268.576 204.88L211.771 238.248Z" fill="#4C7741"/>
</g>
<defs>
<linearGradient id="paint0_linear_3331_193" x1="275.264" y1="110.397" x2="287.517" y2="137.883" gradientUnits="userSpaceOnUse">
<stop offset="0.04" stop-color="#FFA98C"/>
<stop offset="0.32" stop-color="#FEB892"/>
<stop offset="0.86" stop-color="#FEE0A3"/>
<stop offset="1" stop-color="#FEECA8"/>
</linearGradient>
<radialGradient id="paint1_radial_3331_193" cx="0" cy="0" r="1" gradientUnits="userSpaceOnUse" gradientTransform="translate(-25.492 82.1792) scale(42.4891 42.4891)">
<stop offset="0.1" stop-color="#FFE4A7"/>
<stop offset="0.42" stop-color="#F4BE4C"/>
<stop offset="0.67" stop-color="#ECA30A"/>
<stop offset="1"/>
</radialGradient>
<radialGradient id="paint2_radial_3331_193" cx="0" cy="0" r="1" gradientUnits="userSpaceOnUse" gradientTransform="translate(-25.492 66.3964) scale(42.4891 42.4891)">
<stop offset="0.1" stop-color="#FFE4A7"/>
<stop offset="0.42" stop-color="#F4BE4C"/>
<stop offset="0.67" stop-color="#ECA30A"/>
<stop offset="1"/>
</radialGradient>
<linearGradient id="paint3_linear_3331_193" x1="243.532" y1="5.63403" x2="243.174" y2="62.5939" gradientUnits="userSpaceOnUse">
<stop stop-color="#3B6132"/>
<stop offset="1" stop-color="#5C8951"/>
</linearGradient>
<radialGradient id="paint4_radial_3331_193" cx="0" cy="0" r="1" gradientUnits="userSpaceOnUse" gradientTransform="translate(-25.492 50.5981) scale(0.763917)">
<stop offset="0.1" stop-color="#FFE4A7"/>
<stop offset="0.42" stop-color="#F4BE4C"/>
<stop offset="0.67" stop-color="#ECA30A"/>
<stop offset="1"/>
</radialGradient>
<linearGradient id="paint5_linear_3331_193" x1="248.933" y1="17.5361" x2="225.67" y2="45.8469" gradientUnits="userSpaceOnUse">
<stop stop-color="#FFDE46"/>
<stop offset="1" stop-color="#FFDE46"/>
</linearGradient>
<radialGradient id="paint6_radial_3331_193" cx="0" cy="0" r="1" gradientUnits="userSpaceOnUse" gradientTransform="translate(280.217 238.553) scale(59.0661 59.0661)">
<stop offset="0.1" stop-color="#45108A"/>
<stop offset="0.67" stop-color="#25054D"/>
<stop offset="1"/>
</radialGradient>
<radialGradient id="paint7_radial_3331_193" cx="0" cy="0" r="1" gradientUnits="userSpaceOnUse" gradientTransform="translate(211.756 277.375) scale(59.0661 59.0661)">
<stop offset="0.1" stop-color="#45108A"/>
<stop offset="0.67" stop-color="#25054D"/>
<stop offset="1"/>
</radialGradient>
<linearGradient id="paint8_linear_3331_193" x1="249.609" y1="317.683" x2="249.609" y2="374.343" gradientUnits="userSpaceOnUse">
<stop stop-color="#42543F"/>
<stop offset="1" stop-color="#212D20"/>
</linearGradient>
<linearGradient id="paint9_linear_3331_193" x1="117.586" y1="318.265" x2="117.586" y2="374.935" gradientUnits="userSpaceOnUse">
<stop stop-color="#42543F"/>
<stop offset="1" stop-color="#212D20"/>
</linearGradient>
<linearGradient id="paint10_linear_3331_193" x1="52.3828" y1="213.212" x2="52.3828" y2="269.881" gradientUnits="userSpaceOnUse">
<stop stop-color="#42543F"/>
<stop offset="1" stop-color="#212D20"/>
</linearGradient>
<linearGradient id="paint11_linear_3331_193" x1="81.365" y1="162.115" x2="80.9406" y2="229.722" gradientUnits="userSpaceOnUse">
<stop stop-color="#3B6132"/>
<stop offset="1" stop-color="#5C8951"/>
</linearGradient>
<linearGradient id="paint12_linear_3331_193" x1="117.586" y1="251.439" x2="117.586" y2="308.108" gradientUnits="userSpaceOnUse">
<stop stop-color="#42543F"/>
<stop offset="1" stop-color="#212D20"/>
</linearGradient>
<linearGradient id="paint13_linear_3331_193" x1="146.56" y1="200.342" x2="146.136" y2="267.949" gradientUnits="userSpaceOnUse">
<stop stop-color="#3B6132"/>
<stop offset="1" stop-color="#5C8951"/>
</linearGradient>
<linearGradient id="paint14_linear_3331_193" x1="316.429" y1="212.034" x2="316.429" y2="268.694" gradientUnits="userSpaceOnUse">
<stop stop-color="#42543F"/>
<stop offset="1" stop-color="#212D20"/>
</linearGradient>
<linearGradient id="paint15_linear_3331_193" x1="345.404" y1="160.939" x2="344.98" y2="228.531" gradientUnits="userSpaceOnUse">
<stop stop-color="#3B6132"/>
<stop offset="1" stop-color="#5C8951"/>
</linearGradient>
<linearGradient id="paint16_linear_3331_193" x1="336.133" y1="238.674" x2="335.776" y2="295.634" gradientUnits="userSpaceOnUse">
<stop stop-color="#3B6132"/>
<stop offset="1" stop-color="#5C8951"/>
</linearGradient>
<linearGradient id="paint17_linear_3331_193" x1="251.242" y1="106.967" x2="251.242" y2="163.636" gradientUnits="userSpaceOnUse">
<stop stop-color="#42543F"/>
<stop offset="1" stop-color="#212D20"/>
</linearGradient>
<linearGradient id="paint18_linear_3331_193" x1="280.217" y1="55.8696" x2="279.792" y2="123.477" gradientUnits="userSpaceOnUse">
<stop stop-color="#3B6132"/>
<stop offset="1" stop-color="#5C8951"/>
</linearGradient>
<linearGradient id="paint19_linear_3331_193" x1="119.219" y1="107.562" x2="119.219" y2="164.232" gradientUnits="userSpaceOnUse">
<stop stop-color="#42543F"/>
<stop offset="1" stop-color="#212D20"/>
</linearGradient>
<linearGradient id="paint20_linear_3331_193" x1="148.201" y1="56.4651" x2="147.777" y2="124.072" gradientUnits="userSpaceOnUse">
<stop stop-color="#3B6132"/>
<stop offset="1" stop-color="#5C8951"/>
</linearGradient>
<linearGradient id="paint21_linear_3331_193" x1="211.763" y1="94.6921" x2="211.339" y2="162.299" gradientUnits="userSpaceOnUse">
<stop stop-color="#3B6132"/>
<stop offset="1" stop-color="#5C8951"/>
</linearGradient>
<linearGradient id="paint22_linear_3331_193" x1="249.609" y1="184.016" x2="249.609" y2="240.685" gradientUnits="userSpaceOnUse">
<stop stop-color="#42543F"/>
<stop offset="1" stop-color="#212D20"/>
</linearGradient>
<linearGradient id="paint23_linear_3331_193" x1="278.584" y1="132.918" x2="278.159" y2="200.526" gradientUnits="userSpaceOnUse">
<stop stop-color="#3B6132"/>
<stop offset="1" stop-color="#5C8951"/>
</linearGradient>
<linearGradient id="paint24_linear_3331_193" x1="185.461" y1="236.001" x2="227.644" y2="330.65" gradientUnits="userSpaceOnUse">
<stop stop-color="#25054D"/>
<stop offset="1" stop-color="#45108A"/>
</linearGradient>
<linearGradient id="paint25_linear_3331_193" x1="146.56" y1="133.514" x2="146.136" y2="201.121" gradientUnits="userSpaceOnUse">
<stop stop-color="#3B6132"/>
<stop offset="1" stop-color="#5C8951"/>
</linearGradient>
<linearGradient id="paint26_linear_3331_193" x1="182.781" y1="222.838" x2="182.781" y2="279.508" gradientUnits="userSpaceOnUse">
<stop stop-color="#42543F"/>
<stop offset="1" stop-color="#212D20"/>
</linearGradient>
<linearGradient id="paint27_linear_3331_193" x1="211.763" y1="171.741" x2="211.339" y2="239.348" gradientUnits="userSpaceOnUse">
<stop stop-color="#3B6132"/>
<stop offset="1" stop-color="#5C8951"/>
</linearGradient>
</defs>
</svg>
