<svg width="119" height="47" viewBox="0 0 119 47" fill="none" xmlns="http://www.w3.org/2000/svg">
<mask id="mask0_3254_445" style="mask-type:luminance" maskUnits="userSpaceOnUse" x="0" y="0" width="119" height="47">
<path d="M119 0H0V46.6014H119V0Z" fill="white"/>
</mask>
<g mask="url(#mask0_3254_445)">
<path d="M34.352 6.89386C34.352 6.89386 36.1766 6.96668 38.0742 7.18512C33.8046 3.83564 29.754 2.85265 26.4696 2.85265C21.9446 2.85265 18.8792 4.70942 18.6968 4.81864L20.1199 2.56139C20.1199 2.56139 14.4271 2.01528 12.4201 8.02249C11.9091 6.74823 11.4348 4.89146 11.4348 4.89146C11.4348 4.89146 8.47883 7.47638 9.86556 11.7725C6.47177 10.5346 1.61828 8.82343 1.43581 8.78706C1.18037 8.75061 1.10738 8.85987 1.10738 8.85987C1.10738 8.85987 1.0344 8.96906 1.25335 9.15113C1.65477 9.47876 9.31816 15.1219 10.9968 16.2142C10.6319 17.5248 10.6319 18.1437 10.9968 18.7627C11.5078 19.6 11.5442 20.0369 11.4712 20.6559C11.3982 21.2747 10.7414 26.6267 10.5955 27.282C10.4494 27.9373 8.9168 30.2674 8.98978 30.9591C9.06276 31.6509 10.0115 34.5998 10.8508 34.9275C11.4712 35.146 13.0039 35.6192 14.0257 35.6192C14.3906 35.6192 14.7191 35.5464 14.8651 35.4008C15.4854 34.8547 15.6678 34.7455 16.1057 34.7455C16.1423 34.7455 16.1787 34.7455 16.2152 34.7455C16.3977 34.7455 16.6167 34.7819 16.8721 34.7819C17.456 34.7819 18.2223 34.6726 18.7698 34.1629C19.5725 33.362 20.9593 32.2698 21.3972 31.7601C21.9446 31.0684 22.2365 30.1218 22.0905 29.1752C21.9811 28.3014 22.4554 27.5368 23.0028 26.7723C23.6962 25.8621 24.9734 24.2238 24.9734 24.2238C27.4914 26.117 29.0606 28.9931 29.0606 32.1969C29.0606 37.8765 24.0976 42.4638 17.9669 42.4638C17.018 42.4638 16.1057 42.3546 15.1934 42.1362C18.0034 43.1191 20.3754 43.4468 22.3095 43.4468C26.4331 43.4468 28.6227 41.9541 28.6227 41.9541C28.6227 41.9541 27.8564 42.9371 26.6156 44.0657C26.652 44.0657 26.652 44.0657 26.652 44.0657C33.4762 43.1191 36.797 37.5124 36.797 37.5124C36.797 37.5124 36.5415 39.3328 36.2131 40.5706C45.2997 33.7625 43.767 25.2432 43.7305 24.9519C43.8035 25.0611 44.7158 26.1533 45.1903 26.7358C46.65 11.736 34.352 6.89386 34.352 6.89386Z" fill="#0A192B"/>
<path d="M20.1597 2.14716C20.3035 2.16094 20.4298 2.24833 20.4935 2.37799C20.5571 2.50766 20.549 2.66106 20.4719 2.78325L19.8423 3.7819C21.2167 3.1923 23.5465 2.43651 26.4697 2.43651C29.844 2.43651 33.9858 3.44885 38.3311 6.8577C38.4776 6.97265 38.5299 7.17097 38.4592 7.34323C38.3883 7.51549 38.2117 7.61972 38.0267 7.59842C37.4282 7.52952 36.8363 7.47518 36.3073 7.43312C36.3598 7.46437 36.4131 7.49646 36.4672 7.52942C37.6217 8.23262 39.1449 9.32925 40.6221 10.9054C43.5848 14.0663 46.3474 19.1417 45.6044 26.7761C45.5881 26.944 45.472 27.0854 45.3106 27.1341C45.1491 27.1829 44.9742 27.1293 44.8677 26.9986C44.701 26.794 44.4801 26.5262 44.26 26.2595C44.2627 26.3538 44.2645 26.4523 44.2653 26.5548C44.2723 27.5293 44.1806 28.8696 43.7969 30.4175C43.0277 33.5201 41.0889 37.4374 36.4626 40.9036C36.3208 41.0099 36.1273 41.0146 35.9805 40.9155C35.8336 40.8164 35.7655 40.6352 35.811 40.4639C35.9171 40.064 36.0162 39.5979 36.1014 39.152C35.7031 39.6244 35.1906 40.1757 34.5625 40.7429C32.8367 42.3013 30.2264 43.99 26.7093 44.4779L26.6587 44.113L26.6521 44.1059L26.6514 44.4818H26.6505H26.6496H26.6487H26.6478H26.647H26.646H26.6451H26.6442H26.6433H26.6424H26.6415H26.6406H26.6396H26.6388H26.6379H26.637H26.636H26.6351H26.6342H26.6333H26.6323H26.6313H26.6304H26.6295H26.6286H26.6277H26.6269H26.626H26.6251H26.6242H26.6234H26.6225H26.6215H26.6206H26.6196H26.6186H26.6177H26.6167H26.6157C26.4437 44.4818 26.2896 44.3761 26.2276 44.2158C26.1655 44.0555 26.2086 43.8736 26.3356 43.7579C26.5643 43.55 26.7765 43.347 26.9703 43.1546C25.8735 43.5199 24.3103 43.8629 22.3095 43.8629C20.3271 43.8629 17.9088 43.5269 15.0561 42.5288C14.847 42.4557 14.7319 42.2314 14.7943 42.0188C14.8568 41.8063 15.0749 41.6799 15.2904 41.7314C16.1712 41.9424 17.0511 42.0477 17.9669 42.0477C23.899 42.0477 28.6446 37.6168 28.6446 32.1969C28.6446 29.2727 27.2779 26.6269 25.0456 24.8084C24.92 24.9699 24.757 25.1796 24.5769 25.4116C24.1725 25.9331 23.6829 26.5663 23.3377 27.0195C22.7859 27.7906 22.4186 28.428 22.5028 29.118C22.6654 30.185 22.3362 31.244 21.7235 32.0182C21.72 32.0226 21.7165 32.027 21.7129 32.0312C21.4691 32.3148 20.9836 32.7395 20.4936 33.166C20.4662 33.1899 20.4386 33.2139 20.4111 33.2378C19.9297 33.6568 19.4316 34.0904 19.0637 34.4575L19.0533 34.4675C18.3884 35.0867 17.4881 35.1979 16.8721 35.1979C16.7258 35.1979 16.5923 35.1874 16.4819 35.1783L16.4602 35.1765C16.3546 35.1677 16.2804 35.1615 16.2151 35.1615H16.2141H16.213H16.2121H16.2111H16.21H16.2089H16.2081H16.207H16.2059H16.2048H16.204H16.2029H16.2021H16.201H16.1999H16.1988H16.198H16.1969H16.1961H16.1952H16.1942H16.1931H16.1922H16.1912H16.1901H16.1893H16.1882H16.1871H16.186H16.1852H16.1841H16.183H16.1819H16.1811H16.18H16.1792H16.1783H16.1773H16.1764H16.1754H16.1743H16.1732H16.1724H16.1713H16.1702H16.1691H16.1683H16.1672H16.1661H16.165H16.1642H16.1631H16.1623H16.1614H16.1604H16.1595H16.1585H16.1574H16.1563H16.1555H16.1544H16.1533H16.1522H16.1514H16.1503H16.1495H16.1484H16.1473H16.1462H16.1454H16.1443H16.1435H16.1426H16.1416H16.1405H16.1396H16.1386H16.1375H16.1366H16.1356H16.1345H16.1334H16.1326H16.1315H16.1304H16.1293H16.1285H16.1274H16.1266H16.1257H16.1247H16.1236H16.1227H16.1217H16.1206H16.1197H16.1187H16.1176H16.1165H16.1157H16.1146H16.1135H16.1125H16.1116H16.1105H16.1097H16.1088H16.1078H16.1067H16.1058C15.9328 35.1615 15.8508 35.1811 15.7508 35.2349C15.623 35.3035 15.4588 35.4328 15.1479 35.7061C14.9986 35.8493 14.8005 35.9253 14.6282 35.9684C14.4418 36.0148 14.2334 36.0353 14.0258 36.0353C13.4632 36.0353 12.785 35.9069 12.1879 35.7591C11.5841 35.6098 11.0329 35.4327 10.7128 35.3199L10.6996 35.3151C10.514 35.2426 10.3575 35.1123 10.2296 34.9761C10.0985 34.8364 9.97622 34.6676 9.86338 34.4868C9.63761 34.1253 9.42774 33.6801 9.24749 33.2364C8.89199 32.3612 8.6187 31.4076 8.57601 31.0027C8.55887 30.8404 8.59024 30.6697 8.63002 30.5215C8.6718 30.3659 8.73363 30.1969 8.80527 30.0249C8.94841 29.681 9.14505 29.2907 9.34177 28.9142C9.42016 28.7641 9.49789 28.6176 9.57312 28.4756C9.69095 28.2534 9.80271 28.0425 9.90166 27.8474C10.0705 27.5148 10.1664 27.2946 10.1893 27.1915C10.2569 26.8882 10.4545 25.4147 10.648 23.9024C10.8395 22.406 11.0218 20.9148 11.058 20.607C11.0922 20.3178 11.0962 20.1064 11.0466 19.8802C10.9962 19.6503 10.8837 19.3759 10.6417 18.9793L10.6385 18.9739C10.2169 18.2588 10.2215 17.5506 10.5176 16.3951C8.42764 14.9829 1.38548 9.79601 0.990312 9.47338L0.987416 9.47105C0.832497 9.34223 0.721469 9.19002 0.688986 9.01177C0.67286 8.92331 0.679127 8.84251 0.696918 8.77444C0.705607 8.74124 0.71668 8.71236 0.728057 8.68814C0.733746 8.67599 0.739527 8.66501 0.745162 8.65511C0.74798 8.65011 0.750768 8.64545 0.753498 8.64104L0.757548 8.63464L0.759536 8.63156L0.76052 8.63014L0.761009 8.62939C0.761253 8.62898 0.761497 8.62864 1.10745 8.85982C0.761498 8.62864 0.762104 8.62765 0.762304 8.6274L0.763126 8.62623L0.764812 8.62373L0.768363 8.61866L0.776197 8.60801C0.78175 8.6006 0.787981 8.59278 0.794939 8.58471C0.808867 8.5684 0.825686 8.55084 0.845764 8.53294C0.886299 8.49674 0.938559 8.46046 1.00403 8.43084C1.13795 8.37009 1.30208 8.34762 1.49459 8.37508C1.50219 8.37616 1.50977 8.37741 1.5173 8.37899C1.55719 8.3869 1.61326 8.40487 1.65005 8.41661C1.69931 8.43234 1.76469 8.45397 1.84382 8.48052C2.00244 8.53386 2.22167 8.609 2.48895 8.70163C3.02381 8.88687 3.75457 9.14317 4.58521 9.43685C6.00758 9.93981 7.72456 10.5529 9.25506 11.1077C8.83964 9.20567 9.22327 7.65328 9.75478 6.54143C10.0551 5.9133 10.4013 5.42757 10.6737 5.09755C10.8101 4.93232 10.9286 4.8054 11.0145 4.71845C11.0575 4.67495 11.0924 4.64138 11.1174 4.61795C11.1299 4.60624 11.1398 4.59705 11.1472 4.59042L11.1561 4.58238L11.1591 4.57981L11.1601 4.57888L11.1609 4.57819M20.1597 2.14716L20.12 2.56133C20.1597 2.14716 20.16 2.14718 20.1597 2.14716ZM20.1597 2.14716L20.1586 2.14705L20.157 2.14689L20.152 2.14646L20.1362 2.14514C20.1228 2.1441 20.1042 2.14275 20.0805 2.14133C20.0331 2.13848 19.9655 2.13532 19.8798 2.1336C19.7086 2.13017 19.4651 2.13252 19.1678 2.15497C18.5743 2.19978 17.7606 2.32515 16.8794 2.64857C15.3142 3.22294 13.5525 4.4178 12.4383 6.84261C12.3271 6.50365 12.2239 6.16529 12.1352 5.86221C12.0449 5.55377 11.9704 5.28466 11.9186 5.09282C11.8926 4.99694 11.8724 4.92045 11.8587 4.86811L11.8431 4.80834L11.8392 4.79317L11.8382 4.78946L11.838 4.7886M11.838 4.7886C11.838 4.78859 11.838 4.78861 11.838 4.7886ZM11.838 4.7886C11.8022 4.64855 11.6962 4.5369 11.5582 4.49403C11.4201 4.45117 11.2697 4.48303 11.1609 4.57819M11.1609 4.57819L11.4348 4.8914C11.1609 4.57819 11.1611 4.57803 11.1609 4.57819Z" stroke="url(#paint0_linear_3254_445)" stroke-opacity="0.5" stroke-width="0.839151"/>
<path fill-rule="evenodd" clip-rule="evenodd" d="M19.4934 31.6858C19.8686 31.3466 20.2627 30.9901 20.375 30.85C20.667 30.4131 20.8494 29.8669 20.7764 29.2844V29.2116C20.375 27.6461 18.8059 26.8087 18.295 26.8452C17.7111 26.918 16.9083 27.0272 16.6528 27.2092C17.1272 26.4811 17.7841 26.117 18.441 25.9349C18.9884 24.3695 20.1561 21.1656 20.4115 20.9472C20.5575 20.8379 20.9224 20.7287 21.5428 20.5466C21.9077 20.4738 22.4186 20.3282 22.4916 20.2554C22.6129 20.0739 23.6412 17.6301 24.0483 16.6627L24.0498 16.6591C24.1318 16.4642 24.1883 16.3298 24.2067 16.287C24.1703 16.0321 23.4404 14.1754 22.674 12.3914C20.813 13.7385 18.8059 13.3744 18.8059 13.3744C18.8059 13.3744 20.229 12.9739 21.6888 10.8259C23.112 8.67785 21.7617 5.72888 21.7617 5.72888C21.7617 5.72888 16.7623 13.2288 16.1419 13.3744C15.5216 13.5201 15.0837 12.7555 15.0837 12.7555C15.0837 12.7555 13.7699 16.1778 13.405 17.4156C13.04 18.6535 13.478 19.8185 13.8064 20.401C14.1714 20.9835 14.9377 22.4398 13.8794 23.9326C14.0254 23.2772 13.3685 22.2578 12.8941 21.6389C12.7117 23.2408 12.2372 27.0636 12.0913 27.6825C12.0217 28.0987 11.7865 28.5481 11.3858 29.3139L11.3249 29.43C11.2635 29.5525 11.185 29.7008 11.1012 29.8588C10.8862 30.2642 10.6374 30.7335 10.5586 30.9956C10.7046 31.6509 11.252 33.2164 11.6169 33.6897C12.1277 33.8717 12.8576 34.0538 13.478 34.163C13.7699 34.163 14.1348 34.0174 14.6457 33.5441C14.7448 33.4528 14.8403 33.3659 14.9321 33.2825C15.7192 32.5664 16.234 32.0981 16.3973 31.2504C16.4582 30.9471 16.4906 30.587 16.5231 30.227C16.588 29.5069 16.6528 28.7869 16.9447 28.5199C17.3462 28.1194 18.222 27.9374 18.9154 28.1194C18.368 28.1194 17.7476 28.3743 17.7476 28.3743C17.7476 28.3743 18.8059 28.1922 19.2073 28.9568C19.6087 29.7213 19.2803 30.1582 18.6234 30.5951C18.076 30.9591 16.4703 32.6339 15.923 33.362H17.0177C17.4557 33.362 17.7476 33.2892 17.8936 33.1436C18.1317 32.9061 18.4163 32.653 18.7072 32.3945L18.7081 32.3938C18.8626 32.2564 19.0189 32.1175 19.1708 31.9785C19.2711 31.8868 19.3812 31.7873 19.4927 31.6864L19.4934 31.6858ZM20.886 10.3526C21.7253 9.36955 21.3968 7.91328 21.3968 7.91328L18.9518 11.5176C18.9154 11.5176 19.8277 11.554 20.886 10.3526ZM12.6751 30.049L12.9671 28.5927C12.9671 28.5927 11.7628 30.7043 11.6534 30.9956C11.5439 31.3233 11.7264 31.9058 12.2007 31.8694C12.6751 31.833 13.2591 31.1412 13.2591 30.6315C13.2591 29.9762 12.6751 30.049 12.6751 30.049ZM19.4992 18.9812C20.1926 18.1802 19.8277 16.6875 18.5504 16.4327C18.8789 15.6681 19.3533 14.139 19.3533 14.139C19.3533 14.139 15.6311 19.9641 15.3026 20.0734C14.9742 20.1826 14.6457 18.9084 14.6457 18.9084C13.9523 21.5661 15.8135 21.9301 16.0324 21.0928C17.0542 20.8379 18.8059 19.7457 19.4992 18.9812Z" fill="white"/>
<path d="M17.2561 29.9865C17.2362 30.339 17.2038 30.9144 16.9453 31.2868C16.9708 31.2614 17.0493 31.1786 17.1517 31.0707C17.3432 30.8688 17.6183 30.5791 17.7846 30.4131C17.8983 30.311 18.026 30.2301 18.1481 30.1529C18.4182 29.9821 18.6605 29.8288 18.6605 29.5028C18.6605 28.9931 17.9671 28.8839 17.6752 28.9568C17.3833 29.0296 17.3103 29.5028 17.2738 29.7577C17.266 29.812 17.2615 29.8911 17.2561 29.9865Z" fill="white"/>
<path d="M31.5062 24.3329C31.8711 22.4762 31.9076 20.8743 31.7981 19.5636C33.2213 21.4568 34.0972 23.7504 34.3525 26.1169C34.3891 26.4082 34.681 26.6994 34.9729 26.9907C35.2284 27.2091 35.5203 27.5004 35.5203 27.6824C35.5203 28.5198 35.4473 29.3571 35.3014 30.1945C35.2668 30.2981 34.9698 30.467 34.7214 30.6084L34.681 30.6314C34.3161 30.8134 33.9876 30.9955 33.9147 31.2868C33.1119 34.0901 31.3967 36.5658 29.0977 38.3133C32.4915 34.7819 34.1336 28.9567 31.5062 24.3329Z" fill="white"/>
<path d="M34.2051 31.3959C33.4023 34.2721 31.5777 36.8206 29.2057 38.641C34.2416 36.2381 37.7084 31.1047 37.7084 25.2067C37.7084 17.5248 31.8696 11.1899 24.3887 10.3889C24.1332 10.7894 23.8778 11.1534 23.6224 11.4447C24.1698 12.7918 25.5929 16.3233 25.5929 16.5053C25.5929 16.7238 24.8996 18.5077 24.8266 18.5805C24.7536 18.617 23.9143 18.6898 23.5858 18.6898C23.2209 19.5636 22.856 20.4009 22.783 20.5102C22.6735 20.6558 22.3451 20.765 21.6518 20.947C21.578 20.9691 21.4968 20.9926 21.4136 21.0168L21.4128 21.017C21.0846 21.1122 20.7246 21.2167 20.6665 21.2747C20.484 21.4931 19.4987 24.0781 18.8418 25.8984C19.7177 25.7528 20.484 25.9348 20.6665 26.0076C22.0897 23.3135 23.2209 21.8572 23.5128 21.8572C23.5439 21.8534 23.6107 21.8556 23.7071 21.8589C24.5175 21.8868 27.415 21.9863 28.6218 19.0902C29.9159 15.9344 28.0941 13.2378 27.9694 13.0533L27.9649 13.0466L27.9707 13.0494C28.1317 13.1273 30.9691 14.5007 31.6871 18.799C33.3293 20.8742 34.3876 23.3863 34.6795 26.0441C34.6795 26.1801 34.8427 26.357 35.0013 26.5288C35.0547 26.5866 35.108 26.6445 35.154 26.6994C35.4824 27.027 35.8108 27.3547 35.8108 27.6824C35.8108 28.5561 35.7378 29.4299 35.5918 30.2673C35.5189 30.5586 35.154 30.777 34.789 30.959C34.7396 30.9919 34.6845 31.0267 34.6285 31.062L34.6278 31.0625C34.4361 31.1835 34.2333 31.3115 34.2051 31.3959Z" fill="white"/>
<path d="M12.748 15.049C13.0033 14.5757 12.7844 14.248 12.5655 14.066L12.4925 13.9932C12.0546 13.7747 9.31759 12.7553 6.61719 11.8087C8.98922 13.3743 11.6166 14.9034 12.0546 15.1218C12.383 15.2675 12.6019 15.3038 12.748 15.049Z" fill="white"/>
<path d="M19.4935 31.6857L19.4913 31.6877C19.3801 31.7882 19.2707 31.8873 19.1707 31.9786C19.0188 32.1176 18.8625 32.2565 18.708 32.3939L18.7073 32.3945C18.4166 32.6529 18.1315 32.9062 17.8935 33.1437C17.7475 33.2893 17.4556 33.3621 17.0177 33.3621H15.9229C16.1424 33.0701 16.5321 32.6258 16.9556 32.1749C17.1888 31.9597 17.4242 31.7538 17.6379 31.5781C18.0121 31.2692 18.3863 31.0604 18.7137 30.8777C19.3123 30.5436 19.7545 30.2968 19.7545 29.6849C19.7775 28.4443 18.9432 28.2041 18.3244 28.1957C18.5088 28.153 18.7169 28.1194 18.9153 28.1194C18.2219 27.9374 17.3461 28.1194 16.9447 28.52C16.6527 28.7869 16.5879 29.507 16.523 30.2271C16.4905 30.5871 16.4581 30.9472 16.3973 31.2505C16.2339 32.0982 15.7193 32.5663 14.9322 33.2824L14.9298 33.2845C14.8386 33.3674 14.7439 33.4536 14.6457 33.5442C14.6227 33.5654 14.6001 33.586 14.5777 33.6059L12.1641 33.0708C12.1641 33.0708 13.7697 32.2334 14.0252 31.2868C14.254 30.4717 13.6631 27.9625 13.5111 27.317C13.4934 27.2418 13.4816 27.1918 13.4778 27.1729C13.4801 27.1751 13.485 27.1795 13.4922 27.1862C13.6026 27.287 14.2644 27.8909 14.5726 28.8476C15.1565 27.2457 15.9228 25.7166 16.1417 25.5709C16.3299 25.4458 18.5387 24.2723 19.1568 23.9445C18.8865 24.6763 18.6276 25.401 18.4409 25.935C17.784 26.1171 17.1271 26.4812 16.6527 27.2093C16.9082 27.0272 17.711 26.918 18.2949 26.8452C18.8058 26.8088 20.375 27.6462 20.7763 29.2117V29.2845C20.8493 29.867 20.6669 30.4131 20.375 30.85C20.2626 30.9903 19.8687 31.3464 19.4935 31.6857Z" fill="#94A6C3"/>
<path d="M19.1348 25.8611C19.8836 25.793 20.5041 25.9434 20.6659 26.0079C22.089 23.3137 23.2203 21.8575 23.5123 21.8575C23.5433 21.8536 23.6101 21.8559 23.7064 21.8592C24.5169 21.8871 27.4144 21.9865 28.6212 19.0905C29.9153 15.9347 28.0935 13.238 27.9688 13.0535L27.9643 13.0469L27.9701 13.0497C28.1278 13.126 30.8542 14.4456 31.6402 18.5405C33.4535 20.6518 34.5903 23.2887 34.8979 26.0807C34.8979 26.2627 35.1532 26.5176 35.4087 26.736C35.7372 27.0637 36.0656 27.3914 36.0656 27.719C36.0656 28.5928 35.9926 29.4665 35.8466 30.304C35.782 30.5618 35.4887 30.734 35.1691 30.9217C35.1278 30.946 35.0855 30.9707 35.0438 30.9957C34.9942 31.0287 34.939 31.0636 34.8828 31.099C34.6911 31.2201 34.4881 31.3482 34.4599 31.4325C33.7169 34.0607 32.1614 36.4081 30.0824 38.1863C33.5137 36.2599 36.1011 33.0216 37.17 29.1702C37.5248 27.6522 37.5855 26.0619 37.3063 24.4423C35.9926 17.0152 28.4022 13.229 27.9643 13.0469C29.497 18.0711 26.1032 20.8744 23.8041 20.9109C22.5268 20.9109 20.8118 21.7482 20.8118 21.7482L19.1348 25.8611Z" fill="#94A6C3"/>
<path d="M19.1979 13.2083C19.0598 13.2419 18.9178 13.2731 18.7715 13.3015C18.7715 13.3015 18.7826 13.3044 18.8003 13.3096C18.823 13.3163 18.8589 13.3268 18.9068 13.34C18.9738 13.3143 19.0728 13.2722 19.1979 13.2083Z" fill="#94A6C3"/>
<path d="M19.1953 13.4128C19.869 13.4467 21.3105 13.3781 22.6737 12.3914C22.8122 12.7138 22.9495 13.0386 23.0817 13.3559C21.4052 13.8047 19.902 13.5735 19.1953 13.4128Z" fill="#94A6C3"/>
<path d="M24.2283 12.9434C25.1363 12.5264 26.0538 11.8738 26.8894 10.8757C26.0818 10.6451 25.2464 10.4806 24.3894 10.3889C24.1339 10.7894 23.8785 11.1534 23.623 11.4447C23.7742 11.8166 23.992 12.355 24.2283 12.9434Z" fill="#94A6C3"/>
<path d="M31.5062 24.333C31.8711 22.4763 31.9076 20.8744 31.7981 19.5637C33.2213 21.4569 34.0972 23.7505 34.3526 26.117C34.3891 26.4083 34.681 26.6996 34.973 26.9908C35.2284 27.2093 35.5203 27.5005 35.5203 27.6825C35.5203 28.5199 35.4473 29.3573 35.3014 30.1947C35.2668 30.2982 34.9699 30.4671 34.7215 30.6085L34.681 30.6316C34.3161 30.8135 33.9876 30.9956 33.9147 31.2869C33.1119 34.0902 31.3967 36.5659 29.0977 38.3135C32.4915 34.782 34.1337 28.9568 31.5062 24.333Z" fill="#94A6C3"/>
<path d="M16.3262 20.4011L18.2238 17.1608C18.2238 17.1608 19.3186 17.7069 18.7712 18.5807C18.0778 19.6001 16.3262 20.4011 16.3262 20.4011Z" fill="#FFD923"/>
<path d="M39.7902 35.4007C39.2428 36.1289 38.6225 36.8935 37.8926 37.6216C42.6001 28.5926 38.1115 20.3281 37.9291 20.0004C38.2575 20.3281 38.5859 20.6921 38.8779 21.0198C42.4906 25.0246 42.9285 31.0318 39.7902 35.4007Z" fill="#D82122"/>
<path d="M44.1695 23.7868C42.5273 19.3815 40.1918 15.6315 35.0464 12.2457C30.0834 8.96904 24.7555 9.22385 24.4636 9.2603C24.4271 9.2603 24.3906 9.2603 24.3906 9.2603C24.573 9.18749 24.7555 9.15104 24.938 9.11467C26.0693 8.7506 27.529 8.45934 28.9887 8.27729C32.8569 7.73118 36.7615 9.04186 39.4255 11.8452C39.462 11.8816 39.462 11.8816 39.4985 11.918C42.5273 15.1218 44.0965 19.1266 44.1695 23.7868Z" fill="#D82122"/>
<path d="M33.877 5.76534C28.4396 4.74594 24.9363 5.25564 22.4184 6.20223C22.3454 5.91097 22.0899 5.32846 21.871 4.85516C21.1046 5.76534 20.3018 6.85756 19.7909 7.5493C18.4042 8.49586 17.8203 9.40609 17.8203 9.40609C18.6231 6.67553 20.9587 4.63672 23.805 4.12701C24.6079 3.98138 25.4837 3.90857 26.4325 3.90857C28.9505 3.94498 31.4684 4.5639 33.877 5.76534Z" fill="#D82122"/>
<path d="M13.7697 12.7556C9.50005 12.61 10.9232 7.65857 10.9962 7.36731C10.9962 7.40372 11.2882 11.2629 13.7697 12.7556Z" fill="#D82122"/>
<path d="M17.968 3.83569C14.6837 5.80169 15.3405 10.4982 15.3405 10.4982C12.2022 5.72887 17.7125 3.94492 17.968 3.83569Z" fill="#D82122"/>
<path d="M52.2734 12.8707H56.722V30.6237H61.1706V8.4325H56.722C54.2753 8.4325 52.2734 10.4297 52.2734 12.8707Z" fill="#FBF8F3"/>
<path d="M65.6191 30.6238H70.0677V21.7473C70.0677 19.3063 68.0659 17.3091 65.6191 17.3091V30.6238Z" fill="#FBF8F3"/>
<path d="M74.5156 17.3091V30.6238H78.9642V21.7473H83.4132V26.1855C83.4132 28.6266 85.4145 30.6238 87.8611 30.6238V21.7473C87.8611 19.3063 85.8597 17.3091 83.4132 17.3091H74.5156Z" fill="#FBF8F3"/>
<path d="M114.554 17.309H110.105V12.8707C110.105 10.4297 108.103 8.4325 105.657 8.4325V26.1854H96.7593V21.7472H101.208V17.309H96.7593C94.3127 17.309 92.3105 19.3062 92.3105 21.7472V26.1854C92.3105 28.6265 94.3127 30.6237 96.7593 30.6237H110.105V21.7472H114.554V26.1854C114.554 28.6265 116.556 30.6237 119.002 30.6237V21.7472C119.002 19.3062 117 17.309 114.554 17.309Z" fill="#FBF8F3"/>
<path d="M65.6191 12.8707H70.0677C70.0677 10.4297 68.0659 8.4325 65.6191 8.4325V12.8707Z" fill="#FBF8F3"/>
</g>
<defs>
<linearGradient id="paint0_linear_3254_445" x1="3.74597" y1="2.4964" x2="40.3613" y2="42.8565" gradientUnits="userSpaceOnUse">
<stop stop-color="white" stop-opacity="0.7"/>
<stop offset="1" stop-color="white" stop-opacity="0.3"/>
</linearGradient>
</defs>
</svg>
