<svg width="117" height="24" viewBox="0 0 117 24" fill="none" xmlns="http://www.w3.org/2000/svg">
<path fill-rule="evenodd" clip-rule="evenodd" d="M35.1953 19.4431L36.086 16.8043H42.0033L42.8941 19.4431H46.0754L40.858 4.7833H37.2313L32.0352 19.4431H35.1953ZM41.0913 14.1027H37.0192L39.0553 8.11316L41.0913 14.1027ZM50.3173 19.4431V4.15503H47.5814V19.4431H50.3173ZM55.7469 19.4431V4.15503H53.011V19.4431H55.7469ZM61.1765 19.4431V13.7886C61.1765 12.0504 62.0885 11.1917 63.5095 11.1917C64.782 11.1917 65.6091 11.9456 65.6091 13.3488V19.4431H68.3451V13.0137C68.3451 11.6524 67.9633 10.6053 67.1998 9.83045C66.4575 9.05558 65.5031 8.67861 64.3366 8.67861C62.8944 8.67861 61.834 9.16029 61.1765 10.1446V8.97181H58.4406V19.4431H61.1765ZM75.9168 19.7363C77.4862 19.7363 78.8224 19.2127 79.904 18.1446C80.9857 17.0766 81.5371 15.7572 81.5371 14.2074C81.5371 12.6577 80.9857 11.3593 79.904 10.2912C78.8224 9.22312 77.4862 8.67861 75.9168 8.67861C74.3473 8.67861 73.0112 9.22312 71.9295 10.2912C70.8479 11.3593 70.3176 12.6577 70.3176 14.2074C70.3176 15.7572 70.8479 17.0766 71.9295 18.1446C73.0112 19.2127 74.3473 19.7363 75.9168 19.7363ZM75.9168 17.0975C75.0896 17.0975 74.4109 16.8252 73.8595 16.2807C73.3293 15.7362 73.0536 15.0451 73.0536 14.2074C73.0536 13.3697 73.3293 12.6786 73.8595 12.1341C74.4109 11.5896 75.0896 11.3174 75.9168 11.3174C76.7439 11.3174 77.4226 11.5896 77.974 12.1341C78.5255 12.6786 78.8012 13.3697 78.8012 14.2074C78.8012 15.0451 78.5255 15.7362 77.974 16.2807C77.4226 16.8252 76.7439 17.0975 75.9168 17.0975ZM88.1429 19.7363C89.6275 19.7363 90.7728 19.2336 91.5787 18.2074V19.4431H94.3147V4.7833H91.5787V10.2074C90.7728 9.18123 89.6275 8.67861 88.1429 8.67861C86.7219 8.67861 85.4918 9.22312 84.4738 10.2912C83.477 11.3593 82.9679 12.6577 82.9679 14.2074C82.9679 15.7572 83.477 17.0766 84.4738 18.1446C85.4918 19.2127 86.7219 19.7363 88.1429 19.7363ZM88.6519 17.1603C87.8036 17.1603 87.1037 16.8881 86.531 16.3436C85.9796 15.7781 85.7039 15.0661 85.7039 14.2074C85.7039 13.3488 85.9796 12.6367 86.531 12.0922C87.1037 11.5268 87.8036 11.2545 88.6519 11.2545C89.5003 11.2545 90.2002 11.5268 90.7516 12.0922C91.303 12.6367 91.5787 13.3488 91.5787 14.2074C91.5787 15.0661 91.303 15.7781 90.7516 16.3436C90.2002 16.8881 89.5003 17.1603 88.6519 17.1603ZM102.151 19.7363C104.187 19.7363 105.735 18.9823 106.774 17.4954L104.568 16.2389C104.038 16.93 103.232 17.286 102.193 17.286C100.56 17.286 99.5631 16.6368 99.2025 15.3174H107.198C107.262 14.9195 107.304 14.5635 107.304 14.2074C107.304 12.6367 106.795 11.3383 105.777 10.2702C104.78 9.20217 103.487 8.67861 101.938 8.67861C100.305 8.67861 98.948 9.20217 97.9088 10.2702C96.8696 11.3174 96.3393 12.6367 96.3393 14.2074C96.3393 15.7991 96.8696 17.1184 97.93 18.1656C98.9904 19.2127 100.39 19.7363 102.151 19.7363ZM104.568 13.2231H99.1601C99.4782 11.8828 100.475 11.1079 101.938 11.1079C103.19 11.1079 104.25 11.799 104.568 13.2231ZM112.595 19.7363C113.804 19.7363 114.822 19.4431 115.628 18.8776C116.455 18.2912 116.858 17.4535 116.858 16.3855C116.879 14.1446 114.864 13.4116 113.316 13.0975C112.235 12.8252 111.386 12.5111 111.386 11.9456C111.386 11.4221 111.916 11.087 112.616 11.087C113.401 11.087 113.974 11.443 114.313 12.1551L116.646 10.8985C115.819 9.47443 114.334 8.67861 112.616 8.67861C111.471 8.67861 110.517 8.97181 109.732 9.57914C108.968 10.1655 108.587 10.9823 108.587 12.0085C108.587 14.1865 110.559 14.8357 112.129 15.2336C113.21 15.5059 114.059 15.82 114.059 16.3855C114.059 16.9928 113.571 17.286 112.595 17.286C111.513 17.286 110.835 16.8252 110.517 15.9247L108.141 17.2441C108.926 18.8986 110.411 19.7363 112.595 19.7363Z" fill="#FBF8F3"/>
<path fill-rule="evenodd" clip-rule="evenodd" d="M11.937 0C18.5296 0 23.874 5.34437 23.874 11.937C23.874 14.4721 23.0837 16.8227 21.736 18.7557C21.6694 18.8512 21.5665 18.9922 21.4272 19.1786C21.3323 18.9964 21.2611 18.8598 21.2136 18.7687C19.8004 16.057 17.6807 11.9895 14.8544 6.56609C14.4968 5.87987 13.7872 5.44949 13.0134 5.44949H9.6787C9.59519 5.44949 9.51291 5.46965 9.43885 5.50824C9.18466 5.6407 9.08598 5.95415 9.21844 6.20834C12.8901 13.2538 15.6439 18.5379 17.4797 22.0606C17.5206 22.139 17.5818 22.2565 17.6635 22.4132C17.508 22.4968 17.3907 22.5585 17.3118 22.5983C15.6964 23.4143 13.8704 23.874 11.937 23.874C10.0367 23.874 8.24008 23.4299 6.6453 22.6399C6.56205 22.5987 6.43844 22.5347 6.27445 22.448C6.35969 22.2845 6.42362 22.1618 6.46624 22.08C7.55296 19.9946 9.18305 16.8666 11.3565 12.6958L11.3739 12.6591C11.4792 12.4122 11.3782 12.1219 11.1361 11.9957C11.062 11.9571 10.9798 11.937 10.8962 11.937H7.56159L7.48691 11.9383C6.74236 11.965 6.06665 12.3895 5.72058 13.0536C4.38406 15.6181 3.38167 17.5414 2.71341 18.8237C2.66497 18.9166 2.59231 19.056 2.49543 19.2419C2.36012 19.0634 2.26003 18.9285 2.19516 18.8371C0.812684 16.8888 0 14.5078 0 11.937C0 5.34437 5.34437 0 11.937 0Z" fill="#FBF8F3"/>
</svg>
