<svg width="148" height="28" viewBox="0 0 148 28" fill="none" xmlns="http://www.w3.org/2000/svg">
<g clip-path="url(#clip0_2752_2514)">
<path fill-rule="evenodd" clip-rule="evenodd" d="M53.3889 16.6993L55.0551 19.6029H58.2076L51.4109 7.76685H46.8397L40.043 19.6021H43.1955L44.8617 16.6979H53.3889V16.6993ZM44.7811 16.5559H53.4724L55.1386 19.4587H57.9593H55.1407L53.4752 16.5552L44.7811 16.5559ZM46.9254 7.91099L40.2934 19.4587H43.112H40.2913L46.9232 7.91099H46.9254ZM52.1694 14.2789H52.1715L49.136 8.98348L49.1346 8.98563L52.1694 14.2789ZM51.9211 14.1355H46.3302L49.1332 9.27177L51.9211 14.1355ZM68.7785 16.1399L63.4467 7.76685H59.7104V19.6021H62.604V11.6051L66.3902 17.557H71.1675L74.9537 11.6051V19.6029H77.8473V7.76685H74.111L68.7785 16.1399ZM62.4634 11.1156L66.4694 17.4136H71.0883H66.4715L62.4627 11.1114L62.4634 11.1156ZM75.0972 11.1156V19.4587H77.7038H75.1V11.1114L75.0972 11.1156ZM74.1924 7.9117H74.1895L68.7799 16.4053L68.7813 16.4068L74.1924 7.9117ZM62.4605 19.458H59.856V7.91099H59.8539V19.4587L62.4605 19.458ZM83.3147 13.8165V7.76685H80.4211V13.783C80.4211 16.0607 81.2817 17.5813 82.7103 18.5246C84.1288 19.4609 86.0883 19.8162 88.269 19.8162C90.4654 19.8162 92.4255 19.4609 93.8398 18.5246C95.2648 17.5806 96.1168 16.0607 96.1168 13.783V7.76685H93.2226V13.8165C93.2226 14.5907 93.0513 15.1837 92.7681 15.6404C92.4848 16.0971 92.0837 16.4267 91.6092 16.6637C90.6537 17.1403 89.4128 17.2359 88.2854 17.2359C87.1579 17.2359 85.9085 17.1403 84.9445 16.6629C84.4656 16.426 84.0603 16.0964 83.7742 15.6397C83.4881 15.183 83.3147 14.5907 83.3147 13.8165ZM88.4531 17.3787C90.683 17.3594 93.3689 16.9234 93.3689 13.8165V7.91027H93.3667V13.8165C93.3667 16.922 90.6823 17.3594 88.4531 17.3787ZM88.3204 19.6728H88.2711C83.9326 19.6728 80.5674 18.2542 80.5674 13.7837V7.91099H80.5646V13.7837C80.5646 18.2542 83.9305 19.6728 88.269 19.6728H88.3204ZM113.834 19.6014V16.9719H103.871L112.58 10.3243V7.76685H98.1056V10.3964H108.3L99.5898 17.0447V19.6021L113.834 19.6014ZM98.2518 7.91027V10.2529H108.727L99.7361 17.1161V19.458H113.691H99.7339V17.1161L108.725 10.2529H98.249V7.91027H98.2518ZM115.777 7.76685V19.6021H129.114V16.9719H118.671V14.884H126.409V12.3037H118.671V10.3964H129.114V7.76685H115.777ZM128.97 19.458H115.923V7.91099H115.921V19.4587L128.97 19.458ZM131.464 7.76685V19.6021H138.586C141.16 19.6021 143.194 19.2389 144.588 18.3441C145.996 17.4414 146.731 16.0086 146.731 13.9321V13.4369C146.731 11.3604 145.996 9.92825 144.588 9.02487C143.194 8.12934 141.16 7.76685 138.586 7.76685H131.464ZM131.611 7.91027H131.608V19.458H138.589H131.611V7.91027ZM138.586 10.3964C140.062 10.3964 141.404 10.5048 142.373 10.943C142.854 11.1599 143.238 11.4567 143.503 11.8563C143.768 12.2559 143.92 12.7704 143.92 13.4369V13.9321C143.92 14.5979 143.768 15.1124 143.503 15.5127C143.238 15.9123 142.854 16.2084 142.373 16.426C141.404 16.8635 140.062 16.9719 138.586 16.9719H134.359V10.3964H138.586ZM138.586 10.2529C141.539 10.2529 144.063 10.6818 144.063 13.4369V13.9321C144.063 16.608 141.681 17.0897 138.838 17.1146C141.682 17.0897 144.066 16.6094 144.066 13.9321V13.4369C144.066 10.6825 141.542 10.2529 138.589 10.2529H134.217H138.586Z" fill="#FBF8F3"/>
<path fill-rule="evenodd" clip-rule="evenodd" d="M23.4727 13.7943C23.4727 19.0676 19.1984 23.3419 13.9258 23.3419C8.6532 23.3419 4.37891 19.0676 4.37891 13.7943C4.37891 8.52173 8.6532 4.24744 13.9265 4.24744C19.1984 4.24744 23.4727 8.52173 23.4727 13.795V13.7943ZM23.0638 13.7943C23.0638 18.8407 18.9729 22.9323 13.9258 22.9323C8.8794 22.9323 4.7885 18.8414 4.7885 13.7943C4.7885 8.74793 8.8794 4.65703 13.9258 4.65703C18.9722 4.65703 23.0638 8.74793 23.0638 13.7943Z" fill="#FBF8F3"/>
<path fill-rule="evenodd" clip-rule="evenodd" d="M24.8374 13.7943C24.8374 19.8204 19.9522 24.7048 13.9268 24.7048C7.90073 24.7048 3.01562 19.8204 3.01562 13.7943C3.01562 7.7689 7.90073 2.88379 13.9261 2.88379C19.9522 2.88379 24.8366 7.7689 24.8366 13.7943H24.8374ZM24.4278 13.7943C24.4278 19.5942 19.726 24.2959 13.9261 24.2959C8.12622 24.2959 3.4245 19.5942 3.4245 13.7943C3.4245 7.99439 8.12694 3.29267 13.9261 3.29267C19.726 3.29267 24.4278 7.9951 24.4278 13.7943Z" fill="#FBF8F3"/>
<path fill-rule="evenodd" clip-rule="evenodd" d="M13.9265 26.0693C20.7054 26.0693 26.2013 20.5733 26.2013 13.7944C26.2013 7.01548 20.7054 1.52026 13.9265 1.52026C7.14756 1.52026 1.65234 7.01548 1.65234 13.7944C1.65234 20.5733 7.14756 26.0693 13.9265 26.0693ZM13.9265 25.6597C20.4799 25.6597 25.7918 20.3478 25.7918 13.7944C25.7918 7.24168 20.4799 1.92914 13.9265 1.92914C7.37376 1.92914 2.06122 7.24168 2.06122 13.7944C2.06122 20.3478 7.37376 25.6597 13.9265 25.6597Z" fill="#FBF8F3"/>
<path fill-rule="evenodd" clip-rule="evenodd" d="M27.5641 13.7943C27.5641 21.3267 21.4581 27.4327 13.9256 27.4327C6.39314 27.4327 0.287109 21.3267 0.287109 13.7943C0.287109 6.26179 6.39385 0.155762 13.9256 0.155762C21.4581 0.155762 27.5641 6.26251 27.5641 13.7943ZM27.1552 13.7943C27.1552 21.1012 21.2326 27.0239 13.9256 27.0239C6.61934 27.0239 0.695986 21.1012 0.695986 13.7943C0.695986 6.48799 6.61934 0.564638 13.9256 0.564638C21.2326 0.564638 27.1552 6.48799 27.1552 13.7943Z" fill="#FBF8F3"/>
<path fill-rule="evenodd" clip-rule="evenodd" d="M13.9262 4.24745C15.4761 4.24745 16.9389 4.61708 18.2326 5.27213L17.7453 6.2483C16.5617 5.6484 15.2531 5.33666 13.9262 5.3385C12.5519 5.3385 11.2546 5.66674 10.1072 6.2483L9.61983 5.27213C10.9547 4.59646 12.4301 4.24537 13.9262 4.24745ZM5.69947 18.551C4.94954 17.2563 4.51582 15.8028 4.43359 14.3088L5.5225 14.2439C5.59479 15.5687 5.97915 16.8577 6.64424 18.0058C7.30607 19.1558 8.23028 20.133 9.34154 20.858L8.74 21.7685C7.48765 20.9501 6.44615 19.8477 5.70018 18.551H5.69947ZM23.4431 14.3088C23.3607 15.8028 22.9267 17.2563 22.1765 18.551C21.4307 19.848 20.3892 20.9506 19.1367 21.7692L18.5352 20.858C19.6464 20.133 20.5707 19.1558 21.2325 18.0058C21.8973 16.8577 22.2814 15.5687 22.3535 14.2439L23.4431 14.3088Z" fill="#FBF8F3"/>
<path fill-rule="evenodd" clip-rule="evenodd" d="M5.58594 17.5286C8.57241 13.6232 11.0311 9.34133 12.8986 4.79346H14.9501C16.8308 9.37332 19.3109 13.6833 22.3256 17.6106L21.4365 19.284C21.1628 19.2474 20.8887 19.2129 20.6145 19.1805C18.7178 17.196 16.4137 16.0322 13.9283 16.0322C11.4387 16.0322 9.13096 17.1996 7.23286 19.1912C6.99453 19.2197 6.7562 19.2497 6.51929 19.2811L5.58665 17.5279L5.58594 17.5286ZM13.9276 14.8855C14.2895 14.8914 14.649 14.8251 14.985 14.6907C15.3211 14.5562 15.627 14.3562 15.885 14.1024C16.143 13.8485 16.3479 13.5458 16.4878 13.212C16.6277 12.8782 16.6997 12.5198 16.6997 12.1579C16.6997 11.7959 16.6277 11.4376 16.4878 11.1037C16.3479 10.7699 16.143 10.4672 15.885 10.2134C15.627 9.9595 15.3211 9.75951 14.985 9.62506C14.649 9.49062 14.2895 9.42439 13.9276 9.43024C13.2118 9.44182 12.5293 9.73429 12.0272 10.2446C11.5251 10.7548 11.2437 11.442 11.2437 12.1579C11.2437 12.8737 11.5251 13.5609 12.0272 14.0712C12.5293 14.5815 13.2118 14.8739 13.9276 14.8855Z" fill="#FBF8F3"/>
</g>
<defs>
<clipPath id="clip0_2752_2514">
<rect width="148" height="27.75" fill="white"/>
</clipPath>
</defs>
</svg>
