<svg width="108" height="33" viewBox="0 0 108 33" fill="none" xmlns="http://www.w3.org/2000/svg">
<g clip-path="url(#clip0_2752_2531)">
<path d="M20.2501 7.83031C20.2501 10.4641 18.0968 12.5997 15.463 12.5997C12.8292 12.5997 10.6758 10.4641 10.6758 7.83031C10.6758 7.83031 10.4979 6.9405 11.4233 4.96514C12.9893 1.58388 15.4096 0.106812 15.4096 0.106812C15.4096 0.106812 18.0256 1.74405 19.5739 4.96514C20.3747 6.63797 20.2501 7.83031 20.2501 7.83031Z" fill="#FBF8F3"/>
<path d="M20.2501 24.0248C20.2501 21.391 18.0968 19.2555 15.463 19.2555C12.8292 19.2555 10.6758 21.391 10.6758 24.0248C10.6758 24.0248 10.4979 24.9146 11.4233 26.89C12.9893 30.2712 15.4096 31.7483 15.4096 31.7483C15.4096 31.7483 18.0256 30.1111 19.5739 26.89C20.3747 25.2171 20.2501 24.0248 20.2501 24.0248Z" fill="#FBF8F3"/>
<path d="M22.6886 11.1582C20.0548 11.1582 17.9193 13.3115 17.9193 15.9453C17.9193 18.5792 20.0548 20.7325 22.6886 20.7325C22.6886 20.7325 23.5784 20.9104 25.5538 19.985C28.935 18.419 30.4121 15.9987 30.4121 15.9987C30.4121 15.9987 28.7749 13.3827 25.5538 11.8344C23.881 11.0336 22.6886 11.1582 22.6886 11.1582Z" fill="#FBF8F3"/>
<path d="M8.02623 11.1047C10.66 11.1047 12.7956 13.2581 12.7956 15.8919C12.7956 18.5257 10.66 20.679 8.02623 20.679C8.02623 20.679 7.13643 20.857 5.16106 19.9316C1.77981 18.3655 0.302734 15.9453 0.302734 15.9453C0.302734 15.9453 1.93997 13.3292 5.16106 11.781C6.83389 10.9802 8.02623 11.1047 8.02623 11.1047Z" fill="#FBF8F3"/>
<path d="M49.9523 10.8912C49.9523 12.1191 49.3294 13.6496 47.4074 14.397C49.8811 15.0199 50.9311 17.1376 50.9311 18.6503C50.9311 21.7468 48.6888 24.3628 44.9694 24.3628H36.9434V5.67696H44.4177C47.7812 5.67696 49.9523 7.68792 49.9523 10.8912ZM40.9297 13.0623H44.044C45.0762 13.0623 45.788 12.2437 45.788 11.1404C45.788 9.98361 45.1829 9.18279 44.0262 9.18279H40.9297V13.0623ZM44.6669 16.3368H40.9297V20.857H44.7558C46.0905 20.857 46.7668 19.6647 46.7668 18.5613C46.7668 17.4936 46.0727 16.3368 44.6669 16.3368ZM52.7641 4.82275V24.3628H56.5368V4.82275H52.7641ZM64.8298 20.8926C66.3959 20.8926 67.695 19.7537 67.695 17.9918C67.695 16.2834 66.3959 15.1267 64.8298 15.1267C63.2815 15.1267 61.9824 16.2834 61.9824 17.9918C61.9824 19.7537 63.2815 20.8926 64.8298 20.8926ZM64.8298 24.5764C61.2528 24.5764 58.2631 21.9782 58.2631 17.9918C58.2631 14.0055 61.2528 11.4251 64.8298 11.4251C68.4068 11.4251 71.4144 14.0055 71.4144 17.9918C71.4144 21.9782 68.4068 24.5764 64.8298 24.5764ZM78.9421 20.8926C80.5081 20.8926 81.8073 19.7537 81.8073 17.9918C81.8073 16.2834 80.5081 15.1267 78.9421 15.1267C77.3938 15.1267 76.0947 16.2834 76.0947 17.9918C76.0947 19.7537 77.3938 20.8926 78.9421 20.8926ZM78.9421 24.5764C75.3651 24.5764 72.3753 21.9782 72.3753 17.9918C72.3753 14.0055 75.3651 11.4251 78.9421 11.4251C82.5191 11.4251 85.5266 14.0055 85.5266 17.9918C85.5266 21.9782 82.5191 24.5764 78.9421 24.5764ZM101.241 15.0911C102.344 15.0911 103.323 15.9631 103.323 17.6181V24.3628H107.06V17.1732C107.06 13.3471 105.191 11.4251 102.184 11.4251C101.294 11.4251 99.6033 11.692 98.3932 13.6674C97.6814 12.2081 96.3289 11.4429 94.3179 11.4429C92.9654 11.4429 91.6129 12.2081 91.0078 13.525V11.6742H87.2351V24.3272H91.0078V17.6359C91.0078 15.7139 92.0578 15.0555 93.1968 15.0555C94.2823 15.0555 95.2611 15.8919 95.2789 17.4936V24.3272H99.0517V17.6359C99.0694 15.8207 100.048 15.0911 101.241 15.0911Z" fill="#FBF8F3"/>
</g>
<defs>
<clipPath id="clip0_2752_2531">
<rect width="107.488" height="32.0329" fill="white"/>
</clipPath>
</defs>
</svg>
