<svg width="126" height="42" viewBox="0 0 126 42" fill="none" xmlns="http://www.w3.org/2000/svg">
<g clip-path="url(#clip0_2752_2374)">
<path d="M109.344 22.9188C109.344 25.2336 108.023 26.2816 106.487 26.2816C105.046 26.2816 104.23 25.4579 104.23 22.7479V17.1667H100.576V24.4976C100.576 27.7927 101.993 29.7381 104.994 29.7381C106.675 29.7381 108.163 28.9582 109.364 27.8853L109.556 29.4946H112.963V17.1667H109.339L109.344 22.9188ZM30.0148 15.5421C29.7491 15.5421 29.4943 15.6492 29.3064 15.84C29.1185 16.0307 29.0129 16.2894 29.0129 16.5591C29.0129 16.8289 29.1185 17.0876 29.3064 17.2783C29.4943 17.469 29.7491 17.5762 30.0148 17.5762C30.2804 17.5762 30.5351 17.4691 30.7229 17.2784C30.9107 17.0878 31.0162 16.8292 31.0162 16.5596C31.0162 16.29 30.9107 16.0314 30.7229 15.8408C30.5351 15.6501 30.2804 15.543 30.0148 15.543V15.5421ZM20.0072 0.689331C17.3796 0.689519 14.7778 1.21508 12.3503 2.23602C9.92286 3.25696 7.71723 4.75327 5.85939 6.63952C4.00155 8.52578 2.52788 10.765 1.52253 13.2294C0.51717 15.6939 -0.000185173 18.3352 4.97173e-08 21.0025C0.000185272 23.6699 0.517907 26.3111 1.5236 28.7754C2.5293 31.2397 4.00328 33.4787 5.86138 35.3647C7.71949 37.2507 9.92532 38.7467 12.353 39.7673C14.7806 40.7879 17.3825 41.3131 20.01 41.3129C25.3165 41.3125 30.4055 39.1722 34.1575 35.3628C37.9095 31.5534 40.0171 26.387 40.0168 21.0001C40.0164 15.6133 37.908 10.4472 34.1555 6.63831C30.403 2.82948 25.3137 0.688951 20.0072 0.689331ZM29.1074 29.4975C27.9418 30.8047 26.5206 31.8508 24.9345 32.5692C23.3484 33.2876 21.6321 33.6624 19.8953 33.6698H19.8718C18.1191 33.6674 16.3865 33.2907 14.7865 32.5643C13.1864 31.838 11.7548 30.7781 10.5845 29.4536C9.40362 28.1298 8.51458 26.5655 7.97673 24.8651C7.43887 23.1647 7.26459 21.3674 7.4655 19.5931C7.78619 16.753 9.04036 14.1055 11.0255 12.0779C13.0107 10.0504 15.6111 8.76111 18.4068 8.41829C18.8911 8.36101 19.3791 8.33238 19.8671 8.33238C22.6189 8.32688 25.2936 9.25482 27.4666 10.9688C27.571 11.0496 27.6458 11.1634 27.679 11.2923C27.7122 11.4212 27.702 11.5577 27.65 11.68C27.6159 11.7616 27.5645 11.8346 27.4995 11.8938L26.1746 13.0984C26.0354 13.2245 25.8553 13.2941 25.6687 13.2941C25.5089 13.294 25.353 13.244 25.2221 13.1509C23.8952 12.2083 22.3494 11.6325 20.7369 11.4802C19.1243 11.3279 17.5005 11.6044 16.025 12.2823C14.8143 12.8346 13.732 13.6399 12.8487 14.6457C11.9594 15.6488 11.2915 16.8331 10.8898 18.1195C10.4881 19.4059 10.3619 20.7646 10.5196 22.1046C10.7696 24.2446 11.7224 26.2368 13.2243 27.7599C14.7262 29.283 16.6896 30.2482 18.798 30.4998C19.1553 30.5389 19.5154 30.5599 19.8756 30.5599C21.1185 30.5615 22.3493 30.3111 23.4957 29.8235C24.6421 29.3359 25.6811 28.6208 26.5517 27.7201C26.624 27.6458 26.71 27.5867 26.8049 27.5462C26.8998 27.5057 27.0017 27.4847 27.1046 27.4844C27.254 27.4842 27.4002 27.5287 27.5249 27.6123L28.9955 28.5916C29.0669 28.6398 29.1273 28.7029 29.1727 28.7766C29.2181 28.8503 29.2474 28.9331 29.2588 29.0193C29.2694 29.1056 29.2615 29.1932 29.2355 29.2761C29.2095 29.359 29.1661 29.4352 29.1084 29.4994L29.1074 29.4975ZM30.0148 19.6256C29.2137 19.6256 28.4453 19.3025 27.8788 18.7275C27.3123 18.1524 26.9941 17.3724 26.9941 16.5591C26.9941 15.7458 27.3123 14.9659 27.8788 14.3908C28.4453 13.8157 29.2137 13.4926 30.0148 13.4926C30.8159 13.4926 31.5843 13.8157 32.1508 14.3908C32.7173 14.9659 33.0355 15.7458 33.0355 16.5591C33.0355 17.3724 32.7173 18.1524 32.1508 18.7275C31.5843 19.3025 30.8159 19.6256 30.0148 19.6256ZM96.3736 15.6805C96.7203 15.681 97.0595 15.5773 97.3483 15.3825C97.6371 15.1876 97.8627 14.9104 97.9965 14.5856C98.1297 14.2606 98.1651 13.9028 98.0982 13.5574C98.0312 13.2121 97.865 12.8945 97.6204 12.645C97.437 12.459 97.2154 12.3165 96.9713 12.2277C96.7273 12.139 96.4669 12.1062 96.2089 12.1318C95.9509 12.1573 95.7017 12.2406 95.4791 12.3755C95.2566 12.5105 95.0662 12.6938 94.9217 12.9123C94.7289 13.205 94.6258 13.5491 94.6255 13.9012C94.6231 14.2533 94.7241 14.5981 94.9157 14.8916C95.1073 15.1851 95.3808 15.4139 95.7012 15.5487C95.9147 15.6375 96.1432 15.6824 96.3736 15.6805ZM68.7617 16.9185C65.0419 16.9185 62.6874 19.8432 62.6874 23.2548C62.6874 26.7646 65.1613 29.739 68.9789 29.739C72.4364 29.739 74.3358 27.2028 74.6207 25.5457L71.4754 25.204C71.199 25.607 70.8284 25.934 70.3967 26.1556C69.9651 26.3772 69.486 26.4864 69.0024 26.4735C67.1312 26.4735 66.3856 25.4235 66.3141 24.4499H74.837V23.5087C74.837 19.9196 72.5323 16.9185 68.7617 16.9185ZM66.3141 21.9432C66.3856 20.9925 67.3221 20.1888 68.7617 20.1888C70.222 20.1888 71.1397 21.0126 71.2112 21.9432H66.3141ZM122.329 22.1399C119.688 21.2617 119.083 21.1891 119.083 20.6766C119.083 20.164 119.779 19.9702 120.355 19.9702C120.931 19.9702 121.796 20.1888 121.816 20.9448H125.466C125.418 18.7751 123.519 16.9233 120.232 16.9233C117.735 16.9233 115.431 18.336 115.431 20.6766C115.431 22.725 116.944 23.8199 119.199 24.4546C121.6 25.1371 122.37 25.2584 122.37 25.938C122.37 26.4983 121.528 26.694 120.857 26.694C119.607 26.694 118.768 26.2311 118.695 25.5237H115.077C115.149 28.3988 117.478 29.7409 120.79 29.7409C123.6 29.7409 126 28.4714 126 26.0096C126.002 24.6494 125.355 23.1135 122.329 22.1399ZM76.4938 29.4994H80.1186V11.2199H76.4938V29.4994ZM94.5719 29.4994H98.1968V17.1667H94.5719V29.4994ZM47.2317 20.8474C47.2317 25.917 51.0258 29.7447 55.779 29.7447C58.5162 29.7447 60.1721 28.5745 60.7485 28.0628V24.3792C60.3413 24.8918 58.7814 26.2559 56.236 26.2559C53.3304 26.2559 50.8575 24.1358 50.8575 20.8455C50.8575 17.5552 53.3304 15.4075 56.236 15.4075C58.7814 15.4075 60.3413 16.7973 60.7485 17.3089V13.632C60.1721 13.1194 58.5162 11.9491 55.778 11.9491C51.0201 11.9491 47.2307 15.7769 47.2307 20.8455L47.2317 20.8474ZM89.2019 22.1408C86.5606 21.2626 85.9551 21.1901 85.9551 20.6775C85.9551 20.1649 86.6509 19.9711 87.2273 19.9711C87.8037 19.9711 88.6678 20.1897 88.6885 20.9457H92.3387C92.2898 18.7761 90.3914 16.9242 87.1041 16.9242C84.6085 16.9242 82.3029 18.337 82.3029 20.6775C82.3029 22.726 83.814 23.8208 86.0716 24.4556C88.4722 25.1381 89.2405 25.2593 89.2405 25.939C89.2405 26.4993 88.4008 26.695 87.7294 26.695C86.4788 26.695 85.6401 26.232 85.5667 25.5247H81.9447C82.0161 28.3998 84.3453 29.7419 87.6579 29.7419C90.4675 29.7419 92.8672 28.4723 92.8672 26.0106C92.8672 24.6503 92.2203 23.1145 89.1953 22.1408H89.2019Z" fill="#FBF8F3"/>
</g>
<defs>
<clipPath id="clip0_2752_2374">
<rect width="126" height="42" fill="white"/>
</clipPath>
</defs>
</svg>
