<svg width="137" height="40" viewBox="0 0 137 40" fill="none" xmlns="http://www.w3.org/2000/svg">
<mask id="mask0_3254_413" style="mask-type:luminance" maskUnits="userSpaceOnUse" x="0" y="0" width="24" height="40">
<path d="M23.7343 0.833252H0.433594V39.1666H23.7343V0.833252Z" fill="white"/>
</mask>
<g mask="url(#mask0_3254_413)">
<path d="M23.7343 39.1673H19.7501C17.1667 39.1718 14.6091 38.6589 12.2302 37.6596C9.93524 36.6982 7.85036 35.3037 6.09126 33.5535C4.32763 31.8079 2.92223 29.7393 1.95306 27.4623C0.945826 25.1019 0.429033 22.5641 0.433624 20.0009C0.42935 17.4384 0.946134 14.9016 1.95306 12.542C2.92209 10.2649 4.3275 8.19628 6.09126 6.4508C7.85048 4.70069 9.93532 3.30604 12.2302 2.3442C14.6091 1.34485 17.1667 0.832083 19.7501 0.836577H23.7343V7.22484H19.7501C18.0582 7.22032 16.3822 7.54879 14.819 8.19128C13.2559 8.83377 11.8367 9.77752 10.6437 10.9679C9.44415 12.1517 8.49315 13.5599 7.8457 15.1109C7.19828 16.6618 6.8673 18.3248 6.8719 20.0035C6.86736 21.6823 7.19837 23.3452 7.84578 24.8961C8.49323 26.4471 9.44415 27.8553 10.6437 29.0392C11.8368 30.2293 13.256 31.1729 14.8192 31.8153C16.3822 32.4577 18.0582 32.7861 19.7501 32.7816H23.7343V39.1673Z" fill="#FBF8F3"/>
<path d="M23.7333 26.3987H19.5446C17.8523 26.4035 16.1758 26.0754 14.6121 25.433C13.0485 24.7907 11.6287 23.8471 10.435 22.6568C9.23503 21.4726 8.28372 20.064 7.6361 18.5126C6.98849 16.9611 6.65746 15.2977 6.66216 13.6185C6.65752 11.9392 6.98858 10.2758 7.63619 8.72429C8.28379 7.17289 9.23512 5.76431 10.435 4.58011C11.6285 3.38946 13.0482 2.44552 14.6119 1.80295C16.1755 1.16036 17.8521 0.83192 19.5446 0.836597H23.7333V7.22486H19.5446C17.8362 7.22669 16.1982 7.90087 14.9901 9.09945C13.782 10.2981 13.1025 11.9233 13.1005 13.6185C13.1029 15.3134 13.7826 16.9381 14.9907 18.1364C16.1987 19.3346 17.8365 20.0086 19.5446 20.0105H23.7333V26.3987Z" fill="#FBF8F3"/>
</g>
<path d="M36.2969 22.1662V16.9922C36.2969 13.3292 38.4583 11.224 42.4507 11.224C44.1444 11.224 45.5492 11.7041 46.6416 12.6432C47.734 13.5824 48.2911 14.9776 48.2911 16.8802V17.1091H44.8134V16.8802C44.8134 15.2318 43.6767 14.4762 42.2276 14.4762C40.5779 14.4762 39.753 15.2318 39.753 16.743V22.4203C39.753 23.9315 40.5779 24.687 42.2276 24.687C43.721 24.687 44.8134 24.0001 44.8134 22.2832V22.0541H48.2911V22.2832C48.2911 24.1827 47.734 25.602 46.6416 26.5412C45.5492 27.4803 44.1444 27.9373 42.4507 27.9373C38.4583 27.9353 36.2969 25.834 36.2969 22.1662Z" fill="#FBF8F3"/>
<path d="M50.2949 19.7199C50.2949 17.087 52.1458 15.2812 55.4446 15.2812C58.7435 15.2812 60.5728 17.09 60.5728 19.7199V23.4058C60.5728 26.0378 58.7446 27.8697 55.4446 27.8697C52.1448 27.8697 50.2949 26.0387 50.2949 23.4058V19.7199ZM57.4065 23.2908V19.8853C57.4065 18.9008 56.6933 18.2137 55.4417 18.2137C54.1263 18.2137 53.4573 18.9462 53.4573 19.8853V23.296C53.4573 24.2352 54.1263 24.9443 55.4417 24.9443C56.6933 24.9392 57.4065 24.23 57.4065 23.2908Z" fill="#FBF8F3"/>
<path d="M63.0469 27.5939V15.5522H66.2132V27.5939H63.0469Z" fill="#FBF8F3"/>
<path d="M69.207 27.5918V15.5501H71.0126L71.882 16.6718C72.3323 16.2188 72.8657 15.862 73.4512 15.6222C74.0367 15.3823 74.6627 15.2643 75.293 15.2747C77.857 15.2747 79.3729 17.038 79.3729 19.9685V27.5918H76.2027V20.1511C76.2027 18.8689 75.5337 18.2052 74.5748 18.2052C73.7496 18.2052 73.0138 18.5946 72.3674 19.3501V27.5918H69.207Z" fill="#FBF8F3"/>
<path d="M82.9783 26.6329C82.042 25.8078 81.5519 24.7556 81.5293 23.4503H84.6059C84.8025 24.4803 85.6092 24.9846 87.0367 24.9846C87.995 24.9846 88.575 24.6638 88.575 24.1372C88.575 23.7025 88.24 23.4049 87.5492 23.2212L84.6726 22.4657C82.778 21.9613 81.819 20.886 81.819 19.2154C81.819 16.7662 83.5584 15.2812 86.5684 15.2812C89.4442 15.2812 91.3817 16.9074 91.4734 19.4707H88.4192C88.1734 18.6012 87.4825 18.1663 86.3675 18.1663C85.385 18.1663 84.8942 18.4639 84.8942 19.0358C84.8942 19.3567 85.2067 19.6089 85.8301 19.7682L88.9067 20.5702C90.7351 21.0504 91.6492 22.1722 91.6492 23.8891C91.6492 26.3847 89.7542 27.8728 86.7451 27.8728C85.1859 27.8687 83.9417 27.4562 82.9783 26.6329Z" fill="#FBF8F3"/>
<path d="M94.2578 27.5915V11.5662H101.259C104.045 11.5662 105.717 13.5121 105.717 16.6029C105.717 19.6939 104.048 21.6166 101.259 21.6166H97.7161V27.5915H94.2578ZM97.7136 18.5257H100.611C101.481 18.5257 102.217 17.8852 102.217 16.6029C102.217 15.3208 101.481 14.6571 100.611 14.6571H97.7161L97.7136 18.5257Z" fill="#FBF8F3"/>
<path d="M115.059 27.5911L114.19 26.4693C113.232 27.4075 112.049 27.8655 110.644 27.8655C109.53 27.8655 108.594 27.5446 107.836 26.9273C107.078 26.2857 106.698 25.3926 106.699 24.248C106.699 21.7533 108.282 20.334 111.425 20.334H113.721V19.6701C113.721 18.6857 113.163 18.2045 112.026 18.2045C110.889 18.2045 110.333 18.5939 110.333 19.3949H107.233C107.233 16.9001 108.884 15.274 112.026 15.274C115.169 15.274 116.887 16.9001 116.887 19.4412V27.5911H115.059ZM113.721 23.9505V22.6229H111.425C110.378 22.6229 109.864 23.0122 109.864 23.8132C109.864 24.5193 110.356 25.0036 111.313 25.0036C112.294 25.0036 113.098 24.6605 113.721 23.9505Z" fill="#FBF8F3"/>
<path d="M119.768 27.5939V15.5522H122.934V27.5939H119.768Z" fill="#FBF8F3"/>
<path d="M134.055 27.5915L133.186 26.4698C132.731 26.9234 132.192 27.2804 131.602 27.52C131.012 27.7595 130.382 27.8771 129.747 27.8659C127.34 27.8659 125.578 26.3528 125.578 23.4475V19.6706C125.578 18.2281 125.98 17.1296 126.757 16.3962C127.537 15.6416 128.541 15.2744 129.745 15.2744C130.949 15.2744 131.93 15.5952 132.691 16.2589V11.4523H135.857V27.5925L134.055 27.5915ZM132.695 23.7904V19.3519C131.959 18.5963 131.179 18.2069 130.399 18.2069C130.18 18.205 129.962 18.2482 129.761 18.3339C129.558 18.4197 129.375 18.5463 129.221 18.7062C129.067 18.8661 128.946 19.0561 128.865 19.2649C128.784 19.4738 128.745 19.6972 128.75 19.9219V23.2185C128.745 23.4433 128.784 23.6667 128.865 23.8756C128.946 24.0844 129.066 24.2744 129.221 24.4344C129.375 24.5944 129.558 24.7209 129.76 24.8067C129.962 24.8924 130.18 24.9354 130.399 24.9334C131.179 24.9354 131.959 24.546 132.695 23.7904Z" fill="#FBF8F3"/>
</svg>
