<svg width="163" height="37" viewBox="0 0 163 37" fill="none" xmlns="http://www.w3.org/2000/svg">
<g clip-path="url(#clip0_2752_2382)">
<path d="M16.7633 36.6749C16.7362 36.6749 16.709 36.7021 16.709 36.7293C16.709 36.7564 16.7362 36.7836 16.7633 36.7836C16.7905 36.7836 16.8177 36.7564 16.8177 36.7293C16.8177 36.7021 16.7905 36.6749 16.7633 36.6749Z" fill="#FBF8F3"/>
<path d="M15.0226 36.077C14.9411 36.077 14.8867 36.1314 14.8867 36.2129C14.8867 36.2944 14.9411 36.3487 15.0226 36.3487C15.1041 36.3487 15.1584 36.2944 15.1584 36.2129C15.1584 36.1314 15.1041 36.077 15.0226 36.077Z" fill="#FBF8F3"/>
<path d="M13.3386 35.2894C13.2299 35.2894 13.1484 35.3709 13.1484 35.4796C13.1484 35.5883 13.2299 35.6698 13.3386 35.6698C13.4473 35.6698 13.5288 35.5883 13.5288 35.4796C13.5288 35.3709 13.4473 35.2894 13.3386 35.2894Z" fill="#FBF8F3"/>
<path d="M11.764 34.3386C11.6282 34.3386 11.5195 34.4473 11.5195 34.5831C11.5195 34.719 11.6282 34.8276 11.764 34.8276C11.8999 34.8276 12.0085 34.719 12.0085 34.5831C12.0085 34.4473 11.8999 34.3386 11.764 34.3386Z" fill="#FBF8F3"/>
<path d="M10.2694 33.1975C10.1064 33.1975 9.94336 33.3333 9.94336 33.5235C9.94336 33.6865 10.0792 33.8495 10.2694 33.8495C10.4324 33.8495 10.5954 33.7137 10.5954 33.5235C10.5954 33.3605 10.4595 33.1975 10.2694 33.1975Z" fill="#FBF8F3"/>
<path d="M8.91158 31.9479C8.69425 31.9479 8.53125 32.1109 8.53125 32.3282C8.53125 32.5455 8.69425 32.7085 8.91158 32.7085C9.12892 32.7085 9.29192 32.5455 9.29192 32.3282C9.29192 32.1109 9.12892 31.9479 8.91158 31.9479Z" fill="#FBF8F3"/>
<path d="M7.66123 30.5353C7.41673 30.5353 7.22656 30.7254 7.22656 30.9699C7.22656 31.2144 7.41673 31.4046 7.66123 31.4046C7.90573 31.4046 8.0959 31.2144 8.0959 30.9699C8.12306 30.7254 7.90573 30.5353 7.66123 30.5353Z" fill="#FBF8F3"/>
<path d="M6.6021 28.9867C6.33044 28.9867 6.08594 29.204 6.08594 29.5029C6.08594 29.7745 6.30327 30.019 6.6021 30.019C6.87377 30.019 7.11827 29.8017 7.11827 29.5029C7.0911 29.2312 6.87377 28.9867 6.6021 28.9867Z" fill="#FBF8F3"/>
<path d="M6.27577 27.9C6.27577 27.6011 6.03127 27.3295 5.70527 27.3295C5.37927 27.3295 5.13477 27.574 5.13477 27.9C5.13477 28.1988 5.37927 28.4705 5.70527 28.4705C6.03127 28.4705 6.27577 28.226 6.27577 27.9Z" fill="#FBF8F3"/>
<path d="M5.65006 26.2158C5.65006 25.8626 5.37839 25.5909 5.02522 25.5909C4.67206 25.5909 4.40039 25.8626 4.40039 26.2158C4.40039 26.5689 4.67206 26.8406 5.02522 26.8406C5.37839 26.8406 5.65006 26.5689 5.65006 26.2158Z" fill="#FBF8F3"/>
<path d="M5.27044 24.4498C5.27044 24.0695 4.97161 23.7706 4.59128 23.7706C4.21094 23.7706 3.91211 24.0695 3.91211 24.4498C3.91211 24.8301 4.21094 25.129 4.59128 25.129C4.97161 25.129 5.27044 24.8301 5.27044 24.4498Z" fill="#FBF8F3"/>
<path d="M5.13461 22.6298C5.13461 22.2223 4.80861 21.8691 4.37395 21.8691C3.96645 21.8691 3.61328 22.1951 3.61328 22.6298C3.61328 23.0373 3.93928 23.3905 4.37395 23.3905C4.80861 23.3905 5.13461 23.0373 5.13461 22.6298Z" fill="#FBF8F3"/>
<path d="M4.42828 21.6246C4.89011 21.6246 5.24328 21.2715 5.24328 20.8096C5.24328 20.3478 4.89011 19.9946 4.42828 19.9946C3.96645 19.9946 3.61328 20.3478 3.61328 20.8096C3.61328 21.2443 3.96645 21.6246 4.42828 21.6246Z" fill="#FBF8F3"/>
<path d="M3.80273 18.9896C3.80273 19.4786 4.18307 19.8589 4.67207 19.8589C5.16107 19.8589 5.5414 19.4786 5.5414 18.9896C5.5414 18.5006 5.16107 18.1202 4.67207 18.1202C4.21023 18.1202 3.80273 18.5006 3.80273 18.9896Z" fill="#FBF8F3"/>
<path d="M30.2086 32.464C30.1815 32.464 30.1543 32.4912 30.1543 32.5183C30.1543 32.5455 30.1815 32.5727 30.2086 32.5727C30.2358 32.5727 30.263 32.5455 30.263 32.5183C30.263 32.4912 30.2358 32.464 30.2086 32.464Z" fill="#FBF8F3"/>
<path d="M28.6067 33.252C28.5524 33.252 28.498 33.3063 28.498 33.3606C28.498 33.415 28.5524 33.4693 28.6067 33.4693C28.661 33.4693 28.7154 33.415 28.7154 33.3606C28.7154 33.3063 28.661 33.252 28.6067 33.252Z" fill="#FBF8F3"/>
<path d="M26.8954 33.8767C26.8139 33.8767 26.7324 33.9582 26.7324 34.0397C26.7324 34.1212 26.8139 34.2027 26.8954 34.2027C26.9769 34.2027 27.0584 34.1212 27.0584 34.0397C27.0584 33.9582 27.0041 33.8767 26.8954 33.8767Z" fill="#FBF8F3"/>
<path d="M25.1568 34.3113C25.021 34.3113 24.9395 34.4199 24.9395 34.5286C24.9395 34.6373 25.0481 34.7459 25.1568 34.7459C25.2655 34.7459 25.3741 34.6373 25.3741 34.5286C25.3741 34.4199 25.2655 34.3113 25.1568 34.3113Z" fill="#FBF8F3"/>
<path d="M23.3361 34.5559C23.1731 34.5559 23.0645 34.6917 23.0645 34.8276C23.0645 34.9906 23.2003 35.0992 23.3361 35.0992C23.4991 35.0992 23.6078 34.9634 23.6078 34.8276C23.635 34.6917 23.4991 34.5559 23.3361 34.5559Z" fill="#FBF8F3"/>
<path d="M21.5155 34.6375C21.3253 34.6375 21.1895 34.7733 21.1895 34.9635C21.1895 35.1536 21.3253 35.2894 21.5155 35.2894C21.7056 35.2894 21.8415 35.1265 21.8415 34.9635C21.8686 34.7733 21.7056 34.6375 21.5155 34.6375Z" fill="#FBF8F3"/>
<path d="M19.6948 34.5015C19.4775 34.5015 19.3145 34.6645 19.3145 34.8818C19.3145 35.0991 19.4775 35.2621 19.6948 35.2621C19.9121 35.2621 20.0751 35.0991 20.0751 34.8818C20.1023 34.6645 19.9121 34.5015 19.6948 34.5015Z" fill="#FBF8F3"/>
<path d="M17.9015 34.1755C17.657 34.1755 17.4668 34.3657 17.4668 34.6102C17.4668 34.8547 17.657 35.0449 17.9015 35.0449C18.146 35.0449 18.3361 34.8547 18.3361 34.6102C18.3361 34.3657 18.146 34.1755 17.9015 34.1755Z" fill="#FBF8F3"/>
<path d="M16.1355 33.6051C15.8638 33.6051 15.6465 33.8224 15.6465 34.0941C15.6465 34.3658 15.8638 34.5831 16.1355 34.5831C16.4072 34.5831 16.6245 34.3658 16.6245 34.0941C16.6517 33.8224 16.4072 33.6051 16.1355 33.6051Z" fill="#FBF8F3"/>
<path d="M14.4808 32.8171C14.182 32.8171 13.9375 33.0616 13.9375 33.3605C13.9375 33.6593 14.182 33.9038 14.4808 33.9038C14.7797 33.9038 15.0242 33.6593 15.0242 33.3605C15.0242 33.0888 14.7797 32.8171 14.4808 32.8171Z" fill="#FBF8F3"/>
<path d="M13.5291 32.4369C13.5291 32.1109 13.2575 31.8392 12.9315 31.8392C12.6055 31.8392 12.3066 32.1109 12.3066 32.4369C12.3066 32.7629 12.5783 33.0346 12.9315 33.0346C13.2575 33.0617 13.5291 32.7901 13.5291 32.4369Z" fill="#FBF8F3"/>
<path d="M11.4917 30.6439C11.1113 30.6439 10.8125 30.9428 10.8125 31.3231C10.8125 31.7034 11.1113 32.0023 11.4917 32.0023C11.8448 32.0023 12.1708 31.7034 12.1708 31.3231C12.1708 30.9428 11.8448 30.6439 11.4917 30.6439Z" fill="#FBF8F3"/>
<path d="M10.214 29.2584C9.80647 29.2584 9.48047 29.5844 9.48047 29.9919C9.48047 30.3994 9.80647 30.7254 10.214 30.7254C10.6215 30.7254 10.9475 30.3994 10.9475 29.9919C10.9475 29.5844 10.6215 29.2584 10.214 29.2584Z" fill="#FBF8F3"/>
<path d="M9.12768 29.3127C9.56234 29.3127 9.91551 28.9596 9.91551 28.5249C9.91551 28.0902 9.56234 27.7371 9.12768 27.7371C8.69301 27.7371 8.33984 28.0902 8.33984 28.5249C8.36701 28.9596 8.69301 29.3127 9.12768 29.3127Z" fill="#FBF8F3"/>
<path d="M9.07301 26.9221C9.07301 26.4603 8.69267 26.08 8.23084 26.08C7.769 26.08 7.38867 26.4603 7.38867 26.9221C7.38867 27.384 7.769 27.7643 8.23084 27.7643C8.71984 27.7643 9.07301 27.384 9.07301 26.9221Z" fill="#FBF8F3"/>
<path d="M36.7575 19.9946C36.7303 19.9946 36.7031 20.0218 36.7031 20.049C36.7031 20.0761 36.7303 20.1033 36.7575 20.1033C36.7846 20.1033 36.8118 20.0761 36.8118 20.049C36.7846 20.0218 36.7846 19.9946 36.7575 19.9946Z" fill="#FBF8F3"/>
<path d="M36.2141 21.6787C36.1598 21.6787 36.1055 21.733 36.1055 21.7874C36.1055 21.8417 36.1598 21.896 36.2141 21.896C36.2685 21.896 36.3228 21.8417 36.3228 21.7874C36.3228 21.733 36.2685 21.6787 36.2141 21.6787Z" fill="#FBF8F3"/>
<path d="M35.4796 23.3088C35.3981 23.3088 35.3438 23.3632 35.3438 23.4447C35.3438 23.5262 35.3981 23.6077 35.4796 23.6077C35.5611 23.6077 35.6426 23.5533 35.6426 23.4447C35.6154 23.3903 35.5611 23.3088 35.4796 23.3088Z" fill="#FBF8F3"/>
<path d="M34.5827 24.8575C34.4741 24.8575 34.3926 24.939 34.3926 25.0477C34.3926 25.1564 34.4741 25.2379 34.5827 25.2379C34.6914 25.2379 34.7729 25.1564 34.7729 25.0477C34.7729 24.939 34.6914 24.8575 34.5827 24.8575Z" fill="#FBF8F3"/>
<path d="M33.5238 26.2971C33.388 26.2971 33.2793 26.4058 33.2793 26.5416C33.2793 26.6775 33.388 26.7861 33.5238 26.7861C33.6596 26.7861 33.7683 26.6775 33.7683 26.5416C33.7683 26.4058 33.6596 26.2971 33.5238 26.2971Z" fill="#FBF8F3"/>
<path d="M32.3281 27.6011C32.1651 27.6011 32.0293 27.7369 32.0293 27.8999C32.0293 28.0629 32.1651 28.1987 32.3281 28.1987C32.4911 28.1987 32.627 28.0629 32.627 27.8999C32.627 27.7369 32.4911 27.6011 32.3281 27.6011Z" fill="#FBF8F3"/>
<path d="M30.9684 28.7966C30.7782 28.7966 30.6152 28.9596 30.6152 29.1498C30.6152 29.34 30.7782 29.503 30.9684 29.503C31.1586 29.503 31.3216 29.34 31.3216 29.1498C31.3216 28.9596 31.1586 28.7966 30.9684 28.7966Z" fill="#FBF8F3"/>
<path d="M29.5032 29.8287C29.2859 29.8287 29.0957 30.0189 29.0957 30.2362C29.0957 30.4536 29.2859 30.6437 29.5032 30.6437C29.7205 30.6437 29.9107 30.4536 29.9107 30.2362C29.9107 30.0189 29.7205 29.8287 29.5032 29.8287Z" fill="#FBF8F3"/>
<path d="M27.9267 30.6711C27.6822 30.6711 27.4648 30.8613 27.4648 31.1058C27.4648 31.3503 27.655 31.5676 27.9267 31.5676C28.1712 31.5676 28.3613 31.3775 28.3613 31.1058C28.3613 30.8613 28.1712 30.6711 27.9267 30.6711Z" fill="#FBF8F3"/>
<path d="M26.2156 31.2687C25.9439 31.2687 25.7266 31.486 25.7266 31.7577C25.7266 32.0293 25.9439 32.2467 26.2156 32.2467C26.4872 32.2467 26.7046 32.0293 26.7046 31.7577C26.7046 31.5132 26.4872 31.2687 26.2156 31.2687Z" fill="#FBF8F3"/>
<path d="M24.4496 31.676C24.1507 31.676 23.9062 31.9205 23.9062 32.2194C23.9062 32.5182 24.1507 32.7627 24.4496 32.7627C24.7484 32.7627 24.9929 32.5182 24.9929 32.2194C24.9929 31.9205 24.7484 31.676 24.4496 31.676Z" fill="#FBF8F3"/>
<path d="M22.6289 31.8392C22.3029 31.8392 22.0312 32.1109 22.0312 32.4369C22.0312 32.7629 22.3029 33.0346 22.6289 33.0346C22.9549 33.0346 23.2266 32.7629 23.2266 32.4369C23.2266 32.1109 22.9549 31.8392 22.6289 31.8392Z" fill="#FBF8F3"/>
<path d="M21.4622 32.3825C21.4622 32.0293 21.1634 31.7305 20.8102 31.7305C20.457 31.7305 20.1582 32.0293 20.1582 32.3825C20.1582 32.7356 20.457 33.0345 20.8102 33.0345C21.1634 33.0345 21.4622 32.7356 21.4622 32.3825Z" fill="#FBF8F3"/>
<path d="M19.6959 32.1108C19.6959 31.7304 19.397 31.4044 18.9895 31.4044C18.6092 31.4044 18.2832 31.7033 18.2832 32.1108C18.2832 32.4911 18.582 32.8171 18.9895 32.8171C19.397 32.8171 19.6959 32.5183 19.6959 32.1108Z" fill="#FBF8F3"/>
<path d="M18.0117 31.6221C18.0117 31.2146 17.6857 30.8885 17.2511 30.8885C16.8436 30.8885 16.5176 31.2146 16.5176 31.6221C16.5176 32.0296 16.8436 32.3827 17.2511 32.3827C17.6586 32.3555 18.0117 32.0296 18.0117 31.6221Z" fill="#FBF8F3"/>
<path d="M16.3823 30.8885C16.3823 30.4539 16.0291 30.1007 15.5945 30.1007C15.1598 30.1007 14.8066 30.4539 14.8066 30.8885C14.8066 31.3232 15.1598 31.6764 15.5945 31.6764C16.0291 31.6764 16.3823 31.3232 16.3823 30.8885Z" fill="#FBF8F3"/>
<path d="M32.5465 6.65554C32.5737 6.65554 32.6009 6.62838 32.6009 6.60121C32.6009 6.57404 32.5737 6.54688 32.5465 6.54688C32.5194 6.54688 32.4922 6.57404 32.4922 6.60121C32.4922 6.62838 32.5194 6.65554 32.5465 6.65554Z" fill="#FBF8F3"/>
<path d="M33.388 8.31279C33.4423 8.31279 33.4966 8.25846 33.4966 8.20413C33.4966 8.14979 33.4423 8.09546 33.388 8.09546C33.3336 8.09546 33.2793 8.14979 33.2793 8.20413C33.2793 8.25846 33.3336 8.31279 33.388 8.31279Z" fill="#FBF8F3"/>
<path d="M34.0669 10.0516C34.1484 10.0516 34.2028 9.99724 34.2028 9.91574C34.2028 9.83424 34.1484 9.77991 34.0669 9.77991C33.9854 9.77991 33.9311 9.83424 33.9311 9.91574C33.9039 9.99724 33.9854 10.0516 34.0669 10.0516Z" fill="#FBF8F3"/>
<path d="M34.5557 11.8718C34.6644 11.8718 34.7459 11.7903 34.7459 11.6816C34.7459 11.573 34.6644 11.4915 34.5557 11.4915C34.447 11.4915 34.3656 11.573 34.3656 11.6816C34.3384 11.7903 34.447 11.8718 34.5557 11.8718Z" fill="#FBF8F3"/>
<path d="M34.6094 13.4747C34.6094 13.6105 34.718 13.7192 34.8539 13.7192C34.9897 13.7192 35.0984 13.6105 35.0984 13.4747C35.0984 13.3388 34.9897 13.2302 34.8539 13.2302C34.718 13.203 34.6094 13.3388 34.6094 13.4747Z" fill="#FBF8F3"/>
<path d="M34.9629 14.9958C34.7999 14.9958 34.6641 15.1317 34.6641 15.2947C34.6641 15.4577 34.7999 15.5935 34.9629 15.5935C35.1259 15.5935 35.2617 15.4577 35.2617 15.2947C35.2617 15.1317 35.1259 14.9958 34.9629 14.9958Z" fill="#FBF8F3"/>
<path d="M34.8825 16.7617C34.6923 16.7617 34.5293 16.9247 34.5293 17.1149C34.5293 17.3051 34.6923 17.4681 34.8825 17.4681C35.0726 17.4681 35.2356 17.3051 35.2356 17.1149C35.2356 16.9247 35.0726 16.7617 34.8825 16.7617Z" fill="#FBF8F3"/>
<path d="M34.6106 18.5275C34.3933 18.5275 34.2031 18.7176 34.2031 18.935C34.2031 19.1523 34.3933 19.3425 34.6106 19.3425C34.828 19.3425 35.0181 19.1795 35.0181 18.935C35.0181 18.6905 34.828 18.5275 34.6106 18.5275Z" fill="#FBF8F3"/>
<path d="M34.5567 20.6737C34.5567 20.4292 34.3665 20.239 34.122 20.239C33.8775 20.239 33.6602 20.4292 33.6602 20.6737C33.6602 20.9182 33.8503 21.1083 34.122 21.1083C34.3665 21.1083 34.5567 20.9182 34.5567 20.6737Z" fill="#FBF8F3"/>
<path d="M33.3874 21.842C33.1158 21.842 32.8984 22.0594 32.8984 22.331C32.8984 22.6027 33.1158 22.82 33.3874 22.82C33.6591 22.82 33.8764 22.6027 33.8764 22.331C33.8764 22.0594 33.6591 21.842 33.3874 21.842Z" fill="#FBF8F3"/>
<path d="M32.4652 23.363C32.1664 23.363 31.9219 23.6075 31.9219 23.9064C31.9219 24.2052 32.1664 24.4497 32.4652 24.4497C32.764 24.4497 33.0085 24.2052 33.0085 23.9064C33.0085 23.6075 32.764 23.363 32.4652 23.363Z" fill="#FBF8F3"/>
<path d="M31.3242 24.7216C30.9982 24.7216 30.7266 24.9932 30.7266 25.3192C30.7266 25.6452 30.9982 25.9169 31.3242 25.9169C31.6502 25.9169 31.9219 25.6452 31.9219 25.3192C31.9219 24.9932 31.6502 24.7216 31.3242 24.7216Z" fill="#FBF8F3"/>
<path d="M29.9918 25.9441C29.6387 25.9441 29.3398 26.2429 29.3398 26.5961C29.3398 26.9493 29.6387 27.2481 29.9918 27.2481C30.345 27.2481 30.6438 26.9493 30.6438 26.5961C30.6438 26.2429 30.345 25.9441 29.9918 25.9441Z" fill="#FBF8F3"/>
<path d="M28.5247 26.9763C28.1444 26.9763 27.8184 27.2752 27.8184 27.6827C27.8184 28.063 28.1172 28.389 28.5247 28.389C28.905 28.389 29.231 28.0902 29.231 27.6827C29.231 27.3023 28.905 26.9763 28.5247 26.9763Z" fill="#FBF8F3"/>
<path d="M26.9483 27.8186C26.5408 27.8186 26.2148 28.1446 26.2148 28.5793C26.2148 28.9868 26.5408 29.3128 26.9483 29.3128C27.3558 29.3128 27.6818 28.9868 27.6818 28.5793C27.6818 28.1446 27.3558 27.8186 26.9483 27.8186Z" fill="#FBF8F3"/>
<path d="M25.239 28.4436C24.8043 28.4436 24.4512 28.7968 24.4512 29.2314C24.4512 29.6661 24.8043 30.0193 25.239 30.0193C25.6737 30.0193 26.0268 29.6661 26.0268 29.2314C26.0268 28.7968 25.6737 28.4436 25.239 28.4436Z" fill="#FBF8F3"/>
<path d="M20.0485 0.108665C20.0756 0.108665 20.1028 0.0814951 20.1028 0.0543284C20.1028 0.0271617 20.0756 0 20.0485 0C20.0213 0 19.9941 0.0271617 19.9941 0.0543284C19.9941 0.0814951 20.0213 0.108665 20.0485 0.108665Z" fill="#FBF8F3"/>
<path d="M21.7884 0.7061C21.8427 0.7061 21.897 0.651767 21.897 0.597434C21.897 0.5431 21.8427 0.48877 21.7884 0.48877C21.734 0.48877 21.6797 0.5431 21.6797 0.597434C21.7069 0.678934 21.734 0.7061 21.7884 0.7061Z" fill="#FBF8F3"/>
<path d="M23.4735 1.49378C23.555 1.49378 23.6094 1.43945 23.6094 1.35795C23.6094 1.27645 23.555 1.19495 23.4735 1.19495C23.392 1.19495 23.3105 1.24928 23.3105 1.35795C23.3105 1.41228 23.392 1.49378 23.4735 1.49378Z" fill="#FBF8F3"/>
<path d="M25.0476 2.41781C25.1563 2.41781 25.2378 2.3363 25.2378 2.22764C25.2378 2.11897 25.1563 2.03748 25.0476 2.03748C24.9389 2.03748 24.8574 2.11897 24.8574 2.22764C24.8574 2.3363 24.9389 2.41781 25.0476 2.41781Z" fill="#FBF8F3"/>
<path d="M26.5414 3.5316C26.6772 3.5316 26.7859 3.42291 26.7859 3.28708C26.7859 3.15124 26.6772 3.0426 26.5414 3.0426C26.4055 3.0426 26.2969 3.15124 26.2969 3.28708C26.2969 3.42291 26.4055 3.5316 26.5414 3.5316Z" fill="#FBF8F3"/>
<path d="M27.9258 4.78126C28.0888 4.78126 28.2246 4.64543 28.2246 4.48243C28.2246 4.31943 28.0888 4.18359 27.9258 4.18359C27.7628 4.18359 27.627 4.31943 27.627 4.48243C27.627 4.64543 27.7356 4.78126 27.9258 4.78126Z" fill="#FBF8F3"/>
<path d="M29.15 6.194C29.3402 6.194 29.5032 6.031 29.5032 5.84084C29.5032 5.65067 29.3402 5.48767 29.15 5.48767C28.9599 5.48767 28.7969 5.65067 28.7969 5.84084C28.7969 6.031 28.9599 6.194 29.15 6.194Z" fill="#FBF8F3"/>
<path d="M30.2356 7.68805C30.453 7.68805 30.6431 7.49788 30.6431 7.28055C30.6431 7.06321 30.453 6.87305 30.2356 6.87305C30.0183 6.87305 29.8281 7.06321 29.8281 7.28055C29.8281 7.49788 30.0183 7.68805 30.2356 7.68805Z" fill="#FBF8F3"/>
<path d="M31.1064 9.34529C31.3509 9.34529 31.541 9.15512 31.541 8.91062C31.541 8.66612 31.3509 8.47595 31.1064 8.47595C30.8619 8.47595 30.6445 8.66612 30.6445 8.91062C30.6717 9.15512 30.8619 9.34529 31.1064 9.34529Z" fill="#FBF8F3"/>
<path d="M31.2969 10.5948C31.2969 10.8665 31.5142 11.0838 31.7859 11.0838C32.0575 11.0838 32.2749 10.8665 32.2749 10.5948C32.2749 10.3232 32.0575 10.1058 31.7859 10.1058C31.5142 10.1058 31.2969 10.3232 31.2969 10.5948Z" fill="#FBF8F3"/>
<path d="M31.6758 12.3607C31.6758 12.6595 31.9203 12.904 32.2191 12.904C32.5179 12.904 32.7624 12.6595 32.7624 12.3607C32.7624 12.0619 32.5179 11.8174 32.2191 11.8174C31.9203 11.8174 31.6758 12.0619 31.6758 12.3607Z" fill="#FBF8F3"/>
<path d="M31.8398 14.1808C31.8398 14.5068 32.1115 14.7785 32.4375 14.7785C32.7635 14.7785 33.0352 14.5068 33.0352 14.1808C33.0352 13.8548 32.7635 13.5831 32.4375 13.5831C32.1115 13.5831 31.8398 13.8548 31.8398 14.1808Z" fill="#FBF8F3"/>
<path d="M33.0345 16.001C33.0345 15.6478 32.7356 15.349 32.3825 15.349C32.0293 15.349 31.7305 15.6478 31.7305 16.001C31.7305 16.3542 32.0293 16.653 32.3825 16.653C32.7628 16.653 33.0345 16.3542 33.0345 16.001Z" fill="#FBF8F3"/>
<path d="M32.817 17.7939C32.817 17.4135 32.5181 17.0875 32.1106 17.0875C31.7303 17.0875 31.4043 17.3864 31.4043 17.7939C31.4043 18.1742 31.7303 18.5002 32.1106 18.5002C32.5181 18.5002 32.817 18.1742 32.817 17.7939Z" fill="#FBF8F3"/>
<path d="M32.383 19.5599C32.383 19.1524 32.057 18.7992 31.6495 18.7992C31.242 18.7992 30.916 19.1252 30.916 19.5599C30.916 19.9674 31.242 20.2934 31.6495 20.2934C32.0298 20.2934 32.383 19.9674 32.383 19.5599Z" fill="#FBF8F3"/>
<path d="M30.8894 20.4293C30.4547 20.4293 30.1016 20.7825 30.1016 21.2171C30.1016 21.6518 30.4547 22.005 30.8894 22.005C31.3241 22.005 31.6772 21.6518 31.6772 21.2171C31.7044 20.7825 31.3512 20.4293 30.8894 20.4293Z" fill="#FBF8F3"/>
<path d="M6.60121 4.31948C6.62837 4.31948 6.65554 4.29232 6.65554 4.26515C6.65554 4.23798 6.62837 4.21082 6.60121 4.21082C6.57404 4.21082 6.54688 4.23798 6.54688 4.26515C6.54688 4.29232 6.57404 4.31948 6.60121 4.31948Z" fill="#FBF8F3"/>
<path d="M8.23171 3.53154C8.28605 3.53154 8.34038 3.47718 8.34038 3.42285C8.34038 3.36852 8.28605 3.31421 8.23171 3.31421C8.17738 3.31421 8.12305 3.36852 8.12305 3.42285C8.12305 3.47718 8.17738 3.53154 8.23171 3.53154Z" fill="#FBF8F3"/>
<path d="M9.91513 2.9065C9.99663 2.9065 10.0781 2.85217 10.0781 2.77067C10.0781 2.68917 10.0238 2.60767 9.91513 2.60767C9.83363 2.60767 9.7793 2.68917 9.7793 2.77067C9.7793 2.825 9.83363 2.9065 9.91513 2.9065Z" fill="#FBF8F3"/>
<path d="M11.6807 2.47225C11.7894 2.47225 11.8709 2.39075 11.8709 2.28209C11.8709 2.17342 11.7894 2.09192 11.6807 2.09192C11.5721 2.09192 11.4906 2.17342 11.4906 2.28209C11.4634 2.36359 11.5721 2.47225 11.6807 2.47225Z" fill="#FBF8F3"/>
<path d="M13.473 2.2003C13.6088 2.2003 13.7175 2.09163 13.7175 1.9558C13.7175 1.81997 13.6088 1.7113 13.473 1.7113C13.3372 1.7113 13.2285 1.81997 13.2285 1.9558C13.2285 2.09163 13.3372 2.2003 13.473 2.2003Z" fill="#FBF8F3"/>
<path d="M15.2949 2.14613C15.4579 2.14613 15.5938 2.0103 15.5938 1.8473C15.5938 1.6843 15.4579 1.54846 15.2949 1.54846C15.1319 1.54846 14.9961 1.6843 14.9961 1.8473C14.9961 2.0103 15.1319 2.14613 15.2949 2.14613Z" fill="#FBF8F3"/>
<path d="M17.1149 2.28165C17.3051 2.28165 17.4681 2.11865 17.4681 1.92848C17.4681 1.73831 17.3051 1.57532 17.1149 1.57532C16.9247 1.57532 16.7617 1.73831 16.7617 1.92848C16.7617 2.11865 16.9247 2.28165 17.1149 2.28165Z" fill="#FBF8F3"/>
<path d="M18.9095 2.58075C19.1268 2.58075 19.317 2.41775 19.317 2.17325C19.317 1.95591 19.1268 1.76575 18.9095 1.76575C18.6921 1.76575 18.502 1.95591 18.502 2.17325C18.5291 2.41775 18.6921 2.58075 18.9095 2.58075Z" fill="#FBF8F3"/>
<path d="M20.6729 3.15132C20.9174 3.15132 21.1348 2.96115 21.1348 2.71665C21.1348 2.47215 20.9446 2.28198 20.6729 2.28198C20.4284 2.28198 20.2383 2.47215 20.2383 2.71665C20.2383 2.93398 20.4284 3.15132 20.6729 3.15132Z" fill="#FBF8F3"/>
<path d="M22.3583 3.91186C22.6299 3.91186 22.8473 3.6945 22.8473 3.42284C22.8473 3.15117 22.6299 2.93384 22.3583 2.93384C22.0866 2.93384 21.8693 3.15117 21.8693 3.42284C21.8421 3.6945 22.0866 3.91186 22.3583 3.91186Z" fill="#FBF8F3"/>
<path d="M23.3633 4.34656C23.3633 4.64539 23.6078 4.88989 23.9066 4.88989C24.2054 4.88989 24.4499 4.64539 24.4499 4.34656C24.4499 4.04772 24.2054 3.80322 23.9066 3.80322C23.6078 3.80322 23.3633 4.04772 23.3633 4.34656Z" fill="#FBF8F3"/>
<path d="M25.3457 6.0851C25.6717 6.0851 25.9434 5.81344 25.9434 5.48744C25.9434 5.16144 25.6717 4.88977 25.3457 4.88977C25.0197 4.88977 24.748 5.16144 24.748 5.48744C24.748 5.8406 25.0197 6.0851 25.3457 6.0851Z" fill="#FBF8F3"/>
<path d="M26.5954 7.47087C26.9485 7.47087 27.2474 7.17201 27.2474 6.81884C27.2474 6.46568 26.9485 6.16687 26.5954 6.16687C26.2422 6.16687 25.9434 6.46568 25.9434 6.81884C25.9434 7.17201 26.2422 7.47087 26.5954 7.47087Z" fill="#FBF8F3"/>
<path d="M27.6829 7.57959C27.3026 7.57959 26.9766 7.87842 26.9766 8.28592C26.9766 8.66626 27.2754 8.99226 27.6829 8.99226C28.0632 8.99226 28.3892 8.69342 28.3892 8.28592C28.3892 7.90559 28.0632 7.57959 27.6829 7.57959Z" fill="#FBF8F3"/>
<path d="M27.8184 9.86143C27.8184 10.2689 28.1444 10.5949 28.5519 10.5949C28.9594 10.5949 29.2854 10.2689 29.2854 9.86143C29.2854 9.45393 28.9594 9.12793 28.5519 9.12793C28.1715 9.12793 27.8184 9.45393 27.8184 9.86143Z" fill="#FBF8F3"/>
<path d="M28.4434 11.5728C28.4434 12.0075 28.7965 12.3607 29.2312 12.3607C29.6659 12.3607 30.019 12.0075 30.019 11.5728C30.019 11.1382 29.6659 10.785 29.2312 10.785C28.7965 10.785 28.4434 11.1382 28.4434 11.5728Z" fill="#FBF8F3"/>
<path d="M29.6644 12.4966C29.2026 12.4966 28.8223 12.8769 28.8223 13.3387C28.8223 13.8006 29.2026 14.1809 29.6644 14.1809C30.1263 14.1809 30.5066 13.8006 30.5066 13.3387C30.5338 12.8769 30.1534 12.4966 29.6644 12.4966Z" fill="#FBF8F3"/>
<path d="M0.0815003 16.653C0.0271669 16.653 0 16.7073 0 16.7345C0 16.7888 0.0543336 16.816 0.0815003 16.816C0.135834 16.816 0.163 16.7616 0.163 16.7345C0.163 16.7073 0.135834 16.653 0.0815003 16.653Z" fill="#FBF8F3"/>
<path d="M0.62376 14.8331C0.515094 14.8331 0.433594 14.9146 0.433594 15.0233C0.433594 15.132 0.515094 15.2135 0.62376 15.2135C0.732427 15.2135 0.813927 15.132 0.813927 15.0233C0.813927 14.9146 0.732427 14.8331 0.62376 14.8331Z" fill="#FBF8F3"/>
<path d="M1.62927 13.3389C1.62927 13.1759 1.49344 13.0673 1.3576 13.0673C1.1946 13.0673 1.08594 13.2031 1.08594 13.3389C1.08594 13.5019 1.22177 13.6106 1.3576 13.6106C1.49344 13.6106 1.62927 13.5019 1.62927 13.3389Z" fill="#FBF8F3"/>
<path d="M2.22799 12.1161C2.44532 12.1161 2.60832 11.9531 2.60832 11.7358C2.60832 11.5185 2.44532 11.3555 2.22799 11.3555C2.01066 11.3555 1.84766 11.5185 1.84766 11.7358C1.84766 11.9531 2.03782 12.1161 2.22799 12.1161Z" fill="#FBF8F3"/>
<path d="M3.28605 10.7309C3.55772 10.7309 3.74789 10.5136 3.74789 10.2691C3.74789 10.0246 3.53055 9.80725 3.28605 9.80725C3.01439 9.80725 2.82422 10.0246 2.82422 10.2691C2.82422 10.5136 3.04155 10.7309 3.28605 10.7309Z" fill="#FBF8F3"/>
<path d="M4.50995 9.45374C4.80879 9.45374 5.08045 9.20924 5.08045 8.88324C5.08045 8.58441 4.83595 8.31274 4.50995 8.31274C4.21112 8.31274 3.93945 8.55724 3.93945 8.88324C3.93945 9.20924 4.18395 9.45374 4.50995 9.45374Z" fill="#FBF8F3"/>
<path d="M5.84145 8.31291C6.19462 8.31291 6.49345 8.01408 6.49345 7.66091C6.49345 7.30774 6.19462 7.00891 5.84145 7.00891C5.48829 7.00891 5.18945 7.30774 5.18945 7.66091C5.18945 8.01408 5.48829 8.31291 5.84145 8.31291Z" fill="#FBF8F3"/>
<path d="M7.30754 7.33481C7.71504 7.33481 8.06821 7.00881 8.06821 6.57414C8.06821 6.16664 7.74221 5.81348 7.30754 5.81348C6.90004 5.81348 6.54688 6.13948 6.54688 6.57414C6.54688 6.98164 6.90004 7.33481 7.30754 7.33481Z" fill="#FBF8F3"/>
<path d="M8.88318 6.51993C9.34502 6.51993 9.72535 6.1396 9.72535 5.67777C9.72535 5.21593 9.34502 4.83557 8.88318 4.83557C8.42135 4.83557 8.04102 5.21593 8.04102 5.67777C8.04102 6.1396 8.42135 6.51993 8.88318 6.51993Z" fill="#FBF8F3"/>
<path d="M10.5956 5.92235C11.0575 5.92235 11.4378 5.56918 11.5193 5.13452C11.7095 5.40618 12.0083 5.56918 12.3615 5.56918C12.769 5.56918 13.095 5.35185 13.2851 4.99868C13.5025 5.27035 13.8285 5.46051 14.1816 5.46051C14.5076 5.46051 14.8065 5.32468 15.0238 5.08018C15.2411 5.37901 15.5943 5.59635 16.029 5.59635C16.2735 5.59635 16.518 5.51485 16.7353 5.37901C16.7896 5.46051 16.844 5.51485 16.8983 5.56918C16.5995 5.59635 16.3006 5.73218 16.1105 5.94952C15.866 5.73218 15.5671 5.59635 15.2411 5.59635C14.8065 5.59635 14.4261 5.81368 14.1816 6.13968C13.9643 5.97668 13.7198 5.86801 13.421 5.86801C12.932 5.86801 12.4973 6.16685 12.3071 6.57435C12.117 6.43851 11.8996 6.38418 11.6551 6.38418C11.1118 6.38418 10.65 6.76451 10.5141 7.28068C10.3511 7.17201 10.161 7.11768 9.94364 7.11768C9.34597 7.11768 8.85697 7.60668 8.85697 8.20435C8.69397 8.12285 8.53097 8.06851 8.3408 8.06851C7.7703 8.06851 7.33564 8.53035 7.33564 9.07368C7.33564 9.18235 7.3628 9.26385 7.38997 9.34535C7.25414 9.26385 7.09114 9.20951 6.90097 9.20951C6.3848 9.20951 5.95014 9.64418 5.95014 10.1603C5.95014 10.6765 6.3848 11.1112 6.90097 11.1112C7.41714 11.1112 7.8518 10.6765 7.8518 10.1603C7.8518 10.0788 7.8518 9.99735 7.82464 9.91585C7.98764 10.0245 8.1778 10.0788 8.36797 10.0788C8.9113 10.0788 9.37314 9.64418 9.37314 9.10085C9.53614 9.20952 9.75347 9.26385 9.94364 9.26385C9.9708 9.26385 9.9708 9.26385 9.99797 9.26385C9.78064 9.48118 9.61764 9.75285 9.59047 10.0788C9.50897 10.0788 9.45464 10.0517 9.37314 10.0517C8.72114 10.0517 8.1778 10.595 8.1778 11.247C8.1778 11.3013 8.1778 11.3285 8.1778 11.3828C8.12347 11.3828 8.0963 11.3828 8.04197 11.3828C7.41714 11.3828 6.90097 11.899 6.90097 12.5238C6.90097 12.6597 6.92814 12.7683 6.9553 12.877C6.92814 12.877 6.90097 12.877 6.90097 12.877C6.3033 12.877 5.84147 13.366 5.84147 13.9365C5.84147 14.1538 5.8958 14.344 6.00447 14.507H5.9773C5.43397 14.507 4.97214 14.9688 4.97214 15.5122C4.97214 15.811 5.10797 16.0555 5.29814 16.2457C5.27097 16.2457 5.27097 16.2457 5.2438 16.2457C4.72764 16.2457 4.29297 16.6803 4.29297 17.1965C4.29297 17.7127 4.72764 18.1473 5.2438 18.1473C5.75997 18.1473 6.19464 17.7398 6.19464 17.1965C6.19464 16.9248 6.08597 16.7075 5.92297 16.5173C5.95014 16.5173 5.9773 16.5173 5.9773 16.5173C6.27614 16.5173 6.52064 16.3815 6.7108 16.1913V16.2185C6.7108 16.4902 6.7923 16.7075 6.92814 16.8977C6.49347 17.0607 6.19464 17.4682 6.19464 17.93C6.19464 18.256 6.35764 18.5548 6.57497 18.7722C6.2218 18.9352 5.95014 19.3155 5.95014 19.723C5.95014 20.1305 6.16747 20.4837 6.52064 20.6467C6.19464 20.8097 5.9773 21.1357 5.9773 21.5432C5.9773 22.005 6.3033 22.4125 6.76514 22.5212C6.4663 22.6842 6.24897 22.983 6.24897 23.3633C6.24897 23.8795 6.68364 24.3142 7.1998 24.3142C7.25414 24.3142 7.30847 24.3142 7.3628 24.287C7.00964 24.3957 6.73797 24.7217 6.73797 25.1292C6.73797 25.6182 7.14547 26.0257 7.63447 26.0257C8.12347 26.0257 8.53097 25.6182 8.53097 25.1292C8.53097 24.6402 8.12347 24.2327 7.63447 24.2327C7.58014 24.2327 7.5258 24.2327 7.47147 24.2598C7.8518 24.1512 8.15064 23.798 8.15064 23.3633C8.15064 23.3362 8.15064 23.309 8.15064 23.309C8.28647 23.472 8.47664 23.5807 8.72114 23.635C8.55814 23.8252 8.47664 24.0425 8.47664 24.3142C8.47664 24.8847 8.93847 25.3465 9.53614 25.3465H9.5633C9.45464 25.5095 9.37314 25.6997 9.37314 25.917C9.37314 26.4603 9.8078 26.9222 10.3783 26.9222C10.487 26.9222 10.5685 26.895 10.6771 26.8678C10.5685 27.0308 10.5141 27.1939 10.5141 27.384C10.5141 27.9002 10.9488 28.3349 11.465 28.3349C11.6823 28.3349 11.8996 28.2534 12.0626 28.1175C11.9268 28.2805 11.8453 28.4707 11.8453 28.688C11.8453 29.177 12.2528 29.5845 12.7418 29.5845C13.2308 29.5845 13.6383 29.177 13.6383 28.688C13.6383 28.4435 13.5296 28.2262 13.3938 28.0632C13.5025 28.0632 13.6383 28.036 13.747 28.0089C13.747 28.4435 13.9915 28.7967 14.3446 28.9869C14.2903 28.9869 14.236 28.9597 14.1816 28.9597C13.7198 28.9597 13.3395 29.34 13.3395 29.8019C13.3395 30.2637 13.7198 30.644 14.1816 30.644C14.6435 30.644 15.0238 30.2637 15.0238 29.8019C15.0238 29.4759 14.8336 29.2042 14.5891 29.0684C14.6706 29.0955 14.7521 29.0955 14.8608 29.0955C15.0781 29.0955 15.2683 29.0412 15.4313 28.9325C15.4856 29.4759 15.9203 29.8834 16.4636 29.8834C16.7625 29.8834 17.0341 29.7475 17.2243 29.5574C17.3058 30.0192 17.7133 30.3995 18.2023 30.3995C18.5826 30.3995 18.9086 30.1822 19.0716 29.8834C19.1531 30.318 19.5335 30.644 19.9953 30.644C20.4843 30.644 20.8918 30.2637 20.919 29.8019C20.9461 30.2637 21.3265 30.644 21.8155 30.644C22.3045 30.644 22.712 30.2365 22.712 29.7475C22.712 29.2585 22.3316 28.8782 21.8426 28.851C21.9241 28.7695 21.9785 28.6609 22.0328 28.5522C22.223 28.7695 22.5218 28.8782 22.8206 28.8782C22.9293 28.8782 23.038 28.851 23.1466 28.8239C22.9293 28.9869 22.7663 29.2314 22.7663 29.5302C22.7663 29.992 23.1466 30.3724 23.6085 30.3724C24.0703 30.3724 24.4506 29.992 24.4506 29.5302C24.4506 29.0684 24.0703 28.688 23.6085 28.688C23.527 28.688 23.4455 28.7152 23.364 28.7152C23.6085 28.5522 23.7986 28.3077 23.853 28.036C24.0431 28.199 24.2605 28.2805 24.5321 28.2805C25.1026 28.2805 25.5916 27.8187 25.5916 27.2482V27.221C25.7546 27.3297 25.9448 27.4112 26.1621 27.4112C26.7055 27.4112 27.1673 26.9765 27.1673 26.406C27.1673 26.2973 27.1673 26.2158 27.113 26.1072C27.276 26.2158 27.439 26.2702 27.6291 26.2702C28.1453 26.2702 28.58 25.8355 28.58 25.3193C28.58 25.102 28.4985 24.8847 28.3626 24.7217C28.5256 24.8575 28.7158 24.939 28.9331 24.939C29.4221 24.939 29.8296 24.5315 29.8296 24.0425C29.8296 23.5535 29.4221 23.146 28.9331 23.146C28.6886 23.146 28.4713 23.2275 28.3083 23.3905C28.3083 23.2818 28.2811 23.146 28.254 23.0373C28.6886 23.0373 29.0418 22.7928 29.232 22.4397C29.232 22.494 29.2048 22.5483 29.2048 22.6027C29.2048 23.0645 29.5851 23.4448 30.047 23.4448C30.5088 23.4448 30.8891 23.0645 30.8891 22.6027C30.8891 22.1408 30.5088 21.7605 30.047 21.7605C29.721 21.7605 29.4493 21.9507 29.3135 22.1952C29.3406 22.1137 29.3406 22.0322 29.3406 21.9235C29.3406 21.7062 29.2863 21.516 29.1776 21.353C29.721 21.2987 30.1285 20.864 30.1285 20.3207C30.1285 20.0218 29.9926 19.7502 29.8025 19.56C30.2643 19.4785 30.6446 19.071 30.6446 18.582C30.6446 18.2017 30.4273 17.8757 30.1285 17.7127C30.5631 17.6312 30.8891 17.2508 30.8891 16.789C30.8891 16.3 30.5088 15.8925 30.047 15.8653C30.5088 15.8382 30.8891 15.4578 30.8891 14.9688C30.8891 14.4798 30.4816 14.0723 29.9926 14.0723C29.5036 14.0723 29.0961 14.4798 29.0961 14.9688C29.0961 15.4307 29.4493 15.811 29.884 15.8653C29.395 15.8925 29.0146 16.3 29.0146 16.8162C29.0146 17.1693 29.2048 17.4682 29.5036 17.6312C29.0418 17.7127 28.6886 18.1202 28.6886 18.6092C28.6886 18.8808 28.7973 19.1253 28.9875 19.3155C28.4713 19.397 28.091 19.8317 28.091 20.3478C28.091 20.538 28.1453 20.7282 28.2268 20.864C27.6563 20.8912 27.1945 21.3802 27.1945 21.9507C27.1945 22.0593 27.2216 22.168 27.2488 22.2767C27.2216 22.2767 27.2216 22.2767 27.1945 22.2767C26.5696 22.2767 26.0535 22.7928 26.0535 23.4177C26.0535 23.4448 26.0535 23.472 26.0535 23.4992C25.9991 23.4992 25.9448 23.472 25.8633 23.472C25.2656 23.472 24.7766 23.9067 24.6951 24.5043C24.5865 24.4772 24.4778 24.45 24.3691 24.45C23.8801 24.45 23.4455 24.7488 23.2553 25.1563C23.0108 24.9662 22.6848 24.8575 22.3588 24.939C22.0056 25.0205 21.7068 25.2378 21.571 25.5638C21.3265 25.3193 20.9733 25.1835 20.6201 25.2107C20.267 25.265 19.9681 25.4823 19.8051 25.7812C19.615 25.5367 19.289 25.3737 18.963 25.3737C18.637 25.3737 18.3653 25.5095 18.148 25.7268C18.0121 25.4552 17.7676 25.2107 17.4688 25.1292C17.1428 25.0205 16.7896 25.102 16.518 25.2922C16.4365 24.9662 16.2463 24.6945 15.9203 24.5315C15.6215 24.3957 15.2683 24.3957 14.9966 24.5315C14.9966 24.2327 14.8608 23.9067 14.5891 23.7165C14.3446 23.5263 14.0186 23.4448 13.7198 23.4992C13.8013 23.2003 13.7198 22.8743 13.5296 22.6027C13.3123 22.331 12.9863 22.168 12.6603 22.168C12.7961 21.8692 12.7961 21.516 12.6331 21.2172C12.4973 20.9455 12.2256 20.7553 11.954 20.6738C12.1441 20.4565 12.2256 20.1305 12.1713 19.8317C12.117 19.5057 11.8996 19.2068 11.628 19.0438C11.8996 18.8265 12.0626 18.5277 12.0626 18.1473C12.0626 17.8213 11.9268 17.5225 11.6823 17.3323C11.954 17.1965 12.1713 16.952 12.2528 16.626C12.3343 16.3 12.2528 15.974 12.0898 15.7295C12.3886 15.6752 12.6331 15.485 12.7961 15.2133C12.9591 14.9145 12.9863 14.5885 12.8776 14.2897C13.2036 14.3168 13.5296 14.181 13.747 13.9365C13.9643 13.692 14.073 13.366 14.0186 13.04C14.3175 13.1215 14.6435 13.0672 14.9151 12.877C15.1868 12.6868 15.3498 12.388 15.377 12.0892C15.6486 12.225 16.0018 12.2522 16.3006 12.1435C16.5995 12.0077 16.8168 11.7903 16.8983 11.5187C17.1156 11.7088 17.4145 11.8175 17.7405 11.7903C18.0936 11.7632 18.3925 11.573 18.5555 11.2742C18.7456 11.5458 19.0173 11.7088 19.3705 11.736C19.6965 11.7632 19.9953 11.6273 20.2126 11.4372C20.3213 11.736 20.5658 11.9533 20.8918 12.062C21.2178 12.1707 21.571 12.1163 21.8426 11.9262C21.897 12.2522 22.0871 12.5238 22.386 12.6868C22.6305 12.8227 22.9021 12.8498 23.1738 12.7955C23.201 12.8498 23.2281 12.877 23.2553 12.9042C23.2825 13.1487 23.364 13.366 23.527 13.5562L23.5541 13.5833C24.1246 14.181 25.4015 15.5937 25.157 17.4953C25.1026 17.9572 25.3743 18.2017 25.7003 17.8485C27.765 15.6208 27.439 12.9042 27.3846 12.5782C27.3846 12.3608 27.3303 12.1707 27.2488 11.9805C27.276 11.8718 27.276 11.736 27.276 11.6273C27.276 11.0568 27.0043 10.5407 26.5696 10.2147C26.5968 10.106 26.5968 9.99735 26.5968 9.88868C26.5968 9.18235 26.1621 8.58468 25.5373 8.31301C25.5101 7.52518 24.9396 6.87318 24.179 6.73735C24.0431 6.03101 23.4183 5.48768 22.6576 5.48768C22.6305 5.48768 22.6033 5.48768 22.5761 5.48768C22.386 4.91718 21.8426 4.48252 21.1906 4.48252C21.0548 4.48252 20.9461 4.50968 20.8375 4.53685C20.6201 4.04785 20.1311 3.72185 19.5878 3.72185C19.3705 3.72185 19.1531 3.77618 18.9901 3.85768C18.7728 3.47735 18.3381 3.20568 17.8763 3.20568C17.5775 3.20568 17.2786 3.31435 17.0613 3.47735C16.844 3.17851 16.4908 2.96118 16.0833 2.96118C15.703 2.96118 15.3498 3.15135 15.1325 3.42301C14.9151 3.17851 14.6163 3.01551 14.2631 3.01551C13.8013 3.01551 13.421 3.28718 13.2308 3.66751C13.0406 3.45018 12.769 3.31435 12.443 3.31435C11.8996 3.31435 11.465 3.72185 11.4106 4.23801C11.2476 4.02068 10.976 3.85768 10.6771 3.85768C10.161 3.85768 9.75347 4.26518 9.75347 4.78135C9.6448 5.51485 10.0795 5.92235 10.5956 5.92235Z" fill="#FBF8F3"/>
<path d="M4.29244 30.1277C4.26527 30.1277 4.21094 30.1549 4.21094 30.2092C4.21094 30.2364 4.2381 30.2907 4.29244 30.2907C4.34677 30.2907 4.37394 30.2635 4.37394 30.2092C4.34677 30.1549 4.3196 30.1277 4.29244 30.1277Z" fill="#FBF8F3"/>
<path d="M3.45029 28.4436C3.36879 28.4436 3.31445 28.4979 3.31445 28.5794C3.31445 28.6609 3.36879 28.7153 3.45029 28.7153C3.53179 28.7153 3.58612 28.6609 3.58612 28.5794C3.58612 28.4979 3.50462 28.4436 3.45029 28.4436Z" fill="#FBF8F3"/>
<path d="M2.77202 26.6775C2.66335 26.6775 2.55469 26.7862 2.55469 26.8948C2.55469 27.0035 2.66335 27.1122 2.77202 27.1122C2.88068 27.1122 2.98935 27.0035 2.98935 26.8948C2.98935 26.7862 2.88068 26.6775 2.77202 26.6775Z" fill="#FBF8F3"/>
<path d="M2.28321 24.8575C2.12021 24.8575 1.98438 24.9934 1.98438 25.1564C1.98438 25.3194 2.12021 25.4552 2.28321 25.4552C2.44621 25.4552 2.58204 25.3194 2.58204 25.1564C2.55488 24.9662 2.41904 24.8575 2.28321 24.8575Z" fill="#FBF8F3"/>
<path d="M2.33524 23.3358C2.33524 23.1457 2.17224 22.9827 1.98207 22.9827C1.79191 22.9827 1.62891 23.1457 1.62891 23.3358C1.62891 23.526 1.79191 23.689 1.98207 23.689C2.17224 23.689 2.33524 23.526 2.33524 23.3358Z" fill="#FBF8F3"/>
<path d="M2.28144 21.5158C2.28144 21.2713 2.09128 21.0812 1.84678 21.0812C1.60228 21.0812 1.41211 21.2713 1.41211 21.5158C1.41211 21.7603 1.60228 21.9505 1.84678 21.9505C2.09128 21.9505 2.28144 21.7603 2.28144 21.5158Z" fill="#FBF8F3"/>
<path d="M1.41211 19.6956C1.41211 19.9673 1.62944 20.2118 1.92828 20.2118C2.19994 20.2118 2.44444 19.9944 2.44444 19.6956C2.44444 19.4239 2.22711 19.1794 1.92828 19.1794C1.65661 19.1794 1.41211 19.4239 1.41211 19.6956Z" fill="#FBF8F3"/>
<path d="M2.19941 18.4733C2.52541 18.4733 2.76991 18.2016 2.76991 17.9028C2.76991 17.5768 2.49824 17.3323 2.19941 17.3323C1.87341 17.3323 1.62891 17.604 1.62891 17.9028C1.62891 18.2016 1.87341 18.4733 2.19941 18.4733Z" fill="#FBF8F3"/>
<path d="M2.71645 15.4849C2.36328 15.4849 2.06445 15.7837 2.06445 16.1369C2.06445 16.49 2.36328 16.7889 2.71645 16.7889C3.06963 16.7889 3.36846 16.49 3.36846 16.1369C3.36846 15.7837 3.06963 15.4849 2.71645 15.4849Z" fill="#FBF8F3"/>
<path d="M3.42295 15.1861C3.83045 15.1861 4.15645 14.8601 4.15645 14.4526C4.15645 14.0451 3.83045 13.7191 3.42295 13.7191C3.01545 13.7191 2.68945 14.0451 2.68945 14.4526C2.71661 14.8601 3.04261 15.1861 3.42295 15.1861Z" fill="#FBF8F3"/>
<path d="M4.37377 13.692C4.80844 13.692 5.1616 13.3388 5.1616 12.9042C5.1616 12.4695 4.80844 12.1163 4.37377 12.1163C3.9391 12.1163 3.58594 12.4695 3.58594 12.9042C3.58594 13.3388 3.9391 13.692 4.37377 13.692Z" fill="#FBF8F3"/>
<path d="M6.3832 11.4643C6.3832 10.9753 6.00286 10.595 5.51386 10.595C5.02486 10.595 4.64453 10.9753 4.64453 11.4643C4.64453 11.9533 5.02486 12.3336 5.51386 12.3336C5.9757 12.3336 6.3832 11.9533 6.3832 11.4643Z" fill="#FBF8F3"/>
<path d="M51.1542 25.3734C50.2034 25.3734 49.3069 25.1832 48.4647 24.8301C47.6226 24.4769 46.8891 23.9607 46.2642 23.3359C45.6394 22.7111 45.1504 21.9775 44.7972 21.1354C44.4441 20.2932 44.2539 19.3967 44.2539 18.4459C44.2539 17.4951 44.4441 16.5714 44.7972 15.7292C45.1504 14.8871 45.6394 14.1535 46.2642 13.5287C46.8891 12.9039 47.6226 12.3877 48.4647 12.0345C49.3069 11.6542 50.2034 11.4912 51.1542 11.4912C52.1051 11.4912 53.0287 11.6814 53.8709 12.0617C54.7131 12.4421 55.4466 12.9582 56.0986 13.6102C56.2344 13.746 56.3431 13.9091 56.3974 14.1264C56.4789 14.3709 56.4517 14.5882 56.3159 14.8056C56.1529 15.0501 55.9356 15.1587 55.6367 15.1859C55.3107 15.1859 55.0934 15.1044 54.9032 14.9142C54.4414 14.5067 53.8437 14.1264 53.1917 13.7732C52.5669 13.4472 51.8606 13.2842 51.1542 13.2842C50.4479 13.2842 49.7687 13.4201 49.1439 13.6917C48.5191 13.9634 47.9757 14.3437 47.5139 14.8056C47.0521 15.2946 46.6989 15.8379 46.4272 16.4627C46.1556 17.0875 46.0197 17.7667 46.0197 18.4731C46.0197 19.1794 46.1556 19.8586 46.4272 20.4834C46.6989 21.1082 47.0521 21.6516 47.5139 22.1134C47.9757 22.5752 48.5191 22.9556 49.1439 23.2272C49.7687 23.4989 50.4479 23.6347 51.1542 23.6347C51.8877 23.6347 52.5941 23.4989 53.2461 23.2001C53.8981 22.9284 54.4414 22.5209 54.9304 22.0047C55.0662 21.8417 55.2564 21.733 55.4737 21.6787C55.5552 21.6516 55.6096 21.6515 55.6911 21.6515C55.8541 21.6515 56.0171 21.7059 56.1529 21.7874C56.3702 21.9775 56.4789 22.222 56.4789 22.4937C56.4789 22.7654 56.3974 23.0099 56.2344 23.2001C55.6096 23.9064 54.8489 24.4497 53.9796 24.8301C53.1102 25.1561 52.1594 25.3734 51.1542 25.3734Z" fill="#FBF8F3"/>
<path d="M65.6074 25.3463C64.6565 25.3463 63.76 25.1561 62.9179 24.8029C62.0757 24.4498 61.3422 23.9336 60.7174 23.3359C60.0925 22.7111 59.6035 21.9776 59.2504 21.1354C58.8972 20.2933 58.707 19.3968 58.707 18.4459C58.707 17.4951 58.8972 16.5986 59.2504 15.7564C59.6035 14.9143 60.1197 14.1808 60.7174 13.5559C61.3422 12.9311 62.0757 12.4421 62.9179 12.0618C63.76 11.7086 64.6565 11.5184 65.6074 11.5184C66.5582 11.5184 67.4547 11.7086 68.2969 12.0618C69.139 12.4149 69.8725 12.9311 70.4974 13.5559C71.1222 14.1808 71.6112 14.9143 71.9915 15.7564C72.3447 16.5986 72.5349 17.4951 72.5349 18.4459C72.5349 19.3968 72.3447 20.2933 71.9915 21.1354C71.6384 21.9776 71.1222 22.7111 70.4974 23.3359C69.8725 23.9608 69.139 24.4498 68.2969 24.8029C67.4547 25.1561 66.5582 25.3463 65.6074 25.3463ZM65.6074 13.2843C64.901 13.2843 64.2219 13.4201 63.597 13.6918C62.9722 13.9634 62.4289 14.3166 61.967 14.7784C61.5052 15.2403 61.1249 15.8108 60.8804 16.4356C60.6087 17.0604 60.4729 17.7396 60.4729 18.4459C60.4729 19.1523 60.6087 19.8314 60.8804 20.4563C61.152 21.0811 61.5052 21.6244 61.967 22.0863C62.4289 22.5481 62.9722 22.9013 63.597 23.1729C64.2219 23.4446 64.901 23.5804 65.6074 23.5804C66.3137 23.5804 66.9929 23.4446 67.6177 23.1729C68.2425 22.9013 68.7859 22.5481 69.2477 22.0863C69.7095 21.6244 70.0899 21.0811 70.3615 20.4563C70.6332 19.8314 70.769 19.1523 70.769 18.4459C70.769 17.7396 70.6332 17.0604 70.3615 16.4356C70.0899 15.8108 69.7367 15.2674 69.2477 14.7784C68.7859 14.3166 68.2425 13.9363 67.6177 13.6918C66.9929 13.4201 66.3137 13.2843 65.6074 13.2843Z" fill="#FBF8F3"/>
<path d="M84.7594 25.3736C84.5149 25.3736 84.2976 25.2921 84.1346 25.102C83.9716 24.939 83.8629 24.7216 83.8629 24.4771V16.5716C83.8629 16.1098 83.7814 15.7023 83.5912 15.2948C83.4282 14.8873 83.1837 14.5341 82.8577 14.2353C82.5589 13.9365 82.1786 13.692 81.7982 13.5018C81.3907 13.3388 80.9561 13.2301 80.5214 13.2301C80.0596 13.2301 79.6249 13.3116 79.2446 13.5018C78.8371 13.6648 78.4839 13.9093 78.1851 14.2353C77.8862 14.5341 77.6417 14.9145 77.4787 15.2948C77.3157 15.7023 77.2071 16.137 77.2071 16.5716V24.4771C77.2071 24.7216 77.1256 24.939 76.9354 25.102C76.7724 25.265 76.5551 25.3465 76.3106 25.3465C76.0661 25.3465 75.8487 25.265 75.6857 25.0748C75.5227 24.9118 75.4141 24.6945 75.4141 24.45V16.5445C75.4141 15.8381 75.5499 15.1861 75.8216 14.5613C76.0932 13.9365 76.4464 13.3931 76.9082 12.9313C77.3701 12.4695 77.9134 12.0891 78.5382 11.8446C79.1631 11.573 79.8151 11.4371 80.5214 11.4371C81.2277 11.4371 81.8797 11.573 82.5046 11.8446C83.1294 12.1163 83.6727 12.4695 84.1346 12.9313C84.5964 13.3931 84.9767 13.9365 85.2212 14.5613C85.4929 15.1861 85.6287 15.8653 85.6287 16.5445V24.45C85.6287 24.6945 85.5472 24.9118 85.3842 25.0748C85.2212 25.2921 85.0039 25.3736 84.7594 25.3736Z" fill="#FBF8F3"/>
<path d="M93.5067 25.3733C92.8275 25.3733 92.1755 25.2646 91.5778 25.0473C90.9802 24.8299 90.4368 24.5311 90.0022 24.1236C89.5403 23.7433 89.1872 23.2814 88.9155 22.7653C88.6438 22.2491 88.5352 21.6786 88.5352 21.0809C88.5352 20.8636 88.6167 20.6463 88.7797 20.4833C88.9427 20.3203 89.16 20.2388 89.3773 20.2388C89.6218 20.2388 89.812 20.3203 89.975 20.4833C90.138 20.6463 90.2195 20.8364 90.2195 21.0809C90.2195 21.4341 90.301 21.7601 90.464 22.0589C90.627 22.3578 90.8443 22.6294 91.1432 22.8739C91.442 23.0913 91.768 23.2814 92.1755 23.4173C92.583 23.5531 93.0177 23.6346 93.4795 23.6346C93.9413 23.6346 94.376 23.5531 94.7835 23.4173C95.191 23.2814 95.5442 23.0913 95.843 22.8468C96.1418 22.6294 96.3863 22.3578 96.5493 22.0318C96.7123 21.7329 96.7667 21.4069 96.7667 21.0538C96.7395 20.7278 96.6308 20.4289 96.4678 20.1573C96.2777 19.8584 96.0603 19.6139 95.7615 19.3694C95.4898 19.1521 95.1367 18.9619 94.7563 18.7989C94.376 18.6359 93.9957 18.5273 93.561 18.4729C92.9633 18.4458 92.3928 18.3099 91.8223 18.1198C91.279 17.9296 90.7628 17.6851 90.3553 17.3863C89.9207 17.0874 89.5675 16.7343 89.323 16.3268C89.0513 15.9193 88.9155 15.4303 88.9155 14.9413C88.9155 14.4251 89.0513 13.9633 89.2958 13.5286C89.5403 13.0939 89.8935 12.7136 90.301 12.4148C90.7085 12.0888 91.2247 11.8443 91.7952 11.6541C92.3657 11.4639 92.9633 11.3824 93.5882 11.3824C94.213 11.3824 94.8378 11.4639 95.3812 11.6541C95.9517 11.8443 96.4407 12.0888 96.8753 12.4148C97.31 12.7408 97.636 13.1211 97.8805 13.5286C98.125 13.9633 98.2608 14.4251 98.2608 14.9413C98.2608 15.1858 98.1793 15.4031 97.9892 15.5661C97.8262 15.7291 97.6088 15.8378 97.3643 15.8378C97.1198 15.8378 96.9025 15.7563 96.7395 15.5661C96.5765 15.4031 96.495 15.1586 96.4678 14.8869C96.4678 14.6696 96.3863 14.4794 96.2505 14.2893C96.0875 14.0719 95.8973 13.9089 95.6257 13.7459C95.354 13.5829 95.0552 13.4471 94.702 13.3384C94.3488 13.2298 93.9685 13.2026 93.561 13.2026C93.1535 13.2026 92.7732 13.2569 92.3928 13.3384C92.0397 13.4471 91.7137 13.5558 91.4692 13.7459C91.2247 13.9089 91.0073 14.0991 90.8715 14.3436C90.7357 14.5609 90.6542 14.7783 90.6542 14.9956C90.6542 15.2129 90.7357 15.4031 90.8987 15.5933C91.0888 15.8106 91.3333 15.9736 91.605 16.1366C91.9038 16.2996 92.2298 16.4354 92.583 16.5441C92.9362 16.6528 93.2622 16.7343 93.561 16.7614C94.213 16.8429 94.8378 16.9788 95.4355 17.2233C96.0332 17.4678 96.5493 17.7666 96.984 18.1198C97.4187 18.5001 97.7718 18.9348 98.0435 19.4238C98.288 19.9128 98.4238 20.4833 98.4238 21.0538C98.4238 21.6514 98.288 22.2219 98.0435 22.7381C97.799 23.2543 97.4187 23.7161 96.9568 24.0964C96.495 24.4768 95.9788 24.7756 95.3812 24.9929C94.8378 25.2646 94.1858 25.3733 93.5067 25.3733Z" fill="#FBF8F3"/>
<path d="M102.473 25.3736C102.228 25.3736 102.011 25.2921 101.848 25.102C101.685 24.939 101.576 24.7216 101.576 24.4771V12.3336C101.576 12.0891 101.658 11.8718 101.848 11.7088C102.011 11.5458 102.228 11.4371 102.473 11.4371H109.889C110.134 11.4371 110.351 11.5186 110.514 11.7088C110.677 11.8718 110.759 12.0891 110.759 12.3336C110.759 12.5781 110.677 12.7955 110.514 12.9585C110.351 13.1215 110.134 13.2301 109.889 13.2301H103.369V17.4953H107.988C108.232 17.4953 108.449 17.5768 108.612 17.767C108.775 17.93 108.884 18.1473 108.884 18.3918C108.884 18.6363 108.803 18.8536 108.612 19.0166C108.449 19.1796 108.232 19.2611 107.988 19.2611H103.369V23.6078H109.889C110.134 23.6078 110.351 23.6893 110.514 23.8795C110.677 24.0425 110.759 24.2598 110.759 24.5043C110.759 24.7488 110.677 24.9661 110.514 25.1291C110.351 25.2921 110.134 25.4008 109.889 25.4008H102.473V25.3736Z" fill="#FBF8F3"/>
<path d="M122.494 25.3736C122.249 25.3736 122.032 25.2921 121.869 25.1291C121.706 24.9661 121.597 24.7488 121.597 24.5043V16.5988C121.597 16.137 121.516 15.7295 121.326 15.322C121.163 14.9145 120.918 14.5613 120.592 14.2625C120.293 13.9636 119.913 13.7191 119.533 13.529C119.125 13.366 118.691 13.2573 118.256 13.2573C117.794 13.2573 117.359 13.3388 116.979 13.529C116.572 13.692 116.218 13.9365 115.92 14.2625C115.621 14.5613 115.376 14.9416 115.213 15.322C115.05 15.7295 114.942 16.1641 114.942 16.5988V24.5043C114.942 24.7488 114.86 24.9661 114.67 25.1291C114.507 25.2921 114.29 25.3736 114.045 25.3736C113.801 25.3736 113.583 25.2921 113.42 25.1291C113.257 24.9661 113.176 24.7488 113.176 24.5043V16.5988C113.176 15.8925 113.312 15.2405 113.583 14.6156C113.855 13.9908 114.208 13.4475 114.67 12.9856C115.132 12.5238 115.675 12.1435 116.3 11.899C116.925 11.6273 117.604 11.4915 118.283 11.4915C118.989 11.4915 119.641 11.6273 120.266 11.899C120.864 12.1706 121.434 12.5238 121.896 12.9856C122.358 13.4475 122.738 13.9908 122.983 14.6156C123.255 15.2405 123.39 15.9196 123.39 16.5988V24.5043C123.39 24.7488 123.309 24.9661 123.146 25.1291C122.956 25.2921 122.738 25.3736 122.494 25.3736Z" fill="#FBF8F3"/>
<path d="M131.243 25.3735C130.564 25.3735 129.912 25.2648 129.314 25.0475C128.716 24.8301 128.173 24.5313 127.738 24.1238C127.277 23.7435 126.923 23.2816 126.652 22.7655C126.38 22.2493 126.271 21.6788 126.271 21.0811C126.271 20.8638 126.353 20.6465 126.516 20.4835C126.679 20.3205 126.896 20.239 127.114 20.239C127.358 20.239 127.548 20.3205 127.711 20.4835C127.874 20.6465 127.956 20.8638 127.956 21.0811C127.956 21.4343 128.037 21.7603 128.2 22.0591C128.363 22.358 128.581 22.6568 128.879 22.8741C129.178 23.1186 129.531 23.2816 129.912 23.4446C130.319 23.5805 130.754 23.662 131.216 23.662C131.678 23.662 132.112 23.5805 132.52 23.4446C132.927 23.3088 133.28 23.1186 133.579 22.8741C133.878 22.6568 134.123 22.358 134.286 22.0591C134.449 21.7603 134.503 21.4343 134.476 21.0811C134.449 20.7551 134.34 20.4563 134.177 20.1846C133.987 19.8858 133.769 19.6413 133.471 19.3968C133.199 19.1795 132.846 18.9893 132.465 18.8263C132.085 18.6633 131.705 18.5546 131.27 18.5003C130.672 18.4731 130.102 18.3373 129.559 18.1471C129.015 17.957 128.499 17.7125 128.092 17.4136C127.657 17.1148 127.304 16.7616 127.059 16.3541C126.788 15.9466 126.652 15.4576 126.652 14.9686C126.652 14.4796 126.788 13.9906 127.032 13.556C127.277 13.1213 127.63 12.741 128.064 12.4421C128.499 12.1161 128.988 11.8716 129.531 11.6815C130.102 11.4913 130.7 11.4098 131.324 11.4098C131.949 11.4098 132.574 11.4913 133.117 11.6815C133.688 11.8716 134.177 12.1161 134.612 12.4421C135.046 12.7681 135.372 13.1485 135.617 13.556C135.861 13.9906 135.997 14.4796 135.997 14.9686C135.997 15.2131 135.916 15.4305 135.725 15.5935C135.562 15.7565 135.345 15.8651 135.101 15.8651C134.856 15.8651 134.639 15.7836 134.476 15.5935C134.313 15.4305 134.231 15.186 134.231 14.9143C134.231 14.697 134.15 14.5068 134.014 14.3166C133.878 14.0993 133.661 13.9363 133.389 13.7733C133.117 13.6103 132.819 13.4745 132.465 13.3658C132.112 13.2571 131.732 13.23 131.324 13.23C130.917 13.23 130.537 13.2843 130.156 13.3658C129.803 13.4745 129.477 13.5831 129.233 13.7733C128.988 13.9363 128.771 14.1265 128.635 14.371C128.499 14.5883 128.418 14.8056 128.418 15.023C128.418 15.2403 128.499 15.4305 128.662 15.6206C128.852 15.838 129.097 16.001 129.368 16.164C129.667 16.327 129.993 16.4628 130.346 16.5715C130.672 16.6801 131.026 16.7616 131.324 16.7888C131.976 16.8703 132.601 17.0061 133.199 17.2506C133.797 17.4951 134.313 17.794 134.747 18.1471C135.182 18.5275 135.535 18.9621 135.78 19.4511C136.024 19.9401 136.16 20.5106 136.16 21.0811C136.16 21.6788 136.024 22.2493 135.78 22.7655C135.535 23.2816 135.155 23.7435 134.693 24.1238C134.231 24.5041 133.715 24.803 133.117 25.0203C132.574 25.2648 131.922 25.3735 131.243 25.3735Z" fill="#FBF8F3"/>
<path d="M144.636 25.3736C144.392 25.3736 144.174 25.2921 144.011 25.1291C143.848 24.9661 143.74 24.7487 143.74 24.5042V19.9674L138.252 12.9041C138.116 12.7139 138.035 12.4965 138.062 12.252C138.089 12.0075 138.198 11.8174 138.388 11.6544C138.551 11.5186 138.741 11.4642 138.958 11.4642C139.257 11.4914 139.475 11.6001 139.638 11.7902L144.663 18.2287L149.771 11.7902C149.934 11.6001 150.124 11.4914 150.368 11.4642H150.396C150.667 11.4642 150.857 11.5186 151.02 11.6544C151.211 11.8174 151.319 12.0075 151.346 12.252C151.374 12.4965 151.292 12.7139 151.156 12.9041L145.587 19.9674V24.5042C145.587 24.7487 145.506 24.9661 145.343 25.1291C145.098 25.2921 144.881 25.3736 144.636 25.3736Z" fill="#FBF8F3"/>
<path d="M158.001 25.3733C157.322 25.3733 156.67 25.2646 156.072 25.0473C155.474 24.8299 154.931 24.5311 154.496 24.1236C154.034 23.7433 153.681 23.2814 153.41 22.7653C153.138 22.2491 153.029 21.6786 153.029 21.0809C153.029 20.8636 153.111 20.6463 153.274 20.4833C153.437 20.3203 153.654 20.2388 153.871 20.2388C154.089 20.2388 154.306 20.3203 154.469 20.4833C154.632 20.6463 154.714 20.8636 154.714 21.0809C154.714 21.4341 154.795 21.7601 154.958 22.0589C155.121 22.3578 155.338 22.6294 155.637 22.8739C155.936 23.0913 156.289 23.2814 156.67 23.4173C157.077 23.5531 157.512 23.6346 157.974 23.6346C158.435 23.6346 158.87 23.5531 159.278 23.4173C159.685 23.2814 160.038 23.0913 160.337 22.8468C160.636 22.6294 160.88 22.3306 161.043 22.0318C161.206 21.7329 161.261 21.4069 161.234 21.0538C161.206 20.7278 161.098 20.4289 160.935 20.1573C160.745 19.8584 160.527 19.6139 160.228 19.3694C159.957 19.1521 159.604 18.9619 159.223 18.7989C158.843 18.6359 158.463 18.5273 158.028 18.4729C157.43 18.4458 156.86 18.3099 156.289 18.1198C155.746 17.9296 155.23 17.6851 154.822 17.3863C154.388 17.0874 154.034 16.7343 153.79 16.3268C153.518 15.9193 153.382 15.4303 153.382 14.9413C153.382 14.4523 153.518 13.9633 153.763 13.5286C154.007 13.0939 154.36 12.7136 154.795 12.4148C155.203 12.0888 155.719 11.8443 156.262 11.6541C156.833 11.4639 157.43 11.3824 158.055 11.3824C158.68 11.3824 159.305 11.4639 159.848 11.6541C160.419 11.8443 160.908 12.0888 161.315 12.4148C161.75 12.7408 162.076 13.0939 162.347 13.5286C162.592 13.9633 162.728 14.4523 162.728 14.9413C162.728 15.1858 162.646 15.4031 162.456 15.5661C162.293 15.7291 162.076 15.8378 161.831 15.8378C161.587 15.8378 161.369 15.7563 161.206 15.5661C161.043 15.4031 160.962 15.1586 160.935 14.8869C160.935 14.6696 160.853 14.4794 160.717 14.2893C160.554 14.0719 160.364 13.9089 160.093 13.7459C159.821 13.5829 159.522 13.4471 159.169 13.3384C158.816 13.2298 158.435 13.2026 158.028 13.2026C157.62 13.2026 157.24 13.2569 156.86 13.3384C156.507 13.4471 156.181 13.5558 155.936 13.7459C155.692 13.9089 155.474 14.0991 155.338 14.3436C155.203 14.5609 155.121 14.7783 155.121 14.9956C155.121 15.2129 155.203 15.4031 155.366 15.5933C155.556 15.8106 155.8 15.9736 156.072 16.1366C156.371 16.2996 156.697 16.4354 157.05 16.5441C157.403 16.6528 157.729 16.7343 158.028 16.7614C158.68 16.8429 159.305 16.9788 159.902 17.2233C160.5 17.4678 161.016 17.7666 161.451 18.1198C161.886 18.5001 162.239 18.9348 162.483 19.4238C162.728 19.9128 162.864 20.4561 162.864 21.0538C162.864 21.6514 162.728 22.2219 162.483 22.7381C162.239 23.2543 161.858 23.7161 161.397 24.0964C160.935 24.4768 160.419 24.7756 159.821 24.9929C159.332 25.2646 158.68 25.3733 158.001 25.3733Z" fill="#FBF8F3"/>
</g>
<defs>
<clipPath id="clip0_2752_2382">
<rect width="163" height="36.9467" fill="white"/>
</clipPath>
</defs>
</svg>
