<svg width="111" height="38" viewBox="0 0 111 38" fill="none" xmlns="http://www.w3.org/2000/svg">
<g clip-path="url(#clip0_2752_2378)">
<path d="M94.8461 34.761V37.0963H110.875V26.5634H108.54V34.761H94.8461ZM94.8461 0.000366211V2.33584H108.54V10.5338H110.875V0.000366211H94.8461ZM86.58 18.0678V12.6409H90.2438C92.0303 12.6409 92.6713 13.2362 92.6713 14.8622V15.8238C92.6713 17.4953 92.0529 18.0678 90.2438 18.0678H86.58ZM92.396 19.0294C94.0674 18.5944 95.2351 17.037 95.2351 15.1826C95.2351 14.0148 94.7775 12.9613 93.9074 12.1139C92.8082 11.0603 91.3422 10.5338 89.4419 10.5338H84.2898V26.5629H86.58V20.1744H90.0149C91.7778 20.1744 92.4879 20.9071 92.4879 22.7393V26.5634H94.8235V23.1057C94.8235 20.5868 94.2283 19.6252 92.396 19.3503V19.0294ZM73.1157 19.5559H80.1686V17.4493H73.1157V12.6404H80.8555V10.5338H70.7797V26.5629H81.1989V24.4563H73.1157V19.5559ZM65.4442 20.4033V21.5023C65.4442 23.8151 64.5968 24.571 62.4675 24.571H61.9638C59.8339 24.571 58.8036 23.8838 58.8036 20.7009V16.3958C58.8036 13.1902 59.88 12.5257 62.0093 12.5257H62.4669C64.551 12.5257 65.2149 13.3043 65.2375 15.4569H67.7566C67.5277 12.2968 65.421 10.3049 62.2608 10.3049C60.7268 10.3049 59.4444 10.786 58.4828 11.7016C57.0401 13.0527 56.2387 15.3428 56.2387 18.5484C56.2387 21.6398 56.9259 23.9298 58.3454 25.3491C59.307 26.288 60.6353 26.7918 61.9406 26.7918C63.3143 26.7918 64.5742 26.242 65.2149 25.0515H65.5352V26.5629H67.6419V18.2967H61.4363V20.4033H65.4442ZM45.248 12.6404H47.7442C50.103 12.6404 51.3854 13.2356 51.3854 16.4418V20.6549C51.3854 23.8605 50.103 24.4563 47.7442 24.4563H45.248V12.6404ZM47.95 26.5634C52.3239 26.5634 53.9492 23.2431 53.9492 18.5489C53.9492 13.786 52.2091 10.5344 47.9039 10.5344H42.9576V26.5634H47.95ZM31.8981 19.5559H38.9511V17.4493H31.8981V12.6404H39.6377V10.5338H29.5619V26.5629H39.9814V24.4563H31.8981V19.5559ZM18.3879 10.5338H16.0524V26.5629H26.5859V24.4563H18.3879V10.5338ZM0 26.5634V37.0969H16.0291V34.761H2.33547V26.5634H0ZM0 0.000366211V10.5338H2.33547V2.33584H16.0291V0.000366211H0Z" fill="#FBF8F3"/>
</g>
<defs>
<clipPath id="clip0_2752_2378">
<rect width="111" height="37.0965" fill="white"/>
</clipPath>
</defs>
</svg>
