<svg width="95" height="31" viewBox="0 0 95 31" fill="none" xmlns="http://www.w3.org/2000/svg">
<g clip-path="url(#clip0_2752_2524)">
<path d="M89.0932 16.8466C89.0932 16.6621 89.1547 16.2932 89.1547 16.0473C89.2776 13.9568 88.3554 12.1738 86.5109 11.0671C86.5109 11.0671 84.5434 10.0833 84.113 7.50102C83.6211 4.85721 85.4041 2.33636 87.9865 1.84449C88.7858 1.72152 89.5851 1.78301 90.3229 1.96746C90.9992 2.2134 91.737 2.45933 92.3518 2.76675C92.8437 3.01269 93.2741 3.19714 93.7045 3.50456C93.7045 3.50456 94.0734 3.68901 94.0734 3.81198C94.0734 4.36534 94.0119 5.04166 93.9504 5.59502C93.643 8.91515 92.7822 11.9279 90.9377 14.6947C90.5688 15.3095 89.954 16.1088 89.5236 16.6621C89.5851 16.9081 89.1547 16.8466 89.0932 16.8466Z" fill="#3D3B47"/>
<path d="M73.0469 3.75063C74.3995 2.95134 75.9981 2.21353 77.5352 1.72166C79.6257 1.10682 81.9621 0.860886 84.114 0.92237C85.0977 0.92237 86.2659 1.16831 87.2497 1.35276C87.2497 1.35276 83.6836 3.81212 83.3147 5.71812C83.2532 6.02554 83.5606 6.02554 83.4992 6.33296C83.4992 6.82483 83.1917 8.05451 83.0688 8.4849C82.331 11.0672 79.3797 12.2969 76.8589 11.5591C75.5062 11.1902 74.338 10.2065 73.7232 8.97677C73.6617 8.85381 73.2928 6.9478 73.2313 6.20999C73.1084 5.34922 73.0469 3.81212 73.0469 3.75063Z" fill="#3D3B47"/>
<path d="M83.6212 21.7654C83.1908 21.5809 82.8219 21.2735 82.453 21.0276C81.2848 20.2283 80.1781 19.3675 79.1329 18.3223C78.1491 17.277 77.2269 16.1089 76.4891 14.8792C75.7512 13.7725 75.1979 12.4813 74.706 11.1901C74.706 11.1901 74.706 11.1286 74.6445 11.0672L74.7675 11.1286C75.1364 11.4361 75.5668 11.682 75.9972 11.8665C76.5505 12.1124 77.1654 12.2354 77.7187 12.2968C78.9484 12.4198 80.1166 12.1739 81.1618 11.559C81.7152 11.2516 82.33 11.0057 83.0064 10.9442C85.3427 10.6368 87.7406 11.9279 88.4169 14.2028C88.7859 15.371 88.9088 16.7237 88.3555 17.7689C88.294 17.8919 87.8021 18.7527 87.7406 18.8141C86.5724 19.9209 85.5887 20.6587 84.1745 21.458L83.6212 21.7654Z" fill="#3D3B47"/>
<path d="M83.6222 22.7486L83.4992 22.6871C78.3345 19.6744 74.5225 14.6942 72.9854 8.91466C72.7395 7.9924 72.555 7.07014 72.4321 6.0864C72.3091 5.10265 72.2476 4.18039 72.2476 3.19665C72.2476 3.0122 72.2476 3.07368 72.3706 2.95071C75.9981 0.921741 80.0561 -0.123487 84.1755 -0.000518845C84.7904 -0.000518845 85.4052 0.0609652 86.02 0.122449C89.0942 0.429869 92.1069 1.41361 94.8122 2.95071L94.9352 3.0122C94.9967 3.0122 94.9967 3.07368 94.9967 3.13517V3.31962C94.9967 3.87297 94.9967 4.42633 94.9352 4.97969C94.8737 5.77898 94.7508 6.57827 94.6278 7.37756C94.3204 9.09911 93.767 10.7592 93.0907 12.2963C91.1847 16.6002 87.926 20.2277 83.8681 22.6256L83.6222 22.7486ZM73.2314 3.75001V3.87297C73.2314 4.67227 73.2928 5.47156 73.3543 6.27085C73.4158 7.00866 73.5388 7.68498 73.7232 8.42279C73.7232 8.54576 73.7847 8.66873 73.8462 8.79169C74.9529 11.1896 77.8427 12.2963 80.302 11.1281C81.5932 10.5132 82.5154 9.40653 82.8844 8.05389C83.0073 7.56201 83.0688 7.13163 83.0688 6.63975C83.0688 6.33233 83.1303 6.02491 83.1918 5.71749C83.5607 3.81149 84.8518 2.21291 86.6349 1.4751L86.9423 1.35213C86.9423 1.35213 87.0038 1.35213 86.9423 1.29065C85.9585 1.10619 84.9748 1.04471 83.9296 0.983225C80.2405 0.921741 76.5515 1.844 73.2314 3.75001ZM89.2787 16.7846C89.3402 16.7846 89.3402 16.7231 89.4016 16.6616C89.832 16.1083 90.2624 15.5549 90.6313 14.9401C92.4759 12.1118 93.5826 8.91466 93.89 5.59453C93.9515 5.04117 93.9515 4.42633 93.9515 3.87297V3.75001L93.767 3.68852C93.3366 3.44259 92.8448 3.19665 92.4144 2.95071C91.7381 2.64329 91.0617 2.33587 90.3854 2.15142C87.8646 1.35213 85.0978 2.76626 84.2985 5.28711C84.0526 6.02491 83.9911 6.82421 84.1755 7.6235C84.4214 8.97615 85.2207 10.1443 86.3889 10.8821L86.6349 11.0051C88.4179 12.1118 89.5246 14.0793 89.4016 16.2313C89.3402 16.4157 89.3402 16.6002 89.2787 16.7846ZM83.6222 21.6419L83.7451 21.5804C85.0978 20.7811 86.3889 19.7973 87.5571 18.7521C87.6186 18.6906 87.6801 18.6291 87.7416 18.5062C87.8031 18.3832 87.8646 18.1987 87.9875 18.0758C88.5409 16.9691 88.6638 15.7394 88.2949 14.5712C87.6186 12.2963 85.4052 10.8821 83.0688 11.1281C82.454 11.1896 81.8391 11.4355 81.2243 11.7429C80.1791 12.3578 78.9494 12.6037 77.7812 12.4807C77.1663 12.4192 76.613 12.2963 76.0596 12.0503C75.6292 11.8659 75.1988 11.62 74.8299 11.3125L74.707 11.2511C74.707 11.3125 74.707 11.3125 74.7685 11.374C75.2603 12.6037 75.8752 13.7719 76.5515 14.8786C78.0886 17.2765 80.1176 19.3669 82.5154 20.9655C82.8229 21.2115 83.1918 21.4574 83.6222 21.6419ZM0.00390625 11.497H5.35301V14.2023C5.66044 13.7719 5.96786 13.403 6.33676 13.0341C6.70566 12.6652 7.13605 12.3578 7.56644 12.0503C7.99683 11.7429 8.55018 11.5585 9.04206 11.374C9.6569 11.1896 10.2717 11.1281 10.8866 11.1281C12.9155 11.1281 14.5141 11.7429 15.6208 12.9726C16.7276 14.2023 17.2809 15.9238 17.2809 18.0758V30.3111H11.9318V19.8588C11.9318 18.5676 11.6244 17.6454 11.071 16.9691C10.4562 16.2927 9.59541 15.9238 8.67315 15.9853C7.75089 15.9238 6.89012 16.2927 6.21379 16.9691C5.59895 17.5839 5.29153 18.5676 5.29153 19.8588V30.3726H0.00390625V11.497ZM30.4385 30.7415C29.0858 30.7415 27.7947 30.4955 26.5035 30.0037C25.3353 29.5733 24.2901 28.897 23.3678 27.9747C22.5071 27.1139 21.7692 26.0687 21.2774 24.9005C20.7855 23.6708 20.5396 22.3182 20.5396 20.9655V20.904C20.5396 19.6129 20.7855 18.3217 21.2159 17.092C21.6463 15.9238 22.3226 14.8786 23.1219 13.9564C24.8434 12.1118 27.3028 11.0666 29.8237 11.0666C31.2378 11.0051 32.6519 11.3125 33.8816 11.9274C34.9883 12.4807 35.972 13.2185 36.7713 14.2023C37.5706 15.186 38.124 16.2927 38.4314 17.4609C38.8003 18.6906 38.9848 19.9818 38.9848 21.3344V22.0108C38.9848 22.2567 38.9848 22.5026 38.9233 22.7486H25.8887C26.0731 23.8553 26.6265 24.839 27.4873 25.5153C28.348 26.1302 29.3933 26.4991 30.5 26.4376C31.2993 26.4376 32.16 26.3146 32.8979 26.0072C33.6971 25.6383 34.435 25.1464 35.0498 24.5316L38.124 27.2369C37.2632 28.3436 36.1565 29.2044 34.8653 29.8192C33.5127 30.4955 31.9756 30.803 30.4385 30.7415ZM33.8816 19.4284C33.7586 18.3832 33.3282 17.338 32.5904 16.5387C31.9141 15.8009 30.9304 15.3705 29.8851 15.432C28.8399 15.3705 27.8562 15.8009 27.1798 16.5387C26.442 17.338 25.9502 18.3832 25.8272 19.4284H33.8816ZM42.4279 11.497H47.777V14.2023C48.0844 13.7719 48.4533 13.403 48.7607 13.0341C49.1296 12.6652 49.56 12.3578 49.9904 12.0503C50.4823 11.7429 50.9741 11.5585 51.466 11.374C53.1876 10.8821 54.9706 11.1281 56.5077 11.9274C57.43 12.4192 58.1678 13.2185 58.5982 14.1408C59.336 13.2185 60.2582 12.4192 61.3649 11.8659C62.4102 11.374 63.6399 11.0666 64.8081 11.1281C66.7755 11.1281 68.3741 11.7429 69.4808 12.9111C70.5875 14.0793 71.1409 15.8009 71.1409 18.0758V30.3726H65.7918V19.8588C65.7918 18.5676 65.5459 17.6454 64.9925 16.9691C64.3777 16.2927 63.5784 15.9238 62.6561 15.9853C61.7339 15.9238 60.8731 16.2927 60.2582 16.9691C59.7049 17.5839 59.3975 18.5676 59.3975 19.8588V30.3726H54.0484V19.8588C54.0484 18.5676 53.8024 17.6454 53.2491 16.9691C52.6342 16.2927 51.8349 15.9238 50.9127 15.9853C49.9904 15.9238 49.1296 16.2927 48.5148 16.9691C47.9614 17.5839 47.654 18.5676 47.654 19.8588V30.3726H42.4279V11.497Z" fill="#FBF8F3"/>
</g>
<defs>
<clipPath id="clip0_2752_2524">
<rect width="95" height="30.742" fill="white"/>
</clipPath>
</defs>
</svg>
