<svg width="144" height="23" viewBox="0 0 144 23" fill="none" xmlns="http://www.w3.org/2000/svg">
<g clip-path="url(#clip0_2752_2545)">
<path fill-rule="evenodd" clip-rule="evenodd" d="M6.30247 15.0211C4.87627 17.5054 3.47307 20.0128 2.04688 22.4971H27.6724C25.9242 19.4377 24.199 16.4013 22.4737 13.3879L22.4507 13.3649C19.9204 8.92524 17.39 4.48562 14.8367 0C11.9843 5.0607 9.13186 10.0524 6.30247 15.0211ZM18.6092 12.9278C19.8513 15.1131 21.1165 17.2984 22.3587 19.5067H7.33761C9.84496 15.1131 12.3293 10.7885 14.8597 6.32588C16.1018 8.55719 17.367 10.7425 18.6092 12.9278Z" fill="#FBF8F3"/>
<path d="M115.314 6.62493C115.521 5.98084 115.728 5.33675 115.935 4.66965C115.751 4.66965 115.59 4.66965 115.429 4.66965C115.061 4.66965 114.739 4.69266 114.394 4.64666C114.003 4.60065 113.865 4.76167 113.773 5.12972C112.99 7.66007 112.162 10.1904 111.311 12.6978C111.058 13.3879 110.782 14.078 110.46 14.8141C110.322 15.1591 110.161 15.5042 110.023 15.8722L109.77 15.3431C108.367 12.0997 107.194 8.76423 106.389 5.33675C106.389 5.29075 106.366 5.26774 106.366 5.22174C106.297 4.87669 106.228 4.55464 105.698 4.64666C105.56 4.66966 105.422 4.66965 105.284 4.66965C104.916 4.66965 104.548 4.64666 104.364 5.31375C103.674 7.54506 102.938 9.77637 102.179 11.9847C101.926 12.7668 101.65 13.5259 101.397 14.308C101.282 14.653 101.121 14.9981 100.937 15.3891C100.868 15.5272 100.799 15.6652 100.73 15.8262C100.638 15.6192 100.546 15.4352 100.454 15.2741C100.316 14.9981 100.178 14.7451 100.086 14.469C99.0045 11.3866 97.9464 8.28116 96.8652 5.17573V5.15272C96.7962 4.9917 96.6122 4.71566 96.4742 4.69266C96.0831 4.64665 95.692 4.64665 95.301 4.66965C95.14 4.66965 94.9789 4.66965 94.7949 4.66965C94.8179 4.76167 94.8179 4.85368 94.8409 4.92269C94.8639 5.0147 94.8639 5.10672 94.8869 5.17573C95.9911 9.15528 97.3713 12.9968 99.1655 16.7233C99.5796 17.5745 100.017 17.9425 100.937 17.8275C101.397 17.7585 101.65 17.6665 101.834 17.2064C102.386 15.8032 102.938 14.423 103.49 13.0428C103.881 12.0537 104.272 11.0645 104.663 10.0984C104.824 9.66135 104.962 9.24729 105.1 8.85624C105.146 8.69522 105.215 8.53419 105.261 8.39617C106.435 11.2716 107.631 14.216 108.804 17.1604C108.988 17.6435 109.264 17.8965 109.793 17.8045C109.954 17.7815 110.138 17.7815 110.299 17.8045C110.736 17.8965 110.966 17.6895 111.127 17.2984C111.472 16.4933 111.817 15.6882 112.185 14.8831C112.76 13.5949 113.336 12.3067 113.842 10.9955C114.394 9.56933 114.854 8.12013 115.314 6.62493Z" fill="#FBF8F3"/>
<path fill-rule="evenodd" clip-rule="evenodd" d="M133.006 17.2295V22.4743H131.097C131.097 22.3823 131.097 22.2672 131.097 22.1522C131.097 22.0372 131.097 21.9222 131.097 21.8072V5.77396C131.097 5.72795 131.097 5.65894 131.074 5.61293C131.051 5.3829 131.028 5.15287 131.396 5.06086C133.972 4.43977 136.548 4.07172 139.125 4.80782C142 5.61293 143.817 8.02827 143.771 11.0417C143.771 12.0078 143.656 12.997 143.38 13.9171C142.621 16.3784 140.321 18.0577 137.745 18.1037C136.939 18.1037 136.111 18.1037 135.306 17.9657C134.8 17.8736 134.294 17.6896 133.765 17.5056C133.535 17.4136 133.282 17.2986 133.006 17.2295ZM133.006 12.2149C133.006 13.112 133.006 14.0091 133.006 14.9062C133.006 15.3203 133.121 15.5273 133.489 15.7113C134.915 16.4474 136.433 16.7235 137.975 16.5164C139.815 16.2404 141.103 15.2283 141.54 13.342C141.747 12.4679 141.793 11.5938 141.793 10.6966C141.77 8.48833 140.436 6.8091 138.343 6.23402C136.847 5.81997 135.352 5.98098 133.834 6.16501C133.144 6.25702 133.006 6.51006 133.052 7.15415C133.052 7.63722 133.052 8.14329 133.029 8.62635C133.029 9.36246 133.006 10.0986 133.029 10.8577C133.006 11.3177 133.006 11.7548 133.006 12.2149Z" fill="#FBF8F3"/>
<path fill-rule="evenodd" clip-rule="evenodd" d="M35.2628 22.4971V17.1374L35.3778 17.1834C35.5849 17.2754 35.6999 17.3214 35.7919 17.3904C38.1612 18.4026 40.5305 18.4946 42.8539 17.2984C44.8781 16.2403 45.7983 14.423 46.0283 12.1917C46.3964 8.87925 44.8551 5.79682 41.4047 4.80768C38.8053 4.04857 36.252 4.41662 33.6756 5.03771C33.3075 5.12972 33.3075 5.35975 33.3305 5.58979C33.3305 5.63579 33.3305 5.6818 33.3305 5.72781V21.83C33.3305 22.0371 33.3536 22.2441 33.3766 22.4511H35.2628V22.4971ZM35.2628 12.0077C35.2628 11.6396 35.2628 11.2716 35.2628 10.9035C35.2628 10.4665 35.2628 10.0064 35.2628 9.56934C35.2628 8.67222 35.2628 7.75209 35.2628 6.85496C35.2628 6.4179 35.4008 6.25688 35.8379 6.18787C37.3101 5.93484 38.8053 5.77382 40.3005 6.11886C43.2219 6.83196 44.2571 9.13228 44.05 11.9387C44.004 12.3757 43.935 12.8128 43.82 13.2268C43.3599 15.2051 41.7957 16.4473 39.8175 16.5393C38.4603 16.6083 37.1951 16.3783 35.9529 15.8262C35.4698 15.6192 35.2398 15.3431 35.2628 14.7451C35.2858 13.8479 35.2628 12.9278 35.2628 12.0077Z" fill="#FBF8F3"/>
<path d="M72.5042 6.39485C72.4352 6.30284 72.4122 6.25683 72.4122 6.21083C72.1592 4.92265 72.1362 4.83063 73.4243 4.66961C74.7585 4.50859 76.1387 4.34757 77.4499 4.50859C80.2103 4.83064 81.5215 6.39486 81.5905 9.24725C81.6365 10.8115 81.6135 12.3757 81.6135 13.9399C81.6135 14.975 81.6135 16.0332 81.6135 17.0683C81.6135 17.4594 81.4755 17.5744 81.1074 17.6434C78.8531 18.0345 76.6218 18.3105 74.3445 17.9885C71.6071 17.6204 70.0429 15.4581 70.71 12.9508C70.963 12.0766 71.4921 11.4096 72.2742 10.9725C73.9534 10.0064 75.7937 9.89134 77.7259 9.98335V11.4556C77.5649 11.4556 77.3809 11.4556 77.2199 11.4556C76.7828 11.4556 76.3687 11.4326 75.9317 11.4786C75.3336 11.5476 74.6895 11.6396 74.1374 11.8466C73.0333 12.2377 72.5272 12.9738 72.5502 14.1009C72.5732 15.2511 73.1023 16.1022 74.2755 16.2862C75.3336 16.4703 76.4378 16.4703 77.5419 16.4933C77.887 16.4933 78.209 16.4933 78.554 16.5163C78.7611 16.5393 78.9911 16.4933 79.1981 16.4473C79.3132 16.4242 79.4512 16.4012 79.5662 16.3782C79.5662 16.3322 79.5892 16.3092 79.5892 16.2632C79.6122 16.2172 79.6122 16.1712 79.6122 16.1252C79.6122 15.6421 79.6122 15.1591 79.6122 14.653C79.6122 12.6977 79.6122 10.7195 79.5662 8.74118C79.5202 7.10795 78.439 6.0498 76.8288 5.95779C75.4946 5.86578 74.1834 5.86578 72.8953 6.32584C72.8263 6.32584 72.7572 6.34885 72.6882 6.34885C72.6652 6.37185 72.5962 6.37185 72.5042 6.39485Z" fill="#FBF8F3"/>
<path d="M119.388 4.71568C119.135 4.76168 118.859 4.83069 118.606 4.8767C118.629 5.08373 118.675 5.24475 118.698 5.42878C118.767 5.75082 118.813 6.02686 118.813 6.23389L119.181 6.18788C120.17 6.04986 121.136 5.93485 122.079 5.86584C124.724 5.6358 125.99 6.83197 125.99 9.50034V16.4933C125.576 16.4933 125.185 16.4933 124.793 16.4933C123.827 16.4933 122.907 16.5163 121.987 16.4703C121.389 16.4243 120.722 16.2403 120.147 16.0102C119.365 15.7112 119.02 15.0211 118.928 14.17C118.836 13.2729 119.112 12.4678 119.917 12.0767C120.63 11.7547 121.389 11.5246 122.171 11.3866C122.608 11.3176 123.045 11.3406 123.528 11.3406C123.735 11.3406 123.942 11.3636 124.172 11.3636V9.98341C123.252 9.68436 120.814 9.9144 119.595 10.3975C117.824 11.0876 116.926 12.3297 116.972 14.009C117.041 15.8722 117.962 17.0914 119.802 17.6435C122.263 18.3796 124.701 18.0115 127.14 17.6205C127.393 17.5745 127.646 17.5515 127.876 17.5055C127.945 17.4134 127.968 17.3674 127.968 17.3214C127.968 16.4243 127.968 15.5272 127.991 14.6301C128.014 12.6058 128.014 10.5585 127.945 8.53421C127.853 6.67095 126.864 5.31376 125.047 4.69267C123.666 4.23261 122.263 4.32462 120.86 4.43963C120.377 4.50864 119.894 4.62366 119.388 4.71568Z" fill="#FBF8F3"/>
<path d="M59.0952 17.5285C56.6569 17.9885 54.2876 18.3336 51.8952 17.9655C50.6761 17.7815 49.5949 17.3444 48.7898 16.2863C47.6166 14.6991 47.9157 12.2377 49.5259 11.1106C51.2741 9.91441 53.2524 9.86841 55.2767 9.93742V11.3406C54.9547 11.3636 54.6556 11.3866 54.3336 11.4096C53.6895 11.4556 53.0684 11.5016 52.4243 11.5936C51.9412 11.6857 51.4352 11.8927 50.9981 12.1457C49.5719 13.1119 49.7329 15.2972 51.2511 16.0563C51.7342 16.3093 52.3093 16.4473 52.8614 16.5163C53.4595 16.5853 54.0805 16.5623 54.6786 16.5393C54.7706 16.5393 54.8857 16.5393 54.9777 16.5393C55.4607 16.5163 55.9438 16.4933 56.4269 16.4473C56.6569 16.4243 56.9099 16.4013 57.163 16.3783V9.59237C57.163 6.924 55.8978 5.75083 53.2754 5.93486C52.3553 6.00387 51.4352 6.11889 50.469 6.2339C50.308 6.25691 50.147 6.27991 49.986 6.30291C49.94 6.09588 49.894 5.81984 49.825 5.5208C49.7789 5.33678 49.7559 5.12975 49.7099 4.89971C49.94 4.85371 50.17 4.80771 50.4 4.7387C50.9751 4.60068 51.5502 4.48566 52.1253 4.46265C53.2984 4.41665 54.4946 4.39365 55.6448 4.60067C57.646 4.96873 58.9342 6.32591 59.0262 8.46521C59.1182 10.5815 59.0952 12.6978 59.0952 14.8371C59.0952 15.7342 59.0952 16.6313 59.0952 17.5285Z" fill="#FBF8F3"/>
<path d="M11.7065 0.092041H0.0898438C1.05598 1.81728 2.02211 3.49652 2.98825 5.19875C3.95438 6.90099 4.92051 8.58022 5.88665 10.3055C7.31285 7.82111 8.69304 5.38277 10.0732 2.94444C10.6253 1.9783 11.1774 1.03517 11.7065 0.092041Z" fill="#FBF8F3"/>
<path d="M84.5117 4.62379C84.6957 4.62379 84.8568 4.62379 85.0178 4.62379C85.4088 4.62379 85.7769 4.60079 86.1219 4.6468C86.26 4.6698 86.467 4.94584 86.467 5.10686C86.513 5.95798 86.513 6.78609 86.467 7.63721C86.398 8.60335 86.881 9.22443 87.6862 9.59248C88.2612 9.84552 88.8593 10.0755 89.4574 10.3056C90.0095 10.5126 90.5846 10.7426 91.1366 10.9727C91.7807 11.2487 92.4478 11.5247 93.0229 11.9388C95.0472 13.434 94.7481 16.3554 92.4708 17.3906C91.7577 17.7126 90.9756 17.9196 90.1935 18.0116C88.2152 18.2187 86.214 18.2417 84.3047 17.3446C84.3967 17.0455 84.4887 16.7465 84.5807 16.4934C84.6267 16.3324 84.6727 16.1714 84.7187 16.0334C85.1328 16.1024 85.5239 16.1714 85.9149 16.2404C86.72 16.3784 87.5251 16.5394 88.3302 16.5624C89.2274 16.6085 90.1475 16.4474 91.0446 16.2404C91.7117 16.1024 92.2408 15.6423 92.3098 14.8602C92.4018 13.9861 92.1488 13.273 91.3437 12.9279C90.6076 12.6059 89.8715 12.3069 89.1354 12.0078C88.6983 11.8238 88.2612 11.6628 87.8242 11.4787C87.6862 11.4097 87.5481 11.3637 87.4331 11.3177C87.3871 11.2947 87.3411 11.2947 87.2951 11.2717C85.0178 10.3286 84.4887 9.52347 84.4657 7.03913V4.62379H84.5117Z" fill="#FBF8F3"/>
<path d="M68.8009 6.09587C69.123 6.11888 69.445 6.14188 69.7901 6.14188C69.8131 5.98086 69.8591 5.81984 69.9051 5.65881C69.9741 5.40578 70.0431 5.15274 70.0891 4.8537C69.9741 4.8307 69.8821 4.78469 69.7901 4.76169C69.698 4.73869 69.606 4.71568 69.537 4.69268C67.2367 4.20961 64.9364 4.43964 62.6821 5.10674C62.199 5.22175 62.084 5.47479 62.084 5.98086C62.107 9.73038 62.107 13.4569 62.107 17.2064C62.107 17.4364 62.13 17.6435 62.153 17.8505H64.0853V17.0224C64.0853 15.8952 64.0853 14.7911 64.0853 13.6639C64.0853 11.4326 64.0853 9.2013 64.0853 6.96999C64.0853 6.48692 64.1773 6.23389 64.6833 6.18788C64.9364 6.16488 65.1894 6.11888 65.4425 6.09587C65.7645 6.04987 66.0865 5.98086 66.4086 5.98086C67.1907 5.98086 67.9728 6.02686 68.8009 6.09587Z" fill="#FBF8F3"/>
</g>
<defs>
<clipPath id="clip0_2752_2545">
<rect width="144" height="22.5431" fill="white"/>
</clipPath>
</defs>
</svg>
