<svg width="116" height="29" viewBox="0 0 116 29" fill="none" xmlns="http://www.w3.org/2000/svg">
<g clip-path="url(#clip0_3254_436)">
<path fill-rule="evenodd" clip-rule="evenodd" d="M29.435 3.79202L25.3083 5.89452L5.38095 16.0445C5.31357 15.5306 5.27966 15.0128 5.27945 14.4945C5.28218 12.4263 5.82516 10.3948 6.85461 8.60104C7.88409 6.80731 9.36432 5.31364 11.1486 4.268C12.933 3.22237 14.9595 2.66103 17.0276 2.6396C19.0956 2.61816 21.1334 3.13738 22.939 4.14582L25.3011 2.94232L25.6534 2.76252C23.4896 1.192 20.9337 0.250337 18.2682 0.0415845C15.6027 -0.167168 12.9314 0.365125 10.5495 1.57963C8.16756 2.79414 6.16787 4.64357 4.77133 6.92352C3.37479 9.20344 2.63582 11.8252 2.6361 14.4988C2.6361 14.8681 2.65011 15.2359 2.67815 15.6023C2.71741 16.1211 2.60234 16.6399 2.34743 17.0935C2.09252 17.5471 1.70914 17.9152 1.24555 18.1514L0 18.7865V21.7488L3.66705 19.8798L4.8546 19.2737L6.02475 18.6777L27.0324 7.97384L29.393 6.77177L34.2722 4.28502V1.32412L29.435 3.79202ZM34.2722 7.25015L7.2181 21.0251L4.8575 22.2301L0 24.7052V27.6647L4.82415 25.2069L8.95085 23.1044L28.8985 12.9399C28.9659 13.4573 28.9999 13.9784 29 14.5001C28.9987 16.5707 28.4559 18.6049 27.4254 20.4008C26.395 22.1967 24.9127 23.6918 23.1258 24.7378C21.3389 25.7838 19.3094 26.3442 17.239 26.3634C15.1685 26.3826 13.1291 25.86 11.3231 24.8473L11.1781 24.9242L8.61735 26.2292C10.7807 27.7998 13.336 28.7417 16.0011 28.951C18.6662 29.1602 21.3373 28.6287 23.7192 27.4149C26.101 26.2013 28.1011 24.3528 29.4982 22.0736C30.8954 19.7945 31.6352 17.1734 31.6361 14.5001C31.6361 14.1275 31.6216 13.7548 31.594 13.3865C31.5548 12.8679 31.6698 12.3492 31.9244 11.8957C32.1791 11.4422 32.562 11.074 33.0252 10.8374L34.2722 10.2023V7.25015ZM67.6743 17.1608C67.6743 12.3512 70.8846 9.30617 75.023 9.30617C79.6674 9.30617 82.3992 13.1632 82.0889 17.9772H70.4335C70.5176 21.2426 72.8828 22.8187 75.1071 22.8187C77.3604 22.8187 78.5987 21.8052 79.2454 20.3131H81.8917C81.216 22.9043 78.7959 25.072 75.1071 25.072C70.3204 25.072 67.6743 21.637 67.6743 17.1608ZM75.023 11.5015C72.7697 11.5015 70.6873 12.7354 70.4612 15.7804H79.3861C79.302 13.6417 77.7534 11.5015 75.023 11.5015ZM52.0907 12.9908L49.733 12.4557C47.8117 12.0323 46.398 11.1333 46.398 9.33097C46.398 7.05009 49.153 6.34684 50.7335 6.34684C52.7635 6.34684 55.1255 7.16319 55.8012 9.49917H58.5896C57.7718 5.58414 54.5296 3.92534 50.8466 3.92534C47.5522 3.92534 43.4704 5.58704 43.4704 9.49917C43.4704 12.8777 46.2573 14.4553 49.0732 15.0744L51.618 15.6095C54.1801 16.2011 56.01 17.045 56.01 19.2127C56.01 21.2427 54.2932 22.6478 51.2526 22.6478C48.0713 22.6478 46.1573 21.1833 45.6222 18.3688H42.8005C43.3356 22.4288 46.3762 25.0693 51.1902 25.0693C55.2502 25.0693 58.9608 22.9291 58.9608 18.959C58.9608 14.8497 55.2169 13.6665 52.0907 12.9908ZM61.9006 5.75483H64.4627V9.55528H67.3337V11.6114H64.4627V20.5927C64.4627 22.1688 64.5744 22.5632 66.0389 22.5632H67.3337V24.702H65.4763C62.5763 24.702 61.9006 24.0553 61.9006 20.9015V11.6114H59.5066V9.55528H61.9006V5.75483ZM115.23 9.47408C113.231 9.55818 111.711 10.4891 110.951 12.2044V9.55818H108.444V24.7049H111.006V16.7661C111.006 13.3876 112.189 12.1261 114.554 12.1261C115.035 12.1262 115.515 12.1641 115.99 12.2392V9.50163C115.738 9.47967 115.484 9.47046 115.23 9.47408ZM106.006 15.5019L105.978 18.9935C105.949 21.5513 106.062 23.2681 106.371 24.7079H103.782C103.672 24.0187 103.606 23.3233 103.584 22.6257C102.656 24.2048 101.108 25.0748 98.405 25.0748C95.5615 25.0748 93.1966 23.4972 93.1966 20.7103C93.1966 17.1288 97.2508 16.0659 103.444 15.3888V15.0234C103.444 12.2365 101.924 11.336 100.009 11.336C97.8699 11.336 96.6592 12.4627 96.5461 14.3477H93.8998C94.1246 11.0823 97.0536 9.25238 99.9811 9.25238C104.233 9.25238 106.035 11.1939 106.006 15.5019ZM98.9676 23.0477C101.362 23.0477 103.641 21.9486 103.641 18.3743V17.4159C98.9951 17.8668 96.04 18.5701 96.04 20.6537C96.04 22.0907 97.1377 23.0477 98.9676 23.0477ZM86.3736 4.28218H83.8114V24.7039H86.3736V4.28218ZM88.9343 4.28218H91.4965V24.7039H88.9343V4.28218Z" fill="#FBF8F3"/>
</g>
<defs>
<clipPath id="clip0_3254_436">
<rect width="116" height="29" fill="white"/>
</clipPath>
</defs>
</svg>
