<svg width="110" height="30" viewBox="0 0 110 30" fill="none" xmlns="http://www.w3.org/2000/svg">
<g clip-path="url(#clip0_2752_2510)">
<path d="M12.9681 29.1891C11.6368 29.1891 10.5533 28.128 10.5173 26.8053L3.61859 22.8225C3.25983 23.0169 2.8728 23.1125 2.48954 23.118L2.45163 23.1182C1.60529 23.1172 0.782491 22.6776 0.328881 21.8919C-0.336789 20.7389 0.0404492 19.27 1.16791 18.5776V10.6117C0.0404492 9.91929 -0.336789 8.45032 0.328881 7.29736C0.775722 6.52344 1.58081 6.08528 2.41376 6.07144L2.45163 6.07111C2.84725 6.07065 3.248 6.16605 3.61859 6.36674L10.5173 2.38391C10.5529 1.07472 11.6148 0.0217349 12.9276 0.000451028L12.9681 0.00012207C14.2995 0.00012207 15.383 1.06125 15.4189 2.38389L22.3175 6.36685C22.6763 6.17249 23.0634 6.07685 23.4468 6.07136L23.4847 6.07111C24.331 6.07208 25.1538 6.51171 25.6074 7.29736C26.2731 8.45032 25.8958 9.91929 24.7684 10.6117V18.5776C25.8958 19.27 26.2731 20.7389 25.6074 21.8919C25.1605 22.6659 24.3555 23.104 23.5225 23.1178L23.4847 23.1182C23.0891 23.1186 22.6883 23.0232 22.3177 22.8226L15.4189 26.8054C15.3834 28.1146 14.3214 29.1675 13.0087 29.1889L12.9681 29.1891ZM12.9681 3.61936L12.9999 3.61893C13.0025 3.61886 13.0052 3.61878 13.0078 3.61869L12.9999 3.61893C13.0105 3.61865 13.0211 3.61822 13.0316 3.61765L13.0078 3.61869C13.0194 3.61831 13.031 3.61775 13.0425 3.61703L13.0316 3.61765C13.0424 3.61708 13.0531 3.61635 13.0638 3.61549L13.0425 3.61703C13.053 3.61636 13.0634 3.61556 13.0739 3.61463L13.0638 3.61549C13.0733 3.61471 13.0827 3.61383 13.0922 3.61284L13.0739 3.61463C13.0854 3.61359 13.0969 3.61239 13.1083 3.61103L13.0922 3.61284C13.1028 3.61171 13.1134 3.61044 13.124 3.60903L13.1083 3.61103C13.118 3.60987 13.1277 3.60859 13.1373 3.6072L13.124 3.60903C13.136 3.60744 13.1478 3.60566 13.1597 3.6037L13.1373 3.6072C13.147 3.60579 13.1567 3.60425 13.1663 3.6026L13.1597 3.6037C13.1698 3.60204 13.1798 3.60024 13.1899 3.59832L13.1663 3.6026C13.177 3.60079 13.1875 3.59883 13.1981 3.59672L13.1899 3.59832C13.2027 3.59584 13.2155 3.59316 13.2283 3.59026L13.1981 3.59672C13.2223 3.59187 13.2464 3.58627 13.2701 3.57994C13.276 3.57837 13.282 3.57673 13.2879 3.57504L13.2701 3.57994C13.2798 3.57733 13.2896 3.57459 13.2993 3.57174L13.2879 3.57504C13.2966 3.57258 13.3052 3.57002 13.3139 3.56735L13.2993 3.57174C13.7828 3.429 14.1356 2.98164 14.1356 2.45186C14.1356 1.80707 13.6129 1.28436 12.9681 1.28436C12.3233 1.28436 11.8006 1.80707 11.8006 2.45186C11.8006 2.97587 12.1458 3.41925 12.6213 3.56697C12.6272 3.56885 12.6332 3.57065 12.6392 3.57241L12.6213 3.56697C12.6302 3.56973 12.6391 3.57239 12.6481 3.57494L12.6392 3.57241C12.6488 3.5752 12.6583 3.57788 12.668 3.58044L12.6481 3.57494C12.6584 3.57788 12.6688 3.58069 12.6793 3.58335L12.668 3.58044C12.6909 3.5865 12.7141 3.59189 12.7375 3.59656C12.7412 3.59731 12.7449 3.59804 12.7486 3.59875L12.7375 3.59656C12.7483 3.59874 12.7592 3.60076 12.7702 3.60263L12.7486 3.59875C12.7576 3.60046 12.7666 3.60206 12.7757 3.60356L12.7702 3.60263C12.78 3.6043 12.7898 3.60585 12.7997 3.60727L12.7757 3.60356C12.7877 3.60556 12.7998 3.60737 12.8119 3.609L12.7997 3.60727C12.809 3.60863 12.8185 3.60988 12.8279 3.61101L12.8119 3.609C12.8227 3.61043 12.8334 3.61171 12.8442 3.61285L12.8279 3.61101C12.8394 3.61238 12.8508 3.61359 12.8623 3.61462L12.8442 3.61285C12.8536 3.61385 12.863 3.61473 12.8725 3.6155L12.8623 3.61462C12.8728 3.61556 12.8833 3.61636 12.8938 3.61702L12.8725 3.6155C12.8832 3.61636 12.8939 3.61708 12.9046 3.61766L12.8938 3.61702C12.9053 3.61775 12.9168 3.6183 12.9284 3.61869L12.9046 3.61766C12.9257 3.61879 12.9469 3.61936 12.9681 3.61936ZM16.7634 11.632L21.1066 9.12444C21.1035 9.11222 21.1005 9.1 21.0976 9.08778C21.0967 9.08404 21.0958 9.08024 21.0949 9.07637C21.093 9.06795 21.0911 9.0596 21.0892 9.05125C21.0879 9.04514 21.0865 9.03896 21.0852 9.03285C21.0837 9.02565 21.0822 9.01845 21.0807 9.01132C21.0793 9.00372 21.0777 8.99611 21.0763 8.98851C21.0721 8.96678 21.0681 8.94498 21.0645 8.92319C21.0636 8.91762 21.0628 8.91205 21.0619 8.90648C21.0535 8.85311 21.0468 8.79974 21.042 8.7463C21.0414 8.74026 21.0409 8.73428 21.0404 8.72831C21.0385 8.7057 21.037 8.68302 21.0357 8.66041C21.0356 8.65851 21.0355 8.65654 21.0354 8.65464L21.0357 8.66041C21.035 8.64873 21.0345 8.63712 21.034 8.62544C21.0337 8.61838 21.0335 8.61132 21.0332 8.60425C21.033 8.59645 21.0327 8.58871 21.0326 8.58096C21.0325 8.57506 21.0323 8.56915 21.0323 8.56324C21.0322 8.55733 21.0321 8.5515 21.0321 8.54559C21.032 8.54022 21.032 8.53486 21.032 8.5295L21.0321 8.54559C21.031 8.41501 21.0403 8.28485 21.0599 8.15651C21.0631 8.13519 21.0666 8.11387 21.0704 8.09262C21.0721 8.08332 21.0738 8.07408 21.0756 8.06485C21.0793 8.04529 21.0833 8.02567 21.0875 8.00618C21.089 7.99912 21.0906 7.99213 21.0922 7.98506C21.0933 7.97997 21.0945 7.97495 21.0956 7.96992C21.0967 7.96517 21.0979 7.96048 21.0989 7.95573C21.1011 7.94663 21.1033 7.93767 21.1055 7.92871C21.1123 7.90195 21.1194 7.87534 21.127 7.84879C21.1324 7.82971 21.1381 7.81076 21.144 7.79182C21.146 7.78537 21.148 7.77899 21.1501 7.77267C21.1518 7.76744 21.1535 7.76215 21.1552 7.75692C21.1572 7.75087 21.1592 7.74476 21.1613 7.73872C21.1641 7.73043 21.1669 7.72222 21.1698 7.714C21.1711 7.70993 21.1726 7.70592 21.174 7.70192C21.1768 7.69384 21.1797 7.68589 21.1827 7.67788C21.1833 7.67618 21.1839 7.67448 21.1846 7.67272C21.1884 7.6624 21.1922 7.65221 21.1961 7.64203C21.2053 7.61806 21.2149 7.59423 21.2249 7.57053C21.2328 7.55165 21.2411 7.53284 21.2495 7.5141C21.2523 7.50779 21.2553 7.50141 21.2582 7.49509C21.2601 7.49102 21.2619 7.48694 21.2638 7.48294C21.2678 7.47438 21.2718 7.46583 21.276 7.45734C21.2788 7.45136 21.2817 7.44545 21.2846 7.43961C21.2872 7.43418 21.2899 7.42882 21.2926 7.42345C21.2961 7.41646 21.2996 7.40947 21.3032 7.40254C21.3054 7.39826 21.3077 7.39385 21.3099 7.3895C21.3137 7.38231 21.3175 7.37518 21.3212 7.36805C21.3234 7.36404 21.3255 7.36004 21.3276 7.35603C21.3383 7.33634 21.3492 7.31671 21.3605 7.29723L15.0918 3.67792C15.0905 3.68007 15.0893 3.68221 15.0881 3.68435C15.0764 3.70423 15.0646 3.72389 15.0525 3.74338C15.0504 3.74669 15.0484 3.75 15.0463 3.75331C15.0417 3.76064 15.0371 3.76797 15.0324 3.77528C15.0293 3.78003 15.0263 3.78471 15.0233 3.78938C15.0195 3.79521 15.0156 3.80109 15.0117 3.80695C15.0081 3.81227 15.0046 3.81754 15.0011 3.8228C14.9988 3.82623 14.9964 3.82968 14.9941 3.83312C14.9561 3.88872 14.9159 3.94266 14.8736 3.99482C14.8613 4.01004 14.8487 4.02514 14.836 4.04007C14.8242 4.05395 14.8122 4.0677 14.8001 4.08132C14.7943 4.08778 14.7885 4.0942 14.7828 4.10059C14.7795 4.10415 14.7763 4.10772 14.773 4.11129C14.7696 4.11495 14.7663 4.11858 14.7629 4.12221C14.7489 4.13725 14.7346 4.15212 14.7202 4.16682C14.6751 4.21296 14.6281 4.25736 14.5794 4.29987L14.575 4.30366C14.5593 4.31729 14.5435 4.33072 14.5275 4.34394C14.5248 4.34609 14.5223 4.3482 14.5197 4.35029C14.5137 4.35518 14.5077 4.36009 14.5016 4.36496C14.4962 4.36935 14.4907 4.37371 14.4852 4.37803C14.4822 4.38041 14.4791 4.38278 14.4761 4.38513C14.4563 4.40059 14.4363 4.41575 14.416 4.4306C14.4148 4.43152 14.4137 4.43237 14.4124 4.43323C14.4063 4.4377 14.4002 4.44217 14.394 4.44662C14.3792 4.4572 14.3643 4.46762 14.3493 4.47787L14.343 4.48213C14.3009 4.51068 14.2579 4.53795 14.214 4.5639C14.2098 4.56642 14.2055 4.56894 14.2012 4.57144C14.1833 4.58184 14.1653 4.59203 14.1472 4.60199C14.1399 4.60601 14.1326 4.60997 14.1253 4.61389C14.121 4.61621 14.1167 4.61851 14.1123 4.6208C14.1074 4.62344 14.1023 4.62606 14.0973 4.62867C14.0888 4.63313 14.0801 4.63753 14.0715 4.64188C14.068 4.64363 14.0646 4.64539 14.0611 4.64714C14.0412 4.65703 14.0213 4.66663 14.0012 4.67597C13.9966 4.67812 13.9919 4.68027 13.9873 4.6824C13.9667 4.69183 13.946 4.70095 13.9251 4.7098C13.9046 4.71852 13.8839 4.72697 13.8631 4.73515C13.8439 4.74265 13.8247 4.74991 13.8053 4.75695C13.8007 4.75863 13.7961 4.76029 13.7915 4.76194C13.7825 4.76514 13.7734 4.7683 13.7644 4.77141C13.7621 4.77218 13.76 4.77293 13.7577 4.77368C13.7478 4.77704 13.7378 4.78038 13.7278 4.78364C13.7241 4.78487 13.7203 4.78608 13.7165 4.78729C13.7064 4.79052 13.6963 4.79369 13.6862 4.79679C13.6839 4.7975 13.6816 4.7982 13.6792 4.79889C13.6708 4.80143 13.6624 4.80393 13.654 4.80638C13.6467 4.80849 13.6395 4.81056 13.6323 4.8126C13.6304 4.81311 13.6286 4.81362 13.6268 4.81413L13.6268 9.53579C14.9682 9.7016 16.1202 10.5008 16.7634 11.632ZM9.39617 11.7315C9.99635 10.6044 11.0816 9.8061 12.3426 9.57361V4.82308C12.3285 4.81937 12.3144 4.81552 12.3004 4.81157C12.2942 4.80981 12.288 4.80804 12.2818 4.80625C12.2345 4.79248 12.1877 4.7773 12.1416 4.76078C12.1375 4.75932 12.1334 4.75784 12.1293 4.75636C12.1203 4.75306 12.1113 4.74973 12.1023 4.74635C12.0992 4.74515 12.096 4.74394 12.0928 4.74273C12.0842 4.73946 12.0758 4.73615 12.0673 4.7328C12.0629 4.73108 12.0586 4.72935 12.0542 4.72761C12.0445 4.7237 12.0349 4.71974 12.0252 4.71572C12.0225 4.71459 12.0198 4.71346 12.0171 4.71232C11.9956 4.70325 11.9742 4.69391 11.9531 4.68426C11.9473 4.68164 11.9416 4.679 11.9359 4.67633C11.9188 4.66843 11.9019 4.66033 11.8851 4.65203C11.8746 4.64688 11.8642 4.64166 11.8539 4.63637C11.8477 4.63323 11.8416 4.63003 11.8354 4.62681C11.8328 4.62546 11.8303 4.62412 11.8277 4.62277C11.818 4.61765 11.8082 4.61245 11.7986 4.60718C11.7951 4.6053 11.7916 4.60339 11.7881 4.60148C11.7822 4.59821 11.7763 4.59494 11.7704 4.59164C11.7517 4.58114 11.7332 4.57042 11.7148 4.55946C11.7108 4.55708 11.7068 4.5547 11.7028 4.55231C11.6952 4.5477 11.6876 4.54304 11.68 4.53833C11.6753 4.53541 11.6705 4.53246 11.6658 4.52949C11.6611 4.52654 11.6564 4.52356 11.6517 4.52056C11.6463 4.51709 11.6408 4.51363 11.6355 4.51015C11.6183 4.49896 11.6011 4.48755 11.5842 4.47592C11.5782 4.47184 11.5723 4.46774 11.5664 4.46361C11.5361 4.44244 11.5063 4.42062 11.477 4.39815C11.4713 4.39382 11.4657 4.38944 11.46 4.38504L11.4555 4.38147C11.4317 4.36281 11.4083 4.34371 11.3853 4.3242C11.3795 4.31938 11.3739 4.31454 11.3682 4.30969C11.3624 4.30462 11.3565 4.29954 11.3507 4.29443C11.3467 4.29094 11.3427 4.2874 11.3388 4.28386C11.3355 4.28096 11.3323 4.27809 11.3291 4.27522C11.2829 4.23364 11.2382 4.19032 11.1953 4.14537C11.1913 4.14126 11.1874 4.13711 11.1835 4.13295C11.1658 4.11418 11.1484 4.09513 11.1313 4.07582L11.1302 4.0746C11.1002 4.04058 11.0711 4.0057 11.0429 3.97003C11.0386 3.96468 11.0344 3.9593 11.0302 3.9539C11.0263 3.94889 11.0225 3.94388 11.0187 3.93885C11.0146 3.93357 11.0106 3.92827 11.0066 3.92294C11.0037 3.91898 11.0007 3.91505 10.9978 3.9111C10.9925 3.90408 10.9873 3.89697 10.9821 3.88983C10.979 3.88546 10.9759 3.88111 10.9728 3.87674C10.9687 3.87108 10.9646 3.86541 10.9607 3.85972C10.9572 3.85483 10.9538 3.84988 10.9504 3.84491C10.9458 3.83839 10.9414 3.83188 10.9369 3.82535C10.9339 3.82079 10.9308 3.8162 10.9277 3.81159C10.9014 3.77228 10.8763 3.73217 10.8523 3.69131L10.8446 3.67792L4.57577 7.29716C4.58902 7.32018 4.60163 7.34292 4.61387 7.36581C4.61808 7.37368 4.62223 7.38156 4.62635 7.3895C4.62944 7.39541 4.6325 7.40139 4.63553 7.40729C4.63731 7.41083 4.63908 7.41429 4.64085 7.41782C4.65172 7.43934 4.66227 7.46107 4.67249 7.483C4.67439 7.48701 4.67625 7.49102 4.67811 7.49509C4.68171 7.5029 4.68527 7.51071 4.68879 7.51858C4.69044 7.52225 4.69207 7.52592 4.6937 7.52958C4.69731 7.53773 4.70087 7.54595 4.70439 7.5541C4.71911 7.58845 4.73304 7.62302 4.74617 7.65785C4.75874 7.69126 4.77059 7.72494 4.7817 7.75882C4.78307 7.76296 4.78444 7.76717 4.7858 7.77145C4.80234 7.82278 4.81717 7.87466 4.83029 7.92701C4.83179 7.93298 4.83326 7.93889 4.83471 7.94487C4.83965 7.96524 4.84433 7.98561 4.84875 8.00611C4.84983 8.01107 4.85088 8.01603 4.85191 8.02092C4.85391 8.03049 4.85586 8.04006 4.85775 8.04964C4.85862 8.05405 4.85948 8.05847 4.86033 8.06288C4.8671 8.09819 4.87309 8.13363 4.87831 8.16928C4.88016 8.18191 4.88192 8.19461 4.88358 8.2073C4.8858 8.22421 4.88783 8.24119 4.88969 8.25816C4.89359 8.29374 4.89672 8.32946 4.89906 8.36524C4.89953 8.37237 4.89996 8.37943 4.90036 8.38649C4.90067 8.39199 4.90097 8.39743 4.90124 8.40293C4.90239 8.42595 4.90323 8.44903 4.90373 8.47219C4.90426 8.4967 4.90443 8.52114 4.90422 8.54566C4.90418 8.5515 4.90411 8.5574 4.90401 8.56331C4.90395 8.56772 4.90387 8.572 4.90378 8.57635C4.90329 8.59977 4.90247 8.62333 4.9013 8.64683C4.90088 8.65518 4.90043 8.6636 4.89993 8.67195C4.89958 8.67766 4.89922 8.68336 4.89884 8.68906C4.89853 8.69368 4.89821 8.6983 4.89787 8.70291C4.89591 8.72994 4.89349 8.75696 4.89062 8.78399C4.8847 8.8396 4.87685 8.89514 4.86705 8.95062C4.86609 8.95598 4.86512 8.96135 4.86414 8.96671C4.86288 8.97357 4.8616 8.98036 4.86028 8.98722C4.85636 9.00752 4.85218 9.02789 4.84772 9.04812C4.84402 9.06503 4.84013 9.08194 4.83605 9.09878L9.39617 11.7315ZM24.0679 9.53436C24.6263 9.21197 24.8176 8.49792 24.4952 7.9395C24.1728 7.38108 23.4588 7.18981 22.9004 7.5122C22.4602 7.76629 22.2481 8.2638 22.336 8.73652C22.3367 8.74114 22.3377 8.74576 22.3386 8.75038L22.336 8.73652C22.3376 8.74528 22.3393 8.75404 22.3411 8.7628L22.3386 8.75038C22.3408 8.76158 22.3432 8.77278 22.3457 8.78399L22.3411 8.7628C22.3436 8.77455 22.3463 8.7863 22.3491 8.79804L22.3457 8.78399C22.3479 8.79322 22.3501 8.80239 22.3525 8.81162L22.3491 8.79804C22.3515 8.80809 22.3541 8.81807 22.3568 8.82806L22.3525 8.81162C22.3553 8.82256 22.3582 8.83342 22.3614 8.84428L22.3568 8.82806C22.3593 8.83736 22.362 8.84666 22.3648 8.85596L22.3614 8.84428C22.3712 8.87864 22.3827 8.91266 22.3958 8.94627C22.3976 8.95103 22.3995 8.95571 22.4014 8.96046L22.3958 8.94627C22.3999 8.95693 22.4043 8.96752 22.4088 8.97805L22.4014 8.96046C22.4054 8.97011 22.4094 8.97975 22.4136 8.98939L22.4088 8.97805C22.4125 8.98694 22.4164 8.99577 22.4204 9.0046L22.4136 8.98939C22.4186 9.0008 22.4238 9.01214 22.4291 9.02348L22.4204 9.0046C22.4247 9.01404 22.4291 9.02341 22.4336 9.03278L22.4291 9.02348C22.4336 9.03278 22.4382 9.04208 22.4428 9.05131L22.4336 9.03278C22.4392 9.04418 22.445 9.05559 22.4509 9.06686L22.4428 9.05131C22.4496 9.06462 22.4566 9.0778 22.4639 9.0909L22.4731 9.10699C22.489 9.1347 22.506 9.16152 22.5239 9.18752C22.5265 9.19126 22.5291 9.19492 22.5317 9.19852L22.5239 9.18752C22.5365 9.20565 22.5495 9.22338 22.5628 9.24062C22.5652 9.24368 22.5675 9.24667 22.5699 9.24959L22.5628 9.24062C22.5683 9.24762 22.5738 9.25461 22.5795 9.26147L22.5699 9.24959C22.5774 9.25916 22.5852 9.26853 22.593 9.27776L22.5795 9.26147C22.5858 9.26928 22.5922 9.27695 22.5987 9.28455L22.593 9.27776C22.5988 9.28476 22.6047 9.29162 22.6108 9.29841L22.5987 9.28455C22.6144 9.30282 22.6305 9.32054 22.6472 9.33765C22.6592 9.35001 22.6715 9.3621 22.684 9.37384C22.6955 9.38471 22.7073 9.39537 22.7192 9.40576C22.7257 9.41133 22.7322 9.41683 22.7387 9.42219L22.7192 9.40576C22.7269 9.41248 22.7347 9.419 22.7426 9.42545L22.7387 9.42219C23.1039 9.72496 23.633 9.78539 24.0679 9.53436ZM3.26146 9.36515L3.27087 9.35599C3.28278 9.34431 3.29446 9.33229 3.3059 9.32C3.30751 9.31823 3.30905 9.3166 3.31058 9.31491L3.3059 9.32C3.31308 9.31226 3.32016 9.30445 3.32715 9.2965L3.31058 9.31491C3.3182 9.30662 3.32573 9.2982 3.33313 9.28971L3.32715 9.2965C3.33441 9.28829 3.34156 9.27994 3.3486 9.27152L3.33313 9.28971C3.33948 9.28238 3.34573 9.27498 3.35191 9.26751L3.3486 9.27152C3.35456 9.26432 3.36044 9.25712 3.36624 9.24979L3.35191 9.26751C3.36006 9.25767 3.36806 9.24762 3.37592 9.23743L3.36624 9.24979C3.37282 9.24151 3.37931 9.23309 3.3857 9.22453L3.37592 9.23743C3.38183 9.22976 3.38765 9.22202 3.3934 9.21414L3.3857 9.22453C3.39189 9.21625 3.39799 9.2079 3.40397 9.19948L3.3934 9.21414C3.39991 9.20525 3.40631 9.19628 3.4126 9.18712L3.40397 9.19948C3.425 9.1698 3.44478 9.13898 3.46324 9.10699C3.46632 9.1017 3.46936 9.09633 3.47235 9.09097L3.46324 9.10699C3.47696 9.08323 3.48975 9.05919 3.50162 9.03488C3.50452 9.02898 3.50737 9.023 3.51017 9.01702L3.50162 9.03488C3.50499 9.02802 3.50828 9.0211 3.51151 9.01417L3.51017 9.01702C3.51476 9.00725 3.5192 8.9974 3.52349 8.98749C3.52476 8.98464 3.52601 8.98172 3.52726 8.9788L3.52349 8.98749C3.54229 8.94423 3.55832 8.90023 3.57161 8.85569C3.57243 8.85291 3.57324 8.85019 3.57403 8.84741L3.57161 8.85569C3.57461 8.84557 3.57748 8.83553 3.5802 8.82534L3.57403 8.84741C3.57716 8.83661 3.58012 8.82582 3.58291 8.81502L3.5802 8.82534C3.58279 8.81577 3.58525 8.80612 3.58759 8.79641L3.58291 8.81502C3.58854 8.79329 3.5935 8.77149 3.59783 8.74963C3.59848 8.74657 3.59906 8.74359 3.59964 8.74053L3.59783 8.74963C3.69204 8.27296 3.48012 7.76866 3.0359 7.5122C2.4775 7.18981 1.76347 7.38108 1.44107 7.9395C1.11868 8.49792 1.31 9.21197 1.86841 9.53436C2.32931 9.80047 2.89624 9.71654 3.26146 9.36515ZM4.16158 18.9076L6.94283 17.3018C6.46993 16.7196 6.18652 15.9773 6.18652 15.1687C6.18652 13.9519 6.82835 12.8851 7.792 12.2883L4.21804 10.2248C4.20356 10.2399 4.18891 10.2548 4.17408 10.2694C4.14845 10.2947 4.12234 10.3194 4.09577 10.3433C3.98792 10.4408 3.87244 10.5276 3.75096 10.6033C3.70364 10.6328 3.65543 10.6606 3.60641 10.6866L3.6049 10.6875C3.58263 10.6993 3.56019 10.7108 3.5376 10.7219C3.50509 10.7379 3.4723 10.7532 3.43921 10.7677C3.42809 10.7726 3.41694 10.7774 3.40577 10.7821C3.38044 10.7928 3.35492 10.803 3.32924 10.8128C3.31276 10.8191 3.29626 10.8252 3.27971 10.8311C3.24869 10.8423 3.21745 10.8527 3.18603 10.8626C3.16684 10.8686 3.14761 10.8744 3.1283 10.8799C3.09435 10.8897 3.06018 10.8986 3.02584 10.9069C3.00542 10.9119 2.98492 10.9165 2.96435 10.9209C2.94466 10.9251 2.9249 10.9291 2.9051 10.9329C2.90108 10.9336 2.89713 10.9343 2.89316 10.935C2.87823 10.9378 2.86322 10.9404 2.84818 10.9429C2.82829 10.9462 2.80841 10.9491 2.78848 10.9519C2.78634 10.9522 2.78425 10.9525 2.78214 10.9528C2.77801 10.9534 2.77382 10.9539 2.76963 10.9544C2.74634 10.9576 2.72302 10.9603 2.69966 10.9627C2.6771 10.965 2.65456 10.9669 2.63198 10.9686C2.62673 10.969 2.62147 10.9694 2.61622 10.9697C2.5933 10.9713 2.57034 10.9726 2.54735 10.9735C2.54268 10.9737 2.53802 10.9738 2.53337 10.974C2.5191 10.9745 2.50483 10.9748 2.49056 10.9751L2.45268 10.9754L2.45215 18.2139C2.52796 18.214 2.60412 18.2176 2.6793 18.2247C2.69274 18.2259 2.70614 18.2273 2.71953 18.2288C2.75018 18.2321 2.78078 18.2361 2.81129 18.2406C2.83259 18.2438 2.85382 18.2473 2.875 18.251C2.90335 18.256 2.93157 18.2614 2.9597 18.2674C2.98227 18.2721 3.00474 18.2772 3.02712 18.2827L3.06762 18.2928C3.14339 18.3125 3.21822 18.3357 3.29184 18.3625C3.30889 18.3687 3.32582 18.3751 3.34268 18.3817C3.37783 18.3953 3.41239 18.4097 3.44662 18.4249C3.45246 18.4274 3.45835 18.4301 3.46423 18.4327C3.47833 18.4391 3.49232 18.4456 3.50625 18.4522C3.53267 18.4648 3.55888 18.4778 3.58487 18.4913C3.65743 18.529 3.72824 18.5704 3.79702 18.6154C3.81439 18.6268 3.83163 18.6384 3.84873 18.6502C3.85571 18.6551 3.86269 18.6599 3.86965 18.6649C3.89125 18.6802 3.9126 18.6958 3.93372 18.7118C4.01316 18.772 4.08928 18.8373 4.16158 18.9076ZM21.7939 18.8894L21.807 18.8768C21.8494 18.837 21.893 18.7989 21.9379 18.7625C22.0171 18.6982 22.0999 18.6393 22.1856 18.5858L22.1869 18.585C22.2056 18.5734 22.2245 18.562 22.2434 18.5509C22.2479 18.5483 22.2524 18.5457 22.2569 18.5431L22.2434 18.5509C22.2801 18.5295 22.3172 18.509 22.3548 18.4895C22.4086 18.4617 22.4632 18.436 22.5186 18.4123C22.6017 18.3768 22.6866 18.3458 22.773 18.3197C22.779 18.3179 22.7849 18.3161 22.7908 18.3144C22.8101 18.3087 22.8295 18.3032 22.849 18.298C22.8807 18.2895 22.9127 18.2816 22.9448 18.2743C22.9523 18.2726 22.9599 18.271 22.9675 18.2694C22.989 18.2647 23.0106 18.2603 23.0323 18.2563C23.0342 18.2559 23.0361 18.2555 23.038 18.2552C23.0489 18.2532 23.0597 18.2512 23.0706 18.2494L23.038 18.2552C23.0546 18.2521 23.0713 18.2492 23.088 18.2465C23.11 18.2428 23.132 18.2396 23.1541 18.2365C23.1776 18.2333 23.2011 18.2305 23.2247 18.2279C23.2287 18.2275 23.2329 18.2271 23.2369 18.2266C23.259 18.2243 23.2811 18.2224 23.3032 18.2207C23.3088 18.2203 23.3144 18.2199 23.32 18.2195C23.342 18.218 23.3639 18.2169 23.3859 18.2159C23.3916 18.2157 23.3973 18.2155 23.403 18.2153C23.4056 18.2152 23.4081 18.2152 23.4106 18.215C23.4351 18.2143 23.4596 18.2139 23.484 18.2139V10.9754C23.4389 10.9754 23.3934 10.9741 23.3484 10.9715C23.3297 10.9705 23.311 10.9692 23.2923 10.9677C23.2671 10.9657 23.2419 10.9633 23.2168 10.9606C23.1906 10.9576 23.1644 10.9543 23.1383 10.9506C23.1206 10.9481 23.1029 10.9453 23.0853 10.9424C23.0641 10.9389 23.0428 10.9351 23.0217 10.931C23.0014 10.9271 22.9812 10.9229 22.9611 10.9186C22.9033 10.906 22.846 10.8912 22.7893 10.8745C22.7234 10.855 22.6586 10.8329 22.5949 10.8081C22.5719 10.7992 22.549 10.7899 22.5264 10.7803C22.5192 10.7773 22.5119 10.7742 22.5047 10.771C22.4744 10.7579 22.4444 10.7441 22.4147 10.7298C22.3993 10.7222 22.3838 10.7146 22.3684 10.7067C22.3206 10.6824 22.2736 10.6564 22.2273 10.6289C22.2133 10.6205 22.1994 10.612 22.1854 10.6033L22.1504 10.5811C22.1387 10.5735 22.127 10.5658 22.1155 10.5581C21.9801 10.4672 21.8531 10.3622 21.7365 10.2437L17.312 12.798C18.7208 12.975 19.8139 14.166 19.8375 15.6171L19.8378 15.6649C19.8378 16.3241 19.6171 16.9318 19.2454 17.418L21.7939 18.8894ZM12.8171 17.2702H16.9483C17.8349 17.2702 18.5536 16.5515 18.5536 15.6649C18.5536 14.7784 17.8349 14.0596 16.9483 14.0596L16.0638 14.0596L16.0163 13.469C15.895 11.9603 14.6307 10.7881 13.1071 10.7881C11.89 10.7881 10.8138 11.5398 10.3829 12.6563L10.2244 13.0673H9.57224C8.41167 13.0673 7.47076 14.0081 7.47076 15.1687C7.47076 16.3294 8.41167 17.2702 9.57224 17.2702H12.711C12.7253 17.2702 12.7393 17.2701 12.7529 17.2698L12.7667 17.2695L12.7988 17.2701L12.8171 17.2702ZM10.8446 25.5113L10.8515 25.4993C10.8617 25.4819 10.8721 25.4648 10.8827 25.4477C10.8859 25.4424 10.8892 25.4371 10.8925 25.4319C10.8955 25.4272 10.8984 25.4225 10.9014 25.4178C10.9051 25.4121 10.9087 25.4065 10.9124 25.4009C10.944 25.3525 10.9772 25.3052 11.0119 25.2592C11.0291 25.2366 11.0465 25.2144 11.0643 25.1925C11.0931 25.157 11.1228 25.1224 11.1535 25.0887C11.1564 25.0856 11.1592 25.0825 11.162 25.0794C11.1676 25.0732 11.1733 25.0671 11.1791 25.061C11.1822 25.0577 11.1852 25.0545 11.1882 25.0513C11.1941 25.0451 11.2 25.0389 11.206 25.0327C11.2585 24.9785 11.3135 24.9267 11.3708 24.8774C11.3965 24.8553 11.4227 24.8337 11.4494 24.8126C11.4529 24.8098 11.4565 24.807 11.4601 24.8042C11.4664 24.7993 11.4728 24.7943 11.4792 24.7894C11.4849 24.7851 11.4906 24.7807 11.4964 24.7764C11.5002 24.7736 11.504 24.7708 11.5078 24.7679C11.5246 24.7553 11.5416 24.743 11.5588 24.731C11.5635 24.7277 11.5682 24.7244 11.5729 24.7212C11.5893 24.7098 11.6059 24.6985 11.6227 24.6875C11.63 24.6827 11.6373 24.6779 11.6447 24.6732C11.6655 24.6599 11.6864 24.6468 11.7076 24.6341C11.7123 24.6313 11.717 24.6285 11.7218 24.6257C11.7392 24.6153 11.7568 24.6053 11.7745 24.5954C11.7794 24.5926 11.7842 24.59 11.7891 24.5873C11.7951 24.584 11.8012 24.5807 11.8072 24.5774C11.8262 24.5672 11.8454 24.5572 11.8648 24.5474C11.8678 24.5459 11.8708 24.5444 11.8739 24.5428C11.8813 24.5391 11.8887 24.5355 11.8962 24.5319C11.9015 24.5292 11.9069 24.5266 11.9122 24.5241C11.9302 24.5155 11.9483 24.5071 11.9665 24.4989C11.9846 24.4909 12.0027 24.4831 12.0209 24.4754C12.0419 24.4666 12.0632 24.458 12.0846 24.4497C12.1085 24.4405 12.1325 24.4317 12.1568 24.4231C12.1602 24.4219 12.1635 24.4208 12.1668 24.4196C12.1874 24.4125 12.2081 24.4057 12.2289 24.3991C12.2338 24.3976 12.2385 24.3961 12.2433 24.3946C12.2499 24.3925 12.2567 24.3905 12.2635 24.3885C12.2697 24.3866 12.2758 24.3848 12.2819 24.383C12.2892 24.3809 12.2966 24.3788 12.304 24.3767C12.3074 24.3758 12.3108 24.3748 12.3141 24.3739C12.3205 24.3721 12.3269 24.3704 12.3334 24.3686L12.3427 24.3663V18.5545L9.57224 18.5545C9.00709 18.5545 8.47427 18.416 8.00589 18.1711L4.81591 20.0129C4.82232 20.036 4.82837 20.0592 4.83406 20.0824C4.83909 20.1028 4.84385 20.1234 4.84834 20.144C4.85254 20.1632 4.85648 20.1824 4.8602 20.2017C4.86162 20.209 4.86299 20.2163 4.86433 20.2236C4.86566 20.2309 4.86697 20.2382 4.86825 20.2456C4.87743 20.2984 4.88483 20.3512 4.89049 20.4042C4.89152 20.4138 4.89249 20.4235 4.89341 20.4331C4.89509 20.4509 4.89657 20.4685 4.89786 20.4863C4.8983 20.4923 4.89872 20.4983 4.89911 20.5043C4.89964 20.5125 4.90014 20.5207 4.90059 20.5288C4.9009 20.5345 4.90119 20.5401 4.90146 20.5457C4.90258 20.5688 4.90336 20.5919 4.90382 20.615C4.90396 20.6217 4.90406 20.6285 4.90414 20.6352C4.9042 20.6404 4.90425 20.6456 4.90427 20.6508L4.90414 20.6352C4.90451 20.6667 4.90427 20.6981 4.90342 20.7295C4.90289 20.7492 4.90213 20.769 4.90112 20.7888C4.90082 20.7946 4.9005 20.8005 4.90016 20.8063C4.89982 20.8123 4.89945 20.8181 4.89906 20.824C4.89591 20.8721 4.89134 20.9201 4.88538 20.968C4.88366 20.9817 4.88182 20.9955 4.87986 21.0092C4.87875 21.0171 4.87759 21.025 4.8764 21.0328L4.87986 21.0092C4.87421 21.0491 4.86758 21.0887 4.85999 21.1282C4.85913 21.1327 4.85824 21.1372 4.85735 21.1416C4.85009 21.1783 4.84199 21.2148 4.83307 21.2511C4.82682 21.2765 4.82017 21.3018 4.81312 21.3271C4.81177 21.3318 4.81041 21.3367 4.80905 21.3414C4.80808 21.3448 4.80708 21.3483 4.80607 21.3517L4.80905 21.3414C4.8013 21.3684 4.7931 21.3953 4.78444 21.4221C4.78323 21.4258 4.78201 21.4295 4.78077 21.4333C4.7781 21.4414 4.77538 21.4496 4.77262 21.4577C4.77144 21.4611 4.77026 21.4645 4.76908 21.468C4.76137 21.4902 4.75335 21.5124 4.745 21.5345C4.73019 21.5737 4.71438 21.6125 4.69759 21.6509C4.68538 21.6787 4.67264 21.7064 4.65938 21.7339C4.65618 21.7405 4.65292 21.7472 4.64962 21.7539C4.64699 21.7592 4.64437 21.7645 4.64171 21.7698C4.63834 21.7765 4.63489 21.7832 4.63142 21.79C4.62925 21.7942 4.62708 21.7984 4.62489 21.8026C4.62113 21.8098 4.61734 21.817 4.61351 21.8242C4.60141 21.8468 4.58891 21.8693 4.57605 21.8917L10.8446 25.5113ZM15.0917 25.5113L21.3605 21.8922C21.3502 21.8744 21.3403 21.8565 21.3305 21.8385C21.3279 21.8337 21.3253 21.8289 21.3227 21.8241C21.3189 21.817 21.3151 21.8098 21.3114 21.8026C21.3092 21.7984 21.307 21.7942 21.3049 21.79C21.301 21.7824 21.2971 21.7748 21.2932 21.7671C21.2913 21.7632 21.2893 21.7593 21.2874 21.7554C21.2836 21.7477 21.2798 21.7401 21.2762 21.7324C21.2733 21.7265 21.2705 21.7206 21.2677 21.7147C21.2666 21.7123 21.2654 21.7098 21.2644 21.7075L21.2677 21.7147C21.2623 21.7033 21.257 21.6918 21.2519 21.6804C21.2433 21.6615 21.2349 21.6424 21.2268 21.6232L21.2259 21.621C21.2046 21.5706 21.185 21.5196 21.1672 21.468C21.166 21.4645 21.1648 21.4611 21.1637 21.4577C21.1609 21.4496 21.1582 21.4414 21.1555 21.4333C21.1543 21.4295 21.1531 21.4258 21.1518 21.4221C21.1494 21.4145 21.147 21.4068 21.1446 21.3992C21.1385 21.38 21.1328 21.3607 21.1272 21.3413C21.1258 21.3367 21.1245 21.3318 21.1232 21.3271C21.1161 21.3018 21.1095 21.2765 21.1032 21.2511C21.0975 21.228 21.0922 21.2049 21.0872 21.1816C21.086 21.1762 21.0849 21.1708 21.0837 21.1653C21.0793 21.1437 21.075 21.1222 21.0712 21.1006C21.0681 21.0835 21.0651 21.0661 21.0623 21.0488L21.0614 21.0428C21.0421 20.9194 21.0322 20.7943 21.032 20.6687C21.032 20.6628 21.032 20.6568 21.032 20.6508C21.0321 20.6456 21.0321 20.6404 21.0321 20.6352L21.032 20.6508C21.0321 20.6388 21.0322 20.627 21.0325 20.615C21.0327 20.6054 21.0329 20.5959 21.0332 20.5863C21.0334 20.5802 21.0336 20.5741 21.0338 20.5681C21.0341 20.5606 21.0344 20.5531 21.0348 20.5457C21.035 20.5409 21.0353 20.536 21.0356 20.5311C21.0367 20.51 21.0381 20.489 21.0398 20.4679C21.0405 20.4601 21.0411 20.4524 21.0418 20.4446C21.0467 20.3907 21.0533 20.3367 21.0619 20.2828C21.0625 20.2788 21.0631 20.2748 21.0638 20.2709C21.0677 20.2466 21.0721 20.2224 21.0767 20.1982C21.0776 20.1939 21.0784 20.1896 21.0793 20.1853C21.0812 20.1759 21.0831 20.1665 21.0851 20.1571C21.086 20.1528 21.087 20.1484 21.0879 20.144C21.0894 20.137 21.091 20.1302 21.0926 20.1233C21.0943 20.1156 21.0961 20.1078 21.0979 20.1C21.1034 20.0772 21.1092 20.0543 21.1153 20.0315C21.1179 20.022 21.1205 20.0123 21.1232 20.0027C21.1246 19.9977 21.126 19.9926 21.1275 19.9876L18.174 18.2824C17.8019 18.4569 17.3865 18.5545 16.9483 18.5545L13.6269 18.5545V24.3752C13.639 24.3786 13.6511 24.382 13.6631 24.3855C13.6667 24.3866 13.6703 24.3877 13.6739 24.3888C13.6826 24.3914 13.6911 24.394 13.6997 24.3967C13.704 24.398 13.7084 24.3994 13.7127 24.4008C13.7206 24.4033 13.7283 24.4059 13.7361 24.4084C13.7406 24.4099 13.7452 24.4114 13.7497 24.4129C13.771 24.42 13.7921 24.4274 13.8131 24.4352C13.8166 24.4365 13.8202 24.4378 13.8238 24.4391C13.8309 24.4418 13.8378 24.4444 13.8447 24.4471C13.8635 24.4542 13.8821 24.4616 13.9005 24.4692C13.9283 24.4807 13.9558 24.4926 13.983 24.505C13.9979 24.5117 14.0126 24.5186 14.0273 24.5256C14.0323 24.528 14.0372 24.5304 14.0422 24.5329C14.0727 24.5478 14.1029 24.5632 14.1327 24.5794C14.1404 24.5835 14.148 24.5877 14.1556 24.5919C14.159 24.5939 14.1625 24.5958 14.166 24.5977C14.1723 24.6013 14.1787 24.6049 14.185 24.6085C14.1916 24.6123 14.1981 24.6161 14.2047 24.6199C14.2092 24.6225 14.2138 24.6252 14.2184 24.628C14.2261 24.6326 14.2339 24.6373 14.2416 24.6419C14.244 24.6434 14.2464 24.6449 14.2487 24.6463C14.2578 24.6519 14.2669 24.6576 14.276 24.6633C14.2792 24.6653 14.2823 24.6673 14.2855 24.6694C14.2913 24.673 14.2971 24.6768 14.3028 24.6805C14.3086 24.6842 14.3143 24.688 14.3201 24.6918C14.3254 24.6953 14.3306 24.6988 14.3358 24.7023C14.3411 24.7059 14.3465 24.7095 14.3518 24.7132C14.3591 24.7182 14.3665 24.7232 14.3737 24.7284C14.3941 24.7426 14.4143 24.7572 14.4342 24.7722C14.4492 24.7833 14.464 24.7947 14.4786 24.8061C14.4836 24.81 14.4885 24.8139 14.4934 24.8178C14.5296 24.8466 14.565 24.8764 14.5995 24.9072C14.6036 24.9108 14.6077 24.9146 14.6119 24.9183C14.6196 24.9253 14.6272 24.9323 14.6348 24.9393C14.6374 24.9417 14.64 24.9441 14.6426 24.9465C14.6459 24.9496 14.6492 24.9527 14.6525 24.9558C14.6591 24.9621 14.6656 24.9683 14.6722 24.9747C14.6756 24.9779 14.6789 24.9812 14.6821 24.9844C14.6862 24.9883 14.6902 24.9923 14.6943 24.9963L14.7018 25.0038C14.7039 25.006 14.706 25.0081 14.7082 25.0102C14.7227 25.0248 14.737 25.0396 14.7511 25.0546L14.7542 25.0578C14.7657 25.0701 14.7771 25.0825 14.7884 25.095C14.7978 25.1054 14.8071 25.1158 14.8163 25.1264C14.8298 25.1418 14.843 25.1574 14.856 25.1731C14.8596 25.1773 14.8631 25.1816 14.8666 25.1859C14.8717 25.1921 14.8767 25.1984 14.8818 25.2047C14.8942 25.2202 14.9064 25.2358 14.9185 25.2516C14.9222 25.2564 14.9259 25.2613 14.9296 25.2663C14.9328 25.2705 14.936 25.2748 14.9392 25.2791C14.9442 25.2859 14.9493 25.2928 14.9543 25.2997C14.957 25.3034 14.9597 25.3072 14.9624 25.311C14.9675 25.3181 14.9727 25.3254 14.9778 25.3326C14.9802 25.3362 14.9827 25.3397 14.9852 25.3433C14.9897 25.3497 14.9942 25.3563 14.9986 25.3628C15.0018 25.3677 15.0051 25.3725 15.0083 25.3774C15.0329 25.414 15.0563 25.4513 15.0789 25.4893L15.0917 25.5113ZM3.0359 21.6771C3.47691 21.4225 3.68896 20.9236 3.59982 20.45C3.59923 20.4466 3.59857 20.4431 3.59788 20.4397L3.59982 20.45C3.59622 20.4309 3.59214 20.4118 3.58756 20.3929C3.56774 20.3107 3.53877 20.2301 3.50057 20.1523C3.49879 20.1486 3.49694 20.1449 3.49508 20.1412L3.50057 20.1523C3.4965 20.144 3.49233 20.1358 3.48805 20.1275L3.49508 20.1412C3.48982 20.1308 3.48439 20.1204 3.47879 20.1101L3.46324 20.0823C3.44733 20.0547 3.43043 20.028 3.4126 20.0022C3.40994 19.9983 3.40725 19.9945 3.40455 19.9907L3.4126 20.0022C3.40681 19.9938 3.40091 19.9855 3.39492 19.9772L3.40455 19.9907C3.3983 19.9818 3.39194 19.9731 3.38546 19.9644L3.39492 19.9772C3.38799 19.9677 3.38093 19.9583 3.37374 19.9491L3.38546 19.9644C3.37988 19.957 3.37421 19.9496 3.36848 19.9423L3.37374 19.9491C3.36701 19.9404 3.36017 19.9318 3.35322 19.9234L3.36848 19.9423C3.36202 19.9342 3.35546 19.926 3.34882 19.9181L3.35322 19.9234C3.34098 19.9085 3.32841 19.894 3.31553 19.8798C2.95414 19.4821 2.35273 19.3753 1.86841 19.6549C1.31 19.9773 1.11868 20.6914 1.44107 21.2498C1.76347 21.8082 2.4775 21.9995 3.0359 21.6771ZM24.4952 21.2498C24.8176 20.6914 24.6263 19.9773 24.0679 19.6549C23.6253 19.3994 23.0849 19.4667 22.7193 19.7836C22.7117 19.7901 22.7042 19.7967 22.6967 19.8035L22.6748 19.8242C22.6627 19.8358 22.6509 19.8477 22.6392 19.8599C22.6364 19.8629 22.6336 19.8659 22.6309 19.8688L22.6392 19.8599C22.633 19.8664 22.627 19.873 22.621 19.8796L22.6309 19.8688C22.6241 19.876 22.6175 19.8833 22.611 19.8907L22.621 19.8796C22.614 19.8873 22.607 19.8951 22.6002 19.903L22.611 19.8907C22.604 19.8986 22.5971 19.9065 22.5903 19.9146L22.6002 19.903C22.5935 19.9109 22.5867 19.9188 22.5801 19.9269L22.5903 19.9146C22.5694 19.9395 22.5495 19.9655 22.5305 19.9923C22.5283 19.9955 22.5262 19.9986 22.5239 20.0018L22.5305 19.9923C22.5102 20.0212 22.491 20.0512 22.4731 20.0823C22.4677 20.0916 22.4625 20.1009 22.4574 20.1103C22.4555 20.1138 22.4536 20.1174 22.4517 20.121L22.4574 20.1103C22.4517 20.1207 22.4463 20.1311 22.441 20.1417L22.4517 20.121C22.4464 20.1309 22.4414 20.1408 22.4364 20.1508L22.441 20.1417C22.4365 20.1504 22.4323 20.1592 22.428 20.1681L22.4364 20.1508C22.4312 20.1614 22.4262 20.1719 22.4214 20.1824L22.428 20.1681C22.4179 20.1897 22.4084 20.2115 22.3996 20.2335C22.3983 20.2367 22.397 20.2398 22.3958 20.243L22.3996 20.2335C22.3825 20.276 22.3682 20.3192 22.3563 20.363C22.3549 20.3684 22.3535 20.3737 22.3521 20.3791L22.3563 20.363C22.3537 20.3729 22.3511 20.3828 22.3487 20.3928L22.3521 20.3791C22.3497 20.3887 22.3474 20.3983 22.3452 20.408L22.3487 20.3928C22.346 20.404 22.3434 20.4152 22.3411 20.4265L22.3452 20.408C22.3428 20.4183 22.3407 20.4286 22.3386 20.439L22.3411 20.4265C22.3392 20.4356 22.3374 20.4447 22.3357 20.4537L22.3386 20.439C22.244 20.9159 22.456 21.4205 22.9004 21.6771C23.4588 21.9995 24.1728 21.8082 24.4952 21.2498ZM12.9681 27.9049C13.6129 27.9049 14.1356 27.3822 14.1356 26.7374C14.1356 26.2438 13.8293 25.8217 13.3964 25.6509C13.3932 25.6496 13.39 25.6484 13.3868 25.6471L13.3964 25.6509C13.3884 25.6478 13.3803 25.6448 13.3723 25.6418L13.3868 25.6471C13.3774 25.6435 13.3678 25.64 13.3583 25.6366L13.3723 25.6418C13.3632 25.6385 13.3542 25.6352 13.345 25.6321L13.3583 25.6366C13.3487 25.6332 13.3391 25.63 13.3294 25.6268L13.345 25.6321C13.335 25.6287 13.3248 25.6254 13.3146 25.6222L13.3294 25.6268C13.3194 25.6236 13.3093 25.6205 13.2992 25.6175L13.3146 25.6222C13.3057 25.6194 13.2968 25.6168 13.2879 25.6143L13.2992 25.6175C13.2896 25.6147 13.2798 25.6119 13.27 25.6093L13.2879 25.6143C13.2773 25.6113 13.2667 25.6084 13.2561 25.6057L13.27 25.6093C13.2463 25.603 13.2223 25.5974 13.1981 25.5926C13.193 25.5915 13.1878 25.5906 13.1827 25.5896L13.1981 25.5926C13.1889 25.5907 13.1796 25.589 13.1703 25.5874L13.1827 25.5896C13.1722 25.5877 13.1617 25.5858 13.1511 25.5842L13.1703 25.5874C13.1591 25.5854 13.1479 25.5837 13.1366 25.582L13.1511 25.5842C13.1437 25.583 13.1362 25.582 13.1288 25.5809L13.1366 25.582C13.125 25.5803 13.1134 25.5788 13.1017 25.5775L13.1288 25.5809C13.1185 25.5795 13.1083 25.5782 13.0979 25.5771L13.1017 25.5775C13.092 25.5764 13.0821 25.5754 13.0723 25.5745L13.0979 25.5771C13.0868 25.5759 13.0756 25.5748 13.0644 25.5738L13.0723 25.5745C13.0613 25.5735 13.0503 25.5727 13.0392 25.5721L13.0644 25.5738C13.0537 25.573 13.0431 25.5723 13.0323 25.5716L13.0392 25.5721C13.0288 25.5714 13.0184 25.571 13.0079 25.5706L13.0323 25.5716C13.0111 25.5705 12.9897 25.5699 12.9681 25.5699L12.9364 25.5704C12.9338 25.5704 12.9311 25.5705 12.9284 25.5706L12.9364 25.5704C12.9256 25.5706 12.9147 25.5711 12.9039 25.5716L12.9284 25.5706C12.9179 25.571 12.9075 25.5714 12.8971 25.5721L12.9039 25.5716C12.8933 25.5723 12.8826 25.573 12.8719 25.5739L12.8971 25.5721C12.886 25.5727 12.875 25.5735 12.864 25.5745L12.8719 25.5739C12.8607 25.5748 12.8495 25.5759 12.8384 25.5771L12.864 25.5745C12.8542 25.5754 12.8443 25.5764 12.8346 25.5775L12.8384 25.5771C12.8279 25.5782 12.8174 25.5795 12.807 25.581L12.8346 25.5775C12.8231 25.5788 12.8118 25.5803 12.8005 25.5819L12.807 25.581C12.7994 25.582 12.7917 25.5832 12.7841 25.5843L12.8005 25.5819C12.7889 25.5835 12.7774 25.5854 12.7658 25.5874L12.7841 25.5843C12.7749 25.5858 12.7656 25.5874 12.7564 25.5891L12.7658 25.5874C12.7563 25.5891 12.7469 25.5909 12.7375 25.5928L12.7564 25.5891C12.7304 25.5938 12.7047 25.5995 12.6793 25.6059C12.6755 25.6069 12.6718 25.6079 12.6681 25.6089L12.6793 25.6059C12.6688 25.6086 12.6584 25.6114 12.6481 25.6144L12.6681 25.6089C12.6584 25.6114 12.6488 25.6141 12.6393 25.6169L12.6481 25.6144C12.6387 25.617 12.6295 25.6197 12.6203 25.6226L12.6393 25.6169C12.6286 25.62 12.6181 25.6232 12.6076 25.6267L12.6203 25.6226C12.6105 25.6256 12.6009 25.6287 12.5913 25.6321L12.6076 25.6267C12.5976 25.6299 12.5878 25.6332 12.578 25.6367L12.5913 25.6321C12.5822 25.6351 12.5731 25.6384 12.564 25.6417L12.578 25.6367C12.5683 25.6402 12.5587 25.6437 12.5491 25.6474L12.564 25.6417C12.5563 25.6446 12.5486 25.6475 12.5409 25.6505L12.5491 25.6474C12.1113 25.8158 11.8006 26.2403 11.8006 26.7374C11.8006 27.3822 12.3233 27.9049 12.9681 27.9049Z" fill="#FBF8F3"/>
<path fill-rule="evenodd" clip-rule="evenodd" d="M71.6751 6.24711C76.6638 6.24711 80.2436 9.9603 80.2436 14.55V14.596C80.2436 19.1857 76.6176 22.945 71.6289 22.945C66.6406 22.945 63.0609 19.2318 63.0609 14.6422V14.596C63.0609 10.0065 66.6868 6.24711 71.6751 6.24711ZM40.0494 6.30098C42.3998 6.30098 44.4045 7.03831 46.0406 8.35172L44.1972 11.0246C42.7685 10.0338 41.3628 9.43467 40.0033 9.43467C38.6438 9.43467 37.9295 10.0569 37.9295 10.8402V10.8863C37.9295 11.9463 38.6207 12.2919 41.4089 13.0061C44.6811 13.8588 46.5246 15.0339 46.5246 17.845V17.8911C46.5246 21.094 44.0819 22.8912 40.6024 22.8912C38.1599 22.8912 35.6943 22.0387 33.7586 20.3105L35.8556 17.7989C37.3073 18.9971 38.8282 19.7575 40.6715 19.7575C42.1233 19.7575 42.9989 19.1814 42.9989 18.2367V18.1907C42.9989 17.292 42.4459 16.8312 39.7498 16.1399C36.5008 15.3104 34.4038 14.4118 34.4038 11.2089V11.1628C34.4038 8.23656 36.7542 6.30098 40.0494 6.30098ZM109.977 6.51645V17.0792C109.977 21 107.673 22.8912 104.264 22.8912C101.753 22.8912 100.094 21.7841 98.9884 20.4696L101.223 17.9787C102.144 18.9935 103.043 19.5932 104.172 19.5932C105.508 19.5932 106.337 18.786 106.337 16.9178V10.1253L101.036 10.1254V6.51645H109.977ZM61.6065 6.51645V9.79448H56.7008V22.6758H53.1539V9.79448H48.2482V6.51645H61.6065ZM90.6392 6.51645C94.4437 6.51645 96.7266 8.5248 96.7266 11.849V11.8951C96.7266 14.5037 95.3204 16.1428 93.2677 16.9045L97.2107 22.6758H93.0606L89.601 17.5048H86.811V22.6758H83.2604V6.51645H90.6392ZM71.6289 9.53279C68.7642 9.53279 66.7775 11.7883 66.7775 14.5501V14.596C66.7775 17.3578 68.8104 19.6594 71.6751 19.6594C74.5399 19.6594 76.5273 17.4039 76.5273 14.6421V14.596C76.5273 11.8343 74.4937 9.53279 71.6289 9.53279ZM90.3344 9.74831H86.815V14.3806H90.4029C92.1283 14.3806 93.117 13.4588 93.117 12.099V12.053C93.117 10.5318 92.0591 9.74831 90.3344 9.74831Z" fill="#FBF8F3"/>
</g>
<defs>
<clipPath id="clip0_2752_2510">
<rect width="110" height="29.1975" fill="white"/>
</clipPath>
</defs>
</svg>
