<svg width="183" height="19" viewBox="0 0 183 19" fill="none" xmlns="http://www.w3.org/2000/svg">
<path d="M6.16991 3.60674C11.0841 -1.20225 19.0493 -1.20225 23.9635 3.60674L24.554 4.18708C24.7984 4.42803 24.7984 4.81832 24.554 5.05928L22.5314 7.03786C22.4092 7.15664 22.2089 7.15664 22.0868 7.03786L21.2723 6.24032C17.8445 2.88727 12.2855 2.88727 8.85778 6.24032L7.98558 7.09216C7.86341 7.21094 7.66317 7.21094 7.54099 7.09216L5.5183 5.11358C5.27395 4.87262 5.27395 4.48233 5.5183 4.24138L6.16651 3.60674H6.16991ZM28.1481 7.69965L29.9468 9.46102C30.1911 9.70198 30.1911 10.0923 29.9468 10.3332L21.8288 18.2781C21.5845 18.519 21.184 18.519 20.9397 18.2781L15.177 12.641C15.1159 12.5799 15.0175 12.5799 14.953 12.641L9.19038 18.2781C8.94602 18.519 8.54556 18.519 8.3012 18.2781L0.183265 10.3332C-0.0610882 10.0923 -0.0610882 9.70198 0.183265 9.46102L1.98197 7.69965C2.22632 7.45869 2.62679 7.45869 2.87114 7.69965L8.63379 13.3367C8.69488 13.3978 8.7933 13.3978 8.85778 13.3367L14.6204 7.69965C14.8648 7.45869 15.2653 7.45869 15.5096 7.69965L21.2723 13.3401C21.3333 13.4012 21.4318 13.4012 21.4962 13.3401L27.2589 7.70304C27.5033 7.46208 27.9037 7.46208 28.1481 7.70304V7.69965Z" fill="#FBF8F3"/>
<path d="M42.2874 16.975L44.8905 6.55944C45.0466 5.98589 45.1789 5.36822 45.3554 4.3976C45.4878 5.36822 45.6439 5.98589 45.7525 6.55944L48.0026 16.975H52.6588L56.5855 1.52646H53.0118L50.85 11.0155C50.6294 11.942 50.497 12.6717 50.3409 13.7509C50.1644 12.7124 49.9879 11.942 49.7877 11.0358L47.6903 1.52307H43.0103L40.7365 11.0358C40.5362 11.942 40.3835 12.6683 40.207 13.7509C40.0306 12.6683 39.8744 11.942 39.6776 11.0358L37.5599 1.52307H33.8301L37.7364 16.9716H42.284L42.2874 16.975Z" fill="#FBF8F3"/>
<path d="M59.6888 17.3719C61.4535 17.3719 62.5803 16.6422 63.1538 15.5834C63.0859 15.916 63.0656 16.2452 63.0656 16.5778V16.9748H66.0216V10.5979C66.0216 7.55368 64.6301 5.78552 61.2329 5.78552C58.2973 5.78552 56.3764 7.41793 56.1999 9.66801H59.4444C59.5564 8.67363 60.2623 8.07972 61.3415 8.07972C62.3563 8.07972 62.9095 8.65327 62.9095 9.31506C62.9095 9.80037 62.621 10.0888 61.7624 10.1974L60.2182 10.3739C57.924 10.6624 55.959 11.5007 55.959 13.9272C55.959 16.1332 57.7916 17.3685 59.6888 17.3685V17.3719ZM60.6831 15.0981C59.8211 15.0981 59.1831 14.6128 59.1831 13.7745C59.1831 12.9362 59.9127 12.5595 61.0157 12.3627L61.7658 12.2303C62.4072 12.098 62.7601 11.986 62.9807 11.7891V12.8039C62.9807 14.1716 61.9863 15.0981 60.6865 15.0981H60.6831Z" fill="#FBF8F3"/>
<path d="M67.7031 1.52637V16.9749H70.9035V1.52637H67.7031Z" fill="#FBF8F3"/>
<path d="M72.8984 1.52637V16.9749H76.0988V1.52637H72.8984Z" fill="#FBF8F3"/>
<path d="M83.2304 17.3719C86.2746 17.3719 88.2396 15.6513 88.4602 13.4012H85.2395C85.0834 14.3956 84.2452 14.9454 83.2304 14.9454C81.8627 14.9454 80.8683 13.8424 80.848 12.3186H88.5281V11.7009C88.5281 8.12724 86.5631 5.78552 83.1659 5.78552C79.7688 5.78552 77.6035 8.07972 77.6035 11.5448C77.6035 15.2949 79.9656 17.3719 83.2304 17.3719ZM80.8242 10.2212C80.9566 8.98586 81.8627 8.07972 83.1422 8.07972C84.4216 8.07972 85.2395 8.94174 85.2599 10.2212H80.8242Z" fill="#FBF8F3"/>
<path d="M95.4443 17.1955C96.1502 17.1955 96.8357 17.0835 97.1446 16.9953V14.5687C96.9002 14.6128 96.6151 14.6366 96.3708 14.6366C95.1999 14.6366 94.7825 13.9748 94.7825 12.8922V8.65335H97.3855V6.15892H94.7825V2.32056H91.6059V6.15892H89.2676V8.65335H91.6059V13.3334C91.6059 15.8923 92.8854 17.1955 95.4443 17.1955Z" fill="#FBF8F3"/>
<path d="M106.241 17.3721C110.612 17.3721 113.26 14.8132 113.589 11.1275H110.124C109.859 13.1366 108.447 14.5043 106.374 14.5043C103.923 14.5043 102.203 12.519 102.203 9.1625C102.203 5.80604 103.991 3.99715 106.441 3.99715C108.539 3.99715 109.73 5.27661 109.971 7.15337H113.524C113.171 3.31499 110.348 1.12939 106.462 1.12939C102.026 1.12939 98.6289 4.12951 98.6289 9.1625C98.6289 14.1955 101.609 17.3721 106.241 17.3721Z" fill="#FBF8F3"/>
<path d="M120.384 17.3719C123.717 17.3719 126.079 15.2745 126.079 11.6127C126.079 7.95076 123.717 5.78552 120.384 5.78552C117.051 5.78552 114.713 8.01524 114.713 11.6127C114.713 15.2101 117.051 17.3719 120.384 17.3719ZM120.384 14.9012C118.904 14.9012 117.957 13.6863 117.957 11.6127C117.957 9.53905 118.952 8.30371 120.384 8.30371C121.816 8.30371 122.834 9.49493 122.834 11.6127C122.834 13.7304 121.864 14.9012 120.384 14.9012Z" fill="#FBF8F3"/>
<path d="M130.54 16.9748V10.642C130.54 9.2947 131.378 8.30371 132.57 8.30371C133.696 8.30371 134.358 9.16573 134.358 10.5979V16.9748H137.559V10.133C137.559 7.52993 136.191 5.78552 133.741 5.78552C132.04 5.78552 131.005 6.60342 130.452 7.57405C130.516 7.17697 130.54 6.86814 130.54 6.57967V6.15884H127.34V16.9714H130.54V16.9748Z" fill="#FBF8F3"/>
<path d="M142.525 16.9748V10.642C142.525 9.2947 143.363 8.30371 144.554 8.30371C145.681 8.30371 146.343 9.16573 146.343 10.5979V16.9748H149.543V10.133C149.543 7.52993 148.175 5.78552 145.725 5.78552C144.025 5.78552 142.99 6.60342 142.436 7.57405C142.501 7.17697 142.525 6.86814 142.525 6.57967V6.15884H139.324V16.9714H142.525V16.9748Z" fill="#FBF8F3"/>
<path d="M156.43 17.3719C159.474 17.3719 161.439 15.6513 161.659 13.4012H158.439C158.283 14.3956 157.444 14.9454 156.43 14.9454C155.062 14.9454 154.068 13.8424 154.047 12.3186H161.727V11.7009C161.727 8.12724 159.762 5.78552 156.365 5.78552C152.968 5.78552 150.803 8.07972 150.803 11.5448C150.803 15.2949 153.165 17.3719 156.43 17.3719ZM154.023 10.2212C154.156 8.98586 155.059 8.07972 156.341 8.07972C157.624 8.07972 158.439 8.94174 158.459 10.2212H154.023Z" fill="#FBF8F3"/>
<path d="M168.598 17.3719C171.951 17.3719 173.784 15.5393 174.137 12.6919H170.936C170.828 13.8831 170.142 14.8978 168.706 14.8978C167.271 14.8978 166.256 13.5505 166.256 11.5651C166.256 9.4033 167.403 8.30032 168.771 8.30032C170.139 8.30032 170.78 9.27094 170.868 10.3977H174.069C173.828 7.77089 172.039 5.78552 168.751 5.78552C165.462 5.78552 163.012 7.90325 163.012 11.5685C163.012 15.2338 165.153 17.3719 168.594 17.3719H168.598Z" fill="#FBF8F3"/>
<path d="M181.058 17.1955C181.763 17.1955 182.449 17.0835 182.758 16.9953V14.5687C182.513 14.6128 182.228 14.6366 181.984 14.6366C180.813 14.6366 180.396 13.9748 180.396 12.8922V8.65335H182.999V6.15892H180.396V2.32056H177.219V6.15892H174.881V8.65335H177.219V13.3334C177.219 15.8923 178.499 17.1955 181.058 17.1955Z" fill="#FBF8F3"/>
</svg>
