<svg width="120" height="120" viewBox="0 0 120 120" fill="none" xmlns="http://www.w3.org/2000/svg">
<g clip-path="url(#clip0_2752_2780)">
<path d="M60 119.7C92.8609 119.7 119.5 92.9715 119.5 60C119.5 27.0286 92.8609 0.300049 60 0.300049C27.1391 0.300049 0.5 27.0286 0.5 60C0.5 92.9715 27.1391 119.7 60 119.7Z" stroke="#0E0C16" stroke-miterlimit="10"/>
<path d="M43.5996 58.1C43.8996 58.1 44.0996 58.1001 44.2996 58.2001C44.4996 58.3001 44.7996 58.4 44.9996 58.5L45.4996 57.2001C44.8996 56.9001 44.2996 56.8 43.5996 56.8C42.9996 56.8 42.4996 56.9001 41.9996 57.2001C41.4996 57.5001 41.1996 57.8 40.9996 58.3C40.7996 58.8 40.5996 59.3 40.5996 60C40.5996 61 40.7996 61.8001 41.2996 62.4001C41.7996 62.9001 42.4996 63.2001 43.3996 63.2001C44.0996 63.2001 44.5996 63.1001 45.0996 62.9001V61.5C44.7996 61.6 44.5996 61.7 44.2996 61.8C43.9996 61.9 43.7996 61.9001 43.4996 61.9001C42.5996 61.9001 42.0996 61.3 42.0996 60.1C42.0996 59.5 42.1996 59.1 42.3996 58.8C42.8996 58.3 43.1996 58.1 43.5996 58.1Z" fill="#0E0C16"/>
<path d="M50.9996 61.7001C50.6996 61.7001 50.3996 61.7001 50.0996 61.6001C49.7996 61.5001 49.3996 61.4001 49.0996 61.2001V62.7001C49.3996 62.8001 49.6996 62.9001 49.9996 63.0001C50.2996 63.1001 50.5996 63.1001 50.9996 63.1001C51.4996 63.1001 51.8996 63.0001 52.2996 62.9001C52.6996 62.7001 52.8996 62.5001 53.0996 62.2001C53.2996 61.9001 53.3996 61.6001 53.3996 61.2001C53.3996 60.8001 53.2996 60.4001 53.0996 60.2001C52.8996 59.9001 52.4996 59.7001 51.9996 59.4001C51.3996 59.1001 51.0996 59.0001 50.9996 58.9001C50.8996 58.8001 50.7996 58.7001 50.7996 58.6001C50.7996 58.5001 50.7996 58.4001 50.8996 58.3001C50.9996 58.2001 51.1996 58.2001 51.3996 58.2001C51.7996 58.2001 52.2996 58.3001 52.8996 58.6001L53.3996 57.3001C52.6996 57.0001 52.0996 56.9001 51.3996 56.9001C50.6996 56.9001 50.0996 57.1001 49.6996 57.4001C49.2996 57.7001 49.0996 58.2001 49.0996 58.7001C49.0996 59.0001 49.0996 59.3001 49.1996 59.5001C49.2996 59.7001 49.3996 59.9001 49.5996 60.1001C49.7996 60.3001 50.0996 60.5001 50.4996 60.6001C50.8996 60.8001 51.1996 60.9001 51.2996 61.0001C51.3996 61.1001 51.4996 61.1001 51.4996 61.2001C51.4996 61.3001 51.5996 61.3001 51.5996 61.4001C51.5996 61.5001 51.4996 61.6001 51.3996 61.7001C51.3996 61.7001 51.1996 61.7001 50.9996 61.7001Z" fill="#0E0C16"/>
<path d="M58.8004 61.7001C58.5004 61.7001 58.2004 61.7001 57.9004 61.6001C57.6004 61.5001 57.2004 61.4001 56.9004 61.2001V62.7001C57.2004 62.8001 57.5004 62.9001 57.8004 63.0001C58.1004 63.1001 58.4004 63.1001 58.8004 63.1001C59.3004 63.1001 59.7004 63.0001 60.1004 62.9001C60.5004 62.7001 60.7004 62.5001 60.9004 62.2001C61.1004 61.9001 61.2004 61.6001 61.2004 61.2001C61.2004 60.8001 61.1004 60.4001 60.9004 60.2001C60.7004 59.9001 60.3004 59.7001 59.8004 59.4001C59.2004 59.1001 58.9004 59.0001 58.8004 58.9001C58.7004 58.8001 58.6004 58.7001 58.6004 58.6001C58.6004 58.5001 58.6004 58.4001 58.7004 58.3001C58.8004 58.2001 59.0004 58.2001 59.2004 58.2001C59.6004 58.2001 60.1004 58.3001 60.7004 58.6001L61.2004 57.3001C60.5004 57.0001 59.9004 56.9001 59.2004 56.9001C58.5004 56.9001 57.9004 57.1001 57.5004 57.4001C57.1004 57.7001 56.9004 58.2001 56.9004 58.7001C56.9004 59.0001 56.9004 59.3001 57.0004 59.5001C57.1004 59.7001 57.2004 59.9001 57.4004 60.1001C57.6004 60.3001 57.9004 60.5001 58.3004 60.6001C58.7004 60.8001 59.0004 60.9001 59.1004 61.0001C59.2004 61.1001 59.3004 61.1001 59.3004 61.2001C59.3004 61.3001 59.4004 61.3001 59.4004 61.4001C59.4004 61.5001 59.3004 61.6001 59.2004 61.7001C59.3004 61.7001 59.1004 61.7001 58.8004 61.7001Z" fill="#0E0C16"/>
<path d="M70.2996 59.8C70.2996 58.8 69.9996 58.1 69.4996 57.6C68.9996 57.1 68.1996 56.8 67.1996 56.8H65.0996V63H67.0996C68.0996 63 68.8996 62.7001 69.4996 62.2001C69.9996 61.6001 70.2996 60.8 70.2996 59.8ZM68.1996 61.2001C67.9996 61.5001 67.5996 61.6 67.0996 61.6H66.6996V58.1H67.1996C67.6996 58.1 67.9996 58.2 68.1996 58.5C68.3996 58.8 68.4996 59.2 68.4996 59.8C68.5996 60.4 68.4996 60.9001 68.1996 61.2001Z" fill="#0E0C16"/>
<path d="M77.7992 61.8L78.0992 63H79.8992L77.8992 56.8H75.6992L73.6992 63H75.4992L75.7992 61.8H77.7992ZM76.5992 58.5C76.6992 58.2 76.6992 57.9 76.6992 57.8C76.6992 58 76.7992 58.2 76.8992 58.6C76.9992 59 77.0992 59.3 77.0992 59.5L77.3992 60.5H76.0992C76.3992 59.5 76.5992 58.8 76.5992 58.5Z" fill="#0E0C16"/>
<path d="M68.3 52.3L61.9 46L55.6 52.3H52L65.3 39H51.4L38 52.3H33V53.2H87.6V52.3H68.3Z" fill="#0E0C16"/>
<path d="M33 67.5H52.2L58.4 73.7L64.7 67.5H68.1L54.9 80.6H68.9L75.8 73.7L82.1 67.5H87.6V66.5H33V67.5Z" fill="#0E0C16"/>
<path d="M20.7992 56.6001V58.3001L17.0992 59.2001C16.9992 59.2001 16.6992 59.3001 16.2992 59.4001C15.8992 59.5001 15.5992 59.5001 15.4992 59.5001C15.6992 59.5001 15.8992 59.6001 16.2992 59.7001C16.6992 59.8001 16.8992 59.8001 17.0992 59.9001L20.6992 60.9001V62.6001L13.6992 64.3001V62.9001L17.4992 62.1001C18.1992 62.0001 18.7992 61.9001 19.2992 61.8001C19.0992 61.8001 18.7992 61.7001 18.4992 61.7001C18.0992 61.6001 17.7992 61.6001 17.5992 61.5001L13.6992 60.4001V59.0001L17.5992 58.1001C17.7992 58.1001 17.9992 58.0001 18.3992 57.9001C18.7992 57.8001 19.0992 57.8001 19.2992 57.8001C19.0992 57.8001 18.6992 57.7001 18.3992 57.6001C17.9992 57.5001 17.6992 57.5001 17.4992 57.4001L13.6992 56.5001V55.1001L20.7992 56.6001Z" fill="#0E0C16"/>
<path d="M22.3992 48.5L21.3992 52.4001L14.6992 50.7001L15.6992 46.8L16.8992 47.1L16.2992 49.5L17.7992 49.9001L18.3992 47.6L19.5992 47.9001L18.9992 50.2001L20.6992 50.6L21.2992 48.2001L22.3992 48.5Z" fill="#0E0C16"/>
<path d="M17.1992 42.7L18.0992 40.7C18.4992 39.8 18.8992 39.2 19.3992 38.9C19.7992 38.6 20.2992 38.6 20.8992 38.9C21.2992 39.1 21.4992 39.3 21.6992 39.6C21.8992 39.9 21.8992 40.2 21.7992 40.5C22.0992 40.1 22.3992 39.9 22.6992 39.9C22.9992 39.8 23.3992 39.9 23.7992 40.1C24.3992 40.4 24.6992 40.8 24.8992 41.3C25.0992 41.8 24.8992 42.5 24.5992 43.2L23.4992 45.5L17.1992 42.7ZM20.2992 42.5L20.6992 41.7C20.8992 41.3 20.8992 41.1 20.8992 40.8C20.8992 40.6 20.6992 40.4 20.4992 40.3C20.2992 40.2 19.9992 40.2 19.8992 40.3C19.6992 40.4 19.4992 40.7 19.3992 41.1L19.0992 41.8L20.2992 42.5ZM21.2992 43L22.8992 43.8L23.2992 42.9C23.4992 42.5 23.4992 42.2 23.4992 42C23.3992 41.8 23.2992 41.6 22.9992 41.4C22.4992 41.2 21.9992 41.4 21.6992 42.1L21.2992 43Z" fill="#0E0C16"/>
<path d="M28.0988 34C28.5988 34.4 28.8988 34.8 28.8988 35.4C28.8988 36 28.6988 36.6 28.1988 37.2C27.7988 37.8 27.2988 38.2 26.6988 38.5L25.5988 37.7C25.9988 37.4 26.3988 37.2 26.6988 37C26.9988 36.8 27.1988 36.6 27.2988 36.4C27.4988 36.1 27.5988 35.9 27.5988 35.7C27.5988 35.5 27.4988 35.3 27.2988 35.2C27.1988 35.1 27.0988 35 26.9988 35C26.8988 35 26.6988 35 26.5988 35.1C26.4988 35.2 26.0988 35.3 25.6988 35.5C25.2988 35.7 24.8988 35.9 24.6988 35.9C24.3988 36 24.1988 36 23.8988 35.9C23.5988 35.9 23.3988 35.7 23.0988 35.5C22.5988 35.1 22.2988 34.7 22.2988 34.1C22.2988 33.6 22.4988 33 22.8988 32.4C23.0988 32.1 23.3988 31.9 23.5988 31.6C23.7988 31.3 24.1988 31.2 24.4988 31L25.0988 32.1C24.7988 32.3 24.4988 32.5 24.2988 32.7C24.0988 32.9 23.8988 33 23.7988 33.2C23.5988 33.4 23.5988 33.6 23.5988 33.8C23.5988 34 23.6988 34.2 23.8988 34.3C23.9988 34.4 24.0988 34.4 24.1988 34.4C24.2988 34.4 24.3988 34.4 24.5988 34.3C24.7988 34.2 25.0988 34.1 25.4988 33.8C26.0988 33.5 26.5988 33.3 26.9988 33.3C27.3988 33.6 27.6988 33.7 28.0988 34Z" fill="#0E0C16"/>
<path d="M31.6988 32.9L26.7988 28L27.7988 27L32.6988 31.9L31.6988 32.9Z" fill="#0E0C16"/>
<path d="M37.3996 28L36.1996 28.9L32.7996 24.3L31.2996 25.4L30.5996 24.4L34.7996 21.3L35.4996 22.3L33.9996 23.4L37.3996 28Z" fill="#0E0C16"/>
<path d="M44.8988 23.8L41.2988 25.5L38.2988 19.2L41.8988 17.5L42.3988 18.6L40.0988 19.7L40.7988 21.1L42.8988 20.1L43.3988 21.2L41.2988 22.2L42.0988 23.8L44.3988 22.7L44.8988 23.8Z" fill="#0E0C16"/>
<path d="M58.6988 17.4C58.7988 18.5 58.5988 19.5 58.0988 20.1C57.5988 20.7 56.7988 21.2 55.7988 21.3C54.6988 21.4 53.8988 21.2 53.2988 20.6C52.6988 20 52.2988 19.2 52.1988 18C52.0988 16.8 52.2988 15.9 52.7988 15.3C53.2988 14.7 54.0988 14.3 55.0988 14.1C56.1988 14 56.9988 14.2 57.5988 14.8C58.1988 15.4 58.5988 16.2 58.6988 17.4ZM53.6988 17.9C53.7988 18.7 53.9988 19.2 54.2988 19.6C54.5988 20 55.0988 20.1 55.6988 20.1C56.8988 20 57.3988 19.1 57.1988 17.6C56.9988 16 56.3988 15.3 55.1988 15.4C54.5988 15.5 54.1988 15.7 53.8988 16.1C53.5988 16.5 53.5988 17.1 53.6988 17.9Z" fill="#0E0C16"/>
<path d="M63.5992 21.1001L62.1992 21.0001L62.8992 14.1001L66.7992 14.5001L66.6992 15.7001L64.1992 15.4001L63.9992 17.2001L66.2992 17.4001L66.1992 18.6001L63.8992 18.4001L63.5992 21.1001Z" fill="#0E0C16"/>
<path d="M76.4992 24.7L75.1992 24.1L77.5992 18.9L75.8992 18.1L76.3992 17L81.1992 19.2L80.6992 20.3L78.9992 19.5L76.4992 24.7Z" fill="#0E0C16"/>
<path d="M85.1 30.2L83.9 29.2999L85.7 26.9L83.5 25.2999L81.7 27.7L80.5 26.7999L84.6 21.2L85.8 22.1L84.2 24.2999L86.4 25.9L88 23.7L89.2 24.6L85.1 30.2Z" fill="#0E0C16"/>
<path d="M90.2 35.4999L87.5 32.4999L92.7 27.8999L95.4 30.8999L94.5 31.6999L92.8 29.7999L91.7 30.7999L93.3 32.4999L92.4 33.2999L90.8 31.5999L89.5 32.7999L91.2 34.6999L90.2 35.4999Z" fill="#0E0C16"/>
<path d="M100.199 46.4001C99.0992 46.8001 98.1992 46.9 97.3992 46.5C96.5992 46.1 95.8992 45.4 95.4992 44.3L94.6992 42.5L101.099 39.8L101.899 41.8C102.299 42.8 102.399 43.8 102.099 44.6C101.799 45.4 101.199 46.0001 100.199 46.4001ZM99.4992 45C100.899 44.4 101.299 43.5 100.799 42.3L100.499 41.6L96.2992 43.3L96.4992 43.9001C97.1992 45.2001 98.0992 45.6 99.4992 45Z" fill="#0E0C16"/>
<path d="M98.4 54.9001L99.9 54.1L99.5 51.6L97.8 51.4001L97.5 49.8L104.8 51L105.1 52.8L98.7 56.4001L98.4 54.9001ZM101.1 53.5C102.5 52.8 103.3 52.4 103.5 52.3C103.7 52.2 103.8 52.1 103.9 52.1C103.5 52.1 102.4 52.0001 100.8 51.7001L101.1 53.5Z" fill="#0E0C16"/>
<path d="M102.799 61.2L105.599 62.7V64.3L101.399 61.9L98.6992 61.7999V60.2999L101.399 60.4L105.699 58.2V59.7999L102.799 61.2Z" fill="#0E0C16"/>
<path d="M31.5004 95.9001L32.3004 94.2001L30.3004 92.4001L28.7004 93.4001L27.4004 92.3001L34.4004 88.4001L35.8004 89.7001L32.8004 97.0001L31.5004 95.9001ZM32.9004 92.9001C33.6004 91.4001 34.0004 90.5001 34.1004 90.3001C34.2004 90.1001 34.3004 89.9001 34.3004 89.8001C33.9004 90.1001 33.0004 90.6001 31.4004 91.6001L32.9004 92.9001Z" fill="#0E0C16"/>
<path d="M42.7996 102.7L41.1996 101.9L41.9996 97.9002C41.9996 97.8002 42.0996 97.5002 42.1996 97.0002C42.2996 96.6002 42.3996 96.3002 42.4996 96.1002C42.3996 96.3002 42.1996 96.5002 41.9996 96.8002C41.6996 97.1002 41.5996 97.4002 41.3996 97.5002L38.6996 100.6L37.0996 99.8002L38.6996 92.2002L40.0996 92.9002L39.0996 97.0002C38.8996 97.8002 38.6996 98.4002 38.4996 98.9002C38.5996 98.7002 38.7996 98.5002 38.9996 98.2002C39.1996 97.9002 39.4996 97.6002 39.5996 97.4002L42.4996 94.1002L43.7996 94.8002L42.8996 99.1002C42.8996 99.3002 42.7996 99.6002 42.6996 100C42.5996 100.4 42.4996 100.7 42.3996 101C42.4996 100.8 42.6996 100.5 42.9996 100.2C43.1996 99.9002 43.3996 99.6002 43.5996 99.4002L46.2996 96.2002L47.6996 96.9002L42.7996 102.7Z" fill="#0E0C16"/>
<path d="M53.2012 105.5L53.0012 103.6L50.3012 103.1L49.4012 104.8L47.7012 104.5L51.7012 97.6001L53.6012 98.0001L54.8012 105.9L53.2012 105.5ZM52.9012 102.3C52.7012 100.6 52.6012 99.7001 52.6012 99.4001C52.6012 99.1001 52.6012 99.0001 52.6012 98.9001C52.4012 99.3001 51.9012 100.3 51.0012 101.9L52.9012 102.3Z" fill="#0E0C16"/>
<path d="M60.5012 103.1L60.6012 106H59.0012L58.7012 98.5001L60.9012 98.4001C61.9012 98.4001 62.7012 98.5001 63.2012 98.9001C63.7012 99.3001 64.0012 99.8001 64.0012 100.6C64.0012 101 63.9012 101.4 63.7012 101.8C63.5012 102.2 63.1012 102.4 62.7012 102.6C63.9012 104.2 64.7012 105.3 65.0012 105.8L63.2012 105.9L61.3012 103.1H60.5012ZM60.4012 101.8H60.9012C61.4012 101.8 61.8012 101.7 62.0012 101.5C62.2012 101.3 62.3012 101.1 62.3012 100.7C62.3012 100.3 62.2012 100.1 61.9012 100C61.6012 99.9001 61.3012 99.8001 60.8012 99.8001H60.3012L60.4012 101.8Z" fill="#0E0C16"/>
<path d="M73.9996 99.8001C74.2996 101 74.1996 102 73.7996 102.8C73.3996 103.6 72.3996 104.2 71.0996 104.6L69.0996 105.2L67.0996 98L69.3996 97.4001C70.5996 97.1001 71.5996 97.1 72.3996 97.6C73.0996 97.9 73.6996 98.6001 73.9996 99.8001ZM72.3996 100.2C71.9996 98.6 71.0996 98.1001 69.6996 98.4001L68.8996 98.6L70.1996 103.3L70.8996 103.1C72.3996 102.8 72.8996 101.8 72.3996 100.2Z" fill="#0E0C16"/>
<path d="M83.1012 99.5001L79.3012 101.6L75.7012 95.0001L79.5012 92.9001L80.1012 94.0001L77.7012 95.3001L78.5012 96.8001L80.7012 95.6001L81.3012 96.7001L79.1012 97.9001L80.0012 99.6001L82.4012 98.3001L83.1012 99.5001Z" fill="#0E0C16"/>
<path d="M89.2 89.9001C90 90.8001 90.4 91.8001 90.3 92.7001C90.2 93.7001 89.7 94.6001 88.7 95.4001L87 96.9001L82 91.2001L83.8 89.7001C84.7 88.9001 85.6 88.5001 86.6 88.6001C87.5 88.6001 88.4 89.0001 89.2 89.9001ZM87.9 91.0001C86.8 89.8001 85.8 89.6001 84.7 90.6001L84.1 91.2001L87.3 94.9001L87.8 94.5001C89 93.4001 89 92.3001 87.9 91.0001Z" fill="#0E0C16"/>
</g>
<defs>
<clipPath id="clip0_2752_2780">
<rect width="120" height="120" fill="white"/>
</clipPath>
</defs>
</svg>
