<svg width="213" height="83" viewBox="0 0 213 83" fill="none" xmlns="http://www.w3.org/2000/svg">
<path d="M124.676 29.148C121.998 29.148 119.894 29.7226 117.789 30.8696C117.789 24.7467 117.789 19.1984 117.981 17.2856L105.16 19.5808V20.7289L106.499 20.92C108.219 21.3024 108.796 22.2582 109.175 24.5556C109.561 29.148 109.367 53.6407 109.175 57.6597C112.62 58.4255 116.256 59.0001 119.893 59.0001C130.035 59.0001 136.158 52.6849 136.158 42.7342C136.158 34.8897 131.183 29.148 124.676 29.148ZM120.275 56.8939C119.509 56.8939 118.551 56.8939 117.979 56.7039C117.787 54.0253 117.597 42.7342 117.787 32.7846C118.935 32.4012 119.699 32.21 120.657 32.21C124.87 32.21 127.166 37.1848 127.166 43.3066C127.165 50.9633 124.294 56.8939 120.275 56.8939ZM56.9366 18.0503H23.2578V19.7719L25.1717 19.9631C27.658 20.3454 28.616 21.8759 28.9973 25.5114C29.573 32.4001 29.3807 44.8393 28.9973 50.7688C28.6149 54.4054 27.6591 56.1281 25.1717 56.3171L23.2578 56.7016V58.2321H44.8808V56.7016L42.5846 56.3171C40.0972 56.127 39.1402 54.4054 38.7579 50.7688C38.5656 48.2803 38.3745 44.2613 38.3745 39.2877L42.9669 39.4788C45.8378 39.4788 47.1759 41.7751 47.7505 45.0271H49.4733V31.4453H47.7505C47.1748 34.6985 45.8378 36.9936 42.9669 36.9936L38.3756 37.1859C38.3756 30.6796 38.5667 24.5567 38.759 20.9212H45.4554C50.6236 20.9212 53.3022 24.1732 55.2149 29.9149L57.1288 29.3403L56.9366 18.0503Z" fill="#0E0C16"/>
<path d="M67.8454 28.7656C77.4138 28.7656 82.1974 35.272 82.1974 43.8823C82.1974 52.1102 76.8391 59.0011 67.2708 59.0011C57.7035 59.0011 52.9199 52.4937 52.9199 43.8823C52.9199 35.6543 58.2771 28.7656 67.8454 28.7656ZM67.2708 30.6795C63.0607 30.6795 61.9126 36.4201 61.9126 43.8823C61.9126 51.1533 63.8265 57.085 67.6542 57.085C72.0522 57.085 73.2025 51.3445 73.2025 43.8823C73.2025 36.6113 71.2908 30.6795 67.2708 30.6795ZM138.645 44.0745C138.645 36.2289 143.62 28.7656 153.379 28.7656C161.414 28.7656 165.243 34.6985 165.243 42.543H147.446C147.254 49.6228 150.699 54.7899 157.588 54.7899C160.65 54.7899 162.181 54.0263 164.096 52.686L164.859 53.6418C162.945 56.3204 158.736 59.0011 153.379 59.0011C144.768 59 138.645 52.8771 138.645 44.0745ZM147.446 40.439L156.44 40.2468C156.44 36.4201 155.866 30.6795 152.614 30.6795C149.361 30.6795 147.637 36.0366 147.446 40.439ZM188.017 30.2972C185.721 29.3391 182.66 28.7656 179.216 28.7656C172.137 28.7656 167.734 32.9746 167.734 37.9505C167.734 42.9264 170.983 45.0304 175.581 46.5619C180.364 48.2825 181.704 49.6228 181.704 51.9191C181.704 54.2153 179.982 56.3193 176.92 56.3193C173.285 56.3193 170.604 54.2153 168.5 48.4736L167.16 48.8582L167.352 57.2773C169.649 58.2331 173.858 59 177.494 59C184.957 59 189.742 55.1711 189.742 49.2405C189.742 45.2216 187.636 42.9264 182.661 41.0114C177.302 38.9075 175.39 37.5682 175.39 35.0797C175.39 32.5923 177.115 30.8696 179.411 30.8696C182.854 30.8696 185.15 32.9746 186.875 38.1417L188.213 37.7594L188.017 30.2972ZM107.072 29.5314C103.82 27.6197 98.0787 28.5745 95.0178 35.4642L95.2079 28.7667L82.3886 31.2541V32.4022L83.7278 32.5934C85.4517 32.7857 86.2152 33.7415 86.4075 36.23C86.7898 40.8225 86.5987 48.8604 86.4075 52.8782C86.2152 55.1722 85.4517 56.3204 83.7278 56.5126L82.3886 56.7049V58.2354H100.184V56.7049L97.8875 56.5126C95.9748 56.3204 95.4001 55.1722 95.2079 52.8782C94.8255 49.2416 94.8255 41.9706 95.0178 37.3781C95.9736 36.0377 100.184 34.8907 104.01 37.3781L107.072 29.5314Z" fill="#0E0C16"/>
</svg>
