<svg width="234" height="32" viewBox="0 0 234 32" fill="none" xmlns="http://www.w3.org/2000/svg">
<g clip-path="url(#clip0_2752_2771)">
<path d="M51.6935 30.4757C49.9248 30.4757 48.2321 30.2241 46.6153 29.7209C44.9986 29.2178 43.7343 28.5854 42.8223 27.8238L44.1488 25.5391C45.0608 26.2463 46.2077 26.8243 47.5895 27.273C48.9713 27.7218 50.4084 27.9462 51.9008 27.9462C53.8906 27.9462 55.3622 27.6402 56.3156 27.0283C57.2691 26.4163 57.7458 25.5527 57.7458 24.4376C57.7458 23.6488 57.4833 23.03 56.9582 22.5813C56.4331 22.1325 55.7698 21.7925 54.9684 21.5613C54.1669 21.3301 53.1029 21.1057 51.7764 20.8881C50.0077 20.5618 48.5844 20.2286 47.5066 19.8886C46.4288 19.5486 45.5099 18.9706 44.7499 18.1547C43.9899 17.3387 43.6099 16.21 43.6099 14.7684C43.6099 12.9733 44.3699 11.5046 45.8899 10.3622C47.4099 9.21988 49.524 8.64871 52.2324 8.64871C53.6418 8.64871 55.0513 8.8323 56.4607 9.19949C57.8702 9.56667 59.0309 10.0494 59.9429 10.6478L58.6578 12.9733C56.8614 11.7494 54.7196 11.1374 52.2324 11.1374C50.3531 11.1374 48.9368 11.4638 47.9833 12.1166C47.0299 12.7693 46.5532 13.6261 46.5532 14.6868C46.5532 15.5028 46.8226 16.1556 47.3615 16.6451C47.9004 17.1347 48.5706 17.4951 49.372 17.7263C50.1735 17.9575 51.2789 18.1955 52.6884 18.4403C54.4295 18.7666 55.8251 19.093 56.8753 19.4194C57.9254 19.7458 58.8236 20.3034 59.5698 21.0921C60.316 21.8809 60.6891 22.9688 60.6891 24.356C60.6891 26.2327 59.8945 27.7218 58.3054 28.8234C56.7163 29.9249 54.5124 30.4757 51.6935 30.4757ZM134.709 -0.000488281V30.2717H131.89V26.0287C131.006 27.4702 129.838 28.5718 128.387 29.3334C126.936 30.0949 125.299 30.4757 123.475 30.4757C121.43 30.4757 119.578 30.0133 117.92 29.0886C116.262 28.1638 114.963 26.8719 114.023 25.2127C113.084 23.5536 112.614 21.6633 112.614 19.5418C112.614 17.4203 113.084 15.53 114.023 13.8709C114.963 12.2117 116.262 10.9266 117.92 10.0154C119.578 9.10429 121.43 8.64871 123.475 8.64871C125.244 8.64871 126.84 9.00909 128.263 9.72986C129.686 10.4506 130.854 11.5046 131.766 12.8917V-0.000488281H134.709ZM123.724 27.9054C125.244 27.9054 126.619 27.5586 127.848 26.8651C129.078 26.1715 130.045 25.1856 130.75 23.9072C131.455 22.6289 131.807 21.1737 131.807 19.5418C131.807 17.9099 131.455 16.4548 130.75 15.1764C130.045 13.8981 129.078 12.9121 127.848 12.2185C126.619 11.525 125.244 11.1782 123.724 11.1782C122.176 11.1782 120.787 11.525 119.557 12.2185C118.328 12.9121 117.36 13.8981 116.656 15.1764C115.951 16.4548 115.599 17.9099 115.599 19.5418C115.599 21.1737 115.951 22.6289 116.656 23.9072C117.36 25.1856 118.328 26.1715 119.557 26.8651C120.787 27.5586 122.176 27.9054 123.724 27.9054ZM148.209 30.4757C146.441 30.4757 144.748 30.2241 143.131 29.7209C141.514 29.2178 140.25 28.5854 139.338 27.8238L140.665 25.5391C141.577 26.2463 142.724 26.8243 144.105 27.273C145.487 27.7218 146.924 27.9462 148.417 27.9462C150.406 27.9462 151.878 27.6402 152.831 27.0283C153.785 26.4163 154.262 25.5527 154.262 24.4376C154.262 23.6488 153.999 23.03 153.474 22.5813C152.949 22.1325 152.286 21.7925 151.484 21.5613C150.683 21.3301 149.619 21.1057 148.292 20.8881C146.523 20.5618 145.1 20.2286 144.022 19.8886C142.945 19.5486 142.026 18.9706 141.266 18.1547C140.506 17.3387 140.126 16.21 140.126 14.7684C140.126 12.9733 140.886 11.5046 142.406 10.3622C143.926 9.21988 146.04 8.64871 148.748 8.64871C150.158 8.64871 151.567 8.8323 152.977 9.19949C154.386 9.56667 155.547 10.0494 156.459 10.6478L155.174 12.9733C153.377 11.7494 151.235 11.1374 148.748 11.1374C146.869 11.1374 145.453 11.4638 144.499 12.1166C143.546 12.7693 143.069 13.6261 143.069 14.6868C143.069 15.5028 143.338 16.1556 143.877 16.6451C144.416 17.1347 145.086 17.4951 145.888 17.7263C146.689 17.9575 147.795 18.1955 149.204 18.4403C150.945 18.7666 152.341 19.093 153.391 19.4194C154.441 19.7458 155.339 20.3034 156.086 21.0921C156.832 21.8809 157.205 22.9688 157.205 24.356C157.205 26.2327 156.41 27.7218 154.821 28.8234C153.232 29.9249 151.028 30.4757 148.209 30.4757ZM171.987 28.9662C171.434 29.4557 170.757 29.8297 169.955 30.0881C169.154 30.3465 168.311 30.4757 167.427 30.4757C165.382 30.4757 163.806 29.9317 162.701 28.8438C161.595 27.7558 161.043 26.2191 161.043 24.2336V4.12012H163.986V8.8119H170.577V11.2598H163.986V24.0704C163.986 25.3487 164.304 26.3211 164.939 26.9875C165.575 27.6538 166.501 27.987 167.717 27.987C169.043 27.987 170.121 27.6198 170.95 26.8855L171.987 28.9662ZM197.232 8.8119V30.2717H194.413V26.0287C193.529 27.4702 192.361 28.5718 190.911 29.3334C189.46 30.0949 187.822 30.4757 185.998 30.4757C183.953 30.4757 182.102 30.0133 180.443 29.0886C178.785 28.1638 177.486 26.8719 176.547 25.2127C175.607 23.5536 175.137 21.6633 175.137 19.5418C175.137 17.4203 175.607 15.53 176.547 13.8709C177.486 12.2117 178.785 10.9266 180.443 10.0154C182.102 9.10429 183.953 8.64871 185.998 8.64871C187.767 8.64871 189.363 9.00909 190.786 9.72986C192.209 10.4506 193.377 11.5046 194.289 12.8917V8.8119H197.232ZM186.247 27.9054C187.767 27.9054 189.142 27.5586 190.372 26.8651C191.601 26.1715 192.569 25.1856 193.273 23.9072C193.978 22.6289 194.331 21.1737 194.331 19.5418C194.331 17.9099 193.978 16.4548 193.273 15.1764C192.569 13.8981 191.601 12.9121 190.372 12.2185C189.142 11.525 187.767 11.1782 186.247 11.1782C184.699 11.1782 183.311 11.525 182.081 12.2185C180.851 12.9121 179.884 13.8981 179.179 15.1764C178.474 16.4548 178.122 17.9099 178.122 19.5418C178.122 21.1737 178.474 22.6289 179.179 23.9072C179.884 25.1856 180.851 26.1715 182.081 26.8651C183.311 27.5586 184.699 27.9054 186.247 27.9054ZM205.354 13.0141C206.045 11.5726 207.074 10.4846 208.442 9.75026C209.81 9.01589 211.503 8.64871 213.52 8.64871V11.4638L212.816 11.423C210.522 11.423 208.725 12.1165 207.427 13.5037C206.128 14.8908 205.478 16.8355 205.478 19.3378V30.2717H202.535V8.8119H205.354V13.0141ZM225.003 30.4757C223.234 30.4757 221.542 30.2241 219.925 29.7209C218.308 29.2178 217.044 28.5854 216.132 27.8238L217.458 25.5391C218.37 26.2463 219.517 26.8243 220.899 27.273C222.281 27.7218 223.718 27.9462 225.21 27.9462C227.2 27.9462 228.672 27.6402 229.625 27.0283C230.579 26.4163 231.055 25.5527 231.055 24.4376C231.055 23.6488 230.793 23.03 230.268 22.5813C229.743 22.1325 229.08 21.7925 228.278 21.5613C227.477 21.3301 226.413 21.1057 225.086 20.8881C223.317 20.5618 221.894 20.2286 220.816 19.8886C219.738 19.5486 218.82 18.9706 218.06 18.1547C217.3 17.3387 216.92 16.21 216.92 14.7684C216.92 12.9733 217.68 11.5046 219.2 10.3622C220.72 9.21988 222.834 8.64871 225.542 8.64871C226.952 8.64871 228.361 8.8323 229.77 9.19949C231.18 9.56667 232.341 10.0494 233.253 10.6478L231.967 12.9733C230.171 11.7494 228.029 11.1374 225.542 11.1374C223.663 11.1374 222.246 11.4638 221.293 12.1166C220.34 12.7693 219.863 13.6261 219.863 14.6868C219.863 15.5028 220.132 16.1556 220.671 16.6451C221.21 17.1347 221.88 17.4951 222.682 17.7263C223.483 17.9575 224.589 18.1955 225.998 18.4403C227.739 18.7666 229.135 19.093 230.185 19.4194C231.235 19.7458 232.133 20.3034 232.879 21.0921C233.626 21.8809 233.999 22.9688 233.999 24.356C233.999 26.2327 233.204 27.7218 231.615 28.8234C230.026 29.9249 227.822 30.4757 225.003 30.4757ZM109.278 20.2842H91.42C91.5823 22.549 92.4346 24.3787 93.9769 25.7735C95.5192 27.1683 97.4673 27.8657 99.8213 27.8657C101.147 27.8657 102.365 27.624 103.474 27.1407C104.583 26.6573 105.544 25.9461 106.356 25.0071L107.979 26.9128C107.032 28.0728 105.848 28.9566 104.428 29.5643C103.007 30.1719 101.445 30.4757 99.7401 30.4757C97.5485 30.4757 95.6071 29.9993 93.916 29.0464C92.2249 28.0935 90.9059 26.7747 89.9589 25.0899C89.0119 23.4051 88.5384 21.4994 88.5384 19.3727C88.5384 17.246 88.9916 15.3403 89.898 13.6555C90.8044 11.9708 92.0491 10.6588 93.6319 9.71978C95.2148 8.78072 96.9938 8.3112 98.969 8.3112C100.944 8.3112 102.716 8.78072 104.286 9.71978C105.855 10.6588 107.086 11.9638 107.979 13.6348C108.872 15.3058 109.318 17.2184 109.318 19.3727L109.278 20.2842ZM98.969 10.8384C96.9126 10.8384 95.1877 11.5081 93.7943 12.8477C92.4008 14.1872 91.6094 15.9341 91.42 18.0884H106.559C106.369 15.9341 105.578 14.1872 104.184 12.8477C102.791 11.5081 101.052 10.8384 98.969 10.8384ZM84.3418 20.2842H66.4839C66.6463 22.549 67.4986 24.3787 69.0408 25.7735C70.5831 27.1683 72.5312 27.8657 74.8852 27.8657C76.2111 27.8657 77.4286 27.624 78.538 27.1407C79.6473 26.6573 80.6079 25.9461 81.4196 25.0071L83.043 26.9128C82.096 28.0728 80.9123 28.9566 79.4917 29.5643C78.0712 30.1719 76.5087 30.4757 74.8041 30.4757C72.6124 30.4757 70.6711 29.9993 68.98 29.0464C67.2889 28.0935 65.9698 26.7747 65.0228 25.0899C64.0758 23.4051 63.6023 21.4994 63.6023 19.3727C63.6023 17.246 64.0555 15.3403 64.962 13.6555C65.8684 11.9708 67.113 10.6588 68.6959 9.71978C70.2787 8.78072 72.0577 8.3112 74.0329 8.3112C76.0081 8.3112 77.7804 8.78072 79.3497 9.71978C80.919 10.6588 82.1501 11.9638 83.043 13.6348C83.9359 15.3058 84.3824 17.2184 84.3824 19.3727L84.3418 20.2842ZM74.0329 10.8384C71.9766 10.8384 70.2517 11.5081 68.8582 12.8477C67.4648 14.1872 66.6733 15.9341 66.4839 18.0884H81.6225C81.4331 15.9341 80.6417 14.1872 79.2482 12.8477C77.8548 11.5081 76.1164 10.8384 74.0329 10.8384Z" fill="#0E0C16"/>
<path d="M12.5212 1.52344C12.1504 1.52344 11.8527 1.84151 11.8652 2.23118C11.943 4.57401 12.2491 8.42664 12.7842 13.7911C10.6355 12.503 7.24454 10.9898 2.61148 9.25073C2.26415 9.12061 1.87757 9.31751 1.76375 9.68721L0.0323238 15.3126C-0.0834537 15.6899 0.121937 16.094 0.486276 16.1939C3.90793 17.1384 7.50815 17.9969 11.2869 18.7666C9.79034 20.2159 7.34789 23.1287 3.95764 27.5074C3.71954 27.8151 3.77449 28.2743 4.08061 28.5056L8.51483 31.8681C8.8059 32.0884 9.21276 32.0257 9.42338 31.7207C11.0822 29.3187 12.9831 25.97 15.1253 21.6733C17.4199 25.833 19.4313 29.1796 21.1588 31.7152C21.3674 32.0237 21.7736 32.0898 22.0673 31.8715L26.5807 28.5063C26.8907 28.2757 26.947 27.8103 26.7056 27.5012C23.458 23.3435 20.924 20.432 19.1036 18.7666C22.709 18.3315 26.3845 17.4834 30.1299 16.2235C30.4759 16.1071 30.6682 15.7119 30.5564 15.3484L28.8106 9.67758C28.698 9.31131 28.318 9.11235 27.9713 9.2349C24.0794 10.6194 20.608 12.1216 17.5586 13.7416C18.1381 9.19841 18.4894 5.3623 18.6117 2.23393C18.6267 1.84357 18.3271 1.52344 17.9549 1.52344H12.5212Z" fill="#0E0C16"/>
</g>
<defs>
<clipPath id="clip0_2752_2771">
<rect width="234" height="32" fill="white"/>
</clipPath>
</defs>
</svg>
